<svg xmlns="http://www.w3.org/2000/svg" xmlns:xlink="http://www.w3.org/1999/xlink" width="412" height="1208.249" viewBox="0 0 412 1208.249"><defs><clipPath id="a"><rect width="153.544" height="84.579" fill="none"/></clipPath><clipPath id="b"><rect width="55.602" height="55.602" fill="none"/></clipPath><clipPath id="c"><rect width="123.689" height="96.117" fill="none"/></clipPath><clipPath id="d"><rect width="72.234" height="68.813" fill="none"/></clipPath><clipPath id="e"><rect width="76.85" height="104.439" fill="none"/></clipPath><clipPath id="f"><rect width="76.851" height="104.439" fill="none"/></clipPath><clipPath id="g"><rect width="65.763" height="86.588" fill="none"/></clipPath><clipPath id="h"><rect width="39.228" height="6.63" fill="none"/></clipPath><clipPath id="i"><rect width="66.493" height="90.359" fill="none"/></clipPath><clipPath id="k"><rect width="56.9" height="74.916" fill="none"/></clipPath><clipPath id="l"><rect width="33.939" height="5.738" fill="none"/></clipPath><clipPath id="m"><rect width="41.488" height="42.274" fill="none"/></clipPath><clipPath id="n"><rect width="41.488" height="42.275" fill="none"/></clipPath><clipPath id="o"><rect width="22.563" height="22.563" fill="#826be9"/></clipPath><clipPath id="p"><rect width="14.311" height="20.47" fill="none"/></clipPath><clipPath id="q"><rect width="82.216" height="107.872" fill="#12263f"/></clipPath><clipPath id="r"><rect width="43.841" height="60.649" fill="none"/></clipPath><clipPath id="t"><rect width="110.598" height="128.953" fill="none"/></clipPath></defs><g transform="translate(8999.9 9049.249)"><g transform="translate(1220.1 145.911)"><g transform="translate(-10220 -9195.16)"><rect width="412" height="1207.47" transform="translate(0 0)" fill="#f9f7ff"/><path d="M0,0H91.778a98.416,98.416,0,0,0,92.569,65,99.273,99.273,0,0,0,12.863-.837V153.5q-6.376.433-12.863.438C92.288,153.938,15.741,87.527,0,0Z" transform="translate(412 1011.039) rotate(90)" fill="#d6cffa"/><path d="M0,0H48.075A51.551,51.551,0,0,0,96.563,34.05a52,52,0,0,0,6.738-.438V80.405q-3.34.227-6.738.23A98.146,98.146,0,0,1,0,0Z" transform="translate(0 103.461) rotate(-90)" fill="#d6cffa"/></g></g><g transform="translate(1144.961 -131.482)"><path d="M135.123,277.4A67.561,67.561,0,1,1,67.561,209.84,67.562,67.562,0,0,1,135.123,277.4" transform="translate(-10005.183 -9090.831)" fill="#826be9"/><g transform="translate(-10015.633 -8883.842)"><g transform="translate(0 19.358)"><rect width="125.417" height="73.775" transform="translate(14.186)" fill="#fff"/><g transform="translate(0 0.444)"><path d="M0,0H38.567V2.98H0Z" transform="translate(32.74 37.506)" fill="#583ae2"/><rect width="39.651" height="1.053" transform="translate(90.979 14.922)" fill="#4d4d4d"/><rect width="45.66" height="1.053" transform="translate(84.969 17.524)" fill="#4d4d4d"/><rect width="45.66" height="1.053" transform="translate(84.969 20.122)" fill="#4d4d4d"/><rect width="39.845" height="1.053" transform="translate(84.969 22.721)" fill="#4d4d4d"/><rect width="44.786" height="3.917" transform="translate(85.405 7.375)" fill="#2ff980"/><path d="M14.279,34.553h3.455v-.178H14.279Zm0-3.986h3.455V30.39H14.279Zm8.835,0h1.924V30.39H23.115Zm-7.3,7.969h1.922v-.178H15.811Zm14.61,3.986h1.924v-.178H30.421Zm7.3,0h1.922v-.178H37.725Zm-14.61,0h1.924v-.178H23.115Zm-7.3,0h1.922v-.178H15.811Zm14.61-3.986h1.924v-.178H30.421ZM21.583,26.581h3.455v-.173h1.534l-4.989,0Zm1.531,11.955h1.924v-.178H23.115ZM14.279,26.581h3.455V26.4H14.279Zm16.141,3.986h1.924V30.39H30.421ZM9.785,22.6h9.484v-.178H9.785Zm13.33,11.955h1.924v-.178H23.115Zm7.306,0h1.924v-.178H30.421Zm7.3,3.983h1.922v-.178H37.725ZM9.785,34.553h.646v-.178H9.785Zm35.244,0h.646v-.178h-.646Zm0,3.983h.646v-.178h-.646Zm0-7.969h.646V30.39h-.646Zm-7.3,3.986h1.922v-.178H37.725ZM9.785,42.522h.646v-.178H9.785Zm35.244-15.94h.646V26.4h-.646ZM9.785,18.613h35.89v-.178H9.785ZM37.725,22.6h7.95v-.178h-7.95Zm7.3,19.923h.646v-.178h-.646ZM30.421,26.581h3.458V26.4H30.421ZM28.887,22.6h6.525v-.178H28.887Zm8.838,3.983H41.18V26.4H37.725Zm0,3.986H41.18V30.39H37.725ZM9.785,26.581h2.18V26.4H9.785Zm11.8-3.983h4.989v-.178H21.583Zm-11.8,7.969h.646V30.39H9.785Zm0,7.969h.646v-.178H9.785Z" transform="translate(13.374 25.197)" fill="#4d4d4d"/><rect width="1.531" height="13.521" transform="translate(24.195 54.019)" fill="#4d4d4d"/><rect width="1.534" height="17.493" transform="translate(25.727 50.048)" fill="#583ae2"/><rect width="1.534" height="6.762" transform="translate(27.26 60.779)" fill="#4d4d4d"/><rect width="1.534" height="18.437" transform="translate(31.499 49.103)" fill="#4d4d4d"/><rect width="1.531" height="19.923" transform="translate(33.033 47.617)" fill="#583ae2"/><rect width="1.534" height="13.772" transform="translate(34.564 53.768)" fill="#4d4d4d"/><rect width="1.534" height="15.543" transform="translate(38.803 51.998)" fill="#4d4d4d"/><rect width="1.531" height="22.775" transform="translate(40.337 44.765)" fill="#583ae2"/><rect width="1.534" height="17.992" transform="translate(41.868 49.548)" fill="#4d4d4d"/><rect width="1.534" height="12.797" transform="translate(46.107 54.743)" fill="#4d4d4d"/><rect width="1.534" height="18.818" transform="translate(47.641 48.722)" fill="#583ae2"/><rect width="1.531" height="20.678" transform="translate(49.174 46.862)" fill="#4d4d4d"/><rect width="1.534" height="10.525" transform="translate(53.413 57.015)" fill="#4d4d4d"/><rect width="1.534" height="17.372" transform="translate(54.945 50.168)" fill="#583ae2"/><rect width="1.534" height="17.992" transform="translate(56.478 49.548)" fill="#4d4d4d"/><rect width="2.532" height="2.532" transform="translate(62.381 43.695)" fill="#4d4d4d"/><rect width="2.532" height="2.532" transform="translate(62.381 47.515)" fill="#2ff980"/><rect width="2.532" height="2.532" transform="translate(62.381 51.338)" fill="#4d4d4d"/><rect width="14.26" height="1.039" transform="translate(66.632 44.441)" fill="#4d4d4d"/><rect width="14.26" height="1.037" transform="translate(66.632 48.263)" fill="#4d4d4d"/><rect width="14.26" height="1.037" transform="translate(66.632 52.086)" fill="#4d4d4d"/><rect width="12.781" height="0.613" transform="translate(49.768 18.364)" fill="#4d4d4d"/><rect width="8.591" height="0.613" transform="translate(49.768 19.665)" fill="#4d4d4d"/><rect width="12.783" height="0.613" transform="translate(65.642 18.364)" fill="#4d4d4d"/><rect width="5.782" height="0.613" transform="translate(65.642 19.665)" fill="#4d4d4d"/><rect width="26.697" height="1.117" transform="translate(51.797 24.233)" fill="#4d4d4d"/><rect width="28.725" height="1.117" transform="translate(49.768 26.581)" fill="#4d4d4d"/><rect width="28.725" height="1.117" transform="translate(49.768 28.929)" fill="#4d4d4d"/><rect width="11.41" height="1.117" transform="translate(49.768 31.277)" fill="#4d4d4d"/><g transform="translate(0 0)"><g clip-path="url(#a)"><path d="M27.316,15.883a12.349,12.349,0,0,0-12.35-12.35v12.35l7.943,9.448a12.311,12.311,0,0,0,4.407-9.448" transform="translate(20.455 4.83)" fill="#2ff980"/><path d="M27.955,8.549a4.238,4.238,0,0,0-4.227-4.821V8l4.227.554" transform="translate(32.431 5.096)" fill="#4d4d4d"/><path d="M26.192,8V3.728a4.267,4.267,0,1,0,4.227,4.821L26.192,8" transform="translate(29.966 5.096)" fill="#2ff980"/><path d="M21.66,3.728A12.329,12.329,0,0,0,10.553,21.446L21.66,16.078Z" transform="translate(12.729 5.096)" fill="#583ae2"/><path d="M20.946,8.946,9.836,14.314a12.325,12.325,0,0,0,19.05,4.08Zm-5.56,7.046h8.267V17.26H15.386Z" transform="translate(13.444 12.228)" fill="#4d4d4d"/><path d="M33.716,5.269a4.263,4.263,0,0,0-3.28-1.541V8l3.28-2.727" transform="translate(41.599 5.096)" fill="#2ff980"/><path d="M32.9,8V3.728a4.272,4.272,0,1,0,3.28,1.541L32.9,8" transform="translate(39.135 5.096)" fill="#4d4d4d"/><path d="M82.918,11.494c0-.1-47.286-.1-47.286-.1-.1.1-.1,41.97-.1,41.97a9.183,9.183,0,0,0,1.617.1v-.206H35.737V48.811h1.411v-.206H35.737V44.158h1.411v-.206H35.737V39.507h1.411V39.3H35.737V34.854h1.411v-.206H35.737V30.2h1.411V30H35.737V25.55H40.25v4.163h.206V25.55h4.516V30H43.561V30.2h1.411v4.445H43.561v.206h1.411V39.3H43.561v.206h1.411v4.445H43.561v.206h1.411v4.447H43.561v.206h1.411v4.445H43.561v.206h3.027v-.206H45.178V48.811h1.411v-.206H45.178V44.158h1.411v-.206H45.178V39.507h1.411V39.3H45.178V34.854h1.411v-.206H45.178V30.2h1.411V30H45.178V25.55h1.411v-.206H45.178V20.9h4.513v2.061H49.9V20.9h4.513v4.445H53v.206h1.411V30H53V30.2h1.411v4.445H53v.206h1.411V39.3H53v.206h1.411v4.445H53v.206h1.411v4.447H53v.206h1.411v4.445H53v.206h3.027v-.206H54.619V48.811h1.408v-.206H54.619V44.158h1.408v-.206H54.619V39.507h1.408V39.3H54.619V34.854h1.408v-.206H54.619V30.2h1.408V30H54.619V25.55h1.408v-.206H54.619V20.9h1.408v-.206H54.619V16.247h1.408V16.1h6.414v.142h1.411v4.447H62.441V20.9h1.411v4.445H62.441v.206h1.411V30H62.441V30.2h1.411v4.445H62.441v.206h1.411V39.3H62.441v.206h1.411v4.445H62.441v.206h1.411v4.447H62.441v.206h1.411v4.445H62.441v.206h3.027v-.206H64.06V48.811h1.408v-.206H64.06V44.158h1.408v-.206H64.06V39.507h1.408V39.3H64.06V34.854h1.408v-.206H64.06V30.2h1.408V30H64.06V25.55h1.408v-.206H64.06V20.9h4.513c0,.062.206.062.206.062,0-.062,4.513-.062,4.513-.062v4.445H71.882v.206h1.411V30H71.882V30.2h1.411v4.445H71.882v.206h1.411V39.3H71.882v.206h1.411v4.445H71.882v.206h1.411v4.447H71.882v.206h1.411v4.445H71.882v.206h3.027v-.206H73.5V48.811h1.411v-.206H73.5V44.158h1.411v-.206H73.5V39.507h1.411V39.3H73.5V34.854h1.411v-.206H73.5V30.2h1.411V30H73.5V25.55h1.411v-.206H73.5V20.9h1.411v-.206H73.5V16.247h1.411v-.206H73.5V11.6h4.513v.9h.208v-.9h4.513v4.445H81.323v.206h1.411v4.447H81.323V20.9h1.411v4.445H81.323v.206h1.411V30H81.323V30.2h1.411v4.445H81.323v.206h1.411V39.3H81.323v.206h1.411v4.445H81.323v.206h1.411v4.447H81.323v.206h1.411v4.445H81.323v.206h1.6c.021-.1.021-41.968.021-41.968ZM40.25,25.344H35.737V20.9H40.25Zm0-4.651H35.737V16.249H40.25Zm0-4.653H35.737V11.6H40.25Zm4.722,9.3H40.459V20.9h4.513Zm0-4.651H40.459V16.249h4.513Zm0-4.653H40.459V11.6h4.513Zm4.719,4.653H45.178V16.249h4.513Zm0-4.653H45.178V11.6h4.513Zm4.719,4.653H49.9V16.249h4.513Zm0-4.653H49.9V11.6h4.513Zm4.722,0H54.619V11.6h4.513Zm4.719,0H59.338V11.6h4.513Zm4.722,4.653H64.06V16.249h4.513Zm0-4.653H64.06V11.6h4.513Zm4.719,4.653H68.779V16.249h4.513Zm0-4.653H68.779V11.6h4.513Z" transform="translate(48.563 15.568)" fill="#4d4d4d"/><rect width="4.876" height="6.296" transform="translate(86.479 46.05)" fill="#583ae2"/><rect width="4.876" height="4.831" transform="translate(95.92 39.298)" fill="#583ae2"/><rect width="4.876" height="5.609" transform="translate(105.359 32.439)" fill="#583ae2"/><rect width="4.876" height="8.807" transform="translate(114.8 37.298)" fill="#583ae2"/><rect width="4.876" height="8.852" transform="translate(124.241 28.834)" fill="#583ae2"/><rect width="4.876" height="9.02" transform="translate(86.479 59.908)" fill="#583ae2"/><rect width="4.876" height="14.963" transform="translate(95.92 53.965)" fill="#583ae2"/><rect width="4.876" height="18.539" transform="translate(105.359 50.389)" fill="#583ae2"/><rect width="4.876" height="8.4" transform="translate(114.8 60.528)" fill="#583ae2"/><rect width="4.876" height="13.344" transform="translate(124.241 55.584)" fill="#583ae2"/><rect width="4.876" height="6.634" transform="translate(86.479 52.81)" fill="#4d4d4d"/><rect width="4.876" height="8.909" transform="translate(95.92 44.592)" fill="#4d4d4d"/><rect width="4.876" height="11.413" transform="translate(105.359 38.512)" fill="#4d4d4d"/><rect width="4.876" height="13.498" transform="translate(114.8 46.566)" fill="#4d4d4d"/><rect width="4.876" height="16.97" transform="translate(124.241 38.15)" fill="#4d4d4d"/><path d="M0,33.987c0,.241,3.122,4.139,6.468,4.139H147.076c3.347,0,6.468-3.9,6.468-4.139Zm26.21,2.308a.584.584,0,0,1-.585.582H14.873a.584.584,0,0,1-.585-.582v-.473a.586.586,0,0,1,.585-.585H25.625a.586.586,0,0,1,.585.585Zm1.527.509a.747.747,0,1,1,.746-.746.745.745,0,0,1-.746.746" transform="translate(0 46.453)" fill="#12263f"/><path d="M127.306,0H9.727A3.692,3.692,0,0,0,6.04,3.687V72.717A3.69,3.69,0,0,0,9.727,76.4H127.306a3.69,3.69,0,0,0,3.685-3.687V3.687A3.691,3.691,0,0,0,127.306,0M64.921,2.284h7.188a.593.593,0,1,1,0,1.186H64.921a.593.593,0,0,1,0-1.186M125.609,69.7H11.424V5.69H125.609Z" transform="translate(8.255 0.001)" fill="#12263f"/><path d="M0,32.7v2.045H146.4V33.621a.292.292,0,0,1,.585,0v1.127H148.1V33.621a.293.293,0,0,1,.587,0v1.127h1.117V33.621a.292.292,0,0,1,.585,0v1.127h3.153V32.7Z" transform="translate(0 44.698)" fill="#12263f"/></g></g></g></g><g transform="translate(94.581 0)"><g transform="translate(0 0)" clip-path="url(#b)"><path d="M55.6,27.8A27.8,27.8,0,1,1,27.8,0,27.8,27.8,0,0,1,55.6,27.8" transform="translate(0 -0.001)" fill="#583ae2"/><path d="M15.605,20.412h4.223V16.4a6.61,6.61,0,0,1,13.22,0v4.017H37.27a3.358,3.358,0,0,1,.659.065V16.4a11.491,11.491,0,0,0-22.982,0v4.082a3.347,3.347,0,0,1,.658-.065" transform="translate(1.363 0.447)" fill="#cadfeb"/><path d="M36.807,19.831H16.381a3.144,3.144,0,0,0-3.144,3.145V42.364a3.144,3.144,0,0,0,3.144,3.145H36.807a3.145,3.145,0,0,0,3.145-3.145V22.976a3.145,3.145,0,0,0-3.145-3.145M29.663,39.622H23.525l1.653-6.695a3.746,3.746,0,1,1,2.832,0Z" transform="translate(1.207 1.808)" fill="#cadfeb"/></g></g></g></g><g transform="translate(1144.52 801.43)"><path d="M135.123,277.4A67.561,67.561,0,1,1,67.561,209.84,67.562,67.562,0,0,1,135.123,277.4" transform="translate(-10005.183 -9090.831)" fill="#826be9"/><g transform="translate(-10999.611 -11678.804)"><g transform="translate(1001.061 2802.849)"><path d="M0,0H109.38V76.392H0Z" transform="translate(6.698 19.003)" fill="#d1d1d1"/><path d="M0,0,50.054,1.226,41.98,49.453,3.518,51.015Z" transform="translate(68.804 31.427)" fill="#2ff980"/><g transform="translate(0 0)"><g transform="translate(0 0)" clip-path="url(#c)"><path d="M6.971,43.448V20.261h104.3v7.659h3.782V18.362a1.6,1.6,0,0,0-1.6-1.6H61.146a1.6,1.6,0,0,1-1.484-1.006L54.611,3.1A4.921,4.921,0,0,0,50.04,0H14.9a4.921,4.921,0,0,0-4.571,3.1L5.283,15.758a1.642,1.642,0,0,1-1.522,1.006,1.6,1.6,0,0,0-1.559,1.6V43.448ZM25.239,5.4h25.7a1.243,1.243,0,0,1,1.243,1.243V12.2a1.243,1.243,0,0,1-1.243,1.243h-25.7Z" transform="translate(2.533 0)" fill="#12263f"/><path d="M119.176,12.985H66.6A3.267,3.267,0,0,0,63.543,15.1L59.787,25.06a5.341,5.341,0,0,1-5,3.453H3.271A3.27,3.27,0,0,0,.015,32.1L4.346,77.1a4.51,4.51,0,0,0,4.492,4.081H113.484a4.513,4.513,0,0,0,4.492-4.081l5.691-59.174a4.513,4.513,0,0,0-4.492-4.943m-4.917,12.7-24.95,36.55a3.9,3.9,0,0,1-3.124,1.727,2.886,2.886,0,0,1-2.713-1.688L74.354,41.833a3.711,3.711,0,0,1,1.813-4.61,3.091,3.091,0,0,1,4.425,1.234l6.822,15.294,21.409-31.364a3.618,3.618,0,0,1,4.73-1.3,3.176,3.176,0,0,1,.705,4.593" transform="translate(0 14.934)" fill="#40327b"/><path d="M73.014,34.936,70.421,55.371a6.128,6.128,0,0,1-5.885,5.251H37.329a4.518,4.518,0,0,1-4.552-5.251L36.249,28a6.13,6.13,0,0,1,5.885-5.251H65.968l2.3-3.376H42.562A10.072,10.072,0,0,0,32.9,28L29.423,55.371A7.422,7.422,0,0,0,36.9,64H64.109a10.076,10.076,0,0,0,9.669-8.626L77.134,28.9Z" transform="translate(33.759 22.277)" fill="#12263f"/><path d="M8.359,2.513H18.617V10.55H8.359A1.243,1.243,0,0,1,7.116,9.307V3.756A1.243,1.243,0,0,1,8.359,2.513" transform="translate(8.184 2.89)" fill="#583ae2"/></g></g></g><g transform="translate(1010.638 2806.222) rotate(20)"><path d="M0,0H51.305V51.306H0Z" transform="translate(7.634 16.63) rotate(-17.915)" fill="#12263f"/><path d="M7.363,54.078,29.356,43.106,7.852,0,6.618.4,27.692,42.644,0,56.458Z" transform="translate(41.121 3.267)" fill="#ccc"/><path d="M0,0H51.306V51.306H0Z" transform="translate(0 22.903) rotate(-26.513)" fill="#f6f6f6"/><g transform="translate(0 0)"><g clip-path="url(#d)"><path d="M7.4,6.148,3.717,7.988a1.3,1.3,0,0,1-1.743-.582L.137,3.718A1.3,1.3,0,0,1,.719,1.976L4.406.136A1.3,1.3,0,0,1,6.148.719L7.987,4.407A1.3,1.3,0,0,1,7.4,6.148M.945,2.431A.792.792,0,0,0,.59,3.491L2.429,7.178a.792.792,0,0,0,1.06.355l3.688-1.84a.791.791,0,0,0,.354-1.06L5.693.946A.792.792,0,0,0,4.632.591Z" transform="translate(19.112 49.403)" fill="#6d6e69"/><path d="M6.16,1.643,7.534,4.4a.792.792,0,0,1-.355,1.06L3.491,7.3a.792.792,0,0,1-1.06-.355L.591,3.254a.792.792,0,0,1,.354-1.06L4.176.582,4.2,0,.719,1.739A1.3,1.3,0,0,0,.136,3.48l1.84,3.688a1.3,1.3,0,0,0,1.742.582l3.687-1.84a1.3,1.3,0,0,0,.583-1.742L6.209.6Z" transform="translate(6.41 24.18)" fill="#6d6e69"/><path d="M3.7,7.259a.508.508,0,0,1-.507-.031L.228,5.266a.508.508,0,1,1,.56-.847L3,5.887l.255-5.4A.508.508,0,0,1,4.273.532l-.3,6.3a.507.507,0,0,1-.278.429l0,0" transform="translate(7.911 22.692)" fill="#6d6e69"/><path d="M6.16,1.642,7.534,4.395a.792.792,0,0,1-.355,1.06L3.491,7.3a.791.791,0,0,1-1.06-.355L.591,3.253a.792.792,0,0,1,.354-1.06L4.176.581,4.2,0,.719,1.738A1.3,1.3,0,0,0,.136,3.48l1.84,3.687a1.3,1.3,0,0,0,1.742.583L7.405,5.91a1.3,1.3,0,0,0,.583-1.742L6.209.6Z" transform="translate(10.644 32.668)" fill="#6d6e69"/><path d="M3.7,7.26a.508.508,0,0,1-.507-.031L.228,5.267a.508.508,0,1,1,.56-.847L3,5.888l.255-5.4A.508.508,0,1,1,4.273.532l-.3,6.3a.507.507,0,0,1-.278.429l0,0" transform="translate(12.144 31.178)" fill="#6d6e69"/><path d="M6.16,1.642,7.534,4.395a.791.791,0,0,1-.355,1.06L3.491,7.3a.792.792,0,0,1-1.06-.354L.591,3.253a.792.792,0,0,1,.354-1.06L4.176.581,4.2,0,.719,1.738A1.3,1.3,0,0,0,.136,3.48l1.84,3.688a1.3,1.3,0,0,0,1.742.582L7.405,5.91a1.3,1.3,0,0,0,.583-1.742L6.209.6Z" transform="translate(14.878 41.155)" fill="#6d6e69"/><path d="M3.7,7.26a.508.508,0,0,1-.507-.031L.228,5.267a.508.508,0,0,1,.56-.847L3,5.888l.255-5.4A.508.508,0,1,1,4.273.533l-.3,6.3a.506.506,0,0,1-.278.429l0,0" transform="translate(16.378 39.665)" fill="#6d6e69"/><path d="M8.989,19.194,4.234,21.566,5.9,24.9l4.755-2.372Zm6.981,7.117-7.5,3.743,1.663,3.334,7.5-3.742ZM9.964,8.109,0,13.079l1.663,3.335,9.964-4.972ZM20.517,2.845,12.276,6.955l1.663,3.334L22.18,6.178ZM12.963,21.376l7.995-3.988-1.663-3.335L11.3,18.042Zm1.4,20.5,3.6-1.8L16.3,36.745l-3.6,1.8ZM22.828,1.692l1.663,3.335,3.391-1.692L26.219,0Zm.441,14.543,7.067-3.525L28.672,9.376,21.605,12.9Zm4.755,18.826,9.756-4.867L36.116,26.86,26.36,31.727Zm-7.748,3.865,5.437-2.712-1.663-3.335-5.437,2.713Zm-.332-10.433,16.406-8.184-1.663-3.334L18.28,25.158Z" transform="translate(17 9.587)" fill="#6d6e69"/></g></g></g></g></g><g transform="translate(1144.52 566.142)"><path d="M135.123,277.4A67.561,67.561,0,1,1,67.561,209.84,67.562,67.562,0,0,1,135.123,277.4" transform="translate(-10005.183 -9090.831)" fill="#826be9"/></g><g transform="translate(1144.52 329.401)"><path d="M135.123,277.4A67.561,67.561,0,1,1,67.561,209.84,67.562,67.562,0,0,1,135.123,277.4" transform="translate(-10005.183 -9090.831)" fill="#826be9"/><g transform="translate(-482.222 863.371)"><g transform="translate(-9507.406 -9746.262)"><g clip-path="url(#e)"><g transform="translate(0 0)"><g clip-path="url(#f)"><path d="M.906,101.843a.906.906,0,0,1-.9-.9V9.729a.906.906,0,0,1,.9-.9h75.04a.907.907,0,0,1,.906.906v91.208a.906.906,0,0,1-.9.906Z" transform="translate(0 2.596)" fill="#12263f"/><g transform="translate(7.674 16.504)" opacity="0.6" style="mix-blend-mode:multiply;isolation:isolate"><g clip-path="url(#g)"><rect width="65.763" height="86.588" transform="translate(0 0)" fill="#999"/></g></g><path d="M0,0H65.771V87.417H0Z" transform="translate(5.54 13.724)" fill="#583ae2"/><rect width="60.36" height="82.423" transform="translate(9.268 17.391)" fill="#ccc"/><rect width="60.36" height="82.423" transform="translate(8.247 16.219)" fill="#fff"/><rect width="37.424" height="2.969" transform="translate(11.343 19.323)" fill="#666"/><rect width="37.424" height="0.938" transform="translate(11.343 23.776)" fill="#999"/><rect width="30.283" height="0.938" transform="translate(14.913 25.583)" fill="#999"/><rect width="10.644" height="2.801" transform="translate(54.868 31.002)" fill="#666"/><rect width="10.644" height="0.672" transform="translate(54.868 37.445)" fill="#999"/><rect width="10.644" height="0.672" transform="translate(54.868 38.965)" fill="#999"/><rect width="6.275" height="0.672" transform="translate(54.868 40.484)" fill="#999"/><path d="M50.488,23.654H10.316V48.428h.158v-3.07h2.92v3.07h.158v-3.07h2.92v3.07h.158v-3.07H19.55v3.07h.158v-3.07h2.92v3.07h.158v-3.07h2.92v3.07h.158v-3.07h2.92v3.07h.159v-3.07h2.92v3.07h.158v-3.07h2.92v3.07H35.1v-3.07h2.92v3.07h.158v-3.07H41.1v3.07h.159v-3.07h2.92v3.07h.158v-3.07h2.92v3.07h.158v-3.07h2.92v3.07h.158Zm-12.47,9.234H35.1v-2.92h2.92Zm.158-2.92H41.1v2.92h-2.92Zm-3.236,2.92h-2.92v-2.92h2.92Zm-3.078,0h-2.92v-2.92h2.92Zm-3.079,0h-2.92v-2.92h2.92Zm-3.078,0h-2.92v-2.92h2.92Zm-3.078,0h-2.92v-2.92h2.92Zm-3.078,0h-2.92v-2.92h2.92Zm0,.158v2.92H16.629v-2.92Zm.158,0h2.92v2.92h-2.92Zm3.078,0h2.92v2.92h-2.92Zm3.078,0h2.92v2.92h-2.92Zm3.079,0h2.92v2.92h-2.92Zm3.078,0h2.92v2.92h-2.92Zm3.078,0h2.92v2.92H35.1Zm3.078,0H41.1v2.92h-2.92Zm3.079,0h2.92v2.92h-2.92Zm0-3.078h2.92v2.92h-2.92Zm0-3.078h2.92v2.92h-2.92Zm-.159,2.92h-2.92v-2.92H41.1Zm-3.078,0H35.1v-2.92h2.92Zm-3.078,0h-2.92v-2.92h2.92Zm-3.078,0h-2.92v-2.92h2.92Zm-3.079,0h-2.92v-2.92h2.92Zm-3.078,0h-2.92v-2.92h2.92Zm-3.078,0h-2.92v-2.92h2.92Zm-3.078,0h-2.92v-2.92h2.92Zm-3.079,0h-2.92v-2.92h2.92Zm0,3.078h-2.92v-2.92h2.92Zm0,.158v2.92h-2.92v-2.92Zm0,6h-2.92v-2.92h2.92Zm.158-2.921h2.92v2.92h-2.92Zm3.079,0h2.92v2.921h-2.92Zm3.078,0h2.92v2.921h-2.92Zm3.078,0h2.92v2.92h-2.92Zm3.079,0h2.92v2.92h-2.92Zm3.078,0h2.92v2.92h-2.92Zm3.078,0h2.92v2.92H35.1Zm3.078,0H41.1v2.92h-2.92Zm3.079,0h2.92v2.92h-2.92Zm3.078,0h2.92v2.92h-2.92Zm0-3.078h2.92v2.92h-2.92Zm0-3.078h2.92v2.92h-2.92Zm0-3.078h2.92v2.92h-2.92Zm0-3.079h2.92v2.92h-2.92Zm-.158,2.92h-2.92v-2.92h2.92Zm-3.079,0h-2.92v-2.92H41.1Zm-3.078,0H35.1v-2.92h2.92Zm-3.078,0h-2.92v-2.92h2.92Zm-3.078,0h-2.92v-2.92h2.92Zm-3.079,0h-2.92v-2.92h2.92Zm-3.078,0h-2.92v-2.92h2.92Zm-3.078,0h-2.92v-2.92h2.92Zm-3.078,0h-2.92v-2.92h2.92Zm-3.079,0h-2.92v-2.92h2.92Zm-3.078,0h-2.92v-2.92h2.92Zm0,3.079h-2.92v-2.92h2.92Zm0,.158v2.92h-2.92v-2.92Zm0,6h-2.92v-2.92h2.92Zm0,3.079h-2.92v-2.92h2.92Zm0,3.078h-2.92V39.2h2.92Zm.158-2.92h2.92v2.92h-2.92Zm3.078,0h2.92v2.92h-2.92Zm3.079,0h2.92v2.92h-2.92Zm3.078,0h2.92v2.92h-2.92Zm3.078,0h2.92v2.92h-2.92Zm3.079,0h2.92v2.92h-2.92Zm3.078,0h2.92v2.92h-2.92Zm3.078,0h2.92v2.92H35.1Zm3.078,0H41.1v2.92h-2.92Zm3.079,0h2.92v2.92h-2.92Zm3.078,0h2.92v2.92h-2.92Zm3.078,0h2.92v2.92H47.41Zm0-3.079h2.92v2.92H47.41Zm0-3.078h2.92v2.92H47.41Zm0-3.078h2.92v2.92H47.41Zm0-3.078h2.92v2.92H47.41Zm0-3.079h2.92v2.92H47.41ZM10.474,42.281h2.92V45.2h-2.92Zm3.078,0h2.92V45.2h-2.92Zm3.078,0h2.92V45.2h-2.92Zm3.079,0h2.92V45.2h-2.92Zm3.078,0h2.92V45.2h-2.92Zm3.078,0h2.92V45.2h-2.92Zm3.079,0h2.92V45.2h-2.92Zm3.078,2.92v-2.92h2.92V45.2Zm3.078-2.92h2.92V45.2H35.1Zm3.078,0H41.1V45.2h-2.92Zm3.079,0h2.92V45.2h-2.92Zm3.078,0h2.92V45.2h-2.92Zm3.078,0h2.92V45.2H47.41Z" transform="translate(3.035 6.96)" fill="#ccc"/><rect width="3.362" height="7.565" transform="translate(15.539 47.91)" fill="#45bbcc"/><rect width="3.362" height="10.847" transform="translate(22.023 44.628)" fill="#583ae2"/><rect width="3.362" height="6.444" transform="translate(28.508 49.031)" fill="#45bbcc"/><rect width="3.362" height="14.85" transform="translate(34.993 40.625)" fill="#ab9df1"/><rect width="3.362" height="24.856" transform="translate(41.476 30.619)" fill="#2ff980"/><rect width="3.362" height="26.377" transform="translate(47.96 29.098)" fill="#583ae2"/><rect width="40.186" height="0.32" transform="translate(13.337 55.316)" fill="#666"/><rect width="1.921" height="0.827" transform="translate(16.261 56.476)" fill="#666"/><rect width="1.921" height="0.827" transform="translate(22.745 56.476)" fill="#666"/><rect width="1.921" height="0.827" transform="translate(29.229 56.476)" fill="#666"/><rect width="1.921" height="0.827" transform="translate(35.713 56.476)" fill="#666"/><rect width="1.921" height="0.827" transform="translate(42.198 56.476)" fill="#666"/><rect width="1.921" height="0.827" transform="translate(48.682 56.476)" fill="#666"/><rect width="1.781" height="0.827" transform="translate(11.001 53.278)" fill="#666"/><rect width="1.781" height="0.827" transform="translate(11.001 50.274)" fill="#666"/><rect width="1.781" height="0.827" transform="translate(11.001 47.208)" fill="#666"/><rect width="1.781" height="0.827" transform="translate(11.001 44.14)" fill="#666"/><rect width="1.781" height="0.827" transform="translate(11.001 41.073)" fill="#666"/><rect width="1.781" height="0.827" transform="translate(11.001 38.006)" fill="#666"/><rect width="1.781" height="0.827" transform="translate(11.001 34.939)" fill="#666"/><rect width="1.781" height="0.827" transform="translate(11.001 31.872)" fill="#666"/><rect width="51.102" height="0.672" transform="translate(14.41 59.292)" fill="#999"/><rect width="54.169" height="0.672" transform="translate(11.343 61.113)" fill="#999"/><rect width="17.687" height="0.672" transform="translate(11.343 62.933)" fill="#999"/><rect width="21.061" height="2.997" transform="translate(36.846 66.117)" fill="#666"/><rect width="26.493" height="0.672" transform="translate(39.019 71.348)" fill="#999"/><rect width="28.668" height="0.672" transform="translate(36.844 73.204)" fill="#999"/><rect width="10.615" height="0.672" transform="translate(36.846 75.06)" fill="#999"/><rect width="22.543" height="2.997" transform="translate(11.343 85.605)" fill="#666"/><rect width="28.357" height="0.672" transform="translate(13.67 90.108)" fill="#999"/><rect width="30.684" height="0.672" transform="translate(11.343 91.964)" fill="#999"/><rect width="11.362" height="0.672" transform="translate(11.343 93.82)" fill="#999"/><path d="M23.672,53.648a7.481,7.481,0,0,0-11.538,3.005l6.759,2.288Z" transform="translate(3.57 15.313)" fill="#45bbcc"/><path d="M11.94,56.343a7.52,7.52,0,0,0-.01,3.795l5.66-1.882Z" transform="translate(3.44 16.578)" fill="#ab9df1"/><path d="M12.122,60.521A7.487,7.487,0,0,0,22.6,64.272L18.831,58.29Z" transform="translate(3.567 17.151)" fill="#583ae2"/><path d="M22.706,53.805,17.96,59.061l3.777,5.991a7.479,7.479,0,0,0,.969-11.247" transform="translate(5.285 15.832)" fill="#5bf769"/><rect width="1.84" height="0.936" transform="translate(15.774 74.295)" fill="#666"/><path d="M13.931,57.559v.683H12.343v-.683Zm.252-.252H12.091V58.5h2.093V57.307Z" transform="translate(3.558 16.862)" fill="#fff"/><rect width="1.84" height="0.936" transform="translate(20.167 78.755)" fill="#666"/><path d="M17.324,61.689H15.736v-.683h1.588Zm.252-.936H15.484v1.188h2.093V60.753Z" transform="translate(4.556 17.876)" fill="#fff"/><rect width="1.84" height="0.936" transform="translate(26.322 74.693)" fill="#666"/><path d="M22.08,57.867v.683H20.492v-.683Zm.252-.252H20.24V58.8h2.093V57.615Z" transform="translate(5.956 16.953)" fill="#fff"/><rect width="1.84" height="0.936" transform="translate(20.65 69.61)" fill="#666"/><path d="M17.7,53.939v.683H16.11v-.683Zm.252-.252H15.858v1.188h2.093V53.687Z" transform="translate(4.666 15.797)" fill="#fff"/><path d="M44.451,61.887c-.126-.006-.252-.009-.381-.009a7.469,7.469,0,0,0-6.084,3.129l5.56,3.265Z" transform="translate(11.177 18.207)" fill="#45bbcc"/><path d="M48.25,63.95l-4.966,4.978,2.305,6.642A7.479,7.479,0,0,0,48.25,63.95" transform="translate(12.736 18.817)" fill="#583ae2"/><path d="M44.182,62.031l-.762,5.381,3.837-3.848a7.46,7.46,0,0,0-3.075-1.534" transform="translate(12.776 18.252)" fill="#2c2cf7"/><path d="M37.622,65.19A7.484,7.484,0,0,0,46.2,75.646L43.834,68.84Z" transform="translate(10.859 19.182)" fill="#2ff980"/><rect width="1.84" height="0.936" transform="translate(52.27 82.506)" fill="#666"/><path d="M42.129,63.9v.683H40.541V63.9Zm.252-.252H40.289v1.188h2.093V63.651Z" transform="translate(11.855 18.729)" fill="#fff"/><rect width="1.84" height="0.936" transform="translate(51.199 90.236)" fill="#666"/><path d="M41.3,69.876v.683H39.714v-.683Zm.252-.252H39.462v1.188h2.093V69.624Z" transform="translate(11.612 20.486)" fill="#fff"/><rect width="1.84" height="0.936" transform="translate(58.804 88.108)" fill="#666"/><path d="M47.177,68.232v.683H45.589v-.683Zm.252-.252H45.337v1.188H47.43V67.98Z" transform="translate(13.34 20.003)" fill="#fff"/><rect width="1.84" height="0.936" transform="translate(57.081 81.513)" fill="#666"/><path d="M45.846,63.819H44.258v-.683h1.588Zm.252-.936H44.006v1.188H46.1V62.883Z" transform="translate(12.949 18.503)" fill="#fff"/><path d="M31.307,68.761H8.763V50.939H31.307ZM8.933,68.593H31.14V51.107H8.933Z" transform="translate(2.578 14.988)" fill="#ccc"/><path d="M55.285,78.855H34.757V60.61H55.285ZM34.91,78.683H55.132v-17.9H34.91Z" transform="translate(10.227 17.834)" fill="#ccc"/><rect width="10.644" height="0.672" transform="translate(54.868 19.324)" fill="#999"/><rect width="10.644" height="0.672" transform="translate(54.868 20.962)" fill="#999"/><rect width="10.644" height="0.672" transform="translate(54.868 22.6)" fill="#999"/><rect width="4.425" height="0.672" transform="translate(54.869 24.239)" fill="#999"/><g transform="translate(18.811 11.42)" opacity="0.6" style="mix-blend-mode:multiply;isolation:isolate"><g clip-path="url(#h)"><path d="M14.688,8.824a7.42,7.42,0,0,0-.153,1.475v2.9a2.258,2.258,0,0,0,2.255,2.256H51.508A2.248,2.248,0,0,0,53.762,13.2V10.3a7.39,7.39,0,0,0-.148-1.475Z" transform="translate(-14.534 -8.824)" fill="#999"/></g></g><path d="M46.15,6.224h-3.3a1.35,1.35,0,0,1-1.35-1.351A4.874,4.874,0,0,0,36.631,0H30.173A4.873,4.873,0,0,0,25.3,4.873a1.351,1.351,0,0,1-1.351,1.351H21.8A6.672,6.672,0,0,0,15.126,12.9v2.9a1.49,1.49,0,0,0,1.49,1.49H51.333a1.489,1.489,0,0,0,1.49-1.488V12.9A6.672,6.672,0,0,0,46.15,6.224M37.2,4.169H30.745a.94.94,0,1,1,0-1.879H37.2a.94.94,0,1,1,0,1.879" transform="translate(4.451 0)" fill="#424a4a"/><path d="M16.5,16.683a1,1,0,0,1-1-1v-2.9A6.189,6.189,0,0,1,21.686,6.6h2.151a1.842,1.842,0,0,0,1.84-1.84A4.39,4.39,0,0,1,30.061.378h6.46A4.384,4.384,0,0,1,40.9,4.762a1.843,1.843,0,0,0,1.84,1.84h3.294a6.182,6.182,0,0,1,6.183,6.183v2.9a1,1,0,0,1-1,1ZM30.633,1.689a1.429,1.429,0,1,0,0,2.858h6.458a1.429,1.429,0,0,0,0-2.858Z" transform="translate(4.562 0.111)" fill="#12263f"/><path d="M26.818,3.118a1.43,1.43,0,0,1,1.429-1.429h6.46a1.43,1.43,0,0,1,1.429,1.429H38.2A4.387,4.387,0,0,0,34.135.378H27.676a4.388,4.388,0,0,0-4.061,2.74Z" transform="translate(6.949 0.111)" fill="#12263f"/><path d="M52.22,12.358l-36.716,0v1.913a1,1,0,0,0,1,1H51.221a1,1,0,0,0,1-1ZM50.41,7a6.14,6.14,0,0,0-4.345-1.809H21.67a6.186,6.186,0,0,0-5.783,4.059l35.954,0A6.14,6.14,0,0,0,50.41,7" transform="translate(4.562 1.526)" fill="#12263f"/></g></g></g></g><g transform="translate(-9467.968 -9732.115)"><g clip-path="url(#i)"><g transform="translate(0 0)"><g clip-path="url(#i)"><path d="M.789,89.009a.784.784,0,0,1-.783-.783L0,9.315a.783.783,0,0,1,.783-.783l64.922,0a.784.784,0,0,1,.783.783l.006,78.909a.783.783,0,0,1-.783.783Z" transform="translate(0 1.35)" fill="#12263f"/><g transform="translate(6.64 14.277)" opacity="0.6" style="mix-blend-mode:multiply;isolation:isolate"><g clip-path="url(#k)"><rect width="56.895" height="74.912" transform="translate(0.003 0.002)" fill="#999"/></g></g><path d="M0,0H56.9V75.63H0Z" transform="translate(4.795 11.873)" fill="#583ae2"/><path d="M0,0H52.221V71.308H0Z" transform="translate(7.136 14.034)" fill="#f3eefe"/><rect width="32.174" height="0.57" transform="translate(24.962 32.505)" fill="#999"/><rect width="47.778" height="0.57" transform="translate(9.358 36.421)" fill="#999"/><rect width="47.778" height="0.57" transform="translate(9.357 40.337)" fill="#999"/><path d="M8.079,25.235v3.846H22.536V25.235Zm9.388,2.884H9.654V26.2h7.813Zm3.492,0h-1.8V26.2h1.8Z" transform="translate(1.279 3.995)" fill="#666"/><rect width="24.193" height="1.495" transform="translate(25.875 30.12)" fill="#666"/><rect width="32.173" height="0.57" transform="translate(24.963 47.661)" fill="#999"/><rect width="47.778" height="0.57" transform="translate(9.357 51.577)" fill="#999"/><rect width="47.778" height="0.57" transform="translate(9.357 55.493)" fill="#999"/><path d="M8.079,38.319v3.846H22.536V38.32ZM17.467,41.2H9.654V39.28h7.813Zm3.492,0h-1.8V39.28h1.8Z" transform="translate(1.279 6.066)" fill="#666"/><rect width="24.193" height="1.495" transform="translate(25.875 45.276)" fill="#666"/><rect width="32.174" height="0.57" transform="translate(24.962 62.817)" fill="#999"/><rect width="47.778" height="0.57" transform="translate(9.357 66.733)" fill="#999"/><rect width="47.778" height="0.57" transform="translate(9.357 70.649)" fill="#999"/><rect width="47.778" height="0.57" transform="translate(9.357 74.565)" fill="#999"/><path d="M8.079,51.4v3.846H22.534V51.405Zm9.388,2.884H9.654V52.365h7.813Zm3.492,0h-1.8V52.365h1.8Z" transform="translate(1.279 8.137)" fill="#666"/><rect width="24.193" height="1.495" transform="translate(25.875 60.431)" fill="#666"/><rect width="12.348" height="0.576" transform="translate(19.342 81.547)" fill="#999"/><rect width="9.435" height="2.879" transform="translate(9.357 79.242)" fill="#666"/><rect width="12.348" height="0.576" transform="translate(44.787 81.547)" fill="#999"/><rect width="9.435" height="2.879" transform="translate(34.801 79.242)" fill="#666"/><g transform="translate(16.274 9.88)" opacity="0.6" style="mix-blend-mode:multiply;isolation:isolate"><g clip-path="url(#l)"><path d="M14.183,8.531a6.3,6.3,0,0,0-.132,1.278v2.507A1.954,1.954,0,0,0,16,14.267l30.035,0a1.992,1.992,0,0,0,.372-.035,1.955,1.955,0,0,0,1.58-1.917V9.805a6.447,6.447,0,0,0-.127-1.276Z" transform="translate(-14.05 -8.529)" fill="#999"/></g></g><path d="M41.462,5.385H38.612a1.169,1.169,0,0,1-1.169-1.169A4.217,4.217,0,0,0,33.228,0H27.64a4.217,4.217,0,0,0-4.216,4.217,1.169,1.169,0,0,1-1.169,1.169H20.394a5.772,5.772,0,0,0-5.772,5.773v2.508a1.288,1.288,0,0,0,1.289,1.288l30.035,0a1.288,1.288,0,0,0,1.289-1.288V11.157a5.771,5.771,0,0,0-5.773-5.772m-7.74-1.778H28.135a.813.813,0,1,1,0-1.625h5.588a.813.813,0,1,1,0,1.625" transform="translate(2.314 0)" fill="#424a4a"/><path d="M15.853,14.473a.866.866,0,0,1-.865-.864V11.1a5.356,5.356,0,0,1,5.349-5.35H22.2A1.594,1.594,0,0,0,23.79,4.159,3.8,3.8,0,0,1,27.582.366H33.17a3.792,3.792,0,0,1,3.793,3.792A1.593,1.593,0,0,0,38.554,5.75h2.851A5.349,5.349,0,0,1,46.754,11.1v2.508a.866.866,0,0,1-.865.865ZM28.077,1.5a1.236,1.236,0,0,0,0,2.473h5.588a1.236,1.236,0,0,0,0-2.473Z" transform="translate(2.372 0.058)" fill="#12263f"/><path d="M25.6,2.736A1.238,1.238,0,0,1,26.836,1.5h5.589A1.238,1.238,0,0,1,33.66,2.735h1.786A3.8,3.8,0,0,0,31.93.366H26.341a3.8,3.8,0,0,0-3.513,2.369Z" transform="translate(3.613 0.058)" fill="#12263f"/><path d="M46.754,11.218H14.989v1.655a.866.866,0,0,0,.865.864l30.035,0a.866.866,0,0,0,.864-.865ZM45.188,6.58a5.317,5.317,0,0,0-3.76-1.565H20.323a5.351,5.351,0,0,0-5,3.513H46.427A5.343,5.343,0,0,0,45.188,6.58" transform="translate(2.373 0.794)" fill="#12263f"/><text transform="translate(18.669 21.975)" fill="#12263f" font-size="4" font-family="Roboto-Bold, Roboto" font-weight="700" opacity="0.69"><tspan x="0" y="0">Auditoria</tspan></text></g></g></g></g><g transform="translate(-9423.915 -9681.621) rotate(43)"><g clip-path="url(#m)"><rect width="4.126" height="6.103" transform="translate(21.988 25.097) rotate(-43.943)" fill="#727371"/><rect width="1.309" height="6.103" transform="translate(23.473 23.666) rotate(-43.942)" fill="#acadaa"/><g transform="translate(0 0)"><g clip-path="url(#n)"><path d="M4.111,4.99l.834-.8a1.484,1.484,0,0,0,.039-2.1L2.971,0,0,2.863,2.013,4.952a1.484,1.484,0,0,0,2.1.039" transform="translate(36.089 36.869)" fill="#727371"/><path d="M.2,0,2.036,1.9a1.483,1.483,0,0,0,2.1.039l.835-.8A1.476,1.476,0,0,0,5.39.368,1.472,1.472,0,0,1,4.945,1.52l-.835.8a1.483,1.483,0,0,1-2.1-.039L0,.2Z" transform="translate(36.089 39.535)" fill="#474746"/><path d="M3.256,6.186,6.222,3.328a.956.956,0,0,0,.025-1.352L4.342,0,0,4.185,1.9,6.161a.956.956,0,0,0,1.352.025" transform="translate(20.335 20.57)"/><path d="M.072,1.556a.046.046,0,0,0-.059.07c.463.506.678.8.964.773.41-.034.965-.711,2.6-2.319A.046.046,0,0,0,3.514.01C1.883,1.306,1.358,1.857.931,1.916c-.252.034-.469-.1-.859-.359" transform="translate(21.959 24.149)" fill="#696969"/><path d="M4.248,3.886A13.88,13.88,0,1,1,23.512,23.875a14.1,14.1,0,0,1-1.579,1.311A13.88,13.88,0,0,1,4.248,3.886M21.72,21.993A11.282,11.282,0,1,0,5.768,21.7a11.282,11.282,0,0,0,15.952.295" transform="translate(0 0)" fill="#40327b"/><path d="M19.689,19.992a11.623,11.623,0,1,1,.3-16.435,11.623,11.623,0,0,1-.3,16.435M3.795,3.5a11.282,11.282,0,1,0,15.952.295A11.282,11.282,0,0,0,3.795,3.5" transform="translate(2.268 2.247)" fill="#f6f6f6"/><g transform="translate(2.61 2.588)"><g opacity="0.72"><g clip-path="url(#o)"><path d="M3.453,3.158A11.282,11.282,0,1,1,3.158,19.11,11.281,11.281,0,0,1,3.453,3.158" transform="translate(0 0)" fill="#826be9"/></g></g></g><g transform="translate(3.524 3.503)" opacity="0.6" style="mix-blend-mode:screen;isolation:isolate"><g clip-path="url(#p)"><path d="M2.8,15.646A10.363,10.363,0,0,1,14.311.783,10.363,10.363,0,1,0,8.065,20.47,10.323,10.323,0,0,1,2.8,15.646" transform="translate(0 0)" fill="#fff"/></g></g><rect width="4.126" height="2.856" transform="matrix(0.72, -0.694, 0.694, 0.72, 36.089, 39.732)" fill="#474746"/><path d="M12.828,16.564l3.416-3.292a1.049,1.049,0,0,0,.062-1.481L5.236.3A1.048,1.048,0,0,0,3.754.31L.339,3.6a1.048,1.048,0,0,0-.062,1.48L11.346,16.571a1.048,1.048,0,0,0,1.482-.007" transform="translate(24.709 25.136)"/><path d="M1.28,2.45C1.647,1.917,2.386.856,2.888.136a.086.086,0,0,0-.131-.11L.279,2.432a.918.918,0,0,0-.021,1.3L8.8,12.567a.086.086,0,0,0,.128-.115c-2.058-2.4-5.435-6.306-7.67-8.7a1.006,1.006,0,0,1,.021-1.3" transform="translate(25.798 26.439)" fill="#696969"/><path d="M4.248,3.886A13.88,13.88,0,1,1,23.512,23.874a14.032,14.032,0,0,1-1.579,1.311A13.88,13.88,0,0,1,4.248,3.886M21.712,24.876A13.5,13.5,0,1,0,4.159,23.248a13.61,13.61,0,0,0,17.553,1.628" transform="translate(0 0)" fill="#583ae2"/></g></g></g></g></g></g><g transform="translate(-9765.46 -10915.155)"><g transform="translate(931.569 2592.853)"><rect width="72.543" height="93.543" transform="translate(5.727 10.499)" fill="#fff"/><g transform="translate(0 0)"><g clip-path="url(#q)"><path d="M82.216,7.564a2.506,2.506,0,0,0-2.5-2.516l-18.59-.067a8.382,8.382,0,0,1,.893,3.8c0,.05,13,.1,13,.1L74.7,99.666,7.2,99.427,7.518,8.641l13,.048a8.444,8.444,0,0,1,.924-3.847C10.857,4.8,3.033,4.777,2.846,4.777A2.507,2.507,0,0,0,.33,7.274L0,100.743a2.507,2.507,0,0,0,2.5,2.516l76.871.271a2.507,2.507,0,0,0,2.516-2.5Z" transform="translate(0 4.342)" fill="#12263f"/><path d="M43.038,6.349l-3.331-.011a1.364,1.364,0,0,1-1.361-1.371A4.929,4.929,0,0,0,33.434.021L26.9,0a4.926,4.926,0,0,0-4.944,4.912,1.365,1.365,0,0,1-1.371,1.359L18.41,6.265a6.748,6.748,0,0,0-6.771,6.724l-.01,2.93a1.507,1.507,0,0,0,1.5,1.512l35.109.122a1.508,1.508,0,0,0,1.512-1.5l.01-2.93a6.748,6.748,0,0,0-6.724-6.771M34,4.24l-6.533-.023a.95.95,0,1,1,.008-1.9L34,2.34A.95.95,0,0,1,34,4.24" transform="translate(10.571 0)" fill="#12263f"/><rect width="0.727" height="41.057" transform="translate(30.606 38.845) rotate(-89.798)" fill="#12263f"/><rect width="0.727" height="60.971" transform="translate(10.674 43.772) rotate(-89.797)" fill="#12263f"/><rect width="0.727" height="60.971" transform="translate(10.656 48.769) rotate(-89.797)" fill="#12263f"/><path d="M5.617,17.741,5.6,22.285l18.447.065.017-4.544Zm11.968,3.45-9.969-.036.008-2.272,9.971.036Zm4.458.015-2.3-.008.008-2.272,2.3.008Z" transform="translate(5.092 16.127)" fill="#12263f"/><rect width="1.908" height="30.875" transform="matrix(0.004, -1, 1, 0.004, 31.776, 36.987)" fill="#12263f"/><rect width="0.727" height="41.057" transform="matrix(0.004, -1, 1, 0.004, 30.537, 58.186)" fill="#12263f"/><rect width="0.727" height="60.971" transform="translate(10.606 63.112) rotate(-89.797)" fill="#12263f"/><rect width="0.727" height="60.971" transform="translate(10.588 68.11) rotate(-89.797)" fill="#12263f"/><path d="M5.581,27.872l-.015,4.542,18.447.067.017-4.544Zm11.97,3.45L7.58,31.285l.008-2.272,9.971.036Zm4.456.015-2.3-.008.008-2.272,2.3.008Z" transform="translate(5.06 25.337)" fill="#12263f"/><rect width="1.909" height="30.875" transform="matrix(0.004, -1, 1, 0.004, 31.708, 56.328)" fill="#12263f"/><rect width="0.727" height="41.057" transform="matrix(0.004, -1, 1, 0.004, 30.469, 77.526)" fill="#12263f"/><rect width="0.727" height="60.971" transform="translate(10.538 82.453) rotate(-89.797)" fill="#12263f"/><rect width="0.727" height="60.971" transform="translate(10.52 87.451) rotate(-89.797)" fill="#12263f"/><rect width="0.727" height="60.971" transform="translate(10.502 92.448) rotate(-89.797)" fill="#12263f"/><path d="M5.545,38,5.53,42.548l18.447.065.017-4.544Zm11.97,3.45-9.971-.036.008-2.272,9.971.036Zm4.456.015-2.3-.008.008-2.272,2.3.008Z" transform="translate(5.027 34.547)" fill="#12263f"/><rect width="1.908" height="30.875" transform="matrix(0.004, -1, 1, 0.004, 31.639, 75.668)" fill="#12263f"/><rect width="3.307" height="12.04" transform="translate(10.472 100.998) rotate(-89.8)" fill="#12263f"/><rect width="0.735" height="28.501" transform="translate(10.47 101.365) rotate(-89.797)" fill="#12263f"/><rect width="3.308" height="12.04" transform="translate(42.942 101.114) rotate(-89.8)" fill="#12263f"/><rect width="0.735" height="28.5" transform="translate(42.941 101.48) rotate(-89.797)" fill="#12263f"/><text transform="translate(13.135 28.09)" fill="#12263f" font-size="9" font-family="Roboto-Bold, Roboto" font-weight="700" opacity="0.69"><tspan x="0" y="0">Certificación</tspan></text></g></g></g><g transform="translate(979.31 2646.789)"><g transform="translate(0 0)" clip-path="url(#r)"><g clip-path="url(#r)"><path d="M14.808,106.966,6.423,126.45a.493.493,0,0,0,.651.645l6.463-2.853a.492.492,0,0,1,.666.295l2.18,6.546a.492.492,0,0,0,.928.017l7.881-21.017Z" transform="translate(-4.223 -70.788)" fill="#4428c7"/><path d="M63.6,110.177l4.017,20.828a.492.492,0,0,0,.9.168l3.742-5.993a.493.493,0,0,1,.717-.131l5.482,4.188a.493.493,0,0,0,.778-.508l-5.295-21.812Z" transform="translate(-42.092 -70.756)" fill="#4428c7"/><path d="M21.92,2.024,24.673,0l2.163,2.644L30.006,1.37l1.438,3.1,3.387-.447.622,3.36,3.392.41L38.61,11.2l3.183,1.24L40.72,15.683,43.5,17.675,41.649,20.55l2.192,2.62-2.5,2.325,1.471,3.083-3,1.63.659,3.352-3.314.832-.2,3.411-3.416-.019L32.5,41.038l-3.3-.868-1.815,2.895L24.4,41.4,21.92,43.755,19.443,41.4l-2.985,1.662L14.644,40.17l-3.3.868L10.3,37.784,6.885,37.8l-.2-3.411L3.376,33.56l.659-3.352-3-1.63L2.5,25.5,0,23.17l2.192-2.62L.345,17.675l2.775-1.993L2.047,12.439,5.23,11.2,5,7.791l3.392-.41.622-3.36,3.387.447,1.438-3.1L17,2.645,19.168,0Z" transform="translate(0 0)" fill="#583ae2"/><path d="M50.01,34.41A15.472,15.472,0,1,1,34.537,18.938,15.472,15.472,0,0,1,50.01,34.41" transform="translate(-12.617 -12.533)" fill="#fff"/><path d="M52.629,44.68l4.152.608a.832.832,0,0,1,.459,1.419l-3.008,2.926a.831.831,0,0,0-.24.736l.7,4.137a.832.832,0,0,1-1.208.876l-3.713-1.957a.831.831,0,0,0-.774,0l-3.717,1.949a.832.832,0,0,1-1.206-.878l.714-4.135a.832.832,0,0,0-.238-.737l-3-2.933a.832.832,0,0,1,.463-1.418l4.154-.6a.832.832,0,0,0,.627-.455l1.862-3.761a.832.832,0,0,1,1.492,0L52,44.224a.831.831,0,0,0,.626.456" transform="translate(-27.333 -26.468)" fill="#2ff980"/></g></g></g></g><path d="M14.73,14.656H10.621L9.84,17H7.348L11.582,5.625h2.172L18.012,17H15.52Zm-3.477-1.9H14.1L12.668,8.5ZM23.9,16.141a2.831,2.831,0,0,1-2.312,1.016,2.67,2.67,0,0,1-2.074-.781,3.335,3.335,0,0,1-.73-2.289V8.547h2.258v5.467q0,1.322,1.2,1.322a1.63,1.63,0,0,0,1.578-.8V8.547H26.09V17H23.965Zm3.539-3.43a5.094,5.094,0,0,1,.887-3.148,2.877,2.877,0,0,1,2.426-1.172,2.589,2.589,0,0,1,2.039.922V5h2.266V17H33.02l-.109-.9a2.657,2.657,0,0,1-2.172,1.055,2.869,2.869,0,0,1-2.395-1.176A5.258,5.258,0,0,1,27.441,12.711Zm2.258.168a3.337,3.337,0,0,0,.414,1.823,1.349,1.349,0,0,0,1.2.634,1.511,1.511,0,0,0,1.477-.884V11.111a1.489,1.489,0,0,0-1.461-.884Q29.7,10.227,29.7,12.879ZM39.191,17H36.926V8.547h2.266Zm-2.4-10.641a1.112,1.112,0,0,1,.34-.836,1.465,1.465,0,0,1,1.848,0,1.105,1.105,0,0,1,.344.836,1.108,1.108,0,0,1-.348.844,1.448,1.448,0,0,1-1.836,0A1.108,1.108,0,0,1,36.793,6.359Zm6.961.109V8.547H45.2V10.2H43.754v4.219a1.007,1.007,0,0,0,.18.672.9.9,0,0,0,.688.2,3.6,3.6,0,0,0,.664-.055v1.711a4.648,4.648,0,0,1-1.367.2,2.156,2.156,0,0,1-2.422-2.4V10.2H40.262V8.547H41.5V6.469ZM45.871,12.7a5.013,5.013,0,0,1,.484-2.242A3.546,3.546,0,0,1,47.75,8.93a4.069,4.069,0,0,1,2.113-.539,3.849,3.849,0,0,1,2.793,1.047,4.2,4.2,0,0,1,1.207,2.844l.016.578a4.418,4.418,0,0,1-1.086,3.121,4.209,4.209,0,0,1-5.832,0,4.5,4.5,0,0,1-1.09-3.187Zm2.258.16a3.16,3.16,0,0,0,.453,1.843,1.628,1.628,0,0,0,2.578.008,3.457,3.457,0,0,0,.461-2.015,3.128,3.128,0,0,0-.461-1.831,1.5,1.5,0,0,0-1.3-.649,1.474,1.474,0,0,0-1.281.646A3.516,3.516,0,0,0,48.129,12.856ZM60.02,10.664a6.134,6.134,0,0,0-.812-.062,1.654,1.654,0,0,0-1.68.867V17H55.27V8.547H57.4l.063,1.008a2.092,2.092,0,0,1,1.883-1.164,2.366,2.366,0,0,1,.7.1ZM63.488,17H61.223V8.547h2.266ZM61.09,6.359a1.112,1.112,0,0,1,.34-.836,1.465,1.465,0,0,1,1.848,0,1.105,1.105,0,0,1,.344.836,1.108,1.108,0,0,1-.348.844,1.448,1.448,0,0,1-1.836,0A1.108,1.108,0,0,1,61.09,6.359ZM70.246,17a2.507,2.507,0,0,1-.227-.758,2.732,2.732,0,0,1-2.133.914,3,3,0,0,1-2.059-.719,2.312,2.312,0,0,1-.816-1.812,2.389,2.389,0,0,1,1-2.062,4.915,4.915,0,0,1,2.879-.727h1.039v-.484a1.393,1.393,0,0,0-.3-.937,1.183,1.183,0,0,0-.949-.352,1.345,1.345,0,0,0-.895.273.929.929,0,0,0-.324.75H65.2a2.268,2.268,0,0,1,.453-1.359,3,3,0,0,1,1.281-.98,4.669,4.669,0,0,1,1.859-.355,3.689,3.689,0,0,1,2.48.785,2.747,2.747,0,0,1,.918,2.207v3.664a4.041,4.041,0,0,0,.336,1.82V17Zm-1.867-1.57a1.945,1.945,0,0,0,.922-.223,1.462,1.462,0,0,0,.625-.6V13.156h-.844q-1.7,0-1.8,1.172l-.008.133a.9.9,0,0,0,.3.7A1.153,1.153,0,0,0,68.379,15.43Zm9.18-2.719a5.094,5.094,0,0,1,.887-3.148,2.877,2.877,0,0,1,2.426-1.172,2.589,2.589,0,0,1,2.039.922V5h2.266V17H83.137l-.109-.9a2.657,2.657,0,0,1-2.172,1.055,2.869,2.869,0,0,1-2.395-1.176A5.258,5.258,0,0,1,77.559,12.711Zm2.258.168A3.337,3.337,0,0,0,80.23,14.7a1.349,1.349,0,0,0,1.2.634,1.511,1.511,0,0,0,1.477-.884V11.111a1.489,1.489,0,0,0-1.461-.884Q79.816,10.227,79.816,12.879Zm11,4.277a4.15,4.15,0,0,1-3.027-1.141,4.054,4.054,0,0,1-1.168-3.039v-.219a5.106,5.106,0,0,1,.492-2.277,3.612,3.612,0,0,1,1.395-1.547,3.914,3.914,0,0,1,2.059-.543A3.508,3.508,0,0,1,93.3,9.484a4.444,4.444,0,0,1,1,3.1v.922H88.91a2.1,2.1,0,0,0,.66,1.328,2,2,0,0,0,1.395.5A2.437,2.437,0,0,0,93,14.391l1.109,1.242a3.389,3.389,0,0,1-1.375,1.121A4.511,4.511,0,0,1,90.816,17.156Zm-.258-6.945a1.411,1.411,0,0,0-1.09.455,2.357,2.357,0,0,0-.535,1.3h3.141v-.181a1.681,1.681,0,0,0-.406-1.165A1.456,1.456,0,0,0,90.559,10.211ZM10.668,30.852a5.07,5.07,0,0,1-.887,3.129,2.843,2.843,0,0,1-2.395,1.176,2.633,2.633,0,0,1-2.07-.891V38.25H3.059v-11.7H5.152l.078.828a2.654,2.654,0,0,1,2.141-.984A2.862,2.862,0,0,1,9.8,27.547a5.207,5.207,0,0,1,.867,3.188ZM8.41,30.688a3.327,3.327,0,0,0-.418-1.82,1.361,1.361,0,0,0-1.215-.641,1.478,1.478,0,0,0-1.461.813V32.5a1.5,1.5,0,0,0,1.477.836Q8.41,33.336,8.41,30.688Zm8.406-2.023A6.134,6.134,0,0,0,16,28.6a1.654,1.654,0,0,0-1.68.867V35H12.066V26.547H14.2l.063,1.008a2.092,2.092,0,0,1,1.883-1.164,2.366,2.366,0,0,1,.7.1ZM20.285,35H18.02V26.547h2.266Zm-2.4-10.641a1.112,1.112,0,0,1,.34-.836,1.465,1.465,0,0,1,1.848,0,1.193,1.193,0,0,1,0,1.68,1.448,1.448,0,0,1-1.836,0A1.108,1.108,0,0,1,17.887,24.359Zm6.375,2.188.07.945a2.971,2.971,0,0,1,2.43-1.1A2.255,2.255,0,0,1,29,27.68a2.9,2.9,0,0,1,2.539-1.289,2.521,2.521,0,0,1,2.047.8,3.681,3.681,0,0,1,.672,2.41V35H32V29.609a1.61,1.61,0,0,0-.281-1.051,1.246,1.246,0,0,0-.992-.332,1.409,1.409,0,0,0-1.406.969l.008,5.8H27.066V29.617a1.59,1.59,0,0,0-.289-1.062,1.259,1.259,0,0,0-.984-.328,1.463,1.463,0,0,0-1.391.8V35H22.145V26.547Zm15.625,8.609a4.15,4.15,0,0,1-3.027-1.141,4.054,4.054,0,0,1-1.168-3.039v-.219a5.106,5.106,0,0,1,.492-2.277,3.612,3.612,0,0,1,1.395-1.547,3.914,3.914,0,0,1,2.059-.543,3.508,3.508,0,0,1,2.73,1.094,4.444,4.444,0,0,1,1,3.1v.922H37.98a2.1,2.1,0,0,0,.66,1.328,2,2,0,0,0,1.395.5,2.437,2.437,0,0,0,2.039-.945l1.109,1.242a3.389,3.389,0,0,1-1.375,1.121A4.511,4.511,0,0,1,39.887,35.156Zm-.258-6.945a1.411,1.411,0,0,0-1.09.455,2.357,2.357,0,0,0-.535,1.3h3.141v-.181a1.681,1.681,0,0,0-.406-1.165A1.456,1.456,0,0,0,39.629,28.211Zm9.766.453a6.134,6.134,0,0,0-.812-.062,1.654,1.654,0,0,0-1.68.867V35H44.645V26.547h2.133l.063,1.008a2.092,2.092,0,0,1,1.883-1.164,2.366,2.366,0,0,1,.7.1ZM55.145,35a2.507,2.507,0,0,1-.227-.758,2.732,2.732,0,0,1-2.133.914,3,3,0,0,1-2.059-.719,2.312,2.312,0,0,1-.816-1.812,2.389,2.389,0,0,1,1-2.062,4.915,4.915,0,0,1,2.879-.727h1.039v-.484a1.393,1.393,0,0,0-.3-.937,1.183,1.183,0,0,0-.949-.352,1.345,1.345,0,0,0-.895.273.929.929,0,0,0-.324.75H50.1a2.268,2.268,0,0,1,.453-1.359,3,3,0,0,1,1.281-.98,4.669,4.669,0,0,1,1.859-.355,3.689,3.689,0,0,1,2.48.785,2.747,2.747,0,0,1,.918,2.207v3.664a4.041,4.041,0,0,0,.336,1.82V35Zm-1.867-1.57a1.945,1.945,0,0,0,.922-.223,1.462,1.462,0,0,0,.625-.6V31.156H53.98q-1.7,0-1.8,1.172l-.008.133a.9.9,0,0,0,.3.7A1.153,1.153,0,0,0,53.277,33.43Zm17.141-2.578a5.07,5.07,0,0,1-.887,3.129,2.843,2.843,0,0,1-2.395,1.176,2.633,2.633,0,0,1-2.07-.891V38.25H62.809v-11.7H64.9l.078.828a2.654,2.654,0,0,1,2.141-.984,2.862,2.862,0,0,1,2.43,1.156,5.207,5.207,0,0,1,.867,3.188Zm-2.258-.164a3.327,3.327,0,0,0-.418-1.82,1.361,1.361,0,0,0-1.215-.641,1.478,1.478,0,0,0-1.461.813V32.5a1.5,1.5,0,0,0,1.477.836Q68.16,33.336,68.16,30.688ZM76.715,35a2.507,2.507,0,0,1-.227-.758,2.732,2.732,0,0,1-2.133.914,3,3,0,0,1-2.059-.719,2.312,2.312,0,0,1-.816-1.812,2.389,2.389,0,0,1,1-2.062,4.915,4.915,0,0,1,2.879-.727h1.039v-.484a1.393,1.393,0,0,0-.3-.937,1.183,1.183,0,0,0-.949-.352,1.345,1.345,0,0,0-.895.273.929.929,0,0,0-.324.75H71.668a2.268,2.268,0,0,1,.453-1.359,3,3,0,0,1,1.281-.98,4.669,4.669,0,0,1,1.859-.355,3.689,3.689,0,0,1,2.48.785,2.747,2.747,0,0,1,.918,2.207v3.664A4.041,4.041,0,0,0,79,34.867V35Zm-1.867-1.57a1.945,1.945,0,0,0,.922-.223,1.462,1.462,0,0,0,.625-.6V31.156h-.844q-1.7,0-1.8,1.172l-.008.133a.9.9,0,0,0,.3.7A1.153,1.153,0,0,0,74.848,33.43Zm10.3-4.766a6.134,6.134,0,0,0-.812-.062,1.654,1.654,0,0,0-1.68.867V35H80.395V26.547h2.133l.063,1.008a2.092,2.092,0,0,1,1.883-1.164,2.366,2.366,0,0,1,.7.1Zm4.18-4.2v2.078H90.77V28.2H89.324v4.219a1.007,1.007,0,0,0,.18.672.9.9,0,0,0,.688.2,3.6,3.6,0,0,0,.664-.055v1.711a4.648,4.648,0,0,1-1.367.2,2.156,2.156,0,0,1-2.422-2.4V28.2H85.832V26.547h1.234V24.469Zm6.594,10.688a4.15,4.15,0,0,1-3.027-1.141,4.054,4.054,0,0,1-1.168-3.039v-.219a5.106,5.106,0,0,1,.492-2.277,3.612,3.612,0,0,1,1.395-1.547,3.914,3.914,0,0,1,2.059-.543,3.508,3.508,0,0,1,2.73,1.094,4.444,4.444,0,0,1,1,3.1v.922H94.012a2.1,2.1,0,0,0,.66,1.328,2,2,0,0,0,1.395.5,2.437,2.437,0,0,0,2.039-.945l1.109,1.242a3.389,3.389,0,0,1-1.375,1.121A4.511,4.511,0,0,1,95.918,35.156Zm-.258-6.945a1.411,1.411,0,0,0-1.09.455,2.357,2.357,0,0,0-.535,1.3h3.141v-.181a1.681,1.681,0,0,0-.406-1.165A1.456,1.456,0,0,0,95.66,28.211Z" transform="translate(-8844.9 -8854.709)" fill="#12263f"/><g transform="translate(627.828 -475.779)"><line y1="19.905" transform="translate(-9425.169 -8404.405)" fill="none" stroke="#12263f" stroke-linecap="round" stroke-width="4"/></g><g transform="translate(627.828 629.609)"><line y1="19.905" transform="translate(-9420.169 -8586.405)" fill="none" stroke="#12263f" stroke-linecap="round" stroke-width="4"/><g transform="translate(-9879.169 -11645.905)"><text transform="translate(459 3061)" fill="#12263f" font-size="16" font-family="Roboto-Bold, Roboto" font-weight="700"><tspan x="-4.367" y="0">+</tspan></text></g></g><g transform="translate(627.828 394.321)"><line y1="19.905" transform="translate(-9420.169 -8586.405)" fill="none" stroke="#12263f" stroke-linecap="round" stroke-width="4"/></g><g transform="translate(627.828 157.58)"><line y1="19.905" transform="translate(-9420.169 -8586.405)" fill="none" stroke="#12263f" stroke-linecap="round" stroke-width="4"/></g><g transform="translate(673.1 -331.779)"><g transform="translate(471.42 427.082)"><path d="M135.123,277.4A67.561,67.561,0,1,1,67.561,209.84,67.562,67.562,0,0,1,135.123,277.4" transform="translate(-10005.183 -9090.831)" fill="#826be9"/></g><g transform="translate(-9845.74 -11526.803)"><rect width="79.94" height="95.247" transform="translate(340 3078.474)" fill="#fff"/><g transform="translate(340 3070.043)"><g transform="translate(0 0)"><g transform="translate(0 0)" clip-path="url(#t)"><path d="M28.572,39.985a1.861,1.861,0,0,1-1.562-.85L20.495,29.054a1.861,1.861,0,0,1,3.127-2.02l4.884,7.56,8.237-13.856a1.86,1.86,0,1,1,3.2,1.9L30.172,39.074a1.86,1.86,0,0,1-1.565.912Z" transform="translate(27.252 26.751)" fill="#2ff980"/><path d="M13.133,51.851a1.672,1.672,0,0,0,.327.031H24.35a34.044,34.044,0,0,1,.862-3.421H13.459a1.711,1.711,0,0,0-.327,3.39M38.35,30.743H13.6a1.711,1.711,0,0,0,0,3.423l20.514,0a33.359,33.359,0,0,1,4.24-3.421M65.635,55.361l-1.861,3.132v6.794a2.871,2.871,0,0,1-2.868,2.868h-12.1a2.872,2.872,0,0,1-2.871-2.868V53.193a2.874,2.874,0,0,1,2.871-2.871H60.323l1.088-1.832a4.518,4.518,0,0,0-.505-.028h-12.1a4.737,4.737,0,0,0-4.731,4.731V65.287a4.736,4.736,0,0,0,4.731,4.729h12.1a4.734,4.734,0,0,0,4.729-4.729Zm1.7-14.6a19.6,19.6,0,0,0-1.743-.919,2.871,2.871,0,0,1-2.864,2.728H50.63A2.871,2.871,0,0,1,47.8,40.18q-.863.44-1.677.963a4.738,4.738,0,0,0,4.5,3.287H62.724a4.737,4.737,0,0,0,4.607-3.67M77.811,9.049H61.166a9.3,9.3,0,0,1,.482,2.958v.808h11.5V29.183a33.522,33.522,0,0,1,6.078,4.323c.331.3.653.6.973.909V11.434a2.385,2.385,0,0,0-2.387-2.385M11.885,58.042a1.71,1.71,0,0,0,1.384,1.68,1.655,1.655,0,0,0,.327.031H23.754a33.906,33.906,0,0,1,.031-3.421H13.6a1.71,1.71,0,0,0-1.71,1.71m1.247-31.779a1.673,1.673,0,0,0,.327.033H39.092a1.711,1.711,0,0,0,0-3.423H13.459a1.711,1.711,0,0,0-.327,3.39m8.587-9.143H56.1a1.475,1.475,0,0,0,1.475-1.475V12.773A6.607,6.607,0,0,0,50.97,6.165H47.71A1.338,1.338,0,0,1,46.37,4.828,4.827,4.827,0,0,0,41.545,0h-6.4A4.828,4.828,0,0,0,30.32,4.828a1.338,1.338,0,0,1-1.337,1.337H26.852a6.609,6.609,0,0,0-6.609,6.609v2.871a1.476,1.476,0,0,0,1.475,1.475M34.784,3.2a.929.929,0,0,1,.93-.93h6.4a.93.93,0,0,1,0,1.861h-6.4a.931.931,0,0,1-.93-.93M73.148,70.787a20.342,20.342,0,0,0,0-24.921ZM67.359,26.657a4.737,4.737,0,0,0-4.635-3.785H50.63a4.732,4.732,0,0,0-4.675,4.048q1.057-.37,2.145-.67a2.869,2.869,0,0,1,2.53-1.515l12.094,0a2.867,2.867,0,0,1,2.385,1.276c.759.188,1.508.406,2.251.648M79.667,88.43a5,5,0,0,1-4.245-1.2l-.709-.634c-.512.319-1.036.623-1.565.914V99.375H7.048V12.815h11.5v-.808a9.3,9.3,0,0,1,.482-2.958H2.387A2.385,2.385,0,0,0,0,11.434v91.677A2.387,2.387,0,0,0,2.387,105.5H77.811a2.387,2.387,0,0,0,2.387-2.387V88.7l-.35-.312c-.061.014-.12.031-.181.042M11.749,75.76a1.714,1.714,0,0,0,1.384,1.68,1.883,1.883,0,0,0,.329.031H29.73a33.205,33.205,0,0,1-2.1-3.421H13.461a1.711,1.711,0,0,0-1.713,1.71m50.977-1.71H50.63a4.718,4.718,0,0,0-3.78,1.9c.55.32,1.109.613,1.682.879a2.862,2.862,0,0,1,2.1-.916h12.1a2.865,2.865,0,0,1,2.3,1.161c.578-.247,1.142-.517,1.694-.815a4.728,4.728,0,0,0-3.994-2.206M11.885,83.63a1.712,1.712,0,0,0,1.384,1.68,1.854,1.854,0,0,0,.327.031H37.478a33.512,33.512,0,0,1-2.648-2.136q-.7-.627-1.363-1.287H13.6a1.714,1.714,0,0,0-1.71,1.713M50.63,95.6h12.1a4.734,4.734,0,0,0,4.729-4.729V90c-.613.2-1.233.383-1.861.547v.329a2.871,2.871,0,0,1-2.868,2.868H50.63a2.871,2.871,0,0,1-2.868-2.868v-.493c-.627-.181-1.247-.383-1.863-.6v1.095A4.738,4.738,0,0,0,50.63,95.6" transform="translate(0 0)" fill="#12263f"/><rect width="9.034" height="13.36" transform="translate(71.395 87.635) rotate(-37.997)" fill="#583ae2"/><path d="M50.514,60.987l2-1.562a3.246,3.246,0,0,0,.559-4.558l-3.909-5.006-7.116,5.561,3.907,5.006a3.251,3.251,0,0,0,4.56.559" transform="translate(56.734 67.277)" fill="#583ae2"/><path d="M35.528,46.589l7.1-5.549a2.094,2.094,0,0,0,.362-2.939l-3.7-4.734L28.891,41.493l3.7,4.734a2.094,2.094,0,0,0,2.939.362" transform="translate(38.983 45.022)" fill="#4d4d4d"/><path d="M57.66,76,65.843,69.6a2.292,2.292,0,0,0,.472-3.207l-21.5-27.527a2.294,2.294,0,0,0-3.228-.32l-8.183,6.392a2.3,2.3,0,0,0-.472,3.209l21.5,27.527A2.294,2.294,0,0,0,57.66,76" transform="translate(43.824 51.316)" fill="#12263f"/><path d="M22.708,19.627a30.388,30.388,0,1,1-5.241,42.652,30.391,30.391,0,0,1,5.241-42.652M55.779,61.912a23.293,23.293,0,1,0-32.7-4.02,23.294,23.294,0,0,0,32.7,4.02" transform="translate(14.876 17.794)" fill="#583ae2"/></g></g></g></g></g><g transform="translate(1327.658 415.34)"><g transform="translate(-10574 -11635.683)"><path d="M20.73,14.656H16.621L15.84,17H13.348L17.582,5.625h2.172L24.012,17H21.52Zm-3.477-1.9H20.1L18.668,8.5ZM29.9,16.141a2.831,2.831,0,0,1-2.312,1.016,2.67,2.67,0,0,1-2.074-.781,3.335,3.335,0,0,1-.73-2.289V8.547h2.258v5.467q0,1.322,1.2,1.322a1.63,1.63,0,0,0,1.578-.8V8.547H32.09V17H29.965Zm3.539-3.43a5.094,5.094,0,0,1,.887-3.148,2.877,2.877,0,0,1,2.426-1.172,2.589,2.589,0,0,1,2.039.922V5h2.266V17H39.02l-.109-.9a2.657,2.657,0,0,1-2.172,1.055,2.869,2.869,0,0,1-2.395-1.176A5.258,5.258,0,0,1,33.441,12.711Zm2.258.168a3.337,3.337,0,0,0,.414,1.823,1.349,1.349,0,0,0,1.2.634,1.511,1.511,0,0,0,1.477-.884V11.111a1.489,1.489,0,0,0-1.461-.884Q35.7,10.227,35.7,12.879ZM45.191,17H42.926V8.547h2.266Zm-2.4-10.641a1.112,1.112,0,0,1,.34-.836,1.465,1.465,0,0,1,1.848,0,1.105,1.105,0,0,1,.344.836,1.108,1.108,0,0,1-.348.844,1.448,1.448,0,0,1-1.836,0A1.108,1.108,0,0,1,42.793,6.359Zm6.961.109V8.547H51.2V10.2H49.754v4.219a1.007,1.007,0,0,0,.18.672.9.9,0,0,0,.688.2,3.6,3.6,0,0,0,.664-.055v1.711a4.648,4.648,0,0,1-1.367.2,2.156,2.156,0,0,1-2.422-2.4V10.2H46.262V8.547H47.5V6.469ZM51.871,12.7a5.013,5.013,0,0,1,.484-2.242A3.546,3.546,0,0,1,53.75,8.93a4.069,4.069,0,0,1,2.113-.539,3.849,3.849,0,0,1,2.793,1.047,4.2,4.2,0,0,1,1.207,2.844l.016.578a4.418,4.418,0,0,1-1.086,3.121,4.209,4.209,0,0,1-5.832,0,4.5,4.5,0,0,1-1.09-3.187Zm2.258.16a3.16,3.16,0,0,0,.453,1.843,1.628,1.628,0,0,0,2.578.008,3.457,3.457,0,0,0,.461-2.015,3.128,3.128,0,0,0-.461-1.831,1.5,1.5,0,0,0-1.3-.649,1.474,1.474,0,0,0-1.281.646A3.516,3.516,0,0,0,54.129,12.856ZM66.02,10.664a6.134,6.134,0,0,0-.812-.062,1.654,1.654,0,0,0-1.68.867V17H61.27V8.547H63.4l.063,1.008a2.092,2.092,0,0,1,1.883-1.164,2.366,2.366,0,0,1,.7.1ZM69.488,17H67.223V8.547h2.266ZM67.09,6.359a1.112,1.112,0,0,1,.34-.836,1.465,1.465,0,0,1,1.848,0,1.105,1.105,0,0,1,.344.836,1.108,1.108,0,0,1-.348.844,1.448,1.448,0,0,1-1.836,0A1.108,1.108,0,0,1,67.09,6.359ZM76.246,17a2.507,2.507,0,0,1-.227-.758,2.732,2.732,0,0,1-2.133.914,3,3,0,0,1-2.059-.719,2.312,2.312,0,0,1-.816-1.812,2.389,2.389,0,0,1,1-2.062,4.915,4.915,0,0,1,2.879-.727h1.039v-.484a1.393,1.393,0,0,0-.3-.937,1.183,1.183,0,0,0-.949-.352,1.345,1.345,0,0,0-.895.273.929.929,0,0,0-.324.75H71.2a2.268,2.268,0,0,1,.453-1.359,3,3,0,0,1,1.281-.98,4.669,4.669,0,0,1,1.859-.355,3.689,3.689,0,0,1,2.48.785,2.747,2.747,0,0,1,.918,2.207v3.664a4.041,4.041,0,0,0,.336,1.82V17Zm-1.867-1.57a1.945,1.945,0,0,0,.922-.223,1.462,1.462,0,0,0,.625-.6V13.156h-.844q-1.7,0-1.8,1.172l-.008.133a.9.9,0,0,0,.3.7A1.153,1.153,0,0,0,74.379,15.43Zm9.18-2.719a5.094,5.094,0,0,1,.887-3.148,2.877,2.877,0,0,1,2.426-1.172,2.589,2.589,0,0,1,2.039.922V5h2.266V17H89.137l-.109-.9a2.657,2.657,0,0,1-2.172,1.055,2.869,2.869,0,0,1-2.395-1.176A5.258,5.258,0,0,1,83.559,12.711Zm2.258.168A3.337,3.337,0,0,0,86.23,14.7a1.349,1.349,0,0,0,1.2.634,1.511,1.511,0,0,0,1.477-.884V11.111a1.489,1.489,0,0,0-1.461-.884Q85.816,10.227,85.816,12.879Zm11,4.277a4.15,4.15,0,0,1-3.027-1.141,4.054,4.054,0,0,1-1.168-3.039v-.219a5.106,5.106,0,0,1,.492-2.277,3.612,3.612,0,0,1,1.395-1.547,3.914,3.914,0,0,1,2.059-.543A3.508,3.508,0,0,1,99.3,9.484a4.444,4.444,0,0,1,1,3.1v.922H94.91a2.1,2.1,0,0,0,.66,1.328,2,2,0,0,0,1.395.5A2.437,2.437,0,0,0,99,14.391l1.109,1.242a3.389,3.389,0,0,1-1.375,1.121A4.511,4.511,0,0,1,96.816,17.156Zm-.258-6.945a1.411,1.411,0,0,0-1.09.455,2.357,2.357,0,0,0-.535,1.3h3.141v-.181a1.681,1.681,0,0,0-.406-1.165A1.456,1.456,0,0,0,96.559,10.211Zm-85.8,28.453a.727.727,0,0,0-.41-.652,4.659,4.659,0,0,0-1.316-.426Q6.02,36.953,6.02,35.023a2.323,2.323,0,0,1,.934-1.879,3.766,3.766,0,0,1,2.441-.754,4.053,4.053,0,0,1,2.574.758,2.388,2.388,0,0,1,.965,1.969H10.676a1.092,1.092,0,0,0-.312-.8A1.322,1.322,0,0,0,9.387,34a1.351,1.351,0,0,0-.883.258.814.814,0,0,0-.312.656.7.7,0,0,0,.355.605,3.657,3.657,0,0,0,1.2.4,9.8,9.8,0,0,1,1.422.379,2.336,2.336,0,0,1,1.789,2.273,2.205,2.205,0,0,1-.992,1.871,4.28,4.28,0,0,1-2.562.715,4.47,4.47,0,0,1-1.887-.379,3.166,3.166,0,0,1-1.293-1.039,2.414,2.414,0,0,1-.469-1.426H7.895a1.179,1.179,0,0,0,.445.922,1.766,1.766,0,0,0,1.109.32,1.635,1.635,0,0,0,.98-.246A.766.766,0,0,0,10.762,38.664ZM18.3,41.156a4.15,4.15,0,0,1-3.027-1.141,4.054,4.054,0,0,1-1.168-3.039v-.219A5.106,5.106,0,0,1,14.6,34.48a3.612,3.612,0,0,1,1.395-1.547,3.914,3.914,0,0,1,2.059-.543,3.508,3.508,0,0,1,2.73,1.094,4.444,4.444,0,0,1,1,3.1v.922H16.395a2.1,2.1,0,0,0,.66,1.328,2,2,0,0,0,1.395.5,2.437,2.437,0,0,0,2.039-.945L21.6,39.633a3.389,3.389,0,0,1-1.375,1.121A4.511,4.511,0,0,1,18.3,41.156Zm-.258-6.945a1.411,1.411,0,0,0-1.09.455,2.357,2.357,0,0,0-.535,1.3h3.141v-.181a1.681,1.681,0,0,0-.406-1.165A1.456,1.456,0,0,0,18.043,34.211Zm4.688,2.5a4.954,4.954,0,0,1,.926-3.133,3,3,0,0,1,2.5-1.187,2.631,2.631,0,0,1,2.164.953l.094-.8h2.047v8.172a3.613,3.613,0,0,1-.5,1.93,3.236,3.236,0,0,1-1.418,1.25,4.985,4.985,0,0,1-2.141.43,4.635,4.635,0,0,1-1.812-.371A3.217,3.217,0,0,1,23.246,43l1-1.375a2.645,2.645,0,0,0,2.047.945,1.936,1.936,0,0,0,1.4-.48,1.8,1.8,0,0,0,.5-1.363v-.453a2.612,2.612,0,0,1-2.055.883,2.992,2.992,0,0,1-2.465-1.191,4.953,4.953,0,0,1-.941-3.16Zm2.258.168a3.085,3.085,0,0,0,.461,1.8,1.466,1.466,0,0,0,1.266.653,1.568,1.568,0,0,0,1.477-.775V35a1.564,1.564,0,0,0-1.461-.775,1.476,1.476,0,0,0-1.277.665A3.477,3.477,0,0,0,24.988,36.879Zm12.266,3.262a2.831,2.831,0,0,1-2.312,1.016,2.67,2.67,0,0,1-2.074-.781,3.335,3.335,0,0,1-.73-2.289V32.547h2.258v5.467q0,1.322,1.2,1.322a1.63,1.63,0,0,0,1.578-.8V32.547h2.266V41H37.316Zm5.969-7.594.07.977a2.951,2.951,0,0,1,2.43-1.133,2.453,2.453,0,0,1,2,.789,3.682,3.682,0,0,1,.672,2.359V41H46.137V35.594a1.465,1.465,0,0,0-.312-1.043,1.4,1.4,0,0,0-1.039-.324,1.553,1.553,0,0,0-1.43.813V41H41.1V32.547Zm6.531,4.164a5.094,5.094,0,0,1,.887-3.148,2.877,2.877,0,0,1,2.426-1.172,2.589,2.589,0,0,1,2.039.922V29h2.266V41H55.332l-.109-.9a2.657,2.657,0,0,1-2.172,1.055,2.869,2.869,0,0,1-2.395-1.176A5.258,5.258,0,0,1,49.754,36.711Zm2.258.168a3.337,3.337,0,0,0,.414,1.823,1.349,1.349,0,0,0,1.2.634,1.511,1.511,0,0,0,1.477-.884V35.111a1.489,1.489,0,0,0-1.461-.884Q52.012,34.227,52.012,36.879ZM64.02,41a2.507,2.507,0,0,1-.227-.758,2.732,2.732,0,0,1-2.133.914,3,3,0,0,1-2.059-.719,2.312,2.312,0,0,1-.816-1.812,2.389,2.389,0,0,1,1-2.062,4.915,4.915,0,0,1,2.879-.727H63.7v-.484a1.393,1.393,0,0,0-.3-.937,1.183,1.183,0,0,0-.949-.352,1.345,1.345,0,0,0-.895.273.929.929,0,0,0-.324.75H58.973a2.268,2.268,0,0,1,.453-1.359,3,3,0,0,1,1.281-.98,4.669,4.669,0,0,1,1.859-.355,3.689,3.689,0,0,1,2.48.785,2.747,2.747,0,0,1,.918,2.207v3.664a4.041,4.041,0,0,0,.336,1.82V41Zm-1.867-1.57a1.945,1.945,0,0,0,.922-.223,1.462,1.462,0,0,0,.625-.6V37.156h-.844q-1.7,0-1.8,1.172l-.008.133a.9.9,0,0,0,.3.7A1.153,1.153,0,0,0,62.152,39.43Zm17.141-2.578a5.07,5.07,0,0,1-.887,3.129,2.843,2.843,0,0,1-2.395,1.176,2.633,2.633,0,0,1-2.07-.891V44.25H71.684v-11.7h2.094l.078.828A2.654,2.654,0,0,1,76,32.391a2.862,2.862,0,0,1,2.43,1.156,5.207,5.207,0,0,1,.867,3.188Zm-2.258-.164a3.327,3.327,0,0,0-.418-1.82,1.361,1.361,0,0,0-1.215-.641,1.478,1.478,0,0,0-1.461.813V38.5a1.5,1.5,0,0,0,1.477.836Q77.035,39.336,77.035,36.688ZM85.59,41a2.507,2.507,0,0,1-.227-.758,2.732,2.732,0,0,1-2.133.914,3,3,0,0,1-2.059-.719,2.312,2.312,0,0,1-.816-1.812,2.389,2.389,0,0,1,1-2.062,4.915,4.915,0,0,1,2.879-.727H85.27v-.484a1.393,1.393,0,0,0-.3-.937,1.183,1.183,0,0,0-.949-.352,1.345,1.345,0,0,0-.895.273.929.929,0,0,0-.324.75H80.543A2.268,2.268,0,0,1,81,33.727a3,3,0,0,1,1.281-.98,4.669,4.669,0,0,1,1.859-.355,3.689,3.689,0,0,1,2.48.785,2.747,2.747,0,0,1,.918,2.207v3.664a4.041,4.041,0,0,0,.336,1.82V41Zm-1.867-1.57a1.945,1.945,0,0,0,.922-.223,1.462,1.462,0,0,0,.625-.6V37.156h-.844q-1.7,0-1.8,1.172l-.008.133a.9.9,0,0,0,.3.7A1.153,1.153,0,0,0,83.723,39.43Zm10.3-4.766a6.134,6.134,0,0,0-.812-.062,1.654,1.654,0,0,0-1.68.867V41H89.27V32.547H91.4l.063,1.008a2.092,2.092,0,0,1,1.883-1.164,2.366,2.366,0,0,1,.7.1Zm4.18-4.2v2.078h1.445V34.2H98.2v4.219a1.007,1.007,0,0,0,.18.672.9.9,0,0,0,.688.2,3.6,3.6,0,0,0,.664-.055v1.711a4.648,4.648,0,0,1-1.367.2,2.156,2.156,0,0,1-2.422-2.4V34.2H94.707V32.547h1.234V30.469Zm6.594,10.688a4.15,4.15,0,0,1-3.027-1.141,4.054,4.054,0,0,1-1.168-3.039v-.219a5.106,5.106,0,0,1,.492-2.277,3.612,3.612,0,0,1,1.395-1.547,3.914,3.914,0,0,1,2.059-.543,3.508,3.508,0,0,1,2.73,1.094,4.444,4.444,0,0,1,1,3.1v.922h-5.383a2.1,2.1,0,0,0,.66,1.328,2,2,0,0,0,1.395.5,2.437,2.437,0,0,0,2.039-.945l1.109,1.242a3.389,3.389,0,0,1-1.375,1.121A4.511,4.511,0,0,1,104.793,41.156Zm-.258-6.945a1.411,1.411,0,0,0-1.09.455,2.357,2.357,0,0,0-.535,1.3h3.141v-.181a1.681,1.681,0,0,0-.406-1.165A1.456,1.456,0,0,0,104.535,34.211Z" transform="translate(397 2585.683)" fill="#12263f"/></g></g><g transform="translate(627.828 -76.518)"><line y1="19.905" transform="translate(-9420.169 -8586.405)" fill="none" stroke="#12263f" stroke-linecap="round" stroke-width="4"/></g><g transform="translate(987.658 831.221)"><path d="M16.609,15.117h4.977V17h-7.32V5.625h2.344ZM22.43,12.7a5.013,5.013,0,0,1,.484-2.242A3.546,3.546,0,0,1,24.309,8.93a4.069,4.069,0,0,1,2.113-.539,3.849,3.849,0,0,1,2.793,1.047,4.2,4.2,0,0,1,1.207,2.844l.016.578a4.418,4.418,0,0,1-1.086,3.121,3.775,3.775,0,0,1-2.914,1.176,3.793,3.793,0,0,1-2.918-1.172A4.5,4.5,0,0,1,22.43,12.8Zm2.258.16a3.16,3.16,0,0,0,.453,1.843,1.628,1.628,0,0,0,2.578.008,3.457,3.457,0,0,0,.461-2.015,3.128,3.128,0,0,0-.461-1.831,1.5,1.5,0,0,0-1.3-.649,1.474,1.474,0,0,0-1.281.646A3.516,3.516,0,0,0,24.688,12.856Zm11.719,1.808a.727.727,0,0,0-.41-.652,4.659,4.659,0,0,0-1.316-.426q-3.016-.633-3.016-2.562A2.323,2.323,0,0,1,32.6,9.145a3.766,3.766,0,0,1,2.441-.754,4.053,4.053,0,0,1,2.574.758,2.388,2.388,0,0,1,.965,1.969H36.32a1.092,1.092,0,0,0-.312-.8A1.322,1.322,0,0,0,35.031,10a1.351,1.351,0,0,0-.883.258.814.814,0,0,0-.312.656.7.7,0,0,0,.355.605,3.657,3.657,0,0,0,1.2.4,9.8,9.8,0,0,1,1.422.379A2.336,2.336,0,0,1,38.6,14.57a2.2,2.2,0,0,1-.992,1.871,4.28,4.28,0,0,1-2.562.715,4.47,4.47,0,0,1-1.887-.379,3.166,3.166,0,0,1-1.293-1.039,2.414,2.414,0,0,1-.469-1.426h2.141a1.179,1.179,0,0,0,.445.922,1.766,1.766,0,0,0,1.109.32,1.635,1.635,0,0,0,.98-.246A.766.766,0,0,0,36.406,14.664Zm10.336-8.2V8.547h1.445V10.2H46.742v4.219a1.007,1.007,0,0,0,.18.672.9.9,0,0,0,.688.2,3.6,3.6,0,0,0,.664-.055v1.711a4.648,4.648,0,0,1-1.367.2,2.156,2.156,0,0,1-2.422-2.4V10.2H43.25V8.547h1.234V6.469ZM51.828,17H49.563V8.547h2.266ZM49.43,6.359a1.112,1.112,0,0,1,.34-.836,1.465,1.465,0,0,1,1.848,0,1.105,1.105,0,0,1,.344.836,1.108,1.108,0,0,1-.348.844,1.448,1.448,0,0,1-1.836,0A1.108,1.108,0,0,1,49.43,6.359ZM61.3,12.852a5.07,5.07,0,0,1-.887,3.129,2.843,2.843,0,0,1-2.395,1.176,2.633,2.633,0,0,1-2.07-.891V20.25H53.688V8.547h2.094l.078.828A2.654,2.654,0,0,1,58,8.391a2.862,2.862,0,0,1,2.43,1.156,5.207,5.207,0,0,1,.867,3.188Zm-2.258-.164a3.327,3.327,0,0,0-.418-1.82,1.361,1.361,0,0,0-1.215-.641,1.479,1.479,0,0,0-1.461.813V14.5a1.5,1.5,0,0,0,1.477.836Q59.039,15.336,59.039,12.688Zm3.3.008a5.013,5.013,0,0,1,.484-2.242A3.546,3.546,0,0,1,64.223,8.93a4.069,4.069,0,0,1,2.113-.539,3.849,3.849,0,0,1,2.793,1.047,4.2,4.2,0,0,1,1.207,2.844l.016.578a4.418,4.418,0,0,1-1.086,3.121,4.209,4.209,0,0,1-5.832,0,4.5,4.5,0,0,1-1.09-3.187Zm2.258.16a3.16,3.16,0,0,0,.453,1.843,1.628,1.628,0,0,0,2.578.008,3.457,3.457,0,0,0,.461-2.015,3.128,3.128,0,0,0-.461-1.831,1.5,1.5,0,0,0-1.3-.649,1.474,1.474,0,0,0-1.281.646A3.516,3.516,0,0,0,64.6,12.856ZM76.32,14.664a.727.727,0,0,0-.41-.652,4.659,4.659,0,0,0-1.316-.426q-3.016-.633-3.016-2.562a2.323,2.323,0,0,1,.934-1.879,3.766,3.766,0,0,1,2.441-.754,4.053,4.053,0,0,1,2.574.758,2.388,2.388,0,0,1,.965,1.969H76.234a1.092,1.092,0,0,0-.312-.8A1.322,1.322,0,0,0,74.945,10a1.351,1.351,0,0,0-.883.258.814.814,0,0,0-.312.656.7.7,0,0,0,.355.605,3.657,3.657,0,0,0,1.2.4,9.8,9.8,0,0,1,1.422.379,2.336,2.336,0,0,1,1.789,2.273,2.2,2.2,0,0,1-.992,1.871,4.28,4.28,0,0,1-2.562.715,4.47,4.47,0,0,1-1.887-.379,3.166,3.166,0,0,1-1.293-1.039,2.414,2.414,0,0,1-.469-1.426h2.141a1.179,1.179,0,0,0,.445.922,1.766,1.766,0,0,0,1.109.32,1.635,1.635,0,0,0,.98-.246A.766.766,0,0,0,76.32,14.664ZM83.6,12.711a5.094,5.094,0,0,1,.887-3.148,2.877,2.877,0,0,1,2.426-1.172,2.589,2.589,0,0,1,2.039.922V5h2.266V17H89.18l-.109-.9A2.657,2.657,0,0,1,86.9,17.156,2.869,2.869,0,0,1,84.5,15.98,5.258,5.258,0,0,1,83.6,12.711Zm2.258.168a3.337,3.337,0,0,0,.414,1.823,1.349,1.349,0,0,0,1.2.634,1.511,1.511,0,0,0,1.477-.884V11.111a1.489,1.489,0,0,0-1.461-.884Q85.859,10.227,85.859,12.879Zm11,4.277a4.15,4.15,0,0,1-3.027-1.141,4.054,4.054,0,0,1-1.168-3.039v-.219a5.106,5.106,0,0,1,.492-2.277,3.612,3.612,0,0,1,1.395-1.547,3.914,3.914,0,0,1,2.059-.543,3.508,3.508,0,0,1,2.73,1.094,4.444,4.444,0,0,1,1,3.1v.922H94.953a2.1,2.1,0,0,0,.66,1.328,2,2,0,0,0,1.395.5,2.437,2.437,0,0,0,2.039-.945l1.109,1.242a3.389,3.389,0,0,1-1.375,1.121A4.511,4.511,0,0,1,96.859,17.156ZM96.6,10.211a1.411,1.411,0,0,0-1.09.455,2.357,2.357,0,0,0-.535,1.3h3.141v-.181a1.681,1.681,0,0,0-.406-1.165A1.456,1.456,0,0,0,96.6,10.211ZM30.863,35a2.507,2.507,0,0,1-.227-.758,2.732,2.732,0,0,1-2.133.914,3,3,0,0,1-2.059-.719,2.312,2.312,0,0,1-.816-1.812,2.389,2.389,0,0,1,1-2.062,4.915,4.915,0,0,1,2.879-.727h1.039v-.484a1.393,1.393,0,0,0-.3-.937,1.183,1.183,0,0,0-.949-.352,1.345,1.345,0,0,0-.895.273.929.929,0,0,0-.324.75H25.816a2.268,2.268,0,0,1,.453-1.359,3,3,0,0,1,1.281-.98,4.669,4.669,0,0,1,1.859-.355,3.689,3.689,0,0,1,2.48.785,2.747,2.747,0,0,1,.918,2.207v3.664a4.041,4.041,0,0,0,.336,1.82V35ZM29,33.43a1.945,1.945,0,0,0,.922-.223,1.462,1.462,0,0,0,.625-.6V31.156H29.7q-1.7,0-1.8,1.172l-.008.133a.9.9,0,0,0,.3.7A1.153,1.153,0,0,0,29,33.43Zm10.609.711a2.831,2.831,0,0,1-2.312,1.016,2.67,2.67,0,0,1-2.074-.781,3.335,3.335,0,0,1-.73-2.289V26.547h2.258v5.467q0,1.322,1.2,1.322a1.63,1.63,0,0,0,1.578-.8V26.547h2.266V35H39.668Zm3.539-3.43a5.094,5.094,0,0,1,.887-3.148,2.877,2.877,0,0,1,2.426-1.172,2.589,2.589,0,0,1,2.039.922V23h2.266V35H48.723l-.109-.9a2.657,2.657,0,0,1-2.172,1.055,2.869,2.869,0,0,1-2.395-1.176A5.258,5.258,0,0,1,43.145,30.711Zm2.258.168a3.337,3.337,0,0,0,.414,1.823,1.349,1.349,0,0,0,1.2.634,1.511,1.511,0,0,0,1.477-.884V29.111a1.489,1.489,0,0,0-1.461-.884Q45.4,28.227,45.4,30.879ZM54.895,35H52.629V26.547h2.266ZM52.5,24.359a1.112,1.112,0,0,1,.34-.836,1.465,1.465,0,0,1,1.848,0,1.193,1.193,0,0,1,0,1.68,1.448,1.448,0,0,1-1.836,0A1.108,1.108,0,0,1,52.5,24.359Zm6.961.109v2.078H60.9V28.2H59.457v4.219a1.007,1.007,0,0,0,.18.672.9.9,0,0,0,.688.2,3.6,3.6,0,0,0,.664-.055v1.711a4.648,4.648,0,0,1-1.367.2,2.156,2.156,0,0,1-2.422-2.4V28.2H55.965V26.547H57.2V24.469ZM61.574,30.7a5.013,5.013,0,0,1,.484-2.242,3.546,3.546,0,0,1,1.395-1.523,4.069,4.069,0,0,1,2.113-.539,3.849,3.849,0,0,1,2.793,1.047,4.2,4.2,0,0,1,1.207,2.844l.016.578A4.418,4.418,0,0,1,68.5,33.98a4.209,4.209,0,0,1-5.832,0,4.5,4.5,0,0,1-1.09-3.187Zm2.258.16a3.16,3.16,0,0,0,.453,1.843,1.628,1.628,0,0,0,2.578.008,3.457,3.457,0,0,0,.461-2.015,3.128,3.128,0,0,0-.461-1.831,1.5,1.5,0,0,0-1.3-.649,1.474,1.474,0,0,0-1.281.646A3.516,3.516,0,0,0,63.832,30.856Zm11.891-2.192a6.134,6.134,0,0,0-.812-.062,1.654,1.654,0,0,0-1.68.867V35H70.973V26.547h2.133l.063,1.008a2.092,2.092,0,0,1,1.883-1.164,2.366,2.366,0,0,1,.7.1ZM79.246,35H76.988V26.547h2.258Zm-.664-11.883h2.461l-2.164,2.422H77.043ZM86.09,35a2.507,2.507,0,0,1-.227-.758,2.732,2.732,0,0,1-2.133.914,3,3,0,0,1-2.059-.719,2.312,2.312,0,0,1-.816-1.812,2.389,2.389,0,0,1,1-2.062,4.915,4.915,0,0,1,2.879-.727H85.77v-.484a1.393,1.393,0,0,0-.3-.937,1.183,1.183,0,0,0-.949-.352,1.345,1.345,0,0,0-.895.273.929.929,0,0,0-.324.75H81.043a2.268,2.268,0,0,1,.453-1.359,3,3,0,0,1,1.281-.98,4.669,4.669,0,0,1,1.859-.355,3.689,3.689,0,0,1,2.48.785,2.747,2.747,0,0,1,.918,2.207v3.664a4.041,4.041,0,0,0,.336,1.82V35Zm-1.867-1.57a1.945,1.945,0,0,0,.922-.223,1.462,1.462,0,0,0,.625-.6V31.156h-.844q-1.7,0-1.8,1.172l-.008.133a.9.9,0,0,0,.3.7A1.153,1.153,0,0,0,84.223,33.43Z" transform="translate(-9837 -9228.693)" fill="#12263f"/></g><g transform="translate(641.256 889.269)"><g transform="translate(-9490.598 -9050)"><path d="M22.723,14.656H18.613L17.832,17H15.34L19.574,5.625h2.172L26,17H23.512Zm-3.477-1.9H22.09L20.66,8.5Zm12.648,3.383a2.831,2.831,0,0,1-2.312,1.016,2.67,2.67,0,0,1-2.074-.781,3.335,3.335,0,0,1-.73-2.289V8.547h2.258v5.467q0,1.322,1.2,1.322a1.63,1.63,0,0,0,1.578-.8V8.547h2.266V17H31.957Zm3.539-3.43a5.094,5.094,0,0,1,.887-3.148,2.877,2.877,0,0,1,2.426-1.172,2.589,2.589,0,0,1,2.039.922V5h2.266V17H41.012l-.109-.9a2.657,2.657,0,0,1-2.172,1.055,2.869,2.869,0,0,1-2.395-1.176A5.258,5.258,0,0,1,35.434,12.711Zm2.258.168a3.337,3.337,0,0,0,.414,1.823,1.349,1.349,0,0,0,1.2.634,1.511,1.511,0,0,0,1.477-.884V11.111a1.489,1.489,0,0,0-1.461-.884Q37.691,10.227,37.691,12.879ZM47.184,17H44.918V8.547h2.266Zm-2.4-10.641a1.112,1.112,0,0,1,.34-.836,1.465,1.465,0,0,1,1.848,0,1.105,1.105,0,0,1,.344.836,1.108,1.108,0,0,1-.348.844,1.448,1.448,0,0,1-1.836,0A1.108,1.108,0,0,1,44.785,6.359Zm6.961.109V8.547h1.445V10.2H51.746v4.219a1.007,1.007,0,0,0,.18.672.9.9,0,0,0,.688.2,3.6,3.6,0,0,0,.664-.055v1.711a4.648,4.648,0,0,1-1.367.2,2.156,2.156,0,0,1-2.422-2.4V10.2H48.254V8.547h1.234V6.469ZM53.863,12.7a5.013,5.013,0,0,1,.484-2.242A3.546,3.546,0,0,1,55.742,8.93a4.069,4.069,0,0,1,2.113-.539,3.849,3.849,0,0,1,2.793,1.047,4.2,4.2,0,0,1,1.207,2.844l.016.578a4.418,4.418,0,0,1-1.086,3.121,4.209,4.209,0,0,1-5.832,0,4.5,4.5,0,0,1-1.09-3.187Zm2.258.16a3.16,3.16,0,0,0,.453,1.843,1.628,1.628,0,0,0,2.578.008,3.457,3.457,0,0,0,.461-2.015,3.128,3.128,0,0,0-.461-1.831,1.5,1.5,0,0,0-1.3-.649,1.474,1.474,0,0,0-1.281.646A3.516,3.516,0,0,0,56.121,12.856Zm11.891-2.192A6.134,6.134,0,0,0,67.2,10.6a1.654,1.654,0,0,0-1.68.867V17H63.262V8.547h2.133l.063,1.008A2.092,2.092,0,0,1,67.34,8.391a2.366,2.366,0,0,1,.7.1ZM71.48,17H69.215V8.547H71.48Zm-2.4-10.641a1.112,1.112,0,0,1,.34-.836,1.465,1.465,0,0,1,1.848,0,1.105,1.105,0,0,1,.344.836,1.108,1.108,0,0,1-.348.844,1.448,1.448,0,0,1-1.836,0A1.108,1.108,0,0,1,69.082,6.359ZM78.238,17a2.507,2.507,0,0,1-.227-.758,2.732,2.732,0,0,1-2.133.914,3,3,0,0,1-2.059-.719A2.312,2.312,0,0,1,73,14.625a2.389,2.389,0,0,1,1-2.062,4.915,4.915,0,0,1,2.879-.727h1.039v-.484a1.393,1.393,0,0,0-.3-.937,1.183,1.183,0,0,0-.949-.352,1.345,1.345,0,0,0-.895.273.929.929,0,0,0-.324.75H73.191a2.268,2.268,0,0,1,.453-1.359,3,3,0,0,1,1.281-.98,4.669,4.669,0,0,1,1.859-.355,3.689,3.689,0,0,1,2.48.785,2.747,2.747,0,0,1,.918,2.207v3.664a4.041,4.041,0,0,0,.336,1.82V17Zm-1.867-1.57a1.945,1.945,0,0,0,.922-.223,1.462,1.462,0,0,0,.625-.6V13.156h-.844q-1.7,0-1.8,1.172l-.008.133a.9.9,0,0,0,.3.7A1.153,1.153,0,0,0,76.371,15.43Zm9.18-2.719a5.094,5.094,0,0,1,.887-3.148,2.877,2.877,0,0,1,2.426-1.172,2.589,2.589,0,0,1,2.039.922V5h2.266V17H91.129l-.109-.9a2.657,2.657,0,0,1-2.172,1.055,2.869,2.869,0,0,1-2.395-1.176A5.258,5.258,0,0,1,85.551,12.711Zm2.258.168a3.337,3.337,0,0,0,.414,1.823,1.349,1.349,0,0,0,1.2.634,1.511,1.511,0,0,0,1.477-.884V11.111a1.489,1.489,0,0,0-1.461-.884Q87.809,10.227,87.809,12.879Zm11,4.277a4.15,4.15,0,0,1-3.027-1.141,4.054,4.054,0,0,1-1.168-3.039v-.219a5.106,5.106,0,0,1,.492-2.277A3.612,3.612,0,0,1,96.5,8.934a3.914,3.914,0,0,1,2.059-.543,3.508,3.508,0,0,1,2.73,1.094,4.444,4.444,0,0,1,1,3.1v.922H96.9a2.1,2.1,0,0,0,.66,1.328,2,2,0,0,0,1.395.5A2.437,2.437,0,0,0,101,14.391l1.109,1.242a3.389,3.389,0,0,1-1.375,1.121A4.511,4.511,0,0,1,98.809,17.156Zm-.258-6.945a1.411,1.411,0,0,0-1.09.455,2.357,2.357,0,0,0-.535,1.3h3.141v-.181a1.681,1.681,0,0,0-.406-1.165A1.456,1.456,0,0,0,98.551,10.211ZM14.188,30.469v2.078h1.445V34.2H14.188v4.219a1.007,1.007,0,0,0,.18.672.9.9,0,0,0,.688.2,3.6,3.6,0,0,0,.664-.055v1.711a4.648,4.648,0,0,1-1.367.2,2.156,2.156,0,0,1-2.422-2.4V34.2H10.7V32.547H11.93V30.469Zm6.594,10.688a4.15,4.15,0,0,1-3.027-1.141,4.054,4.054,0,0,1-1.168-3.039v-.219a5.106,5.106,0,0,1,.492-2.277,3.612,3.612,0,0,1,1.395-1.547,3.914,3.914,0,0,1,2.059-.543,3.508,3.508,0,0,1,2.73,1.094,4.444,4.444,0,0,1,1,3.1v.922H18.875a2.1,2.1,0,0,0,.66,1.328,2,2,0,0,0,1.395.5,2.437,2.437,0,0,0,2.039-.945l1.109,1.242A3.389,3.389,0,0,1,22.7,40.754,4.511,4.511,0,0,1,20.781,41.156Zm-.258-6.945a1.411,1.411,0,0,0-1.09.455,2.357,2.357,0,0,0-.535,1.3h3.141v-.181a1.681,1.681,0,0,0-.406-1.165A1.456,1.456,0,0,0,20.523,34.211Zm9.766.453a6.134,6.134,0,0,0-.812-.062,1.654,1.654,0,0,0-1.68.867V41H25.539V32.547h2.133l.063,1.008a2.092,2.092,0,0,1,1.883-1.164,2.366,2.366,0,0,1,.7.1Zm4.453,4.672a1.481,1.481,0,0,0,1.016-.344,1.2,1.2,0,0,0,.406-.914h2.117a2.9,2.9,0,0,1-.469,1.574,3.093,3.093,0,0,1-1.262,1.109,3.949,3.949,0,0,1-1.77.395A3.67,3.67,0,0,1,31.922,40a4.56,4.56,0,0,1-1.047-3.184v-.148a4.508,4.508,0,0,1,1.039-3.117,3.627,3.627,0,0,1,2.852-1.164,3.555,3.555,0,0,1,2.543.9,3.2,3.2,0,0,1,.973,2.4H36.164a1.551,1.551,0,0,0-.406-1.072,1.51,1.51,0,0,0-2.223.163,3.333,3.333,0,0,0-.4,1.866v.235a3.375,3.375,0,0,0,.4,1.878A1.377,1.377,0,0,0,34.742,39.336Zm8.719,1.82a4.15,4.15,0,0,1-3.027-1.141,4.054,4.054,0,0,1-1.168-3.039v-.219a5.106,5.106,0,0,1,.492-2.277,3.612,3.612,0,0,1,1.395-1.547,3.914,3.914,0,0,1,2.059-.543,3.508,3.508,0,0,1,2.73,1.094,4.444,4.444,0,0,1,1,3.1v.922H41.555a2.1,2.1,0,0,0,.66,1.328,2,2,0,0,0,1.395.5,2.437,2.437,0,0,0,2.039-.945l1.109,1.242a3.389,3.389,0,0,1-1.375,1.121A4.511,4.511,0,0,1,43.461,41.156ZM43.2,34.211a1.411,1.411,0,0,0-1.09.455,2.357,2.357,0,0,0-.535,1.3h3.141v-.181a1.681,1.681,0,0,0-.406-1.165A1.456,1.456,0,0,0,43.2,34.211Zm9.766.453a6.134,6.134,0,0,0-.812-.062,1.654,1.654,0,0,0-1.68.867V41H48.219V32.547h2.133l.063,1.008A2.092,2.092,0,0,1,52.3,32.391a2.366,2.366,0,0,1,.7.1ZM58.719,41a2.507,2.507,0,0,1-.227-.758,2.732,2.732,0,0,1-2.133.914,3,3,0,0,1-2.059-.719,2.312,2.312,0,0,1-.816-1.812,2.389,2.389,0,0,1,1-2.062,4.915,4.915,0,0,1,2.879-.727H58.4v-.484a1.393,1.393,0,0,0-.3-.937,1.183,1.183,0,0,0-.949-.352,1.345,1.345,0,0,0-.895.273.929.929,0,0,0-.324.75H53.672a2.268,2.268,0,0,1,.453-1.359,3,3,0,0,1,1.281-.98,4.669,4.669,0,0,1,1.859-.355,3.689,3.689,0,0,1,2.48.785,2.747,2.747,0,0,1,.918,2.207v3.664A4.041,4.041,0,0,0,61,40.867V41Zm-1.867-1.57a1.945,1.945,0,0,0,.922-.223,1.462,1.462,0,0,0,.625-.6V37.156h-.844q-1.7,0-1.8,1.172l-.008.133a.9.9,0,0,0,.3.7A1.153,1.153,0,0,0,56.852,39.43Zm17.141-2.578a5.07,5.07,0,0,1-.887,3.129,2.843,2.843,0,0,1-2.395,1.176,2.633,2.633,0,0,1-2.07-.891V44.25H66.383v-11.7h2.094l.078.828a2.654,2.654,0,0,1,2.141-.984,2.862,2.862,0,0,1,2.43,1.156,5.207,5.207,0,0,1,.867,3.188Zm-2.258-.164a3.327,3.327,0,0,0-.418-1.82,1.361,1.361,0,0,0-1.215-.641,1.478,1.478,0,0,0-1.461.813V38.5a1.5,1.5,0,0,0,1.477.836Q71.734,39.336,71.734,36.688ZM80.289,41a2.507,2.507,0,0,1-.227-.758,2.732,2.732,0,0,1-2.133.914,3,3,0,0,1-2.059-.719,2.312,2.312,0,0,1-.816-1.812,2.389,2.389,0,0,1,1-2.062,4.915,4.915,0,0,1,2.879-.727h1.039v-.484a1.393,1.393,0,0,0-.3-.937,1.183,1.183,0,0,0-.949-.352,1.345,1.345,0,0,0-.895.273.929.929,0,0,0-.324.75H75.242a2.268,2.268,0,0,1,.453-1.359,3,3,0,0,1,1.281-.98,4.669,4.669,0,0,1,1.859-.355,3.689,3.689,0,0,1,2.48.785,2.747,2.747,0,0,1,.918,2.207v3.664a4.041,4.041,0,0,0,.336,1.82V41Zm-1.867-1.57a1.945,1.945,0,0,0,.922-.223,1.462,1.462,0,0,0,.625-.6V37.156h-.844q-1.7,0-1.8,1.172l-.008.133a.9.9,0,0,0,.3.7A1.153,1.153,0,0,0,78.422,39.43Zm10.3-4.766a6.134,6.134,0,0,0-.812-.062,1.654,1.654,0,0,0-1.68.867V41H83.969V32.547H86.1l.063,1.008a2.092,2.092,0,0,1,1.883-1.164,2.366,2.366,0,0,1,.7.1Zm4.18-4.2v2.078h1.445V34.2H92.9v4.219a1.007,1.007,0,0,0,.18.672.9.9,0,0,0,.688.2,3.6,3.6,0,0,0,.664-.055v1.711a4.648,4.648,0,0,1-1.367.2,2.156,2.156,0,0,1-2.422-2.4V34.2H89.406V32.547h1.234V30.469Zm6.594,10.688a4.15,4.15,0,0,1-3.027-1.141A4.054,4.054,0,0,1,95.3,36.977v-.219a5.106,5.106,0,0,1,.492-2.277,3.612,3.612,0,0,1,1.395-1.547,3.914,3.914,0,0,1,2.059-.543,3.508,3.508,0,0,1,2.73,1.094,4.444,4.444,0,0,1,1,3.1v.922H97.586a2.1,2.1,0,0,0,.66,1.328,2,2,0,0,0,1.395.5,2.437,2.437,0,0,0,2.039-.945l1.109,1.242a3.389,3.389,0,0,1-1.375,1.121A4.511,4.511,0,0,1,99.492,41.156Zm-.258-6.945a1.411,1.411,0,0,0-1.09.455,2.357,2.357,0,0,0-.535,1.3h3.141v-.181a1.681,1.681,0,0,0-.406-1.165A1.456,1.456,0,0,0,99.234,34.211Z" transform="translate(0 0)" fill="#12263f"/></g></g><g transform="translate(572.554 938.557)"><g transform="translate(-9531.896 -8874.5)"><g transform="translate(70 16)"><path d="M16.789,12.07h-4.5v3.047H17.57V17H9.945V5.625h7.609v1.9H12.289v2.711h4.5Zm4.086-3.523.07.977a2.951,2.951,0,0,1,2.43-1.133,2.453,2.453,0,0,1,2,.789,3.682,3.682,0,0,1,.672,2.359V17H23.789V11.594a1.465,1.465,0,0,0-.312-1.043,1.4,1.4,0,0,0-1.039-.324,1.553,1.553,0,0,0-1.43.813V17H18.75V8.547ZM28.375,17V10.2H27.117V8.547h1.258V7.828a2.918,2.918,0,0,1,.816-2.207,3.162,3.162,0,0,1,2.285-.785,5.278,5.278,0,0,1,1.148.156L32.6,6.742a2.878,2.878,0,0,0-.687-.07q-1.273,0-1.273,1.2v.68h1.68V10.2h-1.68V17Zm4.766-4.3a5.013,5.013,0,0,1,.484-2.242A3.546,3.546,0,0,1,35.02,8.93a4.069,4.069,0,0,1,2.113-.539,3.849,3.849,0,0,1,2.793,1.047,4.2,4.2,0,0,1,1.207,2.844l.016.578a4.418,4.418,0,0,1-1.086,3.121,4.209,4.209,0,0,1-5.832,0,4.5,4.5,0,0,1-1.09-3.187Zm2.258.16a3.16,3.16,0,0,0,.453,1.843,1.628,1.628,0,0,0,2.578.008,3.457,3.457,0,0,0,.461-2.015,3.128,3.128,0,0,0-.461-1.831,1.5,1.5,0,0,0-1.3-.649,1.474,1.474,0,0,0-1.281.646A3.516,3.516,0,0,0,35.4,12.856Zm6.789-.16a5.053,5.053,0,0,1,.887-3.148,2.9,2.9,0,0,1,2.434-1.156A2.6,2.6,0,0,1,47.672,9.43l.148-.883H49.8v11.7H47.539V16.273a2.6,2.6,0,0,1-2.047.883,2.878,2.878,0,0,1-2.406-1.172A5.3,5.3,0,0,1,42.188,12.7Zm2.258.16a3.314,3.314,0,0,0,.426,1.847,1.363,1.363,0,0,0,1.2.634,1.518,1.518,0,0,0,1.469-.829v-3.5a1.506,1.506,0,0,0-1.453-.8,1.38,1.38,0,0,0-1.211.634A3.661,3.661,0,0,0,44.445,12.856Zm12.2,3.285a2.831,2.831,0,0,1-2.312,1.016,2.67,2.67,0,0,1-2.074-.781,3.335,3.335,0,0,1-.73-2.289V8.547h2.258v5.467q0,1.322,1.2,1.322a1.63,1.63,0,0,0,1.578-.8V8.547h2.266V17H56.7Zm7.781,1.016a4.15,4.15,0,0,1-3.027-1.141,4.054,4.054,0,0,1-1.168-3.039v-.219a5.106,5.106,0,0,1,.492-2.277,3.612,3.612,0,0,1,1.395-1.547,3.914,3.914,0,0,1,2.059-.543A3.508,3.508,0,0,1,66.9,9.484a4.444,4.444,0,0,1,1,3.1v.922H62.516a2.1,2.1,0,0,0,.66,1.328,2,2,0,0,0,1.395.5,2.437,2.437,0,0,0,2.039-.945l1.109,1.242a3.389,3.389,0,0,1-1.375,1.121A4.511,4.511,0,0,1,64.422,17.156Zm-.258-6.945a1.411,1.411,0,0,0-1.09.455,2.357,2.357,0,0,0-.535,1.3H65.68v-.181a1.681,1.681,0,0,0-.406-1.165A1.456,1.456,0,0,0,64.164,10.211Zm12.891,6.945a4.15,4.15,0,0,1-3.027-1.141,4.054,4.054,0,0,1-1.168-3.039v-.219a5.106,5.106,0,0,1,.492-2.277,3.612,3.612,0,0,1,1.395-1.547A3.914,3.914,0,0,1,76.8,8.391a3.508,3.508,0,0,1,2.73,1.094,4.444,4.444,0,0,1,1,3.1v.922H75.148a2.1,2.1,0,0,0,.66,1.328,2,2,0,0,0,1.395.5,2.437,2.437,0,0,0,2.039-.945l1.109,1.242a3.389,3.389,0,0,1-1.375,1.121A4.511,4.511,0,0,1,77.055,17.156ZM76.8,10.211a1.411,1.411,0,0,0-1.09.455,2.357,2.357,0,0,0-.535,1.3h3.141v-.181a1.681,1.681,0,0,0-.406-1.165A1.456,1.456,0,0,0,76.8,10.211Zm7.094-1.664.07.977a2.951,2.951,0,0,1,2.43-1.133,2.453,2.453,0,0,1,2,.789,3.682,3.682,0,0,1,.672,2.359V17H86.8V11.594a1.465,1.465,0,0,0-.312-1.043,1.4,1.4,0,0,0-1.039-.324,1.553,1.553,0,0,0-1.43.813V17H81.766V8.547Zm15.445,6.117a.727.727,0,0,0-.41-.652,4.659,4.659,0,0,0-1.316-.426q-3.016-.633-3.016-2.562a2.323,2.323,0,0,1,.934-1.879,3.766,3.766,0,0,1,2.441-.754,4.053,4.053,0,0,1,2.574.758,2.388,2.388,0,0,1,.965,1.969H99.25a1.092,1.092,0,0,0-.312-.8A1.322,1.322,0,0,0,97.961,10a1.351,1.351,0,0,0-.883.258.814.814,0,0,0-.312.656.7.7,0,0,0,.355.605,3.657,3.657,0,0,0,1.2.4,9.8,9.8,0,0,1,1.422.379,2.336,2.336,0,0,1,1.789,2.273,2.2,2.2,0,0,1-.992,1.871,4.28,4.28,0,0,1-2.562.715,4.47,4.47,0,0,1-1.887-.379A3.166,3.166,0,0,1,94.8,15.738a2.414,2.414,0,0,1-.469-1.426h2.141a1.179,1.179,0,0,0,.445.922,1.766,1.766,0,0,0,1.109.32,1.635,1.635,0,0,0,.98-.246A.766.766,0,0,0,99.336,14.664Zm8.711,1.477a2.831,2.831,0,0,1-2.312,1.016,2.67,2.67,0,0,1-2.074-.781,3.335,3.335,0,0,1-.73-2.289V8.547h2.258v5.467q0,1.322,1.2,1.322a1.63,1.63,0,0,0,1.578-.8V8.547h2.266V17h-2.125ZM13.961,32.7a5.013,5.013,0,0,1,.484-2.242A3.546,3.546,0,0,1,15.84,28.93a4.069,4.069,0,0,1,2.113-.539,3.849,3.849,0,0,1,2.793,1.047,4.2,4.2,0,0,1,1.207,2.844l.016.578a4.418,4.418,0,0,1-1.086,3.121,3.775,3.775,0,0,1-2.914,1.176,3.793,3.793,0,0,1-2.918-1.172,4.5,4.5,0,0,1-1.09-3.187Zm2.258.16a3.16,3.16,0,0,0,.453,1.843,1.628,1.628,0,0,0,2.578.008,3.457,3.457,0,0,0,.461-2.015,3.128,3.128,0,0,0-.461-1.831,1.5,1.5,0,0,0-1.3-.649,1.474,1.474,0,0,0-1.281.646A3.516,3.516,0,0,0,16.219,32.856Zm11.891-2.192A6.134,6.134,0,0,0,27.3,30.6a1.654,1.654,0,0,0-1.68.867V37H23.359V28.547h2.133l.063,1.008a2.092,2.092,0,0,1,1.883-1.164,2.366,2.366,0,0,1,.7.1Zm.758,2.047a4.954,4.954,0,0,1,.926-3.133,3,3,0,0,1,2.5-1.187,2.631,2.631,0,0,1,2.164.953l.094-.8h2.047v8.172a3.613,3.613,0,0,1-.5,1.93,3.236,3.236,0,0,1-1.418,1.25,4.985,4.985,0,0,1-2.141.43,4.635,4.635,0,0,1-1.812-.371A3.217,3.217,0,0,1,29.383,39l1-1.375a2.645,2.645,0,0,0,2.047.945,1.936,1.936,0,0,0,1.4-.48,1.8,1.8,0,0,0,.5-1.363v-.453a2.612,2.612,0,0,1-2.055.883,2.992,2.992,0,0,1-2.465-1.191,4.953,4.953,0,0,1-.941-3.16Zm2.258.168a3.085,3.085,0,0,0,.461,1.8,1.466,1.466,0,0,0,1.266.653,1.568,1.568,0,0,0,1.477-.775V31a1.564,1.564,0,0,0-1.461-.775,1.476,1.476,0,0,0-1.277.665A3.477,3.477,0,0,0,31.125,32.879ZM43.227,37A2.507,2.507,0,0,1,43,36.242a2.732,2.732,0,0,1-2.133.914,3,3,0,0,1-2.059-.719,2.312,2.312,0,0,1-.816-1.812,2.389,2.389,0,0,1,1-2.062,4.915,4.915,0,0,1,2.879-.727h1.039v-.484a1.393,1.393,0,0,0-.3-.937,1.183,1.183,0,0,0-.949-.352,1.345,1.345,0,0,0-.895.273.929.929,0,0,0-.324.75H38.18a2.268,2.268,0,0,1,.453-1.359,3,3,0,0,1,1.281-.98,4.669,4.669,0,0,1,1.859-.355,3.689,3.689,0,0,1,2.48.785,2.747,2.747,0,0,1,.918,2.207v3.664a4.041,4.041,0,0,0,.336,1.82V37Zm-1.867-1.57a1.945,1.945,0,0,0,.922-.223,1.462,1.462,0,0,0,.625-.6V33.156h-.844q-1.7,0-1.8,1.172l-.008.133a.9.9,0,0,0,.3.7A1.153,1.153,0,0,0,41.359,35.43Zm7.625-6.883.07.977a2.951,2.951,0,0,1,2.43-1.133,2.453,2.453,0,0,1,2,.789,3.682,3.682,0,0,1,.672,2.359V37H51.9V31.594a1.465,1.465,0,0,0-.312-1.043,1.4,1.4,0,0,0-1.039-.324,1.553,1.553,0,0,0-1.43.813V37H46.859V28.547ZM58.25,37H55.984V28.547H58.25Zm-2.4-10.641a1.112,1.112,0,0,1,.34-.836,1.465,1.465,0,0,1,1.848,0,1.193,1.193,0,0,1,0,1.68,1.448,1.448,0,0,1-1.836,0A1.108,1.108,0,0,1,55.852,26.359ZM62.7,35.18h4.133V37H59.82V35.625L63.8,30.367H59.938v-1.82h6.773v1.33ZM73.148,37a2.507,2.507,0,0,1-.227-.758,2.732,2.732,0,0,1-2.133.914,3,3,0,0,1-2.059-.719,2.312,2.312,0,0,1-.816-1.812,2.389,2.389,0,0,1,1-2.062,4.915,4.915,0,0,1,2.879-.727h1.039v-.484a1.393,1.393,0,0,0-.3-.937,1.183,1.183,0,0,0-.949-.352,1.345,1.345,0,0,0-.895.273.929.929,0,0,0-.324.75H68.1a2.268,2.268,0,0,1,.453-1.359,3,3,0,0,1,1.281-.98,4.669,4.669,0,0,1,1.859-.355,3.689,3.689,0,0,1,2.48.785,2.747,2.747,0,0,1,.918,2.207v3.664a4.041,4.041,0,0,0,.336,1.82V37Zm-1.867-1.57a1.945,1.945,0,0,0,.922-.223,1.462,1.462,0,0,0,.625-.6V33.156h-.844q-1.7,0-1.8,1.172l-.008.133a.9.9,0,0,0,.3.7A1.153,1.153,0,0,0,71.281,35.43Zm9.063-.094a1.481,1.481,0,0,0,1.016-.344,1.2,1.2,0,0,0,.406-.914h2.117a2.9,2.9,0,0,1-.469,1.574,3.093,3.093,0,0,1-1.262,1.109,3.949,3.949,0,0,1-1.77.395A3.67,3.67,0,0,1,77.523,36a4.56,4.56,0,0,1-1.047-3.184v-.148a4.508,4.508,0,0,1,1.039-3.117,3.627,3.627,0,0,1,2.852-1.164,3.555,3.555,0,0,1,2.543.9,3.2,3.2,0,0,1,.973,2.4H81.766a1.551,1.551,0,0,0-.406-1.072,1.51,1.51,0,0,0-2.223.163,3.333,3.333,0,0,0-.4,1.866v.235a3.375,3.375,0,0,0,.4,1.878A1.377,1.377,0,0,0,80.344,35.336ZM87.555,37H85.289V28.547h2.266Zm-2.4-10.641a1.112,1.112,0,0,1,.34-.836,1.465,1.465,0,0,1,1.848,0,1.193,1.193,0,0,1,0,1.68,1.448,1.448,0,0,1-1.836,0A1.108,1.108,0,0,1,85.156,26.359ZM89.063,32.7a5.013,5.013,0,0,1,.484-2.242,3.546,3.546,0,0,1,1.395-1.523,4.069,4.069,0,0,1,2.113-.539,3.849,3.849,0,0,1,2.793,1.047,4.2,4.2,0,0,1,1.207,2.844l.016.578a4.418,4.418,0,0,1-1.086,3.121,4.209,4.209,0,0,1-5.832,0,4.5,4.5,0,0,1-1.09-3.187Zm2.258.16a3.16,3.16,0,0,0,.453,1.843,1.628,1.628,0,0,0,2.578.008,3.457,3.457,0,0,0,.461-2.015,3.128,3.128,0,0,0-.461-1.831,1.5,1.5,0,0,0-1.3-.649,1.474,1.474,0,0,0-1.281.646A3.516,3.516,0,0,0,91.32,32.856ZM93.5,25h2.461L93.8,27.422H91.961Zm7.039,3.547.07.977a2.951,2.951,0,0,1,2.43-1.133,2.453,2.453,0,0,1,2,.789,3.682,3.682,0,0,1,.672,2.359V37h-2.258V31.594a1.465,1.465,0,0,0-.312-1.043,1.4,1.4,0,0,0-1.039-.324,1.553,1.553,0,0,0-1.43.813V37H98.414V28.547Z" transform="translate(37 -5.5)" fill="#12263f"/></g></g></g></g></svg>