<svg xmlns="http://www.w3.org/2000/svg" width="172.788" height="145.779" viewBox="0 0 172.788 145.779"><g transform="translate(-180 -1780.221)"><g transform="translate(180 1780.221)"><g transform="translate(0 0)"><path d="M1308.486,866.478v-6.729a5.532,5.532,0,0,1,5.532-5.533h58.9a5.533,5.533,0,0,1,5.533,5.533V978.7H1226.1V866.478Z" transform="translate(-1207.823 -833.306)" fill="#fff"/><path d="M1303.355,866.478v-6.729a5.532,5.532,0,0,1,5.532-5.533h58.9a5.533,5.533,0,0,1,5.533,5.533V978.7H1220.966V866.478Z" transform="translate(-1203.181 -833.306)" fill="#40327b"/><path d="M1426.226,1026.5v107.571H1285.094v-108.1Z" transform="translate(-1261.192 -988.68)" fill="#ab9df1"/><path d="M1344.992,1026.5v107.571H1203.86v-108.1Z" transform="translate(-1187.707 -988.68)" fill="#826be9"/><path d="M1074.38,982.777h139.428a5.3,5.3,0,0,1,5.381,4.614V1095H1067.016V990.121A7.564,7.564,0,0,1,1074.38,982.777Z" transform="translate(-1063.916 -949.604)" fill="#d5cef8"/><g transform="translate(61.607 11.188)"><g transform="translate(0 0)"><rect width="81.491" height="61.931" transform="translate(81.491 62.159) rotate(-179.84)" fill="#d5cef8"/><rect width="77.323" height="56.934" transform="translate(79.456 59.177) rotate(-179.84)" fill="#583ae2"/><path d="M1973.808,1076.078l-49.69-.139,27.169-26.064Z" transform="translate(-1900.869 -1021.489)" fill="#e3eeff"/><path d="M1812.231,1118.519l-41.75-.117,22.655-21.542Z" transform="translate(-1761.886 -1063.994)" fill="#e3eeff"/><circle cx="5.754" cy="5.754" r="5.754" transform="translate(26.761 22.587) rotate(-45)" fill="#e3eeff"/></g></g><g transform="translate(50.753 0)"><g transform="translate(0 0)"><rect width="75.549" height="65.7" transform="matrix(-1, -0.003, 0.003, -1, 75.548, 65.942)" fill="#d5cef8"/><rect width="71.258" height="60.399" transform="translate(73.455 62.779) rotate(-179.815)" fill="#583ae2"/></g><g transform="translate(8.912 10.718)"><rect width="28.38" height="2.493" transform="translate(29.359)" fill="#d5cef8"/><rect width="57.739" height="2.493" transform="translate(57.739 9.226) rotate(180)" fill="#d5cef8"/><rect width="57.739" height="2.493" transform="translate(57.739 16.082) rotate(180)" fill="#d5cef8"/></g></g><path d="M1067.342,982.777h139.428a5.3,5.3,0,0,1,5.381,4.614v107.991H1059.978V990.121A7.564,7.564,0,0,1,1067.342,982.777Z" transform="translate(-1057.549 -949.604)" fill="#40327b"/><rect width="15.354" height="0.619" transform="translate(170.626 145.393) rotate(180)" fill="#fff"/><path d="M1234.543,1459.925l-5.593,3.649h-7.39l-2.372,1.825v-1.733H1067.017v-3.74Z" transform="translate(-1063.917 -1381.239)" opacity="0.5" style="mix-blend-mode:darken;isolation:isolate"/><g transform="translate(0 60.833)"><g transform="translate(0)"><rect width="172.788" height="19.523" transform="translate(172.788 19.523) rotate(180)" fill="#826be9"/><rect width="157.233" height="19.523" transform="translate(157.233 19.523) rotate(180)" fill="#583ae2"/></g></g></g><g transform="translate(35.546 40.74)"><g transform="translate(1.499 1.5)"><g transform="translate(36.493 17.666)"><path d="M191.711,116.591v44.263a6.316,6.316,0,0,0,6.316,6.316H247.6a6.316,6.316,0,0,0,6.316-6.316V102.146A6.316,6.316,0,0,0,247.6,95.83H212.472a7.9,7.9,0,0,0-5.583,2.312l-12.866,12.866A7.9,7.9,0,0,0,191.711,116.591Z" transform="translate(-191.711 -95.83)" fill="#ab9df1"/></g><g transform="translate(30.605 11.777)"><path d="M162.267,87.147V131.41a6.316,6.316,0,0,0,6.316,6.316h49.572a6.316,6.316,0,0,0,6.316-6.316V72.7a6.316,6.316,0,0,0-6.316-6.316H183.028a7.9,7.9,0,0,0-5.583,2.312L164.579,81.565a7.9,7.9,0,0,0-2.312,5.583Z" transform="translate(-162.267 -66.386)" fill="#f3f1ff"/></g><g transform="translate(24.716 5.888)"><path d="M132.824,57.7v44.263a6.316,6.316,0,0,0,6.316,6.316h49.572a6.316,6.316,0,0,0,6.316-6.316V43.259a6.316,6.316,0,0,0-6.316-6.316H153.585A7.9,7.9,0,0,0,148,39.255L135.136,52.122A7.9,7.9,0,0,0,132.824,57.7Z" transform="translate(-132.824 -36.943)" fill="#f6f6f6"/></g><g transform="translate(18.827)"><path d="M103.381,28.261V72.524A6.316,6.316,0,0,0,109.7,78.84h49.572a6.316,6.316,0,0,0,6.316-6.316V13.816A6.316,6.316,0,0,0,159.269,7.5H124.142a7.9,7.9,0,0,0-5.583,2.312L105.693,22.679A7.9,7.9,0,0,0,103.381,28.261Z" transform="matrix(1, -0.017, 0.017, 1, -104.114, -5.146)" fill="#f6f6f6"/><path d="M103.38,28.263v1.348A4.62,4.62,0,0,1,108,24.992h6.556a6.316,6.316,0,0,0,6.316-6.316V12.12A4.62,4.62,0,0,1,125.49,7.5h-1.348a7.9,7.9,0,0,0-5.584,2.313L105.693,22.679A7.9,7.9,0,0,0,103.38,28.263Z" transform="translate(-103.38 -7.501)" fill="#d5cef8"/></g><g transform="translate(0 38.512)"><path d="M0,0H7.5V17.37H0Z" transform="translate(23.188 32.392) rotate(45)" fill="#407093"/><path d="M0,0H3.749V17.37H0Z" transform="translate(23.188 32.392) rotate(45)" fill="#365e7d"/><ellipse cx="22.221" cy="22.221" rx="22.221" ry="22.221" transform="translate(16.443 0)" fill="#ffe07d"/><path d="M99.35,239.272q-.712-.6-1.382-1.27a22.221,22.221,0,0,1,31.425-31.425q.67.67,1.27,1.382A22.221,22.221,0,0,0,99.35,239.272Z" transform="translate(-75.016 -200.068)" fill="#ffd064"/><path d="M15.709,0A15.709,15.709,0,1,1,0,15.709,15.709,15.709,0,0,1,15.709,0Z" transform="translate(22.955 6.512)" fill="#d5cef8"/><path d="M131.058,261.437a15.709,15.709,0,1,1,21.774-21.774,15.712,15.712,0,0,0-21.774,21.774Z" transform="translate(-101.067 -226.116)" fill="#c9c0f1"/><path d="M14.6,414.256l-4.346-4.346a3.468,3.468,0,0,1,0-4.9l11.024-11.024a3.468,3.468,0,0,1,4.9,0l4.346,4.346a3.468,3.468,0,0,1,0,4.9L19.508,414.256a3.468,3.468,0,0,1-4.9,0Z" transform="translate(-9.242 -354.388)" fill="#583ae2"/><path d="M13.437,413.088l-3.181-3.18a3.467,3.467,0,0,1,0-4.905L21.28,393.978a3.467,3.467,0,0,1,4.905,0l3.181,3.181a3.467,3.467,0,0,0-4.905,0L13.437,408.183A3.467,3.467,0,0,0,13.437,413.088Z" transform="translate(-9.24 -354.384)" fill="#826be9"/></g><g transform="translate(28.839 52.596)"><path d="M161.93,289.254a3.179,3.179,0,0,1-2.512-1.231l-5.315-6.855a3.178,3.178,0,1,1,5.024-3.895l2.386,3.077,4.656-8.244a3.178,3.178,0,1,1,5.535,3.126L164.7,287.638a3.179,3.179,0,0,1-2.537,1.607C162.084,289.251,162.006,289.254,161.93,289.254Z" transform="translate(-153.437 -270.49)" fill="#2ff980"/></g></g><g transform="translate(0 0)"><path d="M97.356,17.861a7.843,7.843,0,0,0-5.89-5.888A7.84,7.84,0,0,0,85.58,6.084,7.833,7.833,0,0,0,77.959,0H42.83a9.331,9.331,0,0,0-6.642,2.751l-.045.047L23.319,15.618a9.345,9.345,0,0,0-2.75,6.646V51.872A23.813,23.813,0,0,0,21.837,74.88L19.35,77.367a4.971,4.971,0,0,0-5.128,1.179L3.2,89.571a4.968,4.968,0,0,0,0,7.025l4.346,4.346a4.973,4.973,0,0,0,7.025,0l5.194-5.192a1.5,1.5,0,1,0-2.121-2.122L12.448,98.82a1.97,1.97,0,0,1-2.783,0L5.32,94.475a1.968,1.968,0,0,1,0-2.783L16.344,80.666a1.973,1.973,0,0,1,2.785,0l4.345,4.345a1.973,1.973,0,0,1,0,2.785l-1.59,1.59a1.5,1.5,0,0,0,2.121,2.121l1.59-1.59a4.97,4.97,0,0,0,1.178-5.128L29.26,82.3a23.6,23.6,0,0,0,7.673,3.115,7.755,7.755,0,0,0,1.5.507,7.835,7.835,0,0,0,7.621,6.081H95.625a7.826,7.826,0,0,0,7.816-7.818V25.481a7.833,7.833,0,0,0-6.084-7.62ZM85.775,66.524V9.294A4.83,4.83,0,0,1,88.653,13.4c.007.093.01.193.01.306V72.414a4.821,4.821,0,0,1-4.816,4.816H60.287a23.578,23.578,0,0,0,2.02-2.888H77.959A7.826,7.826,0,0,0,85.775,66.524ZM38.162,5.021a6.13,6.13,0,0,0-.1,1.1v6.556a4.821,4.821,0,0,1-4.816,4.816H26.69a6.127,6.127,0,0,0-1.1.1ZM23.569,23.645c0-.012,0-.023,0-.035a3.123,3.123,0,0,1,3.119-3.119h6.556a7.825,7.825,0,0,0,7.816-7.816V6.119A3.123,3.123,0,0,1,44.181,3H77.959a4.824,4.824,0,0,1,4.806,4.511c.007.092.01.192.01.3V66.524a4.822,4.822,0,0,1-4.816,4.818H63.808A23.72,23.72,0,0,0,25.134,45.46q-.833.833-1.565,1.727Zm3.687,23.937a20.721,20.721,0,1,1,0,29.3,20.654,20.654,0,0,1,0-29.3ZM25.013,82.308l-3.181-3.181,1.787-1.787q.711.86,1.515,1.667T26.8,80.521Zm75.428,1.881a4.822,4.822,0,0,1-4.816,4.818H46.052a4.829,4.829,0,0,1-4.415-2.89h48.1A7.826,7.826,0,0,0,97.553,78.3V34.945a1.5,1.5,0,1,0-3,0V78.3a4.822,4.822,0,0,1-4.818,4.816H53.157a23.574,23.574,0,0,0,4.2-2.888H83.847a7.825,7.825,0,0,0,7.816-7.816V15.18a4.827,4.827,0,0,1,2.89,4.413v9.364a1.5,1.5,0,0,0,3,0V21.069a4.828,4.828,0,0,1,2.888,4.412V84.19Z" transform="translate(-1.744 0)"/><path d="M133.76,259.548a17.209,17.209,0,1,0-12.168-5.04A17.1,17.1,0,0,0,133.76,259.548Zm-10.047-27.256a14.209,14.209,0,1,1,0,20.094A14.115,14.115,0,0,1,123.713,232.292Z" transform="translate(-93.597 -180.106)"/><path d="M136.265,128.016a1.5,1.5,0,0,0,1.936-.868l.565-1.483h3.947l.558,1.479a1.5,1.5,0,1,0,2.806-1.059l-3.711-9.834-.016-.041a1.72,1.72,0,0,0-1.6-1.069h0a1.72,1.72,0,0,0-1.6,1.073l-.013.034L135.4,126.08A1.5,1.5,0,0,0,136.265,128.016Zm5.315-5.351h-1.672l.84-2.205Z" transform="translate(-108.588 -92.113)"/><path d="M315.006,128.114a1.5,1.5,0,0,0,1.5-1.5V116.64a1.5,1.5,0,1,0-3,0v9.974A1.5,1.5,0,0,0,315.006,128.114Z" transform="translate(-251.155 -92.113)"/><path d="M255.584,126.62a1.5,1.5,0,0,0,1.5,1.495h.006c.085,0,2.1-.008,2.908-.022,3.14-.055,5.419-2.774,5.419-6.465,0-3.88-2.221-6.487-5.528-6.487h-2.825a1.5,1.5,0,0,0-1.5,1.5s.007,3.836.007,4.973C255.571,123,255.584,126.62,255.584,126.62Zm4.3-8.48c2.346,0,2.528,2.669,2.528,3.487,0,1.7-.764,3.435-2.472,3.465-.319.006-.848.01-1.366.014,0-1.159-.008-2.693-.008-3.49,0-.669,0-2.269,0-3.476Z" transform="translate(-204.802 -92.113)"/><path d="M198.215,127.352a4.844,4.844,0,0,0,2.644.762h.008a5.1,5.1,0,0,0,2.316-.537,4.483,4.483,0,0,0,2.705-4.081V116.64a1.5,1.5,0,1,0-3,0V123.5c0,.43-.125.933-1.055,1.4a2.1,2.1,0,0,1-.967.217h0a1.866,1.866,0,0,1-1.033-.29c-.727-.464-.872-.85-.872-1.321V116.64a1.5,1.5,0,0,0-3,0V123.5A4.406,4.406,0,0,0,198.215,127.352Z" transform="translate(-157.116 -92.113)"/><path d="M341.444,118.14h1.243v8.474a1.5,1.5,0,1,0,3,0V118.14h1.265a1.5,1.5,0,1,0,0-3h-5.508a1.5,1.5,0,0,0,0,3Z" transform="translate(-272.306 -92.113)"/><path d="M155.938,284.759c.113,0,.227,0,.34-.012a4.668,4.668,0,0,0,3.734-2.366l7.006-12.406a4.678,4.678,0,1,0-8.147-4.6l-3.546,6.28-1-1.295a4.678,4.678,0,1,0-7.395,5.733l5.315,6.856A4.71,4.71,0,0,0,155.938,284.759ZM149.6,271.9a1.679,1.679,0,0,1,2.355.3l2.386,3.077a1.5,1.5,0,0,0,2.492-.181l4.656-8.244a1.679,1.679,0,0,1,2.923,1.651L157.4,280.906a1.679,1.679,0,0,1-2.788.2l-5.314-6.855A1.681,1.681,0,0,1,149.6,271.9Z" transform="translate(-117.107 -210.399)"/></g></g></g></g></svg>