<svg xmlns="http://www.w3.org/2000/svg" width="87.93" height="87.929" viewBox="0 0 87.93 87.929"><g transform="translate(-1303.811 -4466.535)"><g transform="translate(1303.811 4466.533)"><g transform="translate(1.288 1.29)"><path d="M104.312,290.246l-10.126-3.034-4.866-8.243v-5.782l3.664-7.5-.652-.767-6.451-2.5-.677.489H68.695l-.63-.537L59.3,265.8l-1.61,1.752-1.746,3.606-.458,2.032v30l.429.773H68.065l.933-.987H84.5l1.384.987H104.6a2.1,2.1,0,0,0,2.1-2.1V291.595Z" transform="translate(-47.247 -218.603)" fill="#583ae2"/><path d="M16.408,288.662a10.791,10.791,0,0,1,4.037-8.383l-6.653,2.6a10.774,10.774,0,0,0-6.292,9.76v24.052a2.1,2.1,0,0,0,2.1,2.1h6.812C16.408,307.64,16.408,290,16.408,288.662Z" transform="translate(-7.5 -233.434)" fill="#3e20cc"/><path d="M78.36,121.532l2.541,1.389h3.8v-3.016L80.786,118.9h-.6a4.259,4.259,0,0,0-1.823,1.664Z" transform="translate(-66.191 -99.765)" fill="#ffb1a0"/><path d="M249.773,121.233l1.775-1.532.145-.833a4.24,4.24,0,0,0-2.938-2.011h-.585l-2.934,1.384v2.992Z" transform="translate(-204.408 -98.076)" fill="#ffb1a0"/><path d="M79.131,130.655a4.231,4.231,0,0,1-3.639-2.07,4.227,4.227,0,0,0,3.638,6.388h2.279l.425-.592v-4.318l-.425.592Z" transform="translate(-63.323 -107.791)" fill="#ffa68e"/><path d="M248.052,130.64h-2.279l-.538-.249v4.318l.538.249h2.279a4.232,4.232,0,0,0,3.64-6.391A4.23,4.23,0,0,1,248.052,130.64Z" transform="translate(-204.408 -107.776)" fill="#ffa68e"/><path d="M299.824,249.505h-2.858l-7.37,4.665-3.313,8.587,1.237,8.53,4.952,6.508,4.608,2.251,1.46.458,1.284.012a16.1,16.1,0,0,0,0-31.01Z" transform="translate(-238.406 -207.945)" fill="#2ff980"/><path d="M254.725,262.125a16.13,16.13,0,0,1,11.75-15.5,16.1,16.1,0,1,0,0,31.01A16.132,16.132,0,0,1,254.725,262.125Z" transform="translate(-205.057 -205.06)" fill="#1bdd69"/><g transform="translate(48.543 51.577)"><path d="M306.325,312.97l-6.339,6.339a3.01,3.01,0,0,1-4.257,0l-4.683-4.683a3.01,3.01,0,0,1,4.258-4.257l2.555,2.555,4.21-4.21a3.011,3.011,0,0,1,4.258,4.257Z" transform="translate(-290.164 -307.831)" fill="#c9f0fe"/></g><g transform="translate(20.818 50.662)"><path d="M129.35,302.5l-.63.618V337.19h17.816V303.118l-.677-.618Z" transform="translate(-128.72 -302.5)" fill="#7ca5ce"/></g><path d="M186.441,233.557a1.163,1.163,0,0,1-.743-1.082l0-3.824-.723-.317h-5.982v11.277h2.748l5.467-4.923.292-.723-1.055-.408Z" transform="translate(-149.538 -190.409)" fill="#ffb1a0"/><path d="M140.644,228.334h-5.862l-.555.3v3.834a1.071,1.071,0,0,1-.5.942l-1.342.524v.783l6.287,4.894h1.967Z" transform="translate(-110.941 -190.409)" fill="#ffa68e"/><path d="M164.306,345.375l-1.8-23.983-.634-.559h-3.748l-.446.537-1.8,23.994a4.249,4.249,0,0,0,.49,2.25l1.966,3.7a2.008,2.008,0,0,0,3.55-.008l1.944-3.695A4.246,4.246,0,0,0,164.306,345.375Z" transform="translate(-130.387 -267.024)" fill="#ab9df1"/><path d="M161.493,291.646l-1.07-.488h-4.007l-.934.259-1.66,2.6.216.869,1.863,1.828a3.581,3.581,0,0,0,5,.013l1.9-1.842.325-.868Z" transform="translate(-128.693 -242.444)" fill="#ab9df1"/><path d="M128.72,261.188V268.7l2.516,1.723a1.345,1.345,0,0,0,1.87-.35l2.3-3.354a1.345,1.345,0,0,0-.35-1.87l-5.7-3.9Z" transform="translate(-107.902 -217.417)" fill="#7ca5ce"/><path d="M199.1,261.389l-.677-.262L192.767,265a1.345,1.345,0,0,0-.35,1.87l2.3,3.354a1.345,1.345,0,0,0,1.87.35l2.516-1.723Z" transform="translate(-160.465 -217.571)" fill="#7ca5ce"/><path d="M168.669,99.858l-1.317-3.524h-2.8l-5.553,4.293h-5.839v10.991l3.378,6.955,4.208,2.01h.962a11.491,11.491,0,0,0,7.8-10.868V101.4Z" transform="translate(-128.142 -81.078)" fill="#ffcebe"/><g transform="translate(18.086 19.549)"><path d="M120.391,130.422v-8.228l1.366-.859H114.18l-1.366.859v8.228a11.755,11.755,0,0,0,15.475,10.868A11.4,11.4,0,0,1,120.391,130.422Z" transform="translate(-112.814 -121.334)" fill="#ffb1a0"/></g><path d="M146.536,12.807a2.141,2.141,0,0,1-2.313-1.684c-.355-1.817-1.255-3.621-4.77-3.621h-6.807c-.892.215-1.716.429-1.716.429L128.9,9.419l-2.233,3.463-.343,1.689v10.59l.787,1.692,1.245.816.9.24h7.154a8.1,8.1,0,0,0,7.148-4.288.216.216,0,0,1,.406.1,4.2,4.2,0,0,0,4.184,4.184,2.2,2.2,0,0,0,2.193-2.193v-9.28A3.635,3.635,0,0,0,146.536,12.807Z" transform="translate(-105.916 -7.502)" fill="#583ae2"/><g transform="translate(13.24 0)"><path d="M92.174,24.5V15.605a8.1,8.1,0,0,1,8.1-8.1H92.7a8.1,8.1,0,0,0-8.1,8.1V24.5a3.412,3.412,0,0,0,3.412,3.412h7.577A3.412,3.412,0,0,1,92.174,24.5Z" transform="translate(-84.597 -7.502)" fill="#3e20cc"/></g><path d="M433.552,418.792v2.7l9.349,9.093,1.775.315.869-.605a3.978,3.978,0,0,0-.967-4.019l-6.891-6.891a3.965,3.965,0,0,0-3.388-1.111Z" transform="translate(-360.384 -347.694)" fill="#e39b74"/><path d="M429.446,429.389l-6.891-6.891a3.978,3.978,0,0,1-.967-4.019,3.939,3.939,0,0,0-2.225,1.111,3.981,3.981,0,0,0,0,5.613l6.891,6.891a3.98,3.98,0,0,0,5.613,0,3.93,3.93,0,0,0,.967-1.594A3.966,3.966,0,0,1,429.446,429.389Z" transform="translate(-347.672 -347.9)" fill="#da7e4a"/></g><g transform="translate(0 0.002)"><path d="M79.5,72.069a5.272,5.272,0,0,0-6.411-.8L71.522,69.7A17.381,17.381,0,0,0,61.6,41.269a1.288,1.288,0,1,0-.48,2.531,14.815,14.815,0,1,1-5.531,0,1.288,1.288,0,1,0-.48-2.531,17.327,17.327,0,0,0-9.08,4.823l-7.293-2.824,0-3.063a12.75,12.75,0,0,0,5.209-10.279v-.166h.991A5.52,5.52,0,0,0,47,19.123v-8.9a4.92,4.92,0,0,0-5.19-4.914h0a.861.861,0,0,1-.95-.647C40.246,1.527,38.272,0,34.825,0H22.631A9.4,9.4,0,0,0,13.24,9.393v8.893a4.671,4.671,0,0,0,.327,1.719A5.513,5.513,0,0,0,17.1,29.761h.991v.166a12.651,12.651,0,0,0,5.2,10.264v3.026L7.112,49.534l-.022.009A12,12,0,0,0,0,60.494V84.545A3.389,3.389,0,0,0,3.385,87.93H58.643a3.389,3.389,0,0,0,3.385-3.385V75.355A17.351,17.351,0,0,0,69.7,71.524l1.569,1.569a5.266,5.266,0,0,0,.8,6.41l6.891,6.891a5.257,5.257,0,0,0,7.435-7.434ZM20.818,85.354H12.28v-26.1a1.288,1.288,0,0,0-2.576,0v26.1H3.385a.81.81,0,0,1-.809-.809V60.494A9.5,9.5,0,0,1,8.06,51.929l12.758-4.983ZM41.21,46.989l3.053,1.183a17.377,17.377,0,0,0-3.053,7.268V46.989Zm5.067-25.367a2.944,2.944,0,0,1-1.345,5.563h-.991V22.96a3.517,3.517,0,0,0,2.336-1.339ZM18.086,27.185H17.1a2.94,2.94,0,0,1-1.965-5.131,4.734,4.734,0,0,0,2.81.933h.146ZM17.94,20.41a2.13,2.13,0,0,1-2.124-2.124V9.393a6.823,6.823,0,0,1,6.815-6.815H34.826c2.772,0,3.24,1.22,3.506,2.58a3.441,3.441,0,0,0,3.676,2.721,2.346,2.346,0,0,1,2.416,2.346V19.5c0,1.538-3.054,1.053-3.693-1.217a5.129,5.129,0,0,1-.13-1.029,1.506,1.506,0,0,0-2.808-.457A6.808,6.808,0,0,1,31.78,20.41H17.94Zm2.722,9.516v-6.94H31.78A9.387,9.387,0,0,0,38.645,20a5.505,5.505,0,0,0,2.72,2.539v7.384a10.353,10.353,0,0,1-20.7,0Zm12.2,17.729a2.667,2.667,0,0,0-.9,1.061H30.067a2.672,2.672,0,0,0-.9-1.06h0l-3.918-2.682a2.393,2.393,0,0,0,.615-1.624V41.643a13.82,13.82,0,0,0,5.318,1.045,12.709,12.709,0,0,0,4.978-1.011v1.682h0a2.486,2.486,0,0,0,.618,1.616Zm.856,5.912c-1.5,1.453-1.006.98-1.179,1.137a2.283,2.283,0,0,1-3.142-.06l-1.093-1.072,1.545-2.257h0l.015-.023h2.295l.016.023ZM23.394,85.354V55.012l.5.343a2.631,2.631,0,0,0,2.712.16l.642.63L25.491,79.535c0,.007,0,.013,0,.019a5.535,5.535,0,0,0,.639,2.932l1.526,2.868ZM27.725,49.86l-2.3,3.354a.057.057,0,0,1-.08.015L23.394,51.89V46.826l4.317,2.955h0a.06.06,0,0,1,.015.079Zm5.86,31.414-1.944,3.695a.7.7,0,0,1-.635.385h0a.7.7,0,0,1-.636-.382l-1.966-3.7a2.959,2.959,0,0,1-.342-1.559l1.653-22.006a4.79,4.79,0,0,0,2.555.007l1.653,22.009a2.96,2.96,0,0,1-.336,1.547Zm.732-31.494,4.317-2.955V51.89l-1.956,1.339a.049.049,0,0,1-.043.009.053.053,0,0,1-.037-.024L34.3,49.86A.06.06,0,0,1,34.317,49.781ZM49.748,85.354H41.21V76.181a1.288,1.288,0,1,0-2.576,0v9.173H34.35l1.515-2.88a5.534,5.534,0,0,0,.627-2.91c0-.007,0-.013,0-.019L34.735,56.171l.68-.66a2.63,2.63,0,0,0,2.718-.156l.5-.343V70.17a1.288,1.288,0,1,0,2.576,0V61.285a17.437,17.437,0,0,0,8.538,12.179v11.89Zm9.7-.809a.81.81,0,0,1-.809.809H52.324V74.668a17.31,17.31,0,0,0,6.029,1.078h.026c.391,0,.846-.02,1.072-.034v8.833Zm25.119.028a2.69,2.69,0,0,1-3.791,0l-6.891-6.891a2.681,2.681,0,0,1,3.791-3.791l6.891,6.891a2.684,2.684,0,0,1,0,3.791Z" transform="translate(0 -0.002)"/><path d="M283.932,303.256a4.3,4.3,0,0,0,0,6.079l4.683,4.683a4.3,4.3,0,0,0,6.079,0l6.339-6.339a4.3,4.3,0,0,0-6.079-6.079l-3.3,3.3-1.644-1.644A4.3,4.3,0,0,0,283.932,303.256Zm7.723,4.753a1.288,1.288,0,0,0,.911-.377l4.21-4.21a1.723,1.723,0,0,1,2.436,2.436l-6.339,6.339a1.725,1.725,0,0,1-2.436,0l-4.683-4.683a1.723,1.723,0,0,1,2.436-2.436l2.555,2.555A1.287,1.287,0,0,0,291.655,308.009Z" transform="translate(-234.129 -248.764)"/></g></g></g></svg>