<svg xmlns="http://www.w3.org/2000/svg" width="75.095" height="75.095" viewBox="0 0 75.095 75.095"><g transform="translate(-1305.905 -6642)"><g transform="translate(1305.905 6642)"><g transform="translate(0 0)"><g transform="translate(1.173 1.173)"><path d="M38.625,11.007h0a33.371,33.371,0,0,1,33.2,30L63.015,40.6a24.726,24.726,0,0,0-24.39-20.9l.039.014v3.373L30.148,16.2,38.665,8v3.021" transform="translate(-2.325 -8)" fill="#2ff980"/><path d="M94.576,75.775l-6.415-5.183A24.692,24.692,0,0,1,119.227,93.3l-.3-.014a24.725,24.725,0,0,0-24.39-20.9l.039.014Z" transform="translate(-58.235 -60.691)" fill="#11e165"/><path d="M144.542,157.954l2.79-.419a13.02,13.02,0,0,1,2.052-4.952l-1.677-2.27a1,1,0,0,1,.1-1.3l1.444-1.444a1,1,0,0,1,1.3-.1l2.27,1.677a13.02,13.02,0,0,1,4.952-2.052l.419-2.79a1,1,0,0,1,.987-.85h2.043a1,1,0,0,1,.987.85l.419,2.79a13.018,13.018,0,0,1,4.952,2.052l2.27-1.677a1,1,0,0,1,1.3.1l1.444,1.444a1,1,0,0,1,.1,1.3l-1.677,2.27a13.019,13.019,0,0,1,2.052,4.952l2.79.419a1,1,0,0,1,.85.987v2.042a1,1,0,0,1-.85.987l-2.79.419a13.02,13.02,0,0,1-2.052,4.952l1.677,2.27a1,1,0,0,1-.1,1.3l-1.444,1.444a1,1,0,0,1-1.3.1l-2.27-1.677a13.02,13.02,0,0,1-4.952,2.052l-.419,2.79a1,1,0,0,1-.987.85h-2.043a1,1,0,0,1-.987-.85l-.419-2.79a13.019,13.019,0,0,1-4.952-2.052l-2.27,1.677a1,1,0,0,1-1.3-.1l-1.444-1.444a1,1,0,0,1-.1-1.3l1.677-2.27a13.021,13.021,0,0,1-2.052-4.952l-2.79-.419a1,1,0,0,1-.85-.987v-2.042a1,1,0,0,1,.85-.987ZM160.2,166.57a6.607,6.607,0,1,0-6.607-6.607A6.607,6.607,0,0,0,160.2,166.57Z" transform="translate(-123.859 -123.589)" fill="#e6e6e6"/><path d="M38,206.217c0,.011,0,.023,0,.034a33.371,33.371,0,0,1-30,33.2l.517-8.826a24.683,24.683,0,0,0,20.8-24.373c0-.011,0-.023,0-.034H25.96l6.881-8.517,8.2,8.517H38.023" transform="translate(31.705 -169.877)" fill="#583ae2"/><path d="M230.974,299.809h-.068a24.683,24.683,0,0,1-24.372-20.789l-8.834-.6A33.371,33.371,0,0,0,230.906,308.5h.068v3.008l8.517-8.2-8.517-6.881V299.8Z" transform="translate(-194.566 -238.758)" fill="#2ff980"/><path d="M211.185,266.32a6.635,6.635,0,0,1,.132-1.32,6.608,6.608,0,0,0,12.95,0,6.607,6.607,0,1,1-13.082,1.32Z" transform="translate(-181.452 -227.306)" fill="#a8a8a8"/><path d="M244.346,305.861a33.517,33.517,0,0,0,6.614-.657l-6.546,6.3V308.5h-.068a33.37,33.37,0,0,1-33.206-30.079l.454.472A33.377,33.377,0,0,0,244.346,305.861Z" transform="translate(-208.006 -238.759)" fill="#11e165"/><path d="M31.982,285.872a33.384,33.384,0,0,0,26.651-30.1h.1c0,.011,0,.023,0,.034a33.371,33.371,0,0,1-30,33.2Z" transform="translate(10.972 -219.428)" fill="#4022c7"/><path d="M281.637,62.842c0-.011,0-.023,0-.034A33.386,33.386,0,0,1,297.9,34.2a32.43,32.43,0,0,1,4.558-2.289,33.734,33.734,0,0,1,6.954-2c.59-.105,1.442-.222,2.3-.307l-5.227,5.034,4.691,3.79a24.683,24.683,0,0,0-20.852,24.382c0,.011,0,.023,0,.034h3.42l-6.881,8.517-8.2-8.517Z" transform="translate(-278.664 -26.434)" fill="#583ae2"/><g transform="translate(11.663 9.9)"><path d="M300.579,75.5l2.589,2.092a24.685,24.685,0,0,0-20.816,23.068q-.035-.659-.036-1.326A24.687,24.687,0,0,1,300.579,75.5Z" transform="translate(-282.316 -75.501)" fill="#4022c7"/></g></g><g transform="translate(0)"><path d="M211.294,203.347a7.727,7.727,0,0,1,7.254,10.375,1.1,1.1,0,1,1-2.07-.757,5.518,5.518,0,1,0-2.341,2.835,1.1,1.1,0,0,1,1.138,1.888,7.723,7.723,0,1,1-3.981-14.341Z" transform="translate(-173.779 -173.522)"/><path d="M137.733,150.253l2.044-.307A14.041,14.041,0,0,1,141.41,146l-1.229-1.663a2.09,2.09,0,0,1,.2-2.736l1.447-1.447a2.09,2.09,0,0,1,2.736-.2l1.663,1.229a14.034,14.034,0,0,1,3.942-1.634l.307-2.044a2.09,2.09,0,0,1,2.079-1.79h2.047a2.09,2.09,0,0,1,2.079,1.79l.307,2.044a14.035,14.035,0,0,1,3.942,1.634l1.663-1.229a2.09,2.09,0,0,1,2.736.2l1.447,1.447a2.09,2.09,0,0,1,.2,2.736L165.759,146a14.026,14.026,0,0,1,1.634,3.942l2.044.307a2.09,2.09,0,0,1,1.79,2.079v2.047a2.09,2.09,0,0,1-1.79,2.079l-2.044.307a14.036,14.036,0,0,1-1.634,3.942l1.228,1.663a2.09,2.09,0,0,1-.2,2.736l-1.447,1.447a2.09,2.09,0,0,1-2.736.2l-1.663-1.229a14.033,14.033,0,0,1-3.942,1.634l-.307,2.044a2.09,2.09,0,0,1-2.079,1.79h-2.046a2.09,2.09,0,0,1-2.079-1.79l-.307-2.044a14.034,14.034,0,0,1-3.942-1.634l-1.663,1.229a2.09,2.09,0,0,1-2.736-.2l-1.447-1.447a2.09,2.09,0,0,1-.2-2.736l1.229-1.663a14.031,14.031,0,0,1-1.634-3.942l-2.044-.307a2.09,2.09,0,0,1-1.79-2.079v-2.047A2.089,2.089,0,0,1,137.733,150.253Zm.414,4.038,2.709.407a1.1,1.1,0,0,1,.919.887,11.883,11.883,0,0,0,1.883,4.543,1.1,1.1,0,0,1-.023,1.277l-1.628,2.2,1.323,1.323,2.2-1.628a1.1,1.1,0,0,1,1.277-.023,11.883,11.883,0,0,0,4.543,1.883,1.1,1.1,0,0,1,.887.92l.407,2.709h1.871l.407-2.709a1.1,1.1,0,0,1,.887-.919,11.884,11.884,0,0,0,4.543-1.883,1.1,1.1,0,0,1,1.277.023l2.2,1.628,1.323-1.323-1.628-2.2a1.1,1.1,0,0,1-.023-1.277,11.881,11.881,0,0,0,1.883-4.543,1.1,1.1,0,0,1,.919-.887l2.709-.407V152.42l-2.709-.407a1.1,1.1,0,0,1-.919-.887,11.882,11.882,0,0,0-1.883-4.543,1.1,1.1,0,0,1,.023-1.277l1.628-2.2-1.323-1.323-2.2,1.628a1.1,1.1,0,0,1-1.277.023,11.886,11.886,0,0,0-4.543-1.883,1.1,1.1,0,0,1-.887-.919l-.407-2.709h-1.871l-.407,2.709a1.1,1.1,0,0,1-.887.92,11.881,11.881,0,0,0-4.543,1.883,1.1,1.1,0,0,1-1.277-.023l-2.2-1.628-1.323,1.323,1.628,2.2a1.1,1.1,0,0,1,.023,1.277,11.882,11.882,0,0,0-1.883,4.543,1.1,1.1,0,0,1-.919.887l-2.709.407Z" transform="translate(-116.07 -115.808)"/><path d="M.088,37.15A1.1,1.1,0,0,1,1.1,36.479H3A34.536,34.536,0,0,1,33.724,3.22L36.75.306a1.109,1.109,0,0,1,1.867.794V3.028A34.291,34.291,0,0,1,57.393,9.3a1.1,1.1,0,1,1-1.27,1.8A32.122,32.122,0,0,0,37.514,5.215a1.1,1.1,0,0,1-1.1-1.1V3.691L30.645,9.246l5.768,4.66V12.82a1.1,1.1,0,0,1,1.1-1.1A25.837,25.837,0,0,1,62.558,31.21l2.362-2.924a1.109,1.109,0,0,1,1.651-.072L69.16,30.9a32.291,32.291,0,0,0-9.721-17.118,1.1,1.1,0,1,1,1.5-1.62,34.467,34.467,0,0,1,10.9,21.515l2.956,3.069A1.11,1.11,0,0,1,74,38.616H72.034A34.538,34.538,0,0,1,41.381,71.867l-3.034,2.922A1.109,1.109,0,0,1,36.481,74V72.069A34.27,34.27,0,0,1,17.4,65.626a1.1,1.1,0,1,1,1.285-1.791A32.108,32.108,0,0,0,37.528,69.88h.055a1.1,1.1,0,0,1,1.1,1.1V71.4l5.767-5.554-5.767-4.66v1.085a1.1,1.1,0,0,1-1.1,1.1h-.075A25.837,25.837,0,0,1,12.489,43.948l-2.311,2.86a1.109,1.109,0,0,1-1.651.072L5.852,44.1a32.31,32.31,0,0,0,9.537,17.02,1.1,1.1,0,0,1-1.509,1.607A34.488,34.488,0,0,1,3.188,41.336l-2.88-2.99a1.1,1.1,0,0,1-.22-1.2ZM46.809,64.919a1.109,1.109,0,0,1,.072,1.651l-2.724,2.623A32.341,32.341,0,0,0,69.846,37.551v-.038a1.1,1.1,0,0,1,1.1-1.1H71.4l-5.554-5.768-4.66,5.768h1.051a1.1,1.1,0,0,1,1.1,1.1v.038A25.837,25.837,0,0,1,43.909,62.576ZM22.1,55.451a23.613,23.613,0,0,0,14.379,5.7V58.881a1.11,1.11,0,0,1,1.795-.857L41.71,60.8a23.632,23.632,0,0,0,19.4-22.184H58.882a1.11,1.11,0,0,1-.857-1.8l2.753-3.407A23.631,23.631,0,0,0,38.617,13.948v2.265a1.11,1.11,0,0,1-1.795.857l-3.448-2.786a23.632,23.632,0,0,0-19.46,22.194h2.3a1.11,1.11,0,0,1,.857,1.8L14.264,41.75A23.637,23.637,0,0,0,22.1,55.451Zm-12.853-11,4.66-5.768H12.788a1.1,1.1,0,0,1-1.1-1.1v-.038A25.838,25.838,0,0,1,31.171,12.505l-2.883-2.33a1.109,1.109,0,0,1-.072-1.651l2.742-2.64A32.34,32.34,0,0,0,5.183,37.543v.038a1.1,1.1,0,0,1-1.1,1.1H3.694Z" transform="translate(0 0)"/></g></g><g transform="translate(17.598 17.665)"><path d="M8.585,28.151A15.877,15.877,0,0,0,10.22,32.1L7.632,34.683a19.621,19.621,0,0,0,5.794,5.79l2.585-2.585a15.878,15.878,0,0,0,3.944,1.635v3.654a19.723,19.723,0,0,0,8.194,0V39.522a15.878,15.878,0,0,0,3.944-1.635l2.585,2.585a19.62,19.62,0,0,0,5.792-5.792L37.887,32.1a15.878,15.878,0,0,0,1.635-3.944h3.654a19.672,19.672,0,0,0,0-8.194H39.522a15.878,15.878,0,0,0-1.635-3.944L40.47,13.43a19.676,19.676,0,0,0-5.79-5.795L32.095,10.22A15.878,15.878,0,0,0,28.15,8.586V4.931a19.676,19.676,0,0,0-8.194,0V8.586a15.878,15.878,0,0,0-3.944,1.635L13.429,7.637A19.568,19.568,0,0,0,7.637,13.43l2.583,2.583a15.878,15.878,0,0,0-1.635,3.944H4.931a19.669,19.669,0,0,0,0,8.194Z" transform="translate(-4.104 -4.104)" fill="#583ae2"/><path d="M10.048,0A10.048,10.048,0,1,0,20.1,10.048,10.048,10.048,0,0,0,10.048,0Z" transform="translate(9.902 9.902)" fill="#e8e8e8"/><path d="M98.75,109.978v6.245h6.689V107h-3.711v2.978Z" transform="translate(-80.859 -89.979)" fill="#2ff980"/><path d="M80.886,90.47a13.33,13.33,0,0,0,7.358-2.2.4.4,0,1,0-.436-.661A12.59,12.59,0,0,1,71.988,68.186a.4.4,0,0,0-.56-.56A13.382,13.382,0,0,0,80.886,90.47Zm8.661-3.179c.277-.235.548-.485.8-.743a.4.4,0,1,0-.56-.56c-.242.242-.5.478-.758.7a.4.4,0,0,0,.513.6Z" transform="translate(-60.94 -57.138)" fill="#c5e5fe"/><path d="M122.19,109.978h2.978V107Z" transform="translate(-104.299 -90.375)" fill="#acfacb"/><path d="M115,93.728v6.245h2.573V96.3l2.978-2.978h1.138V90.75h-3.711v2.978Z" transform="translate(-99.682 -76.698)" fill="#17df67"/><path d="M138.44,93.728h2.978V90.75Z" transform="translate(-123.122 -76.698)" fill="#acfacb"/><path d="M19.786,26.847H16.432a16.206,16.206,0,0,1-1.442,3.482L17.362,32.7a.4.4,0,0,1,.052.5,20.148,20.148,0,0,1-2.187,2.795.4.4,0,0,1-.578-.541,19.411,19.411,0,0,0,1.924-2.418l-2.358-2.356a.4.4,0,0,1-.062-.48,15.49,15.49,0,0,0,1.594-3.846.4.4,0,0,1,.383-.294h3.331a19.331,19.331,0,0,0,0-7.4H16.132a.4.4,0,0,1-.383-.294,15.472,15.472,0,0,0-1.594-3.846.4.4,0,0,1,.062-.48l2.356-2.354A19.206,19.206,0,0,0,11.34,6.443L8.985,8.8a.4.4,0,0,1-.48.062A15.472,15.472,0,0,0,4.659,7.268a.4.4,0,0,1-.294-.383V3.554a19.351,19.351,0,0,0-2-.283.4.4,0,0,1,.07-.788,19.953,19.953,0,0,1,2.411.363.4.4,0,0,1,.313.386V6.584A16.338,16.338,0,0,1,8.638,8.027L11.01,5.655a.406.406,0,0,1,.5-.052,20.065,20.065,0,0,1,5.906,5.912.4.4,0,0,1-.052.494l-2.369,2.37a16.338,16.338,0,0,1,1.442,3.482h3.353a.4.4,0,0,1,.386.313,20.071,20.071,0,0,1,0,8.36.4.4,0,0,1-.386.313Z" transform="translate(19.287 -2.404)"/><path d="M124.933,2.792a.4.4,0,0,1,0-.792h0a.4.4,0,0,1,0,.792Z" transform="translate(-104.834 -2)"/><path d="M55.739,14.247l-2.369-2.37a.4.4,0,0,1-.054-.494,19.952,19.952,0,0,1,5.91-5.909.4.4,0,0,1,.5.052l2.369,2.369a16.288,16.288,0,0,1,3.482-1.442V3.1a.4.4,0,0,1,.313-.386,19.833,19.833,0,0,1,2.722-.388.4.4,0,0,1,.057.79,18.982,18.982,0,0,0-2.3.307V6.753a.4.4,0,0,1-.294.383,15.492,15.492,0,0,0-3.846,1.594.4.4,0,0,1-.48-.062L59.39,6.313a19.075,19.075,0,0,0-5.233,5.233L56.513,13.9a.4.4,0,0,1,.062.48,15.521,15.521,0,0,0-1.594,3.846.4.4,0,0,1-.383.294H51.266a19.328,19.328,0,0,0,0,7.4H54.6a.4.4,0,0,1,.383.294,15.522,15.522,0,0,0,1.594,3.846.4.4,0,0,1-.062.48L54.154,32.9a19.113,19.113,0,0,0,5.234,5.23l2.356-2.358a.4.4,0,0,1,.48-.062,15.5,15.5,0,0,0,3.846,1.594.4.4,0,0,1,.294.383v3.331a19.443,19.443,0,0,0,7.4,0V37.691a.4.4,0,0,1,.295-.383,15.521,15.521,0,0,0,3.846-1.594.4.4,0,0,1,.48.062l2.356,2.358c.345-.231.686-.477,1.016-.731a.4.4,0,0,1,.554.073.394.394,0,0,1-.071.554c-.432.332-.88.651-1.335.945a.406.406,0,0,1-.5-.052l-2.372-2.372a16.3,16.3,0,0,1-3.482,1.442v3.355a.4.4,0,0,1-.313.388,20.141,20.141,0,0,1-8.36,0,.4.4,0,0,1-.313-.386V37.992a16.338,16.338,0,0,1-3.482-1.442L59.72,38.921a.406.406,0,0,1-.5.052,20.058,20.058,0,0,1-5.91-5.907.4.4,0,0,1,.052-.5L55.739,30.2A16.258,16.258,0,0,1,54.3,26.715H50.943a.4.4,0,0,1-.386-.313,20.068,20.068,0,0,1,0-8.36.4.4,0,0,1,.386-.313H54.3a16.258,16.258,0,0,1,1.442-3.482Z" transform="translate(-50.117 -2.272)"/><path d="M42.558,217.618a.4.4,0,0,1,.025-.559.41.41,0,0,1,.56.027.4.4,0,1,1-.586.532Z" transform="translate(-9.752 -182.926)"/><path d="M82.927,72.483A10.44,10.44,0,0,1,72.483,82.927h0a10.445,10.445,0,0,1-4.832-19.7.4.4,0,1,1,.366.7,9.656,9.656,0,1,0,4.468-1.094,9.763,9.763,0,0,0-1.6.131.4.4,0,0,1-.456-.326.394.394,0,0,1,.326-.454,10.449,10.449,0,0,1,12.169,10.3Z" transform="translate(-52.534 -52.534)"/><path d="M146.2,66.1a.4.4,0,0,1-.252-.75.4.4,0,0,1,.5.249A.4.4,0,0,1,146.2,66.1Z" transform="translate(-129.325 -55.3)"/><path d="M108.416,137.1h2.962a.4.4,0,1,1,0,.792h-2.962a.4.4,0,1,1,0-.792Z" transform="translate(-88.661 -115.71)"/><path d="M108.416,148.1h2.962a.4.4,0,1,1,0,.792h-2.962a.4.4,0,1,1,0-.792Z" transform="translate(-88.661 -124.968)"/><path d="M99.624,88.25h3.711a.4.4,0,0,1,.4.4v2.177h2.177a.4.4,0,0,1,.4.4v9.223a.4.4,0,0,1-.4.4H99.219a.4.4,0,0,1-.4-.4V98.264H96.646a.4.4,0,0,1-.4-.4V91.624a.408.408,0,0,1,.116-.28l2.977-2.977A.41.41,0,0,1,99.624,88.25Zm-.01,11.8h5.9V91.615h-2.92V94.2a.4.4,0,0,1-.4.4H99.615Zm.56-6.245H101.8V92.174Zm-3.133,3.672h1.781V94.2a.4.4,0,0,1,.116-.28l2.977-2.977a.406.406,0,0,1,.28-.116h.743V89.042h-2.92v2.582a.4.4,0,0,1-.4.4H97.042Zm2.187-6.245V89.6L97.6,91.228Z" transform="translate(-81.327 -74.594)"/></g></g></g></svg>