<svg xmlns="http://www.w3.org/2000/svg" width="67" height="73" viewBox="0 0 67 73"><g transform="translate(6570 11010)"><g transform="translate(-6873 -19258.295)"><rect width="67" height="73" rx="5" transform="translate(303 8248.295)" fill="#2ff980"/><g transform="translate(311.042 8259.486)"><path d="M72.223,208v12.168a1.8,1.8,0,0,0-.024-.3,1.655,1.655,0,0,0-1.411-1.314,1.374,1.374,0,0,0-.187-.008H68.979v5.678l3.245,3.245v4.867H56v-4.056l3.245-3.245v-4.056H57.622A1.627,1.627,0,0,0,56,222.6V208h4.056v1.622h8.112V208Z" transform="translate(-50.322 -186.91)" fill="#f98800"/><path d="M72.223,208,56,232.335H72.223Z" transform="translate(-50.322 -186.91)" fill="#f05a29"/><path d="M460.867,456.811v4.056H456l1.622-1.622-.811-2.434h1.622l.811-.811Z" transform="translate(-409.763 -409.764)" fill="#acdd12"/><path d="M412.867,460.867s-4.867-.008-4.867,0v-4.056l1.622-.811.811.811h1.622l-.811,2.434Z" transform="translate(-366.63 -409.764)" fill="#acdd12"/><path d="M443.245,466.434l-1.622,1.622L440,466.434l.811-2.434h1.622Z" transform="translate(-395.386 -416.952)" fill="#387f29"/><path d="M414.489,112h-3.245l-3.245.811v4.056h9.734v-4.056Z" transform="translate(-366.63 -100.644)" fill="#aedef8"/><path d="M421.678,48l-2.434,2.434-1.622-.811H416v.811a1.622,1.622,0,0,0,1.622,1.622h0v.811l.811,1.622h3.245l.811-1.622v-.811h0a1.622,1.622,0,0,0,1.622-1.622v-.811h-2.434Z" transform="translate(-373.819 -43.133)" fill="#fac8b2"/><path d="M441.622,112,440,115.245l1.622,1.622,1.622-1.622Z" transform="translate(-395.386 -100.644)" fill="#00587e"/><path d="M410.434,13.678H408V9.622L411.245,8l3.245.811L416.112,8l1.622,1.622v4.056h-3.245V12.056l-2.434,2.434Z" transform="translate(-366.63 -7.189)" fill="#58492f"/><path d="M456,300.867s4.867-.008,4.867,0v-4.056L458.434,296l-.811.811h-.811l.811,2.434Z" transform="translate(-409.763 -265.987)" fill="#fcd4ef"/><path d="M440,306.434l1.622,1.622,1.622-1.622L442.434,304h-1.622Z" transform="translate(-395.386 -273.176)" fill="#f249b4"/><path d="M408,296.811v4.056h4.867l-1.622-1.622.811-2.434h-.811l-.811-.811Z" transform="translate(-366.63 -265.987)" fill="#fcd4ef"/><path d="M436.867,257.622v2.434l-.811.811h-3.245l-.811-.811v-2.434h.811A1.634,1.634,0,0,0,434.434,256a1.627,1.627,0,0,0,1.622,1.622Z" transform="translate(-388.197 -230.043)" fill="#fac8b2"/><path d="M424.112,228.056a4.073,4.073,0,0,1-1.184,2.872,3.808,3.808,0,0,1-.438.373v-2.434h-.811a1.627,1.627,0,0,1-1.622-1.622,1.634,1.634,0,0,1-1.622,1.622h-.811V231.3a3.8,3.8,0,0,1-.438-.373,4.063,4.063,0,0,1,.844-6.384,4.055,4.055,0,0,1,4.056,0,4.011,4.011,0,0,1,2.028,3.512Z" transform="translate(-373.819 -201.288)" fill="#b71e71"/><path d="M436.867,194.434a2.488,2.488,0,0,1-.406,1.355,4.055,4.055,0,0,0-4.056,0,2.487,2.487,0,0,1-.406-1.355,2.434,2.434,0,1,1,4.867,0Z" transform="translate(-388.197 -172.532)" fill="#931d5b"/><path d="M430.489,377.622v2.434L424,378.434v-.811A1.627,1.627,0,0,1,425.622,376h3.245A1.627,1.627,0,0,1,430.489,377.622Z" transform="translate(-381.008 -337.875)" fill="#f05a29"/><path d="M417.734,402.839a1.215,1.215,0,0,1-1.217,1.217h-.406v1.622l-.811.811h-4.867l-.811-.811v-1.622h-.406a1.217,1.217,0,0,1,0-2.434h.406V400l6.489,1.622h.406A1.215,1.215,0,0,1,417.734,402.839Z" transform="translate(-366.63 -359.442)" fill="#fac8b2"/><path d="M104.112,172.056v1.622H96v-1.622a1.627,1.627,0,0,1,1.622-1.622h.811v-.811A1.627,1.627,0,0,1,100.056,168a1.634,1.634,0,0,1,1.622,1.622v.811h.811a1.627,1.627,0,0,1,1.622,1.622Z" transform="translate(-86.266 -150.966)" fill="#ffec00"/><path d="M88,256h3.245v3.245H88Z" transform="translate(-79.077 -230.043)" fill="#fff"/><path d="M88,320h3.245v3.245H88Z" transform="translate(-79.077 -287.554)" fill="#fff"/><path d="M88,384h3.245v3.245H88Z" transform="translate(-79.077 -345.064)" fill="#fff"/><path d="M16.112,307.245V311.3l-3.245,3.245H8v-8.112L10.434,304h2.434v4.867a1.627,1.627,0,0,1,1.622-1.622Z" transform="translate(-7.189 -273.176)" fill="#fac8b2"/><path d="M220.867,306.434v4.275L216,306.166V304h2.434Z" transform="translate(-194.098 -273.176)" fill="#fac8b2"/><path d="M192,320.923h-4.753L184,317.678V312h1.622a1.373,1.373,0,0,1,.187.008,1.655,1.655,0,0,1,1.411,1.314,1.8,1.8,0,0,1,.024.3v2.863Z" transform="translate(-165.343 -280.365)" fill="#fac8b2"/><path d="M164.243,290.442a1.374,1.374,0,0,0-.187-.008h-1.622v1.46L160,289.622V288h1.622Z" transform="translate(-143.777 -258.798)" fill="#00a8e7"/><path d="M224.112,332.928l-1.622,1.622-1.736-1.622L216,328.491V325.36l4.867,4.543Z" transform="translate(-194.098 -292.37)" fill="#00a8e7"/><path d="M216,400h4.867v10.545H216Z" transform="translate(-194.098 -359.442)" fill="#00587e"/><path d="M8,408h4.867v9.734H8Z" transform="translate(-7.189 -366.631)" fill="#00587e"/><path d="M148.056,249.622h-3.245a.811.811,0,1,1,0-1.622h3.245a.811.811,0,1,1,0,1.622Z" transform="translate(-129.399 -222.854)" fill="#f05a29"/><path d="M145.622,337.622h-.811a.811.811,0,1,1,0-1.622h.811a.811.811,0,1,1,0,1.622Z" transform="translate(-129.399 -301.931)" fill="#f98800"/><path d="M148.056,409.622h-3.245a.811.811,0,1,1,0-1.622h3.245a.811.811,0,1,1,0,1.622Z" transform="translate(-129.399 -366.631)" fill="#f98800"/><ellipse cx="6.5" cy="6" rx="6.5" ry="6" transform="translate(7 0.808)" fill="#ffec00"/><path d="M92.491,22A6.49,6.49,0,0,1,80.36,25.21a6.491,6.491,0,0,0,8.85-8.85A6.485,6.485,0,0,1,92.491,22Z" transform="translate(-72.212 -14.702)" fill="#fcc200"/><g transform="translate(12.979 3.244)"><path d="M130.434,36.867h-1.622a.811.811,0,0,1-.811-.811V32.811a.811.811,0,1,1,1.622,0v2.434h.811a.811.811,0,1,1,0,1.622Z" transform="translate(-128 -32)" fill="#e22526"/><path d="M259.93,224.238a.811.811,0,1,0-1.147,1.147l1.049,1.049h-11.02a.811.811,0,1,0,0,1.622h11.02l-1.049,1.049a.811.811,0,0,0,1.147,1.147l2.434-2.434a.811.811,0,0,0,0-1.147Z" transform="translate(-235.832 -204.533)" fill="#e22526"/><path d="M248.811,80.224h4.056a4.06,4.06,0,0,0,4.056-4.056V70.49a2.436,2.436,0,0,1,2.433-2.434h.475l-1.049,1.049a.811.811,0,0,0,1.147,1.147l2.433-2.434a.811.811,0,0,0,0-1.147l-2.433-2.434a.811.811,0,0,0-1.147,1.147l1.049,1.049h-.475A4.06,4.06,0,0,0,255.3,70.49v5.678a2.436,2.436,0,0,1-2.434,2.434h-4.056a.811.811,0,0,0,0,1.622Z" transform="translate(-235.832 -60.756)" fill="#e22526"/><path d="M259.93,297.972a.811.811,0,0,0-1.147,1.147l1.049,1.049h-.475a2.436,2.436,0,0,1-2.433-2.434v-5.678A4.061,4.061,0,0,0,252.867,288h-4.056a.811.811,0,1,0,0,1.622h4.056a2.436,2.436,0,0,1,2.434,2.433v5.678a4.06,4.06,0,0,0,4.056,4.056h.475l-1.049,1.049a.811.811,0,0,0,1.147,1.147l2.434-2.434a.811.811,0,0,0,0-1.147Z" transform="translate(-235.832 -262.043)" fill="#e22526"/></g><path d="M408.923,9.734V9.595A2.438,2.438,0,0,0,410.545,7.3a.811.811,0,0,0,.811-.811V2.433a.811.811,0,0,0-.238-.574L409.5.237a.811.811,0,0,0-.936-.152l-1.354.677L404.253.024a.81.81,0,0,0-.56.061l-3.245,1.622a.811.811,0,0,0-.448.726V6.489a.811.811,0,0,0,.811.811,2.438,2.438,0,0,0,1.622,2.294v.139a.811.811,0,0,0,.086.363l.359.718-2.264.566a.811.811,0,0,0-.614.787v4.056a.811.811,0,0,0,.811.811h9.734a.811.811,0,0,0,.811-.811V12.167a.811.811,0,0,0-.614-.787l-2.264-.566.359-.718a.81.81,0,0,0,.086-.363Zm-7.3-6.8L404.15,1.67l2.954.738a.811.811,0,0,0,.56-.061l1.1-.55.971.971V5.678h-1.622V4.867a.811.811,0,0,0-1.385-.574l-2.02,2.02-1.1-.55a.811.811,0,0,0-.363-.086h-1.622Zm4.056,12.141-.635-.635.635-1.271.635,1.271ZM401.622,12.8l2.533-.633h.21l-1.035,2.071a.811.811,0,0,0,.152.936l.238.238h-2.1Zm8.112,2.611h-2.1l.238-.238a.811.811,0,0,0,.152-.936l-1.035-2.071h.21l2.533.633Zm-1.622-7.3a.811.811,0,0,0-.811.811v.62l-.5,1h-2.242l-.5-1v-.62a.811.811,0,0,0-.811-.811.812.812,0,0,1-.811-.811h.62l1.451.726a.811.811,0,0,0,.936-.152l1.1-1.1a.811.811,0,0,0,.76.526h1.622a.812.812,0,0,1-.811.811Z" transform="translate(-359.441 0)"/><path d="M410.8,195.4l-1.2-.4a4.884,4.884,0,0,0-.478-6.331,4.636,4.636,0,0,0-.387-.342,3.245,3.245,0,1,0-6.115,0,4.867,4.867,0,0,0-.866,6.669l-1.2.4a.811.811,0,0,0-.555.77v4.056a.811.811,0,0,0,.811.811h9.734a.811.811,0,0,0,.811-.811v-4.056A.811.811,0,0,0,410.8,195.4Zm-3.5-.378-.336.336h-2.573l-.336-.336v-1.286a2.386,2.386,0,0,0,1.62-.623,2.424,2.424,0,0,0,1.624.623Zm-.928,3.362-.694.694-.694-.694.468-1.4h.453Zm-.694-12.76a1.617,1.617,0,0,1,1.6,1.891,4.9,4.9,0,0,0-3.2,0,1.617,1.617,0,0,1,1.6-1.89Zm-1.616,3.676a3.245,3.245,0,0,1,3.238,0,3.2,3.2,0,0,1,1.623,2.81,3.282,3.282,0,0,1-.045.544.811.811,0,0,0-.766-.544H407.3a.812.812,0,0,1-.811-.811.811.811,0,0,0-1.622,0,.776.776,0,0,1-.233.562l-.016.016a.776.776,0,0,1-.562.233h-.811a.812.812,0,0,0-.766.544,3.284,3.284,0,0,1-.045-.544A3.222,3.222,0,0,1,404.062,189.3Zm-2.44,7.454,1.4-.468.457.457a.812.812,0,0,0,.278.181l-.474,1.422a.811.811,0,0,0,.2.83l.238.238h-2.1Zm8.112,2.66h-2.1l.238-.238a.811.811,0,0,0,.2-.83l-.474-1.422a.81.81,0,0,0,.278-.181l.457-.457,1.4.468Z" transform="translate(-359.441 -165.343)"/><path d="M84.056,248H80.811a.811.811,0,0,0-.811.811v3.245a.811.811,0,0,0,.811.811h3.245a.811.811,0,0,0,.811-.811v-3.245A.811.811,0,0,0,84.056,248Zm-.811,3.245H81.622v-1.622h1.622Z" transform="translate(-71.888 -222.854)"/><path d="M30.567,183.741l-2.987-2.785v-3.922a.811.811,0,0,0-.238-.574l-2.434-2.434a.811.811,0,0,0-.574-.238H22.713v-8.923a.811.811,0,0,0-.811-.811H18.517a2.437,2.437,0,0,0-2.294-1.622A2.445,2.445,0,0,0,13.79,160a2.436,2.436,0,0,0-2.434,2.434,2.437,2.437,0,0,0-2.294,1.622H5.678a.811.811,0,0,0-.811.811v8.923H3.245a.811.811,0,0,0-.574.238L.237,176.46a.811.811,0,0,0-.238.574V194.88a.811.811,0,0,0,.811.811H5.678a.811.811,0,0,0,.811-.811v-4.867h14.6v4.867a.811.811,0,0,0,.811.811h4.867a.811.811,0,0,0,.811-.811v-8.571l.257.24a.811.811,0,0,0,1.128-.019l1.622-1.622a.811.811,0,0,0-.02-1.167Zm-4.609-6.371v2.072L22.6,176.311a2.455,2.455,0,0,0-.514-.9H24Zm-3.72,6.153-2.769-2.77v-4.531h.883l.013,0a.851.851,0,0,1,.7.606l.024,3.073a.811.811,0,0,0,.258.587l3.249,3.033Zm-4.318-8.449-.885-.826v-.459h.492l.905.844A.812.812,0,0,0,17.92,175.074Zm-7.375-10.208a.812.812,0,0,1,.811-.811h.811a.811.811,0,0,0,.811-.811v-.811a.812.812,0,0,1,.811-.811.776.776,0,0,1,.562.233l.016.016a.776.776,0,0,1,.233.562v.811a.811.811,0,0,0,.811.811h.811a.812.812,0,0,1,.811.811v.811H10.545Zm-8.923,12.5,1.958-1.958H4.867v4.056a.811.811,0,0,0,1.622,0,.812.812,0,0,1,.811-.811h.811v2.909l-2.769,2.769H1.622Zm8.112,6.153h1.622v1.622H9.734ZM1.622,194.069v-8.112H4.867v8.112Zm4.867-5.678v-2.909l1.622-1.622v2.1a.811.811,0,0,0,.811.811h3.245a.811.811,0,0,0,.811-.811v-3.245a.811.811,0,0,0-.811-.811H9.734v-1.622h2.434a.811.811,0,0,0,.811-.811v-3.245a.811.811,0,0,0-.811-.811H8.923a.811.811,0,0,0-.811.811v.811H7.3a2.422,2.422,0,0,0-.811.139v-11.5H8.923v.811a.811.811,0,0,0,.811.811h8.112a.811.811,0,0,0,.811-.811v-.811H21.09v9.064a2.458,2.458,0,0,0-.24-.072L18.4,172.385a.811.811,0,0,0-.553-.218H16.223a.811.811,0,0,0-.811.811V174.6a.811.811,0,0,0,.258.593l2.176,2.031v3.866a.811.811,0,0,0,.238.574l3.007,3.007v3.72Zm3.245-9.734v-1.622h1.622v1.622Zm16.223,15.412H22.713v-8.923h3.245Zm2.414-9.24-1.163-1.087h0l-4.5-4.2-.007-.919,3.512,3.278,2.63,2.453Z" transform="translate(0 -143.777)"/><path d="M144.811,249.622h3.245a.811.811,0,1,0,0-1.622h-3.245a.811.811,0,1,0,0,1.622Z" transform="translate(-129.399 -222.854)"/><path d="M144.811,337.622h.811a.811.811,0,1,0,0-1.622h-.811a.811.811,0,1,0,0,1.622Z" transform="translate(-129.399 -301.931)"/><path d="M148.056,408h-3.245a.811.811,0,1,0,0,1.622h3.245a.811.811,0,1,0,0-1.622Z" transform="translate(-129.399 -366.631)"/><path d="M71.3,14.6a7.3,7.3,0,1,1,7.3-7.3A7.309,7.309,0,0,1,71.3,14.6Zm0-12.979A5.678,5.678,0,1,0,76.979,7.3,5.685,5.685,0,0,0,71.3,1.622Z" transform="translate(-57.511 0)"/><path d="M130.434,36.867h-1.622a.811.811,0,0,1-.811-.811V32.811a.811.811,0,1,1,1.622,0v2.434h.811a.811.811,0,1,1,0,1.622Z" transform="translate(-115.021 -28.756)"/><path d="M259.93,224.238a.811.811,0,1,0-1.147,1.147l1.049,1.049h-11.02a.811.811,0,1,0,0,1.622h11.02l-1.049,1.049a.811.811,0,0,0,1.147,1.147l2.434-2.434a.811.811,0,0,0,0-1.147Z" transform="translate(-222.854 -201.288)"/><path d="M248.811,80.224h4.056a4.06,4.06,0,0,0,4.056-4.056V70.49a2.436,2.436,0,0,1,2.433-2.434h.475l-1.049,1.049a.811.811,0,0,0,1.147,1.147l2.433-2.434a.811.811,0,0,0,0-1.147l-2.433-2.434a.811.811,0,0,0-1.147,1.147l1.049,1.049h-.475A4.06,4.06,0,0,0,255.3,70.49v5.678a2.436,2.436,0,0,1-2.434,2.434h-4.056a.811.811,0,0,0,0,1.622Z" transform="translate(-222.854 -57.512)"/><path d="M259.93,297.972a.811.811,0,0,0-1.147,1.147l1.049,1.049h-.475a2.436,2.436,0,0,1-2.433-2.434v-5.678A4.061,4.061,0,0,0,252.867,288h-4.056a.811.811,0,1,0,0,1.622h4.056a2.436,2.436,0,0,1,2.434,2.433v5.678a4.06,4.06,0,0,0,4.056,4.056h.475l-1.049,1.049a.811.811,0,0,0,1.147,1.147l2.434-2.434a.811.811,0,0,0,0-1.147Z" transform="translate(-222.853 -258.799)"/><path d="M410.908,377.009l-1.174-.587v-.35a2.028,2.028,0,0,0,0-3.974v-1.663A2.436,2.436,0,0,0,407.3,368h-3.245a2.436,2.436,0,0,0-2.434,2.434V372.1a2.028,2.028,0,0,0,0,3.974v.35l-1.174.587a.811.811,0,0,0-.448.726v4.056a.811.811,0,0,0,.811.811h9.734a.811.811,0,0,0,.811-.811v-4.056a.811.811,0,0,0-.448-.726Zm-7.663-6.575a.812.812,0,0,1,.811-.811H407.3a.812.812,0,0,1,.811.811v1.395l-4.867-1.217Zm-1.217,3.245h.406a.811.811,0,0,0,.811-.811v-.583l5.481,1.37a.808.808,0,0,0,.2.024h.406a.406.406,0,0,1,0,.811h-.406a.811.811,0,0,0-.811.811v1.286l-.336.336h-4.2l-.336-.336V375.3a.811.811,0,0,0-.811-.811h-.406a.406.406,0,1,1,0-.811Zm4.345,6.27-.694.694-.694-.694.468-1.4h.453Zm-4.75-1.713.651-.325.4.4a.812.812,0,0,0,.574.238h.5l-.455,1.366a.811.811,0,0,0,.2.83l.238.238h-2.1Zm8.112,2.743h-2.1l.238-.238a.811.811,0,0,0,.2-.83l-.455-1.366h.5a.812.812,0,0,0,.574-.238l.4-.4.651.326Z" transform="translate(-359.441 -330.687)"/></g></g></g></svg>