<svg xmlns="http://www.w3.org/2000/svg" width="67" height="72" viewBox="0 0 67 72"><g transform="translate(-1046 -4323.322)"><g transform="translate(218 -3924.678)"><rect width="67" height="72" rx="5" transform="translate(828 8248)" fill="#fff"/><g transform="translate(837 8259.006)"><g transform="translate(0.883 0.883)"><path d="M38.1,19.344V7.65A2.65,2.65,0,0,0,35.447,5H3.65A2.65,2.65,0,0,0,1,7.65V48.28a2.65,2.65,0,0,0,2.65,2.65H27.966Z" transform="translate(-1 -1.467)" fill="#583ae2"/><path d="M38.661,5h-2.65a2.65,2.65,0,0,1,2.65,2.65V19.344L28.53,50.93h2.65L41.311,19.344V7.65A2.65,2.65,0,0,0,38.661,5Z" transform="translate(-4.214 -1.467)" fill="#462acb"/><path d="M35.031,19.617V9.883A.883.883,0,0,0,34.148,9H5.883A.883.883,0,0,0,5,9.883v37.1a.883.883,0,0,0,.883.883H23.69Z" transform="translate(-1.467 -1.934)" fill="#f5f5f5"/><path d="M36.268,9h-2.65a.883.883,0,0,1,.883.883v9.734L23.16,47.864h2.65L37.151,19.617V9.883A.883.883,0,0,0,36.268,9Z" transform="translate(-3.587 -1.934)" fill="#cfd8dc"/><path d="M50.779,27.183a16.8,16.8,0,1,1-2.4-2.4" transform="translate(-3.33 -3.335)" fill="#583ae2"/><path d="M52.827,27.183l-2.4-2.4A16.661,16.661,0,0,0,39.825,21c-.415,0-.823.033-1.23.062a16.647,16.647,0,0,1,9.18,3.719l2.4,2.4A16.762,16.762,0,0,1,38.5,54.5c.442.034.878.067,1.325.067a16.773,16.773,0,0,0,13-27.381Z" transform="translate(-5.377 -3.335)" fill="#462acb"/><circle cx="12.366" cy="12.366" r="12.366" transform="translate(22.082 22.082)" fill="#f5f5f5"/><path d="M39.825,26a12.386,12.386,0,0,0-1.325.073,12.366,12.366,0,0,1,0,24.585A12.366,12.366,0,1,0,39.825,26Z" transform="translate(-5.377 -3.918)" fill="#cfd8dc"/><path d="M7.949,0A7.949,7.949,0,1,1,0,7.949,7.949,7.949,0,0,1,7.949,0Z" transform="translate(26.498 26.498)" fill="#2ff980"/><path d="M39.825,31a7.989,7.989,0,0,0-1.325.119,7.94,7.94,0,0,1,0,15.66A7.949,7.949,0,1,0,39.825,31Z" transform="translate(-5.377 -4.502)" fill="#38d175"/><circle cx="3.533" cy="3.533" r="3.533" transform="translate(30.914 30.914)" fill="#f5f5f5"/><path d="M39.825,36a3.5,3.5,0,0,0-1.325.265,3.525,3.525,0,0,1,0,6.536A3.533,3.533,0,1,0,39.825,36Z" transform="translate(-5.377 -5.086)" fill="#cfd8dc"/><path d="M57.908,22.767l-1.492-1.492a.939.939,0,0,0-1.325,0l-2.817,2.817a.94.94,0,0,0-.275.664v1.488a.939.939,0,0,0,.939.939h1.488a.94.94,0,0,0,.664-.275l2.817-2.817a.939.939,0,0,0,0-1.325Z" transform="translate(-6.953 -3.335)" fill="#2ff980"/><path d="M57.955,22.767l-1.492-1.492a.939.939,0,0,0-1.325,0l-.661.662.828.828a.939.939,0,0,1,0,1.325l-2.817,2.819a.922.922,0,0,1-.084.056.924.924,0,0,0,.581.219h1.488a.94.94,0,0,0,.664-.275l2.817-2.817a.939.939,0,0,0,0-1.325Z" transform="translate(-7.001 -3.335)" fill="#10cf5d"/><path d="M30.432,4.533V8.066a.883.883,0,0,1-.883.883H11.883A.883.883,0,0,1,11,8.066V4.533a.883.883,0,0,1,.883-.883h2.65l.48-1.441A1.767,1.767,0,0,1,16.69,1h8.052A1.767,1.767,0,0,1,26.42,2.208L26.9,3.65h2.65a.883.883,0,0,1,.883.883Z" transform="translate(-2.167 -1)" fill="#583ae2"/><g transform="translate(19.925)"><path d="M26.208,1h-2.65a1.767,1.767,0,0,1,1.678,1.208l.479,1.441h2.65l-.48-1.441A1.767,1.767,0,0,0,26.208,1Z" transform="translate(-23.558 -1)" fill="#462acb"/><path d="M31.65,4H29a.883.883,0,0,1,.883.883V8.416A.883.883,0,0,1,29,9.3h2.65a.883.883,0,0,0,.883-.883V4.883A.883.883,0,0,0,31.65,4Z" transform="translate(-24.193 -1.35)" fill="#462acb"/></g></g><g transform="translate(0 0)"><path d="M3.533,51.23H27.682A17.636,17.636,0,0,0,49.675,25.052l2.791-2.787a1.822,1.822,0,0,0,0-2.577l-.118-.117.4-.4a.883.883,0,1,0-1.258-1.24l-.391.394-.121-.121a1.865,1.865,0,0,0-2.576,0l-2.788,2.783a17.619,17.619,0,0,0-6.746-2.947V7.066a3.533,3.533,0,0,0-3.533-3.533H29.786a1.76,1.76,0,0,0-1.521-.883H26.252l-.279-.838A2.65,2.65,0,0,0,23.459,0H15.405A2.65,2.65,0,0,0,12.9,1.812l-.284.837H10.6a1.76,1.76,0,0,0-1.521.883H3.533A3.533,3.533,0,0,0,0,7.066V47.7A3.533,3.533,0,0,0,3.533,51.23Zm31.8,0a15.9,15.9,0,1,1,9.716-28.46v1.023a1.8,1.8,0,0,0,.077.5l-1.083,1.084a13.295,13.295,0,1,0,1.249,1.249l1.082-1.083a1.8,1.8,0,0,0,.5.077H47.89A15.876,15.876,0,0,1,35.331,51.23Zm2.65-15.9a2.65,2.65,0,1,1-2.65-2.65,2.607,2.607,0,0,1,1.135.265l-1.759,1.759a.883.883,0,1,0,1.249,1.249l1.76-1.759a2.607,2.607,0,0,1,.265,1.135Zm-.218-3.681A4.43,4.43,0,1,0,39.011,32.9L40.906,31a7.089,7.089,0,1,1-1.247-1.247ZM40.916,28.5a8.847,8.847,0,1,0,1.249,1.249l1.876-1.875a11.515,11.515,0,1,1-1.25-1.25Zm5.918-6.231,2.894-2.816.747.747V20.2h.005l.732.733v.079l-2.855,2.835-1.545-.056ZM37.1,7.066v10.7a17.567,17.567,0,0,0-1.767-.1V8.833a1.767,1.767,0,0,0-1.767-1.767H30.031V5.3h5.3A1.767,1.767,0,0,1,37.1,7.066ZM10.6,4.416h2.65a.883.883,0,0,0,.838-.6l.48-1.441a.883.883,0,0,1,.837-.6h8.054a.883.883,0,0,1,.837.6l.48,1.441a.883.883,0,0,0,.838.6h2.65V7.949H10.6Zm17.665,5.3a1.76,1.76,0,0,0,1.521-.883h3.779v8.921a17.619,17.619,0,0,0-10.828,5.211H16.782a.883.883,0,1,0,0,1.767h4.45a17.593,17.593,0,0,0-2.985,6.183H16.782a.883.883,0,1,0,0,1.767h1.1a16.941,16.941,0,0,0,.135,6.183H16.782a.883.883,0,1,0,0,1.767h1.7a17.625,17.625,0,0,0,2.752,5.3H5.3V8.833H9.078a1.76,1.76,0,0,0,1.521.883Zm-26.5-2.65A1.767,1.767,0,0,1,3.533,5.3h5.3V7.066H5.3A1.767,1.767,0,0,0,3.533,8.833v37.1A1.767,1.767,0,0,0,5.3,47.7H22.736a17.908,17.908,0,0,0,2.04,1.767H3.533A1.767,1.767,0,0,1,1.767,47.7Z" transform="translate(0 0)"/><circle cx="0.883" cy="0.883" r="0.883" transform="translate(18.549 3.533)"/><path d="M10.259,19.158l.883.883a.883.883,0,0,0,.624.259h.063a.883.883,0,0,0,.644-.353l2.65-3.533a.883.883,0,1,0-1.413-1.06l-2.039,2.719-.163-.163a.883.883,0,1,0-1.249,1.249Z" transform="translate(-1.167 -1.751)"/><path d="M18.883,18.767H31.249a.883.883,0,1,0,0-1.767H18.883a.883.883,0,1,0,0,1.767Z" transform="translate(-2.101 -1.984)"/><path d="M13.71,24.353l-2.039,2.719-.163-.163a.883.883,0,1,0-1.249,1.249l.883.883a.883.883,0,0,0,.624.259h.063a.883.883,0,0,0,.644-.353l2.65-3.533a.883.883,0,0,0-1.413-1.06Z" transform="translate(-1.167 -2.802)"/><path d="M13.71,33.353l-2.039,2.719-.163-.163a.883.883,0,1,0-1.249,1.249l.883.883a.883.883,0,0,0,.624.259h.063a.883.883,0,0,0,.644-.353l2.65-3.533a.883.883,0,1,0-1.413-1.06Z" transform="translate(-1.167 -3.852)"/><path d="M13.71,42.353l-2.039,2.719-.163-.163a.883.883,0,1,0-1.249,1.249l.883.883a.883.883,0,0,0,.624.259h.063a.883.883,0,0,0,.644-.353l2.65-3.533a.883.883,0,0,0-1.413-1.06Z" transform="translate(-1.167 -4.903)"/></g></g></g></g></svg>