<svg xmlns="http://www.w3.org/2000/svg" width="67" height="72" viewBox="0 0 67 72"><g transform="translate(4055.058 7365.678)"><g transform="translate(-4883.058 -15613.678)"><rect width="67" height="72" rx="5" transform="translate(828 8248)" fill="#fff"/><g transform="translate(836.603 8256.615)"><path d="M118,117.9a21.176,21.176,0,0,0,.634-2.264,1.643,1.643,0,0,0-.32-.586,11.152,11.152,0,0,0-5.113-4.059l-5.618-2.219a11.231,11.231,0,0,0-8.266.006L93.709,111a11.154,11.154,0,0,0-5.105,4.064,1.64,1.64,0,0,0-.32.588,21.224,21.224,0,0,0,.736,2.55,24.278,24.278,0,0,0,9.795,11.978l9.3-.005a24.283,24.283,0,0,0,9.776-11.973q.053-.151.105-.3Zm0,0" transform="translate(-78.579 -96.116)" fill="#4629cc"/><path d="M128.313,138.242h-1.064a1.643,1.643,0,0,0-1.618,1.979l.419,2.3c.325,1.7,2.268.924,2.268.924Zm0,0" transform="translate(-111.796 -123.046)" fill="#efd0af"/><path d="M303.211,138.149h1.064a1.643,1.643,0,0,1,1.62,1.978l-.417,2.3c-.323,1.7-2.267.927-2.267.927Zm0,0" transform="translate(-269.882 -122.962)" fill="#fae0c1"/><path d="M170.277,252.174l3.634-3.418a1.054,1.054,0,0,0-.53-1.8,2.439,2.439,0,0,1-1.7-2.35l0-4.489-4.784,0-4.785,0,0,4.489a2.439,2.439,0,0,1-1.7,2.352,1.054,1.054,0,0,0-.529,1.805l3.638,3.413a4.931,4.931,0,0,0,6.751,0Zm0,0" transform="translate(-142.016 -213.72)" fill="#fae0c1"/><path d="M217.556,246.956a2.438,2.438,0,0,1-1.7-2.35l0-4.488-3.78,0,0,4.486a2.439,2.439,0,0,0,1.7,2.35,1.054,1.054,0,0,1,.53,1.8l-3.635,3.418a4.91,4.91,0,0,1-1.487.963,4.931,4.931,0,0,0,5.267-.963l3.635-3.418A1.054,1.054,0,0,0,217.556,246.956Zm0,0" transform="translate(-186.191 -213.723)" fill="#efd0af"/><path d="M162.849,31.574a8.376,8.376,0,0,0-11.79.007,8.919,8.919,0,0,0-2.716,6.555v.3h0l.005,8.713c.05,2.43,1.728,4.111,3.186,5.555,1.342,1.328,2.863,2.9,5.431,2.927,2.568-.032,4.088-1.6,5.428-2.933,1.456-1.446,3.133-3.129,3.18-5.559l-.005-8.713h0v-.3a8.917,8.917,0,0,0-2.723-6.551Zm0,0" transform="translate(-132.037 -25.947)" fill="#fae0c1"/><path d="M219.807,50.753h0v-.3a8.921,8.921,0,0,0-2.723-6.552,10.019,10.019,0,0,0-1.124-.9v7.753l0-5.859,0,14.572c-.047,2.43-1.723,4.113-3.18,5.559a10,10,0,0,1-3.507,2.586,5.742,5.742,0,0,0,1.927.347c2.568-.032,4.088-1.6,5.428-2.933,1.456-1.446,3.133-3.129,3.18-5.559Zm0,0" transform="translate(-186.273 -38.273)" fill="#efd0af"/><path d="M47.3,279.7l-7.526-1.433a6.836,6.836,0,0,0-4.68.751,13.313,13.313,0,0,1-3.073,1.146,1.707,1.707,0,0,1-.849,0A13.984,13.984,0,0,1,28.1,279a6.831,6.831,0,0,0-4.684-.781l-6.94,1.374c-1.033.2-1.415.453-1.67.815L8.047,291.983a4.127,4.127,0,0,0-.2,3.771l2.727,6.075a1.72,1.72,0,0,0,1.625,1.154L51,302.961a1.72,1.72,0,0,0,1.628-1.169l2.655-6.094a4.127,4.127,0,0,0-.21-3.713l-6.69-11.58A1.719,1.719,0,0,0,47.3,279.7Zm0,0" transform="translate(-6.661 -247.529)" fill="#583ae2"/><path d="M259.409,302.137l2.655-6.094a4.127,4.127,0,0,0-.21-3.713l-6.69-11.58a1.719,1.719,0,0,0-1.089-.705l-7.526-1.433a6.836,6.836,0,0,0-4.68.75,10.964,10.964,0,0,1-2.072.862h0c.2.021,9.461,2.121,9.461,2.121a1.72,1.72,0,0,1,1.089.705l6.69,10.481a4.125,4.125,0,0,1,.21,3.713l-2.641,6.063,3.176,0a1.72,1.72,0,0,0,1.628-1.169Zm0,0" transform="translate(-213.438 -247.875)" fill="#4629cc"/><path d="M82.438,330.106l-35.956.02-2.08-19.16a1.048,1.048,0,0,1,1.042-1.162l38.01-.022a1.049,1.049,0,0,1,1.043,1.161Zm0,0" transform="translate(-39.516 -275.731)" fill="#b5b5b5"/><path d="M360.052,309.781l-2.717,0L355.152,330.1h3.885l2.059-19.163a1.049,1.049,0,0,0-1.043-1.161Zm0,0" transform="translate(-316.114 -275.73)" fill="#949494"/><path d="M79.462,481.4H40.279a1.04,1.04,0,0,1-1.04-1.039v-.751a1.04,1.04,0,0,1,1.039-1.04l39.183-.022a1.04,1.04,0,0,1,1.04,1.039v.751A1.059,1.059,0,0,1,79.462,481.4Zm0,0" transform="translate(-34.925 -425.946)" fill="#b5b5b5"/><path d="M383.351,479.589a1.039,1.039,0,0,0-1.04-1.039h-2.822v2.83l2.823.021a1.059,1.059,0,0,0,1.039-1.062Zm0,0" transform="translate(-337.776 -425.949)" fill="#949494"/><path d="M207.976,344.034a2.6,2.6,0,1,1-2.6-2.6A2.6,2.6,0,0,1,207.976,344.034Zm0,0" transform="translate(-180.491 -303.907)" fill="#2ff980"/><path d="M199.443,373.684a2.6,2.6,0,0,1-2.665,0,4.444,4.444,0,0,1-2.167-3.814v-2.45a2.357,2.357,0,0,1,2.356-2.359h2.279a2.357,2.357,0,0,1,2.359,2.356v2.45A4.444,4.444,0,0,1,199.443,373.684Zm0,0" transform="translate(-173.218 -324.935)" fill="#2ff980"/><path d="M118.493,26.35c.012-.052.024-.1.035-.155h0c0-.1,0-.2,0-.3,0-6.922-8.265-18.35-15.194-18.4-6.929.055-15.177,11.492-15.173,18.415q0,.13,0,.259c.005.016.009.029.011.038.01.045.021.09.03.135.621-2.26,8.548-4.044,15.137-4.056,6.609.005,14.566,1.79,15.147,4.059Zm0,0" transform="translate(-78.473 -6.675)" fill="#583ae2"/><path d="M209.969,7.5a7.344,7.344,0,0,0-2,.311C213.7,9.488,219.7,17.6,220.922,23.778c2.313.7,3.951,1.589,4.2,2.572.012-.052.024-.1.035-.155h0c0-.1,0-.2,0-.3,0-6.923-8.265-18.351-15.194-18.4Zm0,0" transform="translate(-185.105 -6.675)" fill="#4629cc"/><path d="M203.04,367.557a1.122,1.122,0,0,0,1.076-1.423,2.354,2.354,0,0,0-1.975-1.071h-2.282a2.353,2.353,0,0,0-1.938,1.021,1.113,1.113,0,0,0,1.053,1.474Zm0,0" transform="translate(-176.113 -324.935)" fill="#2ff980"/><path d="M178.091,341a.825.825,0,0,0-.825-.824H175.6s0-.535,0-.571a3.157,3.157,0,0,0,1.878-2.456l.222-1.228a.824.824,0,1,0-1.622-.294l-.232,1.285a1.5,1.5,0,0,1-.738,1.1,3.155,3.155,0,0,0-.41-.516s0-.091,0-.137a3.421,3.421,0,0,0-6.843,0c0,.046,0,.138,0,.138a3.193,3.193,0,0,0-.406.516,1.5,1.5,0,0,1-.743-1.1c0-.013-.234-1.285-.234-1.285a.824.824,0,1,0-1.622.3l.224,1.228a3.154,3.154,0,0,0,1.881,2.454c0,.037,0,.571,0,.571h-1.665a.824.824,0,0,0,0,1.649h1.665s0,.37,0,.384a3.156,3.156,0,0,0-1.876,2.456l-.222,1.228a.824.824,0,0,0,1.622.294l.226-1.246c0-.013,0-.026.006-.039a1.5,1.5,0,0,1,.553-.974,5.29,5.29,0,0,0,2.26,2.758,3.418,3.418,0,0,0,3.511,0,5.293,5.293,0,0,0,2.257-2.76,1.5,1.5,0,0,1,.553.973c0,.013,0,.026.006.039l.228,1.246a.84.84,0,0,0,.884.672.829.829,0,0,0,.738-.967l-.224-1.228a3.156,3.156,0,0,0-1.879-2.453v-.384h1.665A.824.824,0,0,0,178.091,341Zm-4.674-2.268a.242.242,0,0,1-.216.161l-3.843,0a.206.206,0,0,1-.213-.153.21.21,0,0,1,.081-.254,1.517,1.517,0,0,1,.913-.3h2.279a1.519,1.519,0,0,1,.937.319l0,0,0,0a.187.187,0,0,1,.055.223Zm-2.14-3.143h0a1.761,1.761,0,0,1,1.253.519,1.787,1.787,0,0,1,.333.46,3.25,3.25,0,0,0-.445-.03h-2.28a3.275,3.275,0,0,0-.447.031,1.779,1.779,0,0,1,1.586-.98Zm-2.669,6.582v-1.778a1.906,1.906,0,0,0,.751.152h1.1l0,4.78c-.029-.015.028.016,0,0A3.542,3.542,0,0,1,168.608,342.171Zm3.5,3.153,0-4.781h1.1a1.89,1.89,0,0,0,.75-.153v1.778A3.615,3.615,0,0,1,172.106,345.325Zm0,0" transform="translate(-146.39 -297.235)"/><path d="M49.131,44.043l-1.75-3.029a.824.824,0,0,0-1.428.825l1.75,3.029a3.316,3.316,0,0,1,.168,2.972L45.9,52.368a1.674,1.674,0,0,0-1.362-.591h-.5L45.8,35.3a1.873,1.873,0,0,0-1.863-2.073l-17.661.01A12.509,12.509,0,0,0,28.841,32.2a6.008,6.008,0,0,1,4.116-.656l5.278,1a.824.824,0,1,0,.308-1.62l-3.276-.624a23.475,23.475,0,0,0,4.826-7.947,9.937,9.937,0,0,0,.79-3.14c0-3.52-1.985-8.228-5.176-12.286C32.259,2.552,28.309.024,24.871,0h-.012C21.42.028,17.473,2.56,14.03,6.949,10.844,11.01,8.866,15.72,8.867,19.241a10.026,10.026,0,0,0,.8,3.121,23.476,23.476,0,0,0,4.821,7.94l-3.106.615a.824.824,0,0,0,.32,1.617L16.914,31.5a6.021,6.021,0,0,1,4.119.69,13.261,13.261,0,0,0,2.591,1.045l-17.695.01a1.873,1.873,0,0,0-1.861,2.076L5.857,51.8h-.5a1.867,1.867,0,0,0-1.383.615L1.938,47.887A3.309,3.309,0,0,1,2.1,44.869l1.837-3.147a.824.824,0,1,0-1.424-.831L.675,44.038a4.961,4.961,0,0,0-.241,4.525l2.714,6.046A2.53,2.53,0,0,0,4.341,55.98a1.852,1.852,0,0,0,1.014.3H44.538a1.873,1.873,0,0,0,1.063-.356,2.535,2.535,0,0,0,1.139-1.36L49.383,48.5a4.972,4.972,0,0,0-.252-4.455Zm-15.788-14.1a7.312,7.312,0,0,0-2.852-.049l0-2.11c.122-.119.45-.446.45-.446,1.468-1.458,3.288-3.264,3.417-5.948a2.223,2.223,0,0,0,1.112-.313,2.1,2.1,0,0,0,.939-1.466l.246-1.362a5.107,5.107,0,0,1,2.507,1.492,20.738,20.738,0,0,1-.621,2.07,22.126,22.126,0,0,1-5.2,8.132ZM20.08,26.173c-1.357-1.343-2.894-2.866-2.942-4.978l0-4.006a43.078,43.078,0,0,1,7.737-.748,43.026,43.026,0,0,1,7.839.758l0,3.987c-.045,2.112-1.58,3.636-2.936,4.982,0,0-2.5,2.694-4.848,2.694-2.306,0-4.851-2.689-4.851-2.689Zm-4.591-6.422c-.238,0-.389-.242-.423-.423l-.291-1.6c.159-.043.64-.167.713-.184Zm18.873-.011V17.56c.048.012.528.135.708.185,0,0-.283,1.561-.283,1.565a.45.45,0,0,1-.424.43Zm-9.5-18.09c5.833.045,13.094,9.266,14.22,15.908A16.212,16.212,0,0,0,34.91,16a43.563,43.563,0,0,0-10.038-1.206A43.609,43.609,0,0,0,14.864,16a16.263,16.263,0,0,0-4.2,1.571C11.784,10.928,19.033,1.7,24.865,1.65ZM16.4,29.924a22.113,22.113,0,0,1-5.178-8.114,20.615,20.615,0,0,1-.62-2.065,5.342,5.342,0,0,1,2.592-1.518l.255,1.4a2.089,2.089,0,0,0,.939,1.459A2.216,2.216,0,0,0,15.5,21.4c.132,2.684,1.954,4.488,3.424,5.944l.351.347v2.155a7.723,7.723,0,0,0-2.876.077Zm4.525.389V29.135a6.723,6.723,0,0,0,4,1.375h.019a6.692,6.692,0,0,0,3.9-1.307v1.165a7.315,7.315,0,0,0-.821.4,12.7,12.7,0,0,1-2.865,1.061.891.891,0,0,1-.44,0,13.418,13.418,0,0,1-2.874-1.075,7.932,7.932,0,0,0-.921-.445ZM5.706,35.146A.224.224,0,0,1,5.93,34.9l38.01-.022a.224.224,0,0,1,.223.248l-1.79,16.655L7.515,51.8ZM44.537,54.607,5.354,54.63a.216.216,0,0,1-.215-.215v-.751a.218.218,0,0,1,.215-.215l39.183-.022a.216.216,0,0,1,.215.215v.751A.215.215,0,0,1,44.537,54.607Zm0,0" transform="translate(0)"/></g></g></g></svg>