<svg xmlns="http://www.w3.org/2000/svg" width="295" height="451.185" viewBox="0 0 295 451.185"><g transform="translate(3859 7936.677)"><g transform="translate(-4879 -12226.785)"><g transform="translate(1020 4290.108)"><rect width="295" height="450.836" rx="15" transform="translate(0 0)" fill="#d5cef8"/><g transform="translate(0.001 0)"><g transform="translate(0)"><path d="M0,66.349H39.557A42.447,42.447,0,0,1,85,38.692V.189Q82.251,0,79.455,0A80.757,80.757,0,0,0,0,66.349Z" transform="translate(84.999 66.349) rotate(180)" fill="#ab9df1"/><ellipse cx="2.576" cy="2.576" rx="2.576" ry="2.576" transform="translate(69.791 15.87) rotate(180)" fill="#ab9df1"/></g><g transform="translate(294.999 451.185) rotate(180)"><path d="M0,66.349H39.557A42.447,42.447,0,0,1,85,38.692V.189Q82.251,0,79.455,0A80.757,80.757,0,0,0,0,66.349Z" transform="translate(84.999 66.349) rotate(180)" fill="#ab9df1"/><ellipse cx="2.576" cy="2.576" rx="2.576" ry="2.576" transform="translate(69.791 15.87) rotate(180)" fill="#ab9df1"/></g></g></g></g></g></svg>