<svg xmlns="http://www.w3.org/2000/svg" width="67" height="72" viewBox="0 0 67 72"><g transform="translate(3710 6961.678)"><g transform="translate(-4538.058 -15209.678)"><rect width="67" height="72" rx="5" transform="translate(828.058 8248)" fill="#fff"/><g transform="translate(833.808 8258.4)"><g transform="translate(1.87 3.22)"><g transform="translate(15.785 39.507)"><path d="M24.207,51.13H37.66l3.125,6.218H21.09Z" transform="translate(-21.09 -51.13)" fill="#3015ad"/></g><g transform="translate(11.907 45.725)"><path d="M16.4,58.65H43.843v3.307H16.4Z" transform="translate(-16.4 -58.65)" fill="#240c8f"/></g><path d="M50.387,3.35H4.877A2.88,2.88,0,0,0,2,6.227V36.184H53.265V6.227A2.88,2.88,0,0,0,50.387,3.35Z" transform="translate(-2 -3.35)" fill="#d5cef8"/><g transform="translate(0 0.033)"><path d="M50.743,3.39a2.722,2.722,0,0,1,.041.364A29.956,29.956,0,0,1,20.827,33.711H2v2.481H53.265V6.234A2.875,2.875,0,0,0,50.743,3.39Z" transform="translate(-2 -3.39)" fill="#ab9df1"/></g><g transform="translate(0 32.834)"><path d="M2,43.06v3.8a2.88,2.88,0,0,0,2.877,2.877h45.51a2.88,2.88,0,0,0,2.877-2.877v-3.8Z" transform="translate(-2 -43.06)" fill="#583ae2"/></g><g transform="translate(36.472 9.674)"><path d="M46.11,15.05h3.977V34.076H46.11Z" transform="translate(-46.11 -15.05)" fill="#2ff980"/></g><g transform="translate(23.168 17.948)"><path d="M0,0H3.977V10.749H0Z" transform="translate(3.977 10.749) rotate(180)" fill="#2ff980"/></g><g transform="translate(43.12 17.951)"><path d="M54.15,25.06h3.977V35.809H54.15Z" transform="translate(-54.15 -25.06)" fill="#583ae2"/></g><g transform="translate(45.442 17.948)"><path d="M0,0H1.654V10.749H0Z" transform="translate(1.654 10.749) rotate(180)" fill="#3015ad"/></g><g transform="translate(29.82 22.922)"><path d="M0,0H3.977V5.78H0Z" transform="translate(3.977 5.78) rotate(180)" fill="#583ae2"/></g><g transform="translate(4.134 4.134)"><path d="M15.6,8.358c-.066,0-.124-.008-.19-.008A8.409,8.409,0,0,0,9.563,22.8L15.6,16.767Z" transform="translate(-7 -8.35)" fill="#2ff980"/></g><g transform="translate(6.697 12.543)"><path d="M10.1,24.564A8.414,8.414,0,0,0,24.371,18.52H16.136Z" transform="translate(-10.1 -18.52)" fill="#826be9"/></g><g transform="translate(12.733 4.143)"><path d="M17.4,8.36v8.409h8.227A8.406,8.406,0,0,0,17.4,8.36Z" transform="translate(-17.4 -8.36)" fill="#583ae2"/></g><g transform="translate(32.139 22.922)"><path d="M0,0H1.654V5.78H0Z" transform="translate(1.654 5.78) rotate(180)" fill="#3015ad"/></g><g transform="translate(38.791 9.673)"><path d="M0,0H1.654V19.026H0Z" transform="translate(1.654 19.026) rotate(180)" fill="#18cd61"/></g><g transform="translate(25.488 17.948)"><path d="M0,0H1.654V10.749H0Z" transform="translate(1.654 10.749) rotate(180)" fill="#18cd61"/></g></g><g transform="translate(1.25 2.6)"><g transform="translate(15.782 39.515)"><path d="M40.655,57.84H20.96a.613.613,0,0,1-.529-.3.607.607,0,0,1-.025-.6l3.125-6.21a.628.628,0,0,1,.554-.339H37.538a.629.629,0,0,1,.554.339l3.125,6.21a.606.606,0,0,1-.025.6.646.646,0,0,1-.537.3ZM21.96,56.6H39.646l-2.5-4.969H24.465Z" transform="translate(-20.337 -50.39)"/></g><g transform="translate(11.907 45.725)"><path d="M43.722,62.448H16.27a.625.625,0,0,1-.62-.62V58.52a.625.625,0,0,1,.62-.62H43.722a.625.625,0,0,1,.62.62v3.307A.625.625,0,0,1,43.722,62.448ZM16.89,61.207h26.2V59.14H16.89Z" transform="translate(-15.65 -57.9)"/></g><g transform="translate(0)"><path d="M53.135,36.674H1.87a.625.625,0,0,1-.62-.62V6.1a3.5,3.5,0,0,1,3.5-3.5h45.51a3.5,3.5,0,0,1,3.5,3.5V36.054A.625.625,0,0,1,53.135,36.674ZM2.49,35.434H52.515V6.1A2.26,2.26,0,0,0,50.257,3.84H4.748A2.26,2.26,0,0,0,2.49,6.1Z" transform="translate(-1.25 -2.6)"/></g><g transform="translate(0 32.826)"><path d="M50.257,50.221H4.748a3.5,3.5,0,0,1-3.5-3.5v-3.8a.625.625,0,0,1,.62-.62H53.135a.625.625,0,0,1,.62.62v3.8A3.5,3.5,0,0,1,50.257,50.221ZM2.49,43.549v3.183a2.26,2.26,0,0,0,2.257,2.257h45.51a2.26,2.26,0,0,0,2.257-2.257V43.549Z" transform="translate(-1.25 -42.3)"/></g><g transform="translate(25.426 35.968)"><circle cx="0.827" cy="0.827" r="0.827"/></g><g transform="translate(23.168 9.674)"><g transform="translate(13.296)"><path d="M49.947,34.566H45.97a.625.625,0,0,1-.62-.62V14.92a.625.625,0,0,1,.62-.62h3.977a.625.625,0,0,1,.62.62V33.946A.619.619,0,0,1,49.947,34.566ZM46.6,33.326h2.737V15.54H46.6Z" transform="translate(-45.35 -14.3)"/></g><g transform="translate(0 8.277)"><path d="M33.867,36.3H29.89a.625.625,0,0,1-.62-.62V24.93a.625.625,0,0,1,.62-.62h3.977a.625.625,0,0,1,.62.62V35.679A.625.625,0,0,1,33.867,36.3Zm-3.357-1.24h2.737V25.55H30.51Z" transform="translate(-29.27 -24.31)"/></g><g transform="translate(19.952 8.277)"><path d="M58,36.3H54.02a.625.625,0,0,1-.62-.62V24.93a.625.625,0,0,1,.62-.62H58a.625.625,0,0,1,.62.62V35.679A.625.625,0,0,1,58,36.3Zm-3.357-1.24h2.737V25.55H54.64Z" transform="translate(-53.4 -24.31)"/></g><g transform="translate(6.648 13.246)"><path d="M41.907,37.34H37.93a.625.625,0,0,1-.62-.62V30.94a.625.625,0,0,1,.62-.62h3.977a.625.625,0,0,1,.62.62v5.78A.625.625,0,0,1,41.907,37.34ZM38.55,36.1h2.737V31.56H38.55Z" transform="translate(-37.31 -30.32)"/></g></g><g transform="translate(4.134 25.806)"><path d="M21,35.05H6.87a.62.62,0,0,1,0-1.24H21a.62.62,0,1,1,0,1.24Z" transform="translate(-6.25 -33.81)"/><g transform="translate(0 2.894)"><path d="M15.469,38.55H6.87a.62.62,0,0,1,0-1.24h8.6a.62.62,0,1,1,0,1.24Z" transform="translate(-6.25 -37.31)"/></g></g><g transform="translate(4.134 4.134)"><path d="M9.433,23.294A.607.607,0,0,1,9,23.12,8.941,8.941,0,0,1,6.25,16.637,9.044,9.044,0,0,1,15.287,7.6a.8.8,0,0,1,.141.008.676.676,0,0,1,.67.62v8.409a.62.62,0,0,1-.182.438L9.88,23.112A.646.646,0,0,1,9.433,23.294ZM14.849,8.857A7.8,7.8,0,0,0,7.49,16.637a7.7,7.7,0,0,0,1.951,5.151l5.408-5.408Z" transform="translate(-6.25 -7.6)"/></g><g transform="translate(6.697 12.552)"><path d="M15.824,27.429A8.974,8.974,0,0,1,9.54,24.883a.628.628,0,0,1-.19-.438A.654.654,0,0,1,9.532,24l6.036-6.036a.62.62,0,0,1,.438-.182h8.227a.625.625,0,0,1,.62.62,9.041,9.041,0,0,1-9.029,9.029Zm-4.953-3.018a7.795,7.795,0,0,0,12.725-5.4H16.271Z" transform="translate(-9.35 -17.78)"/></g><g transform="translate(12.733 4.142)"><path d="M25.5,17.259H17.27a.625.625,0,0,1-.62-.62V8.23a.621.621,0,0,1,.637-.62,9.083,9.083,0,0,1,8.831,9.029.619.619,0,0,1-.62.62Zm-7.607-1.24h6.962A7.852,7.852,0,0,0,17.89,8.891Z" transform="translate(-16.65 -7.609)"/></g></g></g></g></g></svg>