<svg xmlns="http://www.w3.org/2000/svg" width="83.7" height="93" viewBox="0 0 83.7 93"><g transform="translate(-1293.65 -5173)"><g transform="translate(1293.65 5173)"><path d="M8,78.2v40.3H85.5V78.2A6.2,6.2,0,0,0,79.3,72H14.2A6.2,6.2,0,0,0,8,78.2Zm0,0" transform="translate(-3.35 -58.05)" fill="#583ae2"/><path d="M87.75,17.3a1.55,1.55,0,0,0,1.55-1.55V8h32.55a1.55,1.55,0,0,1,1.55,1.55v49.6a1.55,1.55,0,0,1-1.55,1.55H80V17.3Zm0,0" transform="translate(-55.2 -6.45)" fill="#e6e7e8"/><path d="M14.2,312H85.5v6.2a6.2,6.2,0,0,1-6.2,6.2H14.2A6.2,6.2,0,0,1,8,318.2V312Zm0,0" transform="translate(-3.35 -251.55)" fill="#ccd1d9"/><path d="M247.986,121.065a17.073,17.073,0,0,0,13.95,16.771,17.047,17.047,0,0,0,9.3-.883,17.05,17.05,0,1,0-23.25-15.887Zm0,0" transform="translate(-246.436 -83.865)" fill="#14a24d"/><path d="M284.4,128a12.163,12.163,0,0,1,6.2,1.674,12.378,12.378,0,0,1,0,21.452,12.162,12.162,0,0,1-6.2,1.674,12.4,12.4,0,1,1,0-24.8Zm0,0" transform="translate(-265.8 -103.2)" fill="#2ff980"/><path d="M323.1,278.838a17.029,17.029,0,0,0,3.1-.279v25.079a3.1,3.1,0,0,1-6.2,0V278.559A17.028,17.028,0,0,0,323.1,278.838Zm0,0" transform="translate(-304.5 -224.588)" fill="#2ff980"/><path d="M256,17.3h7.75a1.55,1.55,0,0,0,1.55-1.55V8Zm0,0" transform="translate(-231.2 -6.45)" fill="#bcbec0"/><path d="M120,441.55v4.65h34.1v-4.65a1.55,1.55,0,0,0-1.55-1.55h-31A1.55,1.55,0,0,0,120,441.55Zm0,0" transform="translate(-93.65 -354.75)" fill="#787680"/><path d="M145.55,376,144,388.4h24.8L167.25,376Zm0,0" transform="translate(-113 -303.15)" fill="#aab2bd"/><path d="M379.1,284.65h4.65v3.1H379.1v4.65a4.65,4.65,0,0,0,4.65,4.65v3.1A7.759,7.759,0,0,1,376,292.4V280h3.1Zm0,0" transform="translate(-372.9 -225.75)"/><path d="M21.7,86.8a3.1,3.1,0,0,1,3.1-3.1h1.732l1.162-9.3H23.25V71.3h49.6a4.65,4.65,0,0,0,4.65-4.65V62H23.25V58.9H77.5V20.15a4.65,4.65,0,0,0-4.65-4.65h-6.2V52.7a3.1,3.1,0,0,1-3.1,3.1H31V52.7H63.55V3.1h-31V9.3a3.1,3.1,0,0,1-3.1,3.1h-6.2v4.65h-3.1V15.5H7.75A4.65,4.65,0,0,0,3.1,20.15H0A7.759,7.759,0,0,1,7.75,12.4h12.4V10.85a1.55,1.55,0,0,1,.454-1.1l9.3-9.3A1.55,1.55,0,0,1,31,0H63.55a3.1,3.1,0,0,1,3.1,3.1v9.3h6.2a7.759,7.759,0,0,1,7.75,7.75v46.5a7.759,7.759,0,0,1-7.75,7.75H52.906l1.162,9.3H55.8a3.1,3.1,0,0,1,3.1,3.1v3.1H62V93H18.6V89.9h3.1ZM29.45,5.292,25.442,9.3H29.45ZM49.782,74.4H30.818l-1.162,9.3H50.944ZM55.8,89.9V86.8h-31v3.1Zm0,0" transform="translate(3.1)"/><path d="M239.987,114.475a18.6,18.6,0,1,1,23.25,17.98v23.87a4.65,4.65,0,1,1-9.3,0v-23.87a18.614,18.614,0,0,1-13.95-17.98Zm34.1,0a15.5,15.5,0,1,0-15.5,15.5A15.5,15.5,0,0,0,274.087,114.475Zm-17.05,41.85a1.55,1.55,0,1,0,3.1,0V133c-.513.043-1.026.079-1.55.079s-1.037-.036-1.55-.079Zm0,0" transform="translate(-239.987 -77.275)"/><path d="M264,133.95a13.95,13.95,0,1,1,13.95,13.95A13.95,13.95,0,0,1,264,133.95Zm24.8,0a10.85,10.85,0,1,0-10.85,10.85A10.85,10.85,0,0,0,288.8,133.95Zm0,0" transform="translate(-259.35 -96.75)"/><path d="M118.2,48H112v3.1h6.2Zm0,0" transform="translate(-56.2 -38.7)"/><path d="M172.4,48H160v3.1h12.4Zm0,0" transform="translate(-119.7 -38.7)"/><path d="M133.7,96H112v3.1h21.7Zm0,0" transform="translate(-71.7 -77.4)"/><path d="M115.1,144H112v3.1h3.1Zm0,0" transform="translate(-53.1 -116.1)"/><path d="M159.5,144H144v3.1h15.5Zm0,0" transform="translate(-103.7 -116.1)"/><path d="M132.15,192H112v3.1h20.15Zm0,0" transform="translate(-70.15 -154.8)"/></g></g></svg>