<svg xmlns="http://www.w3.org/2000/svg" width="67" height="72" viewBox="0 0 67 72"><g transform="translate(-731 -4323.322)"><rect width="67" height="72" rx="5" transform="translate(731 4323.322)" fill="#fff"/><g transform="translate(740.184 4332.322)"><path d="M53.833,75.667V99.5H8V75.667A3.667,3.667,0,0,1,11.667,72h38.5A3.667,3.667,0,0,1,53.833,75.667Zm0,0" transform="translate(-7.083 -63.75)" fill="#583ae2"/><path d="M101.083,13.5a.917.917,0,0,1-.917-.917V8H80.917A.917.917,0,0,0,80,8.917V38.25a.917.917,0,0,0,.917.917h24.75V13.5Zm0,0" transform="translate(-70.833 -7.083)" fill="#e8e8e8"/><path d="M50.167,312H8v3.667a3.667,3.667,0,0,0,3.667,3.667h38.5a3.667,3.667,0,0,0,3.667-3.667V312Zm0,0" transform="translate(-7.083 -276.25)" fill="#40327b"/><path d="M268.154,114.1a10.1,10.1,0,0,1-8.25,9.918,10.081,10.081,0,0,1-5.5-.522,10.083,10.083,0,1,1,13.75-9.4Zm0,0" transform="translate(-219.571 -92.1)" fill="#2ff980"/><path d="M279.333,128a7.193,7.193,0,0,0-3.667.99,7.32,7.32,0,0,0,0,12.687,7.192,7.192,0,0,0,3.667.99,7.333,7.333,0,0,0,0-14.667Zm0,0" transform="translate(-240.833 -113.333)" fill="#2ff980"/><path d="M321.833,278.724a10.071,10.071,0,0,1-1.833-.165V293.39a1.833,1.833,0,0,0,3.667,0V278.559A10.071,10.071,0,0,1,321.833,278.724Zm0,0" transform="translate(-283.333 -246.64)" fill="#2ff980"/><path d="M261.5,13.5h-4.583a.917.917,0,0,1-.917-.917V8Zm0,0" transform="translate(-226.667 -7.083)" fill="#bcbec0"/><path d="M140.167,440.917v2.75H120v-2.75a.917.917,0,0,1,.917-.917H139.25A.917.917,0,0,1,140.167,440.917Zm0,0" transform="translate(-106.25 -389.583)" fill="#40327b"/><path d="M157.75,376l.917,7.333H144l.917-7.333Zm0,0" transform="translate(-127.5 -332.917)" fill="#40327b"/><path d="M378.75,282.75H376v1.833h2.75v2.75a2.75,2.75,0,0,1-2.75,2.75v1.833a4.589,4.589,0,0,0,4.583-4.583V280H378.75Zm0,0" transform="translate(-332.917 -247.917)"/><path d="M34.833,51.333A1.833,1.833,0,0,0,33,49.5H31.976L31.288,44h2.628V42.167H4.583a2.75,2.75,0,0,1-2.75-2.75v-2.75H33.917V34.833H1.833V11.917a2.75,2.75,0,0,1,2.75-2.75H8.25v22A1.833,1.833,0,0,0,10.083,33h19.25V31.167H10.083V1.833H28.417V5.5A1.833,1.833,0,0,0,30.25,7.333h3.667v2.75H35.75V9.167h7.333a2.75,2.75,0,0,1,2.75,2.75h1.833a4.589,4.589,0,0,0-4.583-4.583H35.75V6.417a.917.917,0,0,0-.269-.648l-5.5-5.5A.917.917,0,0,0,29.333,0H10.083A1.833,1.833,0,0,0,8.25,1.833v5.5H4.583A4.589,4.589,0,0,0,0,11.917v27.5A4.589,4.589,0,0,0,4.583,44H16.378l-.688,5.5H14.667a1.833,1.833,0,0,0-1.833,1.833v1.833H11V55H36.667V53.167H34.833ZM30.25,3.13,32.62,5.5H30.25ZM18.226,44H29.441l.688,5.5H17.538Zm-3.559,9.167V51.333H33v1.833Zm0,0"/><path d="M261.989,106.863a11,11,0,1,0-13.75,10.633v14.117a2.75,2.75,0,0,0,5.5,0V117.5a11.008,11.008,0,0,0,8.25-10.633Zm-20.167,0a9.167,9.167,0,1,1,9.167,9.167A9.167,9.167,0,0,1,241.822,106.863Zm10.083,24.75a.917.917,0,1,1-1.833,0v-13.8c.3.026.607.047.917.047s.613-.021.917-.047Zm0,0" transform="translate(-212.489 -84.863)"/><path d="M280.5,128.25a8.25,8.25,0,1,0-8.25,8.25A8.25,8.25,0,0,0,280.5,128.25Zm-14.667,0a6.417,6.417,0,1,1,6.417,6.417A6.416,6.416,0,0,1,265.833,128.25Zm0,0" transform="translate(-233.75 -106.25)"/><path d="M112,48h3.667v1.833H112Zm0,0" transform="translate(-99.167 -42.5)"/><path d="M160,48h7.333v1.833H160Zm0,0" transform="translate(-141.667 -42.5)"/><path d="M112,96h12.833v1.833H112Zm0,0" transform="translate(-99.167 -85)"/><path d="M112,144h1.833v1.833H112Zm0,0" transform="translate(-99.167 -127.5)"/><path d="M144,144h9.167v1.833H144Zm0,0" transform="translate(-127.5 -127.5)"/><path d="M112,192h11.917v1.833H112Zm0,0" transform="translate(-99.167 -170)"/></g></g></svg>