<svg xmlns="http://www.w3.org/2000/svg" width="67" height="72" viewBox="0 0 67 72"><g transform="translate(3710.058 7365.678)"><g transform="translate(-4538.058 -15613.678)"><rect width="67" height="72" rx="5" transform="translate(828 8248)" fill="#fff"/><g transform="translate(828.57 8232.41)"><g transform="translate(8.819 29.563)"><g transform="translate(0 0)"><path d="M50.522,63a2.109,2.109,0,0,1,2.1,2.1v38.733a2.109,2.109,0,0,1-2.1,2.1H18.1a2.109,2.109,0,0,1-2.1-2.1V65.1A2.109,2.109,0,0,1,18.1,63Z" transform="translate(-16 -60.263)" fill="#583ae2" fill-rule="evenodd"/><path d="M321.353,105.943h2.717a2.109,2.109,0,0,0,2.1-2.1V65.1a2.109,2.109,0,0,0-2.1-2.1h-2.717Z" transform="translate(-289.547 -60.263)" fill="#3f24bd" fill-rule="evenodd"/><path d="M73.937,91.114H45.06a.948.948,0,0,0-.947.947v35.193a.948.948,0,0,0,.947.947H73.937a.948.948,0,0,0,.947-.947V92.061A.948.948,0,0,0,73.937,91.114Z" transform="translate(-41.185 -85.449)" fill="#eceff1" fill-rule="evenodd"/><path d="M321.353,128.2h.947q.045,0,.088,0a.949.949,0,0,0,.858-.942V92.06a.949.949,0,0,0-.858-.942q-.044,0-.088,0h-.947Z" transform="translate(-289.547 -85.449)" fill="#d1d1d6" fill-rule="evenodd"/><path d="M114.962,39.464h3a.929.929,0,0,0,.869-.572,3.58,3.58,0,0,1,6.576,0,.93.93,0,0,0,.869.572h3a.948.948,0,0,1,.947.947v3.58a.948.948,0,0,1-.947.947H114.962a.948.948,0,0,1-.947-.947V40.41A.948.948,0,0,1,114.962,39.464Z" transform="translate(-103.806 -36.727)" fill="#40327b" fill-rule="evenodd"/><path d="M128.331,67.526H114.016a.948.948,0,0,0,.947.947h14.315a.948.948,0,0,0,.947-.947v-3.58a.948.948,0,0,0-.947-.947v3.58a.948.948,0,0,1-.947.947Z" transform="translate(-103.807 -60.262)" fill="#40327b" fill-rule="evenodd"/></g><g transform="translate(17.401 16.098)"><path d="M203.834,193.861,214.943,213.1a5.17,5.17,0,0,1-4.477,7.755H188.248a5.17,5.17,0,0,1-4.477-7.755l11.109-19.241a5.17,5.17,0,0,1,8.955,0Z" transform="translate(-183.058 -191.276)" fill="#2ff980" fill-rule="evenodd"/><path d="M339.527,193.86,350.636,213.1a5.17,5.17,0,0,1-4.477,7.755h-1.042a5.17,5.17,0,0,0,4.477-7.755L338.486,193.86a5.032,5.032,0,0,0-3.957-2.561q.257-.024.521-.024A5.05,5.05,0,0,1,339.527,193.86Z" transform="translate(-318.752 -191.275)" fill="#fd4755" fill-rule="evenodd"/><path d="M224.854,218.593a2.452,2.452,0,0,0-4.248,0L209.5,237.834a2.453,2.453,0,0,0,2.124,3.679h22.217a2.453,2.453,0,0,0,2.124-3.679Z" transform="translate(-206.432 -214.649)" fill="#826be9" fill-rule="evenodd"/><path d="M223.251,217.415a2.747,2.747,0,0,0-.521-.048,2.336,2.336,0,0,0-2.124,1.226L209.5,237.834a2.453,2.453,0,0,0,2.124,3.679h1.042a2.453,2.453,0,0,1-2.124-3.679l11.109-19.241A2.318,2.318,0,0,1,223.251,217.415Z" transform="translate(-206.432 -214.649)" fill="#826be9" fill-rule="evenodd"/><path d="M327.374,279.339a1.413,1.413,0,1,1-1.413,1.413A1.413,1.413,0,0,1,327.374,279.339Zm1.038-2.895a1.042,1.042,0,1,1-2.076,0l-.295-8.558a1.131,1.131,0,0,1,1.073-1.175h.519a1.131,1.131,0,0,1,1.073,1.175Z" transform="translate(-311.076 -258.853)" fill="#2ff980" fill-rule="evenodd"/></g></g><path d="M43.1,67.559a.58.58,0,1,0-.58.58A.58.58,0,0,0,43.1,67.559Zm1.667,0a2.247,2.247,0,1,1-2.247-2.246A2.249,2.249,0,0,1,44.763,67.559ZM42.018,54.683l.294,8.54c0,.009,0,.02,0,.029,0,.171.109.3.2.3s.2-.132.2-.3c0-.009,0-.02,0-.029l.294-8.54c0-.191-.128-.331-.239-.331h-.519C42.146,54.351,42.022,54.492,42.018,54.683Zm-1.667.04v-.029a1.962,1.962,0,0,1,1.906-2.008h.519a1.961,1.961,0,0,1,1.906,2.008v.029l-.295,8.545a1.873,1.873,0,1,1-3.742,0ZM55.03,69.262a1.619,1.619,0,0,1-1.4,2.429H31.408a1.619,1.619,0,0,1-1.4-2.429l11.108-19.24a1.619,1.619,0,0,1,2.8,0Zm1.441-.833a3.286,3.286,0,0,1-2.843,4.929H31.408a3.286,3.286,0,0,1-2.846-4.929l11.109-19.24a3.286,3.286,0,0,1,5.691,0Zm.912-.525a4.337,4.337,0,0,1-3.755,6.5H31.408a4.337,4.337,0,0,1-3.756-6.5L38.76,48.662a4.339,4.339,0,0,1,7.512,0Zm-30.144,6.5a6.174,6.174,0,0,1-.985-1.262H11.745a.833.833,0,0,1-.833-.833V35.229a.834.834,0,0,1,.833-.833h6.449V33.133H10.922A1.273,1.273,0,0,0,9.651,34.4V73.137a1.273,1.273,0,0,0,1.272,1.272Zm-8.211-35.8a.834.834,0,0,1-.833-.833V36.062H12.579V71.481h12.98a5.8,5.8,0,0,1,.351-3.824h-.056a.833.833,0,1,1,0-1.667h.979l1.48-2.564H25.853a.833.833,0,1,1,0-1.667h3.422l1.48-2.563h-4.9a.833.833,0,1,1,0-1.667h5.864l1.48-2.563H25.853a.833.833,0,1,1,0-1.667H34.16l1.48-2.564H25.853a.833.833,0,0,1,0-1.667H36.6l.716-1.24a5.846,5.846,0,0,1,4.365-2.948V36.062H36.069v1.711a.835.835,0,0,1-.833.833Zm.833-1.667V33.133h3.791a.834.834,0,0,0,.811-.638,2.746,2.746,0,0,1,5.337,0,.834.834,0,0,0,.811.638H34.4V36.94H19.861Zm23.479-3.807A1.273,1.273,0,0,1,44.611,34.4V45.188a5.985,5.985,0,0,0-1.262-.306V35.229a.833.833,0,0,0-.833-.833H36.069V33.133ZM58.824,73.074a5.865,5.865,0,0,1-5.2,3H10.922a2.941,2.941,0,0,1-2.938-2.938V34.4a2.942,2.942,0,0,1,2.938-2.938H23.048a4.415,4.415,0,0,1,8.166,0H43.339A2.942,2.942,0,0,1,46.278,34.4V46.13a6.116,6.116,0,0,1,1.438,1.7L58.824,67.071a5.859,5.859,0,0,1,0,6ZM27.131,31.5a1,1,0,1,1-1,1A1,1,0,0,1,27.131,31.5ZM16.773,42.928l1.162,1.161,3.6-3.265a.833.833,0,1,1,1.12,1.234l-4.186,3.8a.834.834,0,0,1-1.149-.028l-1.724-1.724a.833.833,0,0,1,1.178-1.178Zm9.079-.653a.833.833,0,0,1,0-1.667H37.827a.833.833,0,0,1,0,1.667ZM21.534,55.213a.833.833,0,1,1,1.12,1.234l-4.186,3.8a.832.832,0,0,1-1.149-.028L15.595,58.5a.833.833,0,0,1,1.178-1.179l1.162,1.162Zm0,7.194a.833.833,0,1,1,1.12,1.234l-4.186,3.8a.832.832,0,0,1-1.149-.028l-1.724-1.723a.833.833,0,0,1,1.178-1.179l1.162,1.162Zm4.319-15.9H37.827a.833.833,0,0,0,0-1.667H25.853a.833.833,0,1,0,0,1.667Zm-3.141,1.571a.834.834,0,0,1-.057,1.177l-4.186,3.8a.832.832,0,0,1-1.149-.027L15.595,51.3a.833.833,0,1,1,1.178-1.178l1.162,1.162,3.6-3.266A.834.834,0,0,1,22.712,48.076Z" fill-rule="evenodd"/></g></g></g></svg>