<svg xmlns="http://www.w3.org/2000/svg" width="67" height="72" viewBox="0 0 67 72"><g transform="translate(3365 7365.678)"><g transform="translate(-4193.058 -15613.678)"><rect width="67" height="72" rx="5" transform="translate(828.058 8248)" fill="#fff"/><g transform="translate(833.058 8188.905)"><g transform="translate(0.833 75.827)"><path d="M37.617,84.16v29.918L84.011,116.3V84.16a1.666,1.666,0,0,0-1.666-1.666H39.283A1.666,1.666,0,0,0,37.617,84.16Z" transform="translate(-34.272 -82.494)" fill="#583ae2"/><path d="M432.715,82.494h-3.332a1.666,1.666,0,0,1,1.666,1.666V116.3l3.332-2.221V84.16A1.666,1.666,0,0,0,432.715,82.494Z" transform="translate(-382.532 -82.494)" fill="#3c22b6"/><path d="M188.846,120.036a8.584,8.584,0,0,0-1.277-.014,8.391,8.391,0,0,0-7.112,8.293V140.59l16.556,1.111V128.314A8.108,8.108,0,0,0,188.846,120.036Z" transform="translate(-161.25 -115.831)" fill="#2ff980"/><path d="M245.777,119.351a8.45,8.45,0,0,0-1.277.1,8.391,8.391,0,0,1,7.112,8.293v14.5l2.554-2.221V127.74A8.389,8.389,0,0,0,245.777,119.351Z" transform="translate(-218.181 -115.258)" fill="#16c05a"/><circle cx="1.495" cy="1.495" r="1.495" transform="translate(25.975 21.786) rotate(-84.78)" fill="#e8e8e8"/><g transform="translate(26.132 6.917)"><path d="M244.293,154.27a1.48,1.48,0,0,1-1.48-1.48v-6.529a1.48,1.48,0,1,1,2.959,0v6.529A1.48,1.48,0,0,1,244.293,154.27Z" transform="translate(-242.813 -144.782)" fill="#e8e8e8"/></g><path d="M165.175,305.436H148.443a2.776,2.776,0,0,0-2.776,2.776v4.049l22.284,2.221v-6.27A2.776,2.776,0,0,0,165.175,305.436Z" transform="translate(-130.323 -280.678)" fill="#7e8b96"/><path d="M314.665,305.436h-3.332a2.776,2.776,0,0,1,2.776,2.776v6.27l3.332-2.221v-4.049A2.776,2.776,0,0,0,314.665,305.436Z" transform="translate(-277.592 -280.678)" fill="#4e5a61"/><path d="M58.806,373.852H10.276A2.776,2.776,0,0,1,7.5,371.075v-3.066A1.111,1.111,0,0,1,8.611,366.9H28.56l6.931,1.111,6.142-1.111H60.472a1.111,1.111,0,0,1,1.111,1.111v3.066A2.776,2.776,0,0,1,58.806,373.852Z" transform="translate(-7.5 -335.315)" fill="#7e8b96"/><g transform="translate(21.06 31.584)"><path d="M454.5,366.9h-3.332a1.111,1.111,0,0,1,1.111,1.111v3.066a2.776,2.776,0,0,1-2.776,2.776h3.332a2.776,2.776,0,0,0,2.776-2.776v-3.066A1.111,1.111,0,0,0,454.5,366.9Z" transform="translate(-421.475 -366.899)" fill="#4e5a61"/><path d="M209.1,370.374H198.252a1.11,1.11,0,0,1-1.111-1.111V366.9h13.073v2.366A1.11,1.11,0,0,1,209.1,370.374Z" transform="translate(-197.141 -366.898)" fill="#4e5a61"/></g></g><g transform="translate(0 74.994)"><path d="M114.767,113.456a.833.833,0,0,0,.589-1.422l-2.746-2.746a.833.833,0,0,0-1.178,1.178l2.746,2.746A.83.83,0,0,0,114.767,113.456Z" transform="translate(-98.841 -105.263)"/><path d="M86.734,183.642a.833.833,0,0,0,.833.833h4.089a.833.833,0,0,0,0-1.666H87.567A.833.833,0,0,0,86.734,183.642Z" transform="translate(-77.102 -170.836)"/><path d="M364.075,109.288l-2.746,2.746a.833.833,0,0,0,1.178,1.178l2.746-2.746a.833.833,0,1,0-1.178-1.178Z" transform="translate(-320.986 -105.263)"/><path d="M373.449,183.642a.833.833,0,0,0,.833.833h4.088a.833.833,0,0,0,0-1.666h-4.088A.833.833,0,0,0,373.449,183.642Z" transform="translate(-331.977 -170.836)"/><path d="M237.369,250.243a2.328,2.328,0,1,0-2.328-2.328,2.33,2.33,0,0,0,2.328,2.328Zm0-2.989a.662.662,0,1,1-.662.662A.662.662,0,0,1,237.369,247.254Z" transform="translate(-208.939 -226.643)"/><path d="M237.625,148.435a2.315,2.315,0,0,0,2.312-2.312v-6.529a2.312,2.312,0,1,0-4.625,0v6.529A2.315,2.315,0,0,0,237.625,148.435Zm-.647-8.841a.647.647,0,0,1,1.293,0v6.529a.647.647,0,1,1-1.293,0Z" transform="translate(-209.181 -130.365)"/><path d="M21.06,108.243v1.533A1.946,1.946,0,0,0,23,111.72H33.855a1.946,1.946,0,0,0,1.943-1.943v-1.533H54.915a.278.278,0,0,1,.278.278v3.066a1.946,1.946,0,0,1-1.943,1.943H44.995a.833.833,0,0,0,0,1.666h8.254a3.613,3.613,0,0,0,3.609-3.609v-3.066a1.946,1.946,0,0,0-1.943-1.943h-1.4V77.493a2.5,2.5,0,0,0-2.5-2.5H5.843a2.5,2.5,0,0,0-2.5,2.5v29.085h-1.4A1.946,1.946,0,0,0,0,108.521v3.066A3.613,3.613,0,0,0,3.609,115.2H41.365a.833.833,0,1,0,0-1.666H3.609a1.946,1.946,0,0,1-1.943-1.943v-3.066a.278.278,0,0,1,.278-.278H8.591a.833.833,0,1,0,0-1.666H5.01V77.493a.834.834,0,0,1,.833-.833H51.015a.834.834,0,0,1,.833.833v29.085H41.515v-3.216a3.613,3.613,0,0,0-3.609-3.609h-.254V88.309a9.222,9.222,0,0,0-18.444,0v3.35a.833.833,0,1,0,1.666,0v-3.35a7.556,7.556,0,0,1,15.113,0V99.752H20.873V95.289a.833.833,0,0,0-1.666,0v4.463h-.254a3.613,3.613,0,0,0-3.609,3.609v3.216H12.221a.833.833,0,1,0,0,1.666Zm13.073,1.533a.278.278,0,0,1-.278.278H23a.278.278,0,0,1-.278-.278v-1.533H34.133Zm-17.123-3.2v-3.216a1.946,1.946,0,0,1,1.943-1.943H37.906a1.946,1.946,0,0,1,1.943,1.943v3.216Z" transform="translate(0 -74.994)"/></g></g></g></g></svg>