<svg xmlns="http://www.w3.org/2000/svg" xmlns:xlink="http://www.w3.org/1999/xlink" width="99" height="99" viewBox="0 0 99 99"><defs><clipPath id="a"><rect width="99" height="99" transform="translate(1285 12981)" fill="#fff" stroke="#707070" stroke-width="1"/></clipPath></defs><g transform="translate(-1285 -595)"><g transform="translate(0 -12386)" clip-path="url(#a)"><g transform="translate(1285.011 12981)"><path d="M84.962,70.451H72.033v8.978H84.962a3.5,3.5,0,0,1,3.492,3.491V93.061a4.489,4.489,0,0,0,8.978,0V82.92A12.483,12.483,0,0,0,84.962,70.451Zm0,0" fill="#2ff980"/><path d="M10.524,69.428V58.7a1.023,1.023,0,0,1,1.022-1.022h8.416V48.7H11.546a10.011,10.011,0,0,0-10,10V69.428a10.011,10.011,0,0,0,10,10H31.733V70.45H11.546a1.023,1.023,0,0,1-1.022-1.022Zm0,0" fill="#2ff980"/><path d="M88.679,31.182v26.15c0,17.32-27.6,34-34.221,37.747a2.863,2.863,0,0,1-2.829,0,128.744,128.744,0,0,1-15.736-10.57c-5.563-4.4-11.213-9.79-14.775-15.61a22.358,22.358,0,0,1-3.711-11.567V31.182a2.862,2.862,0,0,1,2.653-2.865c6.178-.415,8.33-2.567,8.748-8.745a2.862,2.862,0,0,1,2.862-2.656H74.416a2.861,2.861,0,0,1,2.862,2.656c.418,6.178,2.57,8.33,8.748,8.745a2.861,2.861,0,0,1,2.653,2.865Zm0,0" fill="#e3f4ff"/><path d="M51.708,87.976a126.733,126.733,0,0,1-10.475-7.3c-1.589-1.233-3.122-2.5-4.554-3.761-4.3-3.785-9.852-9.469-11.874-15.047a10.761,10.761,0,0,1-.737-3.648V37.071a2.514,2.514,0,0,1,1.564-2.327A16.17,16.17,0,0,0,34.8,25.575a2.513,2.513,0,0,1,2.328-1.564H68.954a2.512,2.512,0,0,1,2.327,1.564,16.172,16.172,0,0,0,9.172,9.169,2.512,2.512,0,0,1,1.564,2.327V58.219a13.813,13.813,0,0,1-2.109,6.6c-2.091,3.733-5.626,7.8-10.5,12.1A119.044,119.044,0,0,1,54.378,87.976a2.514,2.514,0,0,1-2.671,0Zm0,0" fill="#bddff4"/><path d="M79.5,37.072V58.22c0,1.514-.849,7.2-11.76,16.809a115.912,115.912,0,0,1-14.7,10.818,124.894,124.894,0,0,1-10.265-7.154c-1.483-1.151-2.977-2.378-4.436-3.664C30.976,68.547,28.2,63.847,27.169,61.012a8.3,8.3,0,0,1-.587-2.792V37.072A18.6,18.6,0,0,0,37.133,26.524H68.954A18.6,18.6,0,0,0,79.5,37.072Zm0,0" fill="#583ae2"/><path d="M50.2,53.193c0-5.842-2.687-10.577-6-10.577s-6,4.735-6,10.577,2.688,10.577,6,10.577S50.2,59.034,50.2,53.193Zm0,0" fill="#364ec6"/><path d="M73.174,5.94a4.49,4.49,0,0,1-4.489,4.489H64.514V45.2A12.5,12.5,0,0,1,52.031,57.681H38.756a18.068,18.068,0,0,1,0-8.978H52.03A3.509,3.509,0,0,0,55.536,45.2V9.9a8.46,8.46,0,0,1,8.451-8.449h4.7A4.489,4.489,0,0,1,73.174,5.94Zm0,0" fill="#2ff980"/><path d="M86.542,69.093A23.343,23.343,0,0,0,90.13,57.332V31.18a4.32,4.32,0,0,0-4.006-4.31c-5.44-.367-7.03-1.957-7.4-7.4a4.321,4.321,0,0,0-4.311-4.006H65.965V11.878h2.719A5.939,5.939,0,1,0,68.684,0h-4.7a9.912,9.912,0,0,0-9.9,9.9v5.567H44.9a1.45,1.45,0,0,0,0,2.9h9.188v6.706H37.131a1.45,1.45,0,0,0-1.343.9,17.191,17.191,0,0,1-9.753,9.753,1.45,1.45,0,0,0-.9,1.343V58.219c0,2.138,1.194,8.163,12.251,17.9a118.331,118.331,0,0,0,14.89,10.96,1.452,1.452,0,0,0,1.541,0A118.384,118.384,0,0,0,68.7,76.117c11.058-9.734,12.251-15.76,12.251-17.9V50.9a1.45,1.45,0,1,0-2.9,0v7.315c0,.968-.543,6.28-11.267,15.721A113.991,113.991,0,0,1,53.043,84.132,113.929,113.929,0,0,1,39.3,73.94C28.576,64.5,28.032,59.188,28.032,58.219V38.025A19.83,19.83,0,0,0,38.083,27.974h16V45.2a2.057,2.057,0,0,1-2.055,2.055H50.7c-1.3-3.765-3.767-6.088-6.512-6.088-4.18,0-7.454,5.283-7.454,12.027S40.012,65.22,44.192,65.22c2.763,0,5.215-2.314,6.511-6.088h1.328A13.949,13.949,0,0,0,65.964,45.2V27.974H68A19.827,19.827,0,0,0,78.054,38.025v6.2a1.45,1.45,0,0,0,2.9,0V37.072a1.45,1.45,0,0,0-.9-1.343A17.188,17.188,0,0,1,70.3,25.976a1.449,1.449,0,0,0-1.342-.9h-2.99V18.368h8.451a1.412,1.412,0,0,1,1.416,1.3c.465,6.894,3.2,9.631,10.1,10.1a1.412,1.412,0,0,1,1.3,1.416V57.331c0,9.845-9.86,19.678-18.13,26.193A1.45,1.45,0,1,0,70.893,85.8q3.129-2.466,5.777-4.924h8.292A2.043,2.043,0,0,1,87,82.92V93.061a5.939,5.939,0,1,0,11.878,0V82.92A13.936,13.936,0,0,0,86.542,69.094ZM63.065,21.615H56.987V15.438h6.078Zm0,9.077H56.987V24.515h6.078Zm-6.078,2.9h6.078v6.177H56.987Zm7-30.692h4.7a3.039,3.039,0,1,1,0,6.077H64.515a1.45,1.45,0,0,0-1.45,1.45v2.11H56.987V9.9A7.008,7.008,0,0,1,63.987,2.9ZM39.912,56.231a17.067,17.067,0,0,1,0-6.077h6.63v6.077Zm4.28-12.165c1.253,0,2.518,1.218,3.4,3.187h-6.8C41.688,45.255,42.979,44.066,44.192,44.066Zm0,18.253c-1.213,0-2.5-1.189-3.4-3.187h6.8C46.711,61.087,45.437,62.319,44.192,62.319Zm5.25-6.088V50.154h2.588a4.925,4.925,0,0,0,2.232-.533l4.394,4.393a10.972,10.972,0,0,1-6.626,2.218ZM60.725,51.98l-4.368-4.367a4.917,4.917,0,0,0,.63-2.414V42.67h6.078V45.2A10.976,10.976,0,0,1,60.725,51.98ZM95.981,82.92v2.922H89.9V82.92a4.909,4.909,0,0,0-.566-2.293l3.9-4.972a10.969,10.969,0,0,1,2.746,7.265ZM79.626,77.979a55.882,55.882,0,0,0,4.314-5.011q.4-.534.781-1.066h.241a10.952,10.952,0,0,1,6.088,1.84l-3.774,4.814a4.907,4.907,0,0,0-2.314-.577ZM92.942,96.1A3.042,3.042,0,0,1,89.9,93.061V88.743h6.077v4.318A3.042,3.042,0,0,1,92.942,96.1Zm0,0"/><path d="M63.753,87.486c-4.357,3.043-8.142,5.274-10.01,6.333a1.409,1.409,0,0,1-1.4,0C46.752,90.65,18.857,74,18.857,57.331V31.18a1.412,1.412,0,0,1,1.3-1.416c6.894-.465,9.631-3.2,10.1-10.1a1.412,1.412,0,0,1,1.417-1.3h6.553a1.45,1.45,0,1,0,0-2.9H31.67a4.321,4.321,0,0,0-4.311,4.006c-.367,5.44-1.957,7.03-7.4,7.4a4.32,4.32,0,0,0-4.006,4.31V47.254h-4.41A11.462,11.462,0,0,0,.1,58.7V69.428a11.463,11.463,0,0,0,11.45,11.45H29.413q.809.75,1.664,1.5a125.164,125.164,0,0,0,19.837,13.96,4.34,4.34,0,0,0,4.258,0c1.912-1.084,5.786-3.367,10.24-6.478a1.45,1.45,0,0,0-1.66-2.378ZM21.356,71.9a53.654,53.654,0,0,0,5.1,6.077H17.622V71.9ZM19.481,69H11.975V59.132H16.05A24.465,24.465,0,0,0,19.481,69ZM15.957,50.154v6.077h-4.41a2.451,2.451,0,0,0-.54.061L6.513,51.8a8.5,8.5,0,0,1,5.033-1.644ZM4.493,53.88l4.593,4.593c-.007.076-.011.153-.011.23v3.912H3V58.7a8.5,8.5,0,0,1,1.5-4.823ZM3,69.428V65.516H9.074v3.913a2.419,2.419,0,0,0,.038.415L4.58,74.375A8.5,8.5,0,0,1,3,69.428ZM6.636,76.42l4.55-4.549a2.458,2.458,0,0,0,.36.029h3.175v6.077H11.546a8.5,8.5,0,0,1-4.91-1.557Zm0,0"/></g></g></g></svg>