<svg xmlns="http://www.w3.org/2000/svg" width="92.989" height="77.991" viewBox="0 0 92.989 77.991"><g transform="translate(-1288.005 -1408.505)"><g transform="translate(1287.005 1402.505)"><path d="M6,65.994V18a3,3,0,0,1,3-3H80.991a3,3,0,0,1,3,3V65.994Z" transform="translate(2.499 4.498)" fill="#583ae2"/><path d="M10,19H75.992V63.995H10Z" transform="translate(4.498 6.498)" fill="#e3f4ff"/><path d="M85.99,61H8a6,6,0,0,1-6-6V52a3,3,0,0,1,3-3H88.99a3,3,0,0,1,3,3v3A6,6,0,0,1,85.99,61Z" transform="translate(0.5 21.493)" fill="#583ae2"/><path d="M24,49l4.5,6h15L48,49" transform="translate(11.496 21.493)" fill="#a8b0bc"/><path d="M53.5,50h-12A1.5,1.5,0,0,1,40,48.5v-12A1.5,1.5,0,0,1,41.5,35h12A1.5,1.5,0,0,1,55,36.5v12A1.5,1.5,0,0,1,53.5,50Z" transform="translate(19.493 14.495)" fill="#2ff980"/><g transform="translate(60.993 38.995)"><path d="M53,38.5H50V34a3,3,0,1,0-6,0v1.5H41V34a6,6,0,0,1,12,0v4.5Z" transform="translate(-41 -27.999)" fill="#cbc3b6"/></g><path d="M47.5,39.917V38h-3v1.917a3,3,0,1,0,3,0Z" transform="translate(20.992 15.994)" fill="#f7d881"/><g transform="translate(18.998 62.993)"><path d="M13,44H37v3H13Z" transform="translate(-13 -44)" fill="#cbc3b6"/></g><g transform="translate(45.995 62.993)"><path d="M31,44h3v3H31Z" transform="translate(-31 -44)" fill="#cbc3b6"/></g><g transform="translate(18.998 56.994)"><path d="M13,40H37v3H13Z" transform="translate(-13 -40)" fill="#cbc3b6"/></g><g transform="translate(45.995 56.994)"><path d="M31,40h3v3H31Z" transform="translate(-31 -40)" fill="#cbc3b6"/></g><g transform="translate(18.998 50.995)"><path d="M13,36H37v3H13Z" transform="translate(-13 -36)" fill="#cbc3b6"/></g><g transform="translate(45.995 50.995)"><path d="M31,36h3v3H31Z" transform="translate(-31 -36)" fill="#cbc3b6"/></g><g transform="translate(18.998 44.995)"><path d="M13,32H37v3H13Z" transform="translate(-13 -32)" fill="#cbc3b6"/></g><g transform="translate(45.995 44.995)"><path d="M31,32h3v3H31Z" transform="translate(-31 -32)" fill="#cbc3b6"/></g><path d="M15,0A15,15,0,1,1,0,15,15,15,0,0,1,15,0Z" transform="translate(23 7.991)" fill="#17e66a"/><path d="M42.092,11.931A14.988,14.988,0,1,0,23.672,35.078,26.333,26.333,0,0,0,42.092,11.931Z" transform="translate(7.497 0.5)" fill="#2ff980"/><g transform="translate(35.496 28.496)"><path d="M27,27a3,3,0,1,1,3-3A3,3,0,0,1,27,27Z" transform="translate(-24 -20.999)" fill="#c66b60"/></g><path d="M24,12.8a2.69,2.69,0,0,0,.028.4l1.26,8.817a1.729,1.729,0,0,0,3.423,0l1.26-8.817A2.675,2.675,0,0,0,30,12.8,2.8,2.8,0,0,0,27.2,10h-.4A2.8,2.8,0,0,0,24,12.8Z" transform="translate(11.496 1.999)" fill="#ebf918"/><path d="M27,21a3,3,0,0,0-3,3,2.972,2.972,0,0,0,.7,1.908,26.339,26.339,0,0,0,4.829-3.5A2.994,2.994,0,0,0,27,21Z" transform="translate(11.496 7.497)" fill="#e47c6e"/><path d="M24,49l4.5,6H38.6a17.493,17.493,0,0,0,4.573-6Z" transform="translate(11.496 21.493)" fill="#c1c8d1"/><g transform="translate(1 6)"><path d="M89.49,68.993h-1.5V22.5a4.5,4.5,0,0,0-4.5-4.5H54.353a16.479,16.479,0,0,0-31.717,0H11.5A4.5,4.5,0,0,0,7,22.5V68.993H5.5a4.5,4.5,0,0,0-4.5,4.5v3a7.508,7.508,0,0,0,7.5,7.5H86.49a7.508,7.508,0,0,0,7.5-7.5v-3a4.5,4.5,0,0,0-4.5-4.5ZM83.49,21a1.5,1.5,0,0,1,1.5,1.5V68.993h-3V25.5a1.5,1.5,0,0,0-1.5-1.5H54.917c.045-.495.076-.994.076-1.5s-.031-1-.076-1.5ZM16,68.993V27h6.64a16.478,16.478,0,0,0,31.715,0H78.991v42Zm40.494,3-2.25,3h-13.5l-2.248-3ZM38.5,9A13.5,13.5,0,1,1,25,22.5,13.514,13.514,0,0,1,38.5,9ZM10,22.5A1.5,1.5,0,0,1,11.5,21H22.074c-.045.495-.076.993-.076,1.5s.031,1,.076,1.5H14.5A1.5,1.5,0,0,0,13,25.5V68.993H10ZM90.99,76.492a4.5,4.5,0,0,1-4.5,4.5H8.5a4.5,4.5,0,0,1-4.5-4.5v-3a1.5,1.5,0,0,1,1.5-1.5H34.746l4.05,5.4a1.5,1.5,0,0,0,1.2.6h15a1.5,1.5,0,0,0,1.2-.6l4.05-5.4H89.49a1.5,1.5,0,0,1,1.5,1.5Z" transform="translate(-1 -6)"/><path d="M54,37V34a6,6,0,0,0-12,0v1.5h3V34a3,3,0,0,1,6,0v3H42a3,3,0,0,0-3,3V52a3,3,0,0,0,3,3H54a3,3,0,0,0,3-3V40A3,3,0,0,0,54,37ZM42,52V40H54V52Z" transform="translate(17.993 4.996)"/><path d="M47.5,39.917V38h-3v1.917a3,3,0,1,0,3,0Z" transform="translate(19.993 9.994)"/><path d="M27,21a3,3,0,1,0,3,3A3,3,0,0,0,27,21Z" transform="translate(10.496 1.497)"/><path d="M24.3,22.725a3.229,3.229,0,0,0,6.394,0l1.258-8.814A4.163,4.163,0,0,0,32,13.3,4.3,4.3,0,0,0,27.7,9h-.4A4.3,4.3,0,0,0,23,13.3a4.108,4.108,0,0,0,.043.607ZM27.3,12h.4A1.3,1.3,0,0,1,29,13.3a1.285,1.285,0,0,1-.012.184L27.726,22.3a.238.238,0,0,1-.454,0l-1.26-8.819A1.216,1.216,0,0,1,26,13.3,1.3,1.3,0,0,1,27.3,12Z" transform="translate(9.996 -4.501)"/><path d="M13,44H37v3H13Z" transform="translate(4.998 12.993)"/><path d="M31,44h3v3H31Z" transform="translate(13.995 12.993)"/><path d="M13,40H37v3H13Z" transform="translate(4.998 10.994)"/><path d="M31,40h3v3H31Z" transform="translate(13.995 10.994)"/><path d="M13,36H37v3H13Z" transform="translate(4.998 8.995)"/><path d="M31,36h3v3H31Z" transform="translate(13.995 8.995)"/><path d="M13,32H37v3H13Z" transform="translate(4.998 6.995)"/><path d="M31,32h3v3H31Z" transform="translate(13.995 6.995)"/></g></g></g></svg>