<svg xmlns="http://www.w3.org/2000/svg" width="341.846" height="341.285" viewBox="0 0 341.846 341.285"><g transform="translate(-238.154 -4297)"><g transform="translate(238.154 4297)"><path d="M166.429,0A166.43,166.43,0,1,0,332.859,166.43,166.43,166.43,0,0,0,166.429,0Z" transform="translate(0 0)" fill="#40327b"/><g transform="translate(0 34.287)"><g transform="translate(24.245 270.715)"><path d="M659.479,1315.754H888.33v36.281H713.622Z" transform="translate(-659.479 -1315.754)" fill="#826be9"/></g><g transform="translate(99.04 0)"><g transform="translate(0 0)"><rect width="137.869" height="85.959" rx="4" fill="#ab9df1"/></g><g transform="translate(20.652 18.42)"><g transform="translate(78.703)"><rect width="17.862" height="49.119" transform="translate(0)" fill="#826be9"/></g><g transform="translate(78.703 28.467)"><rect width="17.862" height="20.653" transform="translate(0)" fill="#583ae2"/></g><g transform="translate(52.468)"><rect width="17.862" height="49.119" fill="#826be9"/></g><g transform="translate(52.468 13.954)"><rect width="17.862" height="35.165" fill="#d5cef8"/></g><g transform="translate(26.234)"><rect width="17.862" height="49.119" fill="#d5cef8"/></g><g transform="translate(26.234 41.305)"><rect width="17.862" height="7.814" fill="#583ae2"/></g><g transform="translate(0)"><rect width="17.862" height="49.119" fill="#d5cef8"/></g><g transform="translate(0 28.467)"><rect width="17.862" height="20.653" fill="#826be9"/></g></g></g><g transform="translate(207.326 49.957)"><g transform="translate(0 10.326)"><rect width="134.52" height="173.593" fill="#826be9"/></g><g transform="translate(0 0)"><path d="M8,0H128.52a6,6,0,0,1,6,6V22.327a0,0,0,0,1,0,0H0a0,0,0,0,1,0,0V8A8,8,0,0,1,8,0Z" fill="#40327b"/></g><g transform="translate(114.054 35.239)"><path d="M419.663,893.615h11.555V758.5H419.663v.783h10.772V892.832H419.663Z" transform="translate(-419.663 -758.498)" fill="#f1ead7"/></g><g transform="translate(114.054 62.403)"><rect width="11.163" height="0.783" transform="translate(0)" fill="#f1ead7"/></g><g transform="translate(114.054 95.056)"><rect width="11.163" height="0.783" transform="translate(0)" fill="#f1ead7"/></g><g transform="translate(114.054 121.291)"><rect width="11.163" height="0.783" transform="translate(0)" fill="#f1ead7"/></g><g transform="translate(106.778 33.099)"><path d="M463.785,757.04a2.485,2.485,0,1,0-2.485-2.485A2.487,2.487,0,0,0,463.785,757.04Zm0-4.186a1.7,1.7,0,1,1-1.7,1.7A1.7,1.7,0,0,1,463.785,752.854Z" transform="translate(-461.3 -752.071)" fill="#f1ead7"/></g><g transform="translate(106.778 60.31)"><path d="M463.785,838.776a2.484,2.484,0,1,0-2.485-2.484A2.487,2.487,0,0,0,463.785,838.776Zm0-4.186a1.7,1.7,0,1,1-1.7,1.7A1.7,1.7,0,0,1,463.785,834.59Z" transform="translate(-461.3 -833.807)" fill="#f1ead7"/></g><g transform="translate(106.778 92.963)"><path d="M463.785,936.858a2.485,2.485,0,1,0-2.485-2.484A2.487,2.487,0,0,0,463.785,936.858Zm0-4.186a1.7,1.7,0,1,1-1.7,1.7A1.7,1.7,0,0,1,463.785,932.671Z" transform="translate(-461.3 -931.888)" fill="#f1ead7"/></g><g transform="translate(106.778 119.197)"><path d="M463.785,1015.658a2.485,2.485,0,1,0-2.485-2.484A2.487,2.487,0,0,0,463.785,1015.658Zm0-4.186a1.7,1.7,0,1,1-1.7,1.7A1.7,1.7,0,0,1,463.785,1011.472Z" transform="translate(-461.3 -1010.689)" fill="#f1ead7"/></g><g transform="translate(106.778 167.898)"><path d="M463.785,1161.945a2.485,2.485,0,1,0-2.485-2.485A2.487,2.487,0,0,0,463.785,1161.945Zm0-4.186a1.7,1.7,0,1,1-1.7,1.7A1.7,1.7,0,0,1,463.785,1157.758Z" transform="translate(-461.3 -1156.975)" fill="#f1ead7"/></g><g transform="translate(83.54 32.281)"><path d="M499.077,756.312h10.047a3.349,3.349,0,0,0,3.349-3.349h0a3.349,3.349,0,0,0-3.349-3.349H499.077a3.349,3.349,0,0,0-3.349,3.349h0A3.349,3.349,0,0,0,499.077,756.312Z" transform="translate(-495.728 -749.614)" fill="#d5cef8"/></g><g transform="translate(22.513 32.281)"><path d="M698.037,756.312h4.838a3.349,3.349,0,0,0,3.349-3.349h0a3.349,3.349,0,0,0-3.349-3.349h-4.838a3.349,3.349,0,0,0-3.349,3.349h0A3.349,3.349,0,0,0,698.037,756.312Z" transform="translate(-694.688 -749.614)" fill="#583ae2"/></g><g transform="translate(42.979 32.281)"><path d="M585.144,756.312H607.1a3.349,3.349,0,0,0,3.349-3.349h0a3.349,3.349,0,0,0-3.349-3.349H585.144a3.349,3.349,0,0,0-3.349,3.349h0A3.349,3.349,0,0,0,585.144,756.312Z" transform="translate(-581.795 -749.614)" fill="#583ae2"/></g><g transform="translate(83.54 58.701)"><path d="M499.077,835.672h10.047a3.349,3.349,0,0,0,3.349-3.349h0a3.349,3.349,0,0,0-3.349-3.349H499.077a3.349,3.349,0,0,0-3.349,3.349h0A3.349,3.349,0,0,0,499.077,835.672Z" transform="translate(-495.728 -828.974)" fill="#d5cef8"/></g><g transform="translate(22.513 58.701)"><path d="M661.151,835.672h17.117a3.349,3.349,0,0,0,3.349-3.349h0a3.349,3.349,0,0,0-3.349-3.349H661.151a3.349,3.349,0,0,0-3.349,3.349h0A3.349,3.349,0,0,0,661.151,835.672Z" transform="translate(-657.802 -828.974)" fill="#583ae2"/></g><g transform="translate(50.794 58.701)"><path d="M563.907,835.672h21.211a3.349,3.349,0,0,0,3.349-3.349h0a3.349,3.349,0,0,0-3.349-3.349H563.907a3.349,3.349,0,0,0-3.349,3.349h0A3.349,3.349,0,0,0,563.907,835.672Z" transform="translate(-560.558 -828.974)" fill="#583ae2"/></g><g transform="translate(76.191 92.192)"><path d="M499.077,936.27h17.4a3.349,3.349,0,0,0,3.349-3.349h0a3.349,3.349,0,0,0-3.349-3.349h-17.4a3.349,3.349,0,0,0-3.349,3.349h0A3.349,3.349,0,0,0,499.077,936.27Z" transform="translate(-495.728 -929.572)" fill="#2ff980"/></g><g transform="translate(22.513 92.192)"><path d="M640.193,936.27h24.094a3.349,3.349,0,0,0,3.349-3.349h0a3.349,3.349,0,0,0-3.349-3.349H640.193a3.349,3.349,0,0,0-3.349,3.349h0A3.349,3.349,0,0,0,640.193,936.27Z" transform="translate(-636.844 -929.572)" fill="#583ae2"/></g><g transform="translate(56.655 92.192)"><path d="M585.144,936.27h8.279a3.349,3.349,0,0,0,3.349-3.349h0a3.349,3.349,0,0,0-3.349-3.349h-8.279a3.349,3.349,0,0,0-3.349,3.349h0A3.349,3.349,0,0,0,585.144,936.27Z" transform="translate(-581.795 -929.572)" fill="#583ae2"/></g><g transform="translate(64.562 118.612)"><path d="M499.077,1015.63H528.1a3.349,3.349,0,0,0,3.349-3.349h0a3.349,3.349,0,0,0-3.349-3.349H499.077a3.349,3.349,0,0,0-3.349,3.349h0A3.349,3.349,0,0,0,499.077,1015.63Z" transform="translate(-495.728 -1008.932)" fill="#583ae2"/></g><g transform="translate(22.513 118.612)"><path d="M681.27,1015.63H691.69a3.349,3.349,0,0,0,3.349-3.349h0a3.349,3.349,0,0,0-3.349-3.349H681.27a3.349,3.349,0,0,0-3.349,3.349h0A3.349,3.349,0,0,0,681.27,1015.63Z" transform="translate(-677.921 -1008.932)" fill="#583ae2"/></g><g transform="translate(42.979 118.612)"><path d="M619.235,1015.63h10.606a3.349,3.349,0,0,0,3.349-3.349h0a3.349,3.349,0,0,0-3.349-3.349H619.235a3.349,3.349,0,0,0-3.349,3.349h0A3.349,3.349,0,0,0,619.235,1015.63Z" transform="translate(-615.886 -1008.932)" fill="#583ae2"/></g><g transform="translate(64.562 136.474)"><path d="M540.434,1069.282h15.257a3.349,3.349,0,0,0,3.349-3.349h0a3.349,3.349,0,0,0-3.349-3.349H540.434a3.349,3.349,0,0,0-3.349,3.349h0A3.349,3.349,0,0,0,540.434,1069.282Z" transform="translate(-537.085 -1062.584)" fill="#2ff980"/></g><g transform="translate(22.513 136.474)"><path d="M693.007,1069.282h6.512a3.349,3.349,0,0,0,3.349-3.349h0a3.349,3.349,0,0,0-3.349-3.349h-6.512a3.349,3.349,0,0,0-3.349,3.349h0A3.349,3.349,0,0,0,693.007,1069.282Z" transform="translate(-689.658 -1062.584)" fill="#583ae2"/></g><g transform="translate(39.072 136.474)"><path d="M619.235,1069.282h14.513a3.349,3.349,0,0,0,3.349-3.349h0a3.349,3.349,0,0,0-3.349-3.349H619.235a3.349,3.349,0,0,0-3.349,3.349h0A3.349,3.349,0,0,0,619.235,1069.282Z" transform="translate(-615.886 -1062.584)" fill="#583ae2"/></g><g transform="translate(75.633 165.871)"><path d="M499.077,1157.584h17.955a3.349,3.349,0,0,0,3.349-3.349h0a3.349,3.349,0,0,0-3.349-3.349H499.077a3.349,3.349,0,0,0-3.349,3.349h0A3.349,3.349,0,0,0,499.077,1157.584Z" transform="translate(-495.728 -1150.886)" fill="#583ae2"/></g><g transform="translate(22.513 165.871)"><path d="M698.037,1157.584h4.838a3.349,3.349,0,0,0,3.349-3.349h0a3.349,3.349,0,0,0-3.349-3.349h-4.838a3.349,3.349,0,0,0-3.349,3.349h0A3.349,3.349,0,0,0,698.037,1157.584Z" transform="translate(-694.688 -1150.886)" fill="#9dbde7"/></g><g transform="translate(42.979 165.871)"><path d="M585.144,1157.584H607.1a3.349,3.349,0,0,0,3.349-3.349h0a3.349,3.349,0,0,0-3.349-3.349H585.144a3.349,3.349,0,0,0-3.349,3.349h0A3.349,3.349,0,0,0,585.144,1157.584Z" transform="translate(-581.795 -1150.886)" fill="#9dbde7"/></g><g transform="translate(91.262 123.775)"><path d="M467.586,1040.88h18.393v-16.439H485.2V1040.1h-17.61Z" transform="translate(-467.586 -1024.441)" fill="#f1ead7"/></g></g><g transform="translate(0 58.087)"><g transform="translate(0.294 90.746)"><path d="M992.359,954.13,1033,956.146a26.705,26.705,0,0,1,18.153,19.482l3.542,50.765-28.1-3.125-12.408,63.937-103.709,2.6-7.809-73.84-29.709.674,5.168-45.24a24.775,24.775,0,0,1,4.493-9.537A30.966,30.966,0,0,1,909.179,949.7l41.5,2.2Z" transform="translate(-872.96 -949.651)" fill="#583ae2"/></g><g transform="translate(40.278 200.449)"><g transform="translate(1.496 0.737)"><path d="M1144.627,1315.645c-.122.008-.251.011-.374.014a3.553,3.553,0,0,1-.525-.046,1.658,1.658,0,0,1-.172-.031.192.192,0,0,1-.067-.017,1.441,1.441,0,0,1-.254-.06,3.815,3.815,0,0,1-.536-.194,3.973,3.973,0,0,1-1.549-1.2c-.561-.716-1.1-1.369-1.444-1.722s-.721-.748-1.1-1.181l-11.992.452-7.758.287-1.336.054-14.238.534a62.566,62.566,0,0,1-27.682-4.431,12.5,12.5,0,0,1,6.823-10.411l21.9-13.58c3.644-1.843,20.081-4.427,22.542-1.184l20.691,26.229a4.05,4.05,0,0,1-2.936,6.489Z" transform="translate(-1075.603 -1281.382)" fill="#f6a36b"/><g transform="translate(37.004 6.15)"><path d="M1115.342,1335.15a4.366,4.366,0,0,1-1.162.046.165.165,0,0,1-.105-.013,4.664,4.664,0,0,1-3.183-1.683c-1.537-1.847-3.242-4.166-5-6.626-.549-.769-1.287-1.761-2.146-2.893-4.02-5.321-10.665-13.684-12.915-16.371a4.718,4.718,0,0,1-1.039-2.277,4.766,4.766,0,0,1,1.454-4.2,6.363,6.363,0,0,1,.536-.435,4.727,4.727,0,0,1,5.936.442c2.316,2.173,4.814,4.815,6.389,6.339.368.357.716.7,1.034,1.027,2.824,2.92,9.817,11.74,12.479,15.406a20.745,20.745,0,0,0,1.927,2.117,4.524,4.524,0,0,1,1.071,1.859,4.2,4.2,0,0,1,.142.624,3.125,3.125,0,0,1,.046.422,4.735,4.735,0,0,1-1.763,4.01l-1.534,1.233A4.663,4.663,0,0,1,1115.342,1335.15Z" transform="translate(-1089.732 -1299.855)" fill="#f6a36b"/></g><g transform="translate(27.951 11.124)"><path d="M1135.789,1348.662l-.007-.006a.949.949,0,0,1-.093-.073l-2.746-2.346-.008-.006-.282-.237-.282-.238-.007-.006-.971-.833-2.246-1.915-4.058-3.468-4.573-3.911c-2.048-1.517-10.865-12.829-10.865-12.829s.046-.1.158-.3a15.921,15.921,0,0,1,1.177-1.812,31.139,31.139,0,0,1,5.355-5.535,1.959,1.959,0,0,1,2.417.15c2.569,1.59,5.739,6.536,7.581,8.436.06.065.119.122.178.179,2.074,1.995,9.49,10.406,10.975,12.2,1.118,1.34,2.208,2.769,3.482,4.531.383.53.869,1.209,1.356,1.9a4.487,4.487,0,0,1,.821,2.616c0,.039,0,.085,0,.13a4.462,4.462,0,0,1-1.184,2.914,4.3,4.3,0,0,1-.749.656A4.512,4.512,0,0,1,1135.789,1348.662Z" transform="translate(-1109.65 -1314.794)" fill="#f6a36b"/></g><g transform="translate(19.509 13.839)"><path d="M1168.886,1352.581c-.677-.6-1.3-1.15-1.642-1.386-3.93-2.745-13.748-12.287-17.678-15.032-.446-.3-.879-.612-1.319-.92a6.839,6.839,0,0,1-2.021-2.455,10.808,10.808,0,0,1-.708-1.644c-1.34-4.037-.53-9.045,4.972-8.069.007.005.013,0,.026,0,.909.167,2.453,1.384,4.214,3.047,1.821,1.727,3.874,3.926,5.689,5.92,2.078,2.286,3.848,4.292,4.6,5.009.566.54,1.125,1.08,1.667,1.636.31.305.607.612.9.92q1.3,1.309,2.492,2.7a50.432,50.432,0,0,1,3.283,4.18c.078.107.155.208.247.32v.007c.1.111.2.228.315.343a4.345,4.345,0,0,1,1.038,1.8v.006a3.563,3.563,0,0,1,.148.728,3.778,3.778,0,0,1-.15,1.568,3.327,3.327,0,0,1-.767,1.307,3.07,3.07,0,0,1-.533.461A3.881,3.881,0,0,1,1168.886,1352.581Z" transform="translate(-1144.953 -1322.951)" fill="#f6a36b"/></g><g transform="translate(47.448 10.572)"><path d="M1109.639,1336.416a.783.783,0,0,0,.589-1.3l-19.042-21.711a.783.783,0,0,0-1.178,1.032l19.042,21.71A.783.783,0,0,0,1109.639,1336.416Z" transform="translate(-1089.814 -1313.139)" fill="#323232"/></g><g transform="translate(41.212 16.01)"><path d="M1128.37,1352.75a.783.783,0,0,0,.588-1.3l-19.042-21.71a.783.783,0,0,0-1.178,1.032l19.043,21.71A.78.78,0,0,0,1128.37,1352.75Z" transform="translate(-1108.544 -1329.473)" fill="#323232"/></g><g transform="translate(33.384 23.841)"><path d="M1160.785,1369.2a.783.783,0,0,0,.555-1.336l-14.6-14.641a.783.783,0,0,0-1.109,1.106l14.6,14.641A.782.782,0,0,0,1160.785,1369.2Z" transform="translate(-1145.403 -1352.994)" fill="#323232"/></g></g><g transform="translate(0)"><path d="M1220.1,1284.811l-17-5.643s-29.058,13.179-20.742,27.458l20.532,1.078Z" transform="translate(-1180.859 -1279.169)" fill="#f6a36b"/></g><g transform="translate(17.988 3.533)"><path d="M1205.749,1305.994l1.34.413a28.963,28.963,0,0,1,11.628-15.453l-.767-1.173A30.4,30.4,0,0,0,1205.749,1305.994Z" transform="translate(-1205.749 -1289.781)" fill="#f37d3d"/></g></g><g transform="translate(0 154.514)"><path d="M1285.011,1187.933l-28.734-3.751-3.9-42.99-34.3,3.22s-2.006,59.513,4.479,67.43,41.962,4.391,41.962,4.391C1258.024,1220.915,1265.494,1186.958,1285.011,1187.933Z" transform="translate(-1217.783 -1141.192)" fill="#583ae2"/></g><g transform="translate(127.318 160.796)"><path d="M870.089,1206.542l16.776-4.091,8.167-42.387,29.763,6.693s3.721,56.709-3.521,63.94-38.858,2.12-38.858,2.12S878.124,1209.013,870.089,1206.542Z" transform="translate(-870.089 -1160.063)" fill="#f095b0"/></g><g transform="translate(126.233 140.142)"><path d="M968.715,1159.043a.793.793,0,0,0,.189-.023l17.263-4.27a.782.782,0,0,0,.591-.685l5.345-55.184a.783.783,0,0,0-1.558-.151l-5.291,54.632-16.725,4.137a.783.783,0,0,0,.187,1.543Z" transform="translate(-967.933 -1098.024)" fill="#323232"/></g><g transform="translate(148.145 195.138)"><path d="M922.625,1277.519l1.652-1.67a46.132,46.132,0,0,0-24.8-12.631l-.379,2.318A43.752,43.752,0,0,1,922.625,1277.519Z" transform="translate(-899.099 -1263.218)" fill="#ed7fa0"/></g><g transform="translate(35.705 135.511)"><path d="M1260.64,1148.688a.783.783,0,0,0,.309-1.5l-23.428-10.04.616-52.24a.783.783,0,1,0-1.566-.018l-.623,52.762a.783.783,0,0,0,.475.729l23.909,10.247A.789.789,0,0,0,1260.64,1148.688Z" transform="translate(-1235.949 -1084.112)" fill="#826be9"/></g><g transform="translate(97.055 145.805)"><path d="M1044.109,1173.089c9.5-18.64,18.447-37.866,26.6-57.143l-2.164-.914c-8.127,19.226-17.051,38.4-26.525,56.991Z" transform="translate(-1042.016 -1115.032)" fill="#ed7fa0"/></g><g transform="translate(9.191 189.661)"><path d="M1319.775,1265.378a34.363,34.363,0,0,1,22.725-16.307l-.461-2.3a36.747,36.747,0,0,0-24.3,17.437Z" transform="translate(-1317.74 -1246.767)" fill="#ab9df1"/></g><g transform="translate(65.363 0)"><g transform="translate(11.164 60.461)"><path d="M1068.876,858.68l-20.7,32.16,32.95,11.464,14.214-16.175Z" transform="translate(-1048.18 -858.68)" fill="#f6a36b"/></g><g transform="translate(0 92.248)"><path d="M1083.569,967.181a22.308,22.308,0,0,1-3.245,3.175c-9.127,7.3-20.641,10.628-31.356,6.134-11.288-5.06-23.359-11.156-24.932-22.327l39.02,1.583s27.347-1.278,27.346-1.276C1088.157,959.214,1086.662,963.463,1083.569,967.181Z" transform="translate(-1024.036 -954.162)" fill="#f6a36b"/></g><g transform="translate(12.776)"><path d="M914.257,707.08A10.415,10.415,0,0,1,924.83,699.1a11.4,11.4,0,0,1,15.025-11.665,9.042,9.042,0,0,1,12.566-3.688,10.766,10.766,0,0,1,19.033-1.71,11.012,11.012,0,0,1,16.7,9.434c.176,0,.35,0,.527.007a12.246,12.246,0,0,1,10.113,17.845,14.714,14.714,0,1,1-20.536,1.915,12.191,12.191,0,0,1-2.58-8.3c.011-.177.041-.348.06-.523a11,11,0,0,1-8.013-5.194,10.752,10.752,0,0,1-12.052-.938,9.06,9.06,0,0,1-8.247,4.373,11.438,11.438,0,0,1-11.908,9.055c-.244-.015-.48-.052-.719-.082a10.282,10.282,0,0,1-2.171,6.243,10.409,10.409,0,0,1,3.7,10.61,10.528,10.528,0,0,1-.4,1.264,9.552,9.552,0,1,1-18.1,2.494,10.387,10.387,0,0,1,.137-12.55A10.408,10.408,0,0,1,914.257,707.08Z" transform="translate(-913.969 -677.07)" fill="#323232"/></g><g transform="translate(30.399 60.461)"><path d="M1054.192,858.68l25.607,23.615-10.209,18.239C1062.78,889.622,1051.214,873.325,1054.192,858.68Z" transform="translate(-1053.711 -858.68)" fill="#f37d3d"/></g><g transform="translate(27.287 18.068)"><path d="M948.908,765.131a.024.024,0,0,1,0,.016,35.853,35.853,0,0,0,1.035,6.629c.156.637.331,1.27.521,1.9.416,1.383.9,2.743,1.451,4.091q.274.682.576,1.356.472,1.081,1.006,2.136c.085.183.172.361.264.533q1,1.982,2.144,3.88a97.023,97.023,0,0,0,10.837,14.488,27.093,27.093,0,0,0,7.7,6.169,18.219,18.219,0,0,0,14.538,1.311,22.478,22.478,0,0,0,8.421-5.367,25.5,25.5,0,0,0,2.839-3.3c7.211-9.89,7-23.672,11.73-34.739a12.333,12.333,0,0,0,.947-3.9,15.33,15.33,0,0,0-.194-3.89c-1.741-10.195-12.841-21.556-26.121-24.278-1.226-.255-2.4-.442-3.543-.575a32.7,32.7,0,0,0-12.893.915c-.028.007-.051.019-.079.026a22.272,22.272,0,0,0-8.936,4.72C951.566,746.566,948.387,756.083,948.908,765.131Z" transform="translate(-948.854 -731.343)" fill="#f6a36b"/></g><g transform="translate(26.432 16.749)"><g transform="translate(55.427 21.044)"><g transform="translate(0)"><path d="M976.348,791.3l-.508-.674C975.675,790.5,975.818,790.694,976.348,791.3Z" transform="translate(-975.775 -790.591)" fill="#323232"/></g></g><path d="M950.442,770.53a45.979,45.979,0,0,0,2.121,5.557l.2-.961.482-2.254.307-1.442,1.917-8.966.243-1.138.581-2.713a11.048,11.048,0,0,0,1.85.329,10.285,10.285,0,0,0,1.229.058,11.036,11.036,0,0,0,5.966-1.854,10.794,10.794,0,0,0,3.255-3.441c7.691-8.851,31.072-7.839,31.072-7.839l1.077-3.339,3.6,5.935c.572.425,4.784,4.656,9.422,9.235a15.328,15.328,0,0,0-.194-3.89c-1.741-10.195-12.653-22.863-25.934-25.585-7.889-1.639-16.317-1.017-23.4,3.062C950.909,738.956,946.018,756.28,950.442,770.53Z" transform="translate(-948.854 -727.381)" fill="#323232"/></g><g transform="translate(24.013 39.076)"><g transform="translate(0 0)"><ellipse cx="7.417" cy="10.172" rx="7.417" ry="10.172" transform="translate(13.255 24.839) rotate(-153.318)" fill="#f6a36b"/></g></g><g transform="translate(34.083 44.702)"><path d="M1113.327,821.849l-.967-.652a7.391,7.391,0,0,0-.832-9.036l.834-.816A8.593,8.593,0,0,1,1113.327,821.849Z" transform="translate(-1111.528 -811.344)" fill="#323232"/></g><g transform="translate(29.757 49.381)"><g transform="translate(0)"><path d="M1113.788,827.241a6.208,6.208,0,0,1-1.428-.984l.79-.858a5.455,5.455,0,0,0,5.912.9l.5,1.054A6.666,6.666,0,0,1,1113.788,827.241Z" transform="translate(-1112.36 -825.399)" fill="#323232"/></g></g><g transform="translate(38.432 26.081)"><path d="M936.852,766.336a8.819,8.819,0,0,1,16.053-6.76,8.812,8.812,0,0,1,10.6.933,8.81,8.81,0,0,1,15.582,7.01,7.716,7.716,0,1,1-4.634,6.306,8.8,8.8,0,0,1-9.96-1.3,8.813,8.813,0,0,1-14.4-.819,8.806,8.806,0,0,1-4.979,1.342,7.1,7.1,0,1,1-8.27-6.716Z" transform="translate(-930.919 -755.411)" fill="#323232"/></g><g transform="translate(54.897 56.188)"><g transform="translate(14.012 4.78)"><path d="M996.6,873.008a.906.906,0,0,0,.969.106l4.891-2.417a.905.905,0,0,0,.5-.832l-.2-8.776a.905.905,0,0,0-1.81.041l.186,8.2-4.374,2.161a.906.906,0,0,0-.167,1.517Z" transform="translate(-996.267 -860.204)" fill="#323232"/></g><g transform="translate(24.543 5.175)"><g transform="translate(0)"><path d="M971.728,864.624c-.171.436-1.4-.645-3.18-1.346s-3.454-.756-3.283-1.192,2.118-1.087,3.9-.386S971.9,864.188,971.728,864.624Z" transform="translate(-965.253 -861.39)" fill="#323232"/></g></g><g transform="translate(7.161)"><path d="M1023.488,848.6c-.12.453-1.46-.482-3.313-.974s-3.518-.357-3.4-.809,1.98-1.322,3.833-.83S1023.608,848.152,1023.488,848.6Z" transform="translate(-1016.771 -845.845)" fill="#323232"/></g><g transform="translate(6.708 5.364)"><g transform="translate(16.734 4.889)"><g transform="translate(0)"><path d="M975.462,878.77a2.132,2.132,0,1,0,2.566-2.091A2.366,2.366,0,0,0,975.462,878.77Z" transform="translate(-975.396 -876.643)" fill="#323232"/></g></g><g transform="translate(0)"><path d="M1025.728,864.085a2.132,2.132,0,1,0,2.566-2.091A2.365,2.365,0,0,0,1025.728,864.085Z" transform="translate(-1025.662 -861.958)" fill="#323232"/></g></g><g transform="translate(0 18.288)"><path d="M1029.827,909.681l.073-1.565a14.945,14.945,0,0,1-7.116-2.413,38.838,38.838,0,0,1-6.073-4.925l-1.076,1.138a40.213,40.213,0,0,0,6.326,5.119A16.484,16.484,0,0,0,1029.827,909.681Z" transform="translate(-1015.635 -900.779)" fill="#f15f62"/></g></g><g transform="translate(49.218 91.016)"><path d="M1042.884,956.073a15.2,15.2,0,0,0,3.373-.373l-.348-1.527a14.649,14.649,0,0,1-13.175-3.711l-1.093,1.121A16.3,16.3,0,0,0,1042.884,956.073Z" transform="translate(-1031.641 -950.461)" fill="#f37d3d"/></g></g><g transform="translate(77.271 141.182)"><path d="M496.32,1208.841H690.575l35.483-98.614a6.784,6.784,0,0,0-6.383-9.081H542.821a11.026,11.026,0,0,0-10.375,7.293Z" transform="translate(-496.32 -1101.146)" fill="#ab9df1"/><g transform="translate(108.014 42.844)"><ellipse cx="13.21" cy="13.21" rx="13.21" ry="13.21" transform="translate(4.232 30.312) rotate(-99.217)" fill="#583ae2"/></g></g></g><g transform="translate(268.69 211.686)"><g transform="translate(0 0)"><rect width="73.156" height="73.156" rx="36.578" fill="#40327b"/></g><g transform="translate(16.792 16.792)"><path d="M316.7,840.921h0a3.9,3.9,0,0,0,2.758-6.656h0l6.075-6.075h0a3.9,3.9,0,0,0,6.657-2.757h8.592a3.9,3.9,0,0,0,6.657,2.757h0l6.075,6.075h0a3.9,3.9,0,0,0,2.757,6.656h0v8.592h0a3.9,3.9,0,0,0-2.757,6.656h0l-6.075,6.075h0A3.9,3.9,0,0,0,340.781,865h-8.592a3.9,3.9,0,0,0-6.657-2.757h0l-6.075-6.075h0a3.9,3.9,0,0,0-2.758-6.656h0Zm19.786,10.891a6.6,6.6,0,1,0-6.6-6.595A6.6,6.6,0,0,0,336.485,851.812Z" transform="translate(-316.699 -825.431)" fill="#2ff980"/></g></g></g><g transform="translate(33.042 154.611)"><path d="M1258.472,879.328h20.639l-10.319-15.313h0Z" transform="translate(-1258.472 -864.015)" fill="#f3f1ff"/></g><g transform="translate(33.042 134.638)"><path d="M1258.472,819.333h20.639l-10.319-15.313h0Z" transform="translate(-1258.472 -804.02)" fill="#f3f1ff"/></g><g transform="translate(33.042 114.665)"><path d="M1258.472,759.338h20.639l-10.319-15.313h0Z" transform="translate(-1258.472 -744.025)" fill="#f3f1ff"/></g></g></g></svg>