<svg xmlns="http://www.w3.org/2000/svg" width="67" height="73" viewBox="0 0 67 73"><g transform="translate(6221 11010)"><g transform="translate(-6524 -19258.295)"><rect width="67" height="73" rx="5" transform="translate(303 8248.295)" fill="#2ff980"/><g transform="translate(312 8250.347)"><g transform="translate(0.712 11.095)"><g transform="translate(8.945)"><path d="M244.3,368.2a1.227,1.227,0,0,1-1.227-1.227V355.542L244.3,355l1.227.542v11.432A1.227,1.227,0,0,1,244.3,368.2Z" transform="translate(-229.665 -323.013)" fill="#678d98"/><path d="M338.82,368.2a1.27,1.27,0,0,1-1.173-.785l-4.909-11.874.911-.542,1.837.542,4.508,10.9A1.27,1.27,0,0,1,338.82,368.2Z" transform="translate(-310.822 -323.013)" fill="#678d98"/><path d="M103.038,368.2a1.27,1.27,0,0,0,1.173-.785l4.909-11.874L107.767,355l-1.394.542-4.508,10.9A1.27,1.27,0,0,0,103.038,368.2Z" transform="translate(-101.767 -323.013)" fill="#678d98"/><path d="M244.3,17.883a1.227,1.227,0,0,0-1.227,1.227v3.533l1.227.534,1.227-.534V19.11A1.227,1.227,0,0,0,244.3,17.883Z" transform="translate(-229.665 -17.883)" fill="#678d98"/></g><path d="M54.658,69.526v24.8a1.486,1.486,0,0,1-1.486,1.486H8.986A1.486,1.486,0,0,1,7.5,94.324v-24.8A1.486,1.486,0,0,1,8.986,68.04H53.172A1.486,1.486,0,0,1,54.658,69.526Z" transform="translate(-7.5 -63.281)" fill="#eaf6ff"/><path d="M464.675,69.526v24.8a1.486,1.486,0,0,1-1.486,1.486H460.5a1.487,1.487,0,0,0,1.487-1.486v-24.8A1.487,1.487,0,0,0,460.5,68.04h2.689A1.486,1.486,0,0,1,464.675,69.526Z" transform="translate(-417.517 -63.281)" fill="#c8effe"/><path d="M61.887,111.3v2.877A1.89,1.89,0,0,1,60,116.067H54.16a1.89,1.89,0,0,1-1.89-1.89V111.3a1.89,1.89,0,0,1,1.89-1.89H60A1.89,1.89,0,0,1,61.887,111.3Z" transform="translate(-48.022 -100.725)" fill="#5986cb"/><path d="M110.283,111.3v2.877a1.89,1.89,0,0,1-1.891,1.89H105.74a1.89,1.89,0,0,0,1.891-1.89V111.3a1.89,1.89,0,0,0-1.891-1.89h2.652A1.89,1.89,0,0,1,110.283,111.3Z" transform="translate(-96.419 -100.725)" fill="#4278c3"/><path d="M132.932,151.148v2.172a1.427,1.427,0,0,1-1.428,1.427H127.1a1.427,1.427,0,0,1-1.427-1.427v-2.172a1.427,1.427,0,0,1,1.427-1.428H131.5A1.428,1.428,0,0,1,132.932,151.148Z" transform="translate(-114.457 -137.211)" fill="#fff9df"/><path d="M168.014,151.148v2.172a1.427,1.427,0,0,1-1.428,1.427H164.43a1.427,1.427,0,0,0,1.427-1.427v-2.172a1.427,1.427,0,0,0-1.427-1.428h2.156A1.428,1.428,0,0,1,168.014,151.148Z" transform="translate(-149.54 -137.211)" fill="#fff0ad"/><path d="M324.657,68.04V90.808a1.568,1.568,0,0,1-1.568,1.567H311.346a1.568,1.568,0,0,1-1.568-1.567V68.04Z" transform="translate(-281.096 -63.281)" fill="#fff9df"/><path d="M423.894,68.04V90.808a1.568,1.568,0,0,1-1.568,1.567h-2.907a1.567,1.567,0,0,0,1.567-1.567V68.04Z" transform="translate(-380.333 -63.281)" fill="#fff0ad"/><path d="M357.478,44.467v1.746a1.506,1.506,0,0,1-1.506,1.507h-4.178a1.507,1.507,0,0,1-1.507-1.507V44.467a1.507,1.507,0,0,1,1.507-1.507h4.178A1.506,1.506,0,0,1,357.478,44.467Z" transform="translate(-317.763 -40.581)" fill="#7ca1b1"/><path d="M389.592,44.467v1.746a1.506,1.506,0,0,1-1.506,1.507h-2.318a1.507,1.507,0,0,0,1.507-1.507V44.467a1.507,1.507,0,0,0-1.507-1.507h2.318A1.506,1.506,0,0,1,389.592,44.467Z" transform="translate(-349.876 -40.581)" fill="#678d98"/><path d="M341.836,123.868h2.453v2.453h-2.453Z" transform="translate(-310.113 -113.812)" fill="#4278c3"/><path d="M341.836,209.421h2.453v2.453h-2.453Z" transform="translate(-310.113 -191.247)" fill="#ffd064"/><path d="M341.836,265.124h2.453v2.453h-2.453Z" transform="translate(-310.113 -241.665)" fill="#4278c3"/></g><g transform="translate(0 10.383)"><path d="M46.383,15.142H41.139a2.263,2.263,0,0,0-2.218-2.38H34.744a2.263,2.263,0,0,0-2.218,2.38h-6.3V12.321a1.938,1.938,0,1,0-3.876,0v2.821H2.2A2.2,2.2,0,0,0,0,17.34v24.8a2.2,2.2,0,0,0,2.2,2.2h11l-4.1,9.92a1.981,1.981,0,0,0,3.662,1.514l1.3-3.142a.712.712,0,1,0-1.315-.544l-1.3,3.142a.558.558,0,0,1-1.031-.426l4.326-10.464h1.207l-1.9,4.593a.712.712,0,0,0,1.315.544l2.124-5.137h4.867v10.72a1.938,1.938,0,0,0,3.876,0V44.335H31.1l4.727,11.434a1.981,1.981,0,0,0,3.662-1.514l-4.1-9.92h4.378a.712.712,0,1,0,0-1.423H2.2a.775.775,0,0,1-.775-.775V17.34a.775.775,0,0,1,.775-.775H28.681V38.621a2.282,2.282,0,0,0,2.28,2.28H42.7a2.282,2.282,0,0,0,2.28-2.28V16.565h1.4a.775.775,0,0,1,.775.775v24.8a.775.775,0,0,1-.775.775H43.173a.712.712,0,0,0,0,1.423h3.211a2.2,2.2,0,0,0,2.2-2.2V17.34a2.2,2.2,0,0,0-2.2-2.2ZM33.843,44.335,38.17,54.8a.558.558,0,0,1-1.031.426l-4.5-10.89Zm-9.038,0v10.72a.515.515,0,0,1-1.03,0V44.335Zm9.143-29.355a.8.8,0,0,1,.795-.795h4.178a.8.8,0,0,1,.795.795v1.746a.8.8,0,0,1-.795.795H34.744a.8.8,0,0,1-.795-.795Zm-10.173.161V12.321a.515.515,0,0,1,1.03,0v2.821ZM43.56,38.621a.858.858,0,0,1-.857.857H30.961a.858.858,0,0,1-.857-.857V16.565h2.421a2.263,2.263,0,0,0,2.218,2.38h4.178a2.263,2.263,0,0,0,2.218-2.38H43.56V38.621Z" transform="translate(0 -10.383)"/><path d="M46.482,251.586H61.922a.712.712,0,1,0,0-1.423H47.193V244.3a.712.712,0,0,0-1.423,0v6.574A.712.712,0,0,0,46.482,251.586Z" transform="translate(-41.427 -221.46)"/><path d="M95.921,195.594a.712.712,0,0,0-1.006-1.006l-4.058,4.058H88.114l-1.806-.995a.712.712,0,0,0-.846.12l-1.851,1.851H81.845a.711.711,0,0,0-.5.208l-3.305,3.305a.712.712,0,1,0,1.006,1.006l3.1-3.1H83.9a.711.711,0,0,0,.5-.208l1.681-1.681,1.5.825a.712.712,0,0,0,.343.088h3.221a.711.711,0,0,0,.5-.208Z" transform="translate(-70.444 -176.921)"/><path d="M335.048,120.244H337.5a.712.712,0,0,0,.712-.712V117.08a.712.712,0,0,0-.712-.712h-2.453a.712.712,0,0,0-.712.712v2.453A.712.712,0,0,0,335.048,120.244Zm.712-2.453h1.03v1.03h-1.03Z" transform="translate(-302.613 -106.312)"/><path d="M337.5,201.92h-2.453a.712.712,0,0,0-.712.712v2.453a.712.712,0,0,0,.712.712H337.5a.712.712,0,0,0,.712-.712v-2.453A.712.712,0,0,0,337.5,201.92Zm-.712,2.453h-1.03v-1.03h1.03Z" transform="translate(-302.613 -183.746)"/><path d="M337.5,257.624h-2.453a.712.712,0,0,0-.712.712v2.453a.712.712,0,0,0,.712.712H337.5a.712.712,0,0,0,.712-.712v-2.453A.712.712,0,0,0,337.5,257.624Zm-.712,2.453h-1.03v-1.03h1.03Z" transform="translate(-302.613 -234.165)"/><path d="M387.1,129.294a.712.712,0,1,0,0,1.423h3.99a.712.712,0,1,0,0-1.423Z" transform="translate(-349.727 -118.011)"/><path d="M391.091,214.848H387.1a.712.712,0,1,0,0,1.423h3.99a.712.712,0,1,0,0-1.423Z" transform="translate(-349.727 -195.447)"/><path d="M413.868,270.551h-1.6a.712.712,0,1,0,0,1.423h1.6a.712.712,0,1,0,0-1.423Z" transform="translate(-372.504 -245.865)"/><path d="M335.048,173.494h6.378a.712.712,0,0,0,0-1.423h-6.378a.712.712,0,1,0,0,1.423Z" transform="translate(-302.613 -156.729)"/><circle cx="0.736" cy="0.736" r="0.736" transform="translate(36.486 24.835) rotate(-13.3)"/><circle cx="0.736" cy="0.736" r="0.736" transform="translate(40.418 16.452) rotate(-67.486)"/><path d="M189.28,112.167h-7.4a.712.712,0,0,0,0,1.423h7.4a.712.712,0,1,0,0-1.423Z" transform="translate(-163.977 -102.509)"/><path d="M235.851,148.212a.712.712,0,0,0-.712-.712h-2.593a.712.712,0,1,0,0,1.423h2.593A.712.712,0,0,0,235.851,148.212Z" transform="translate(-209.836 -134.49)"/><path d="M47.371,103.333h5.835a1.175,1.175,0,0,1,.919.44.712.712,0,0,0,1.108-.894,2.593,2.593,0,0,0-2.027-.969H47.371a2.6,2.6,0,0,0-2.6,2.6v2.877a2.6,2.6,0,0,0,2.6,2.6h4.363a2.166,2.166,0,0,0,2.139,2.195h4.406a2.141,2.141,0,0,0,2.139-2.139v-2.172a2.141,2.141,0,0,0-2.139-2.139H53.872a2.141,2.141,0,0,0-2.139,2.139v.693H47.371a1.18,1.18,0,0,1-1.178-1.178v-2.877a1.18,1.18,0,0,1,1.178-1.178Zm11.624,4.541v2.172a.717.717,0,0,1-.716.716H53.873a.729.729,0,0,1-.716-.772,2.666,2.666,0,0,0,2.652-2.832h2.47A.717.717,0,0,1,58.995,107.874Zm-5.838,0a.717.717,0,0,1,.716-.716h.513c0,.74-.4,1.433-1.229,1.409Z" transform="translate(-40.521 -93.225)"/></g></g></g></g></svg>