<svg xmlns="http://www.w3.org/2000/svg" width="68.19" height="89.948" viewBox="0 0 68.19 89.948"><g transform="translate(-893.187 -3331.488)"><g transform="translate(831.262 3331.488)"><g transform="translate(63.244 1.318)"><path d="M69.434,29.379V76.025a6.657,6.657,0,0,0,6.657,6.657h52.241a6.657,6.657,0,0,0,6.656-6.656V14.157A6.657,6.657,0,0,0,128.331,7.5H91.313A8.32,8.32,0,0,0,85.43,9.937L71.871,23.5A8.32,8.32,0,0,0,69.434,29.379Z" transform="translate(-69.434 -7.5)" fill="#e6e6e6"/><path d="M69.432,29.382V30.8A4.868,4.868,0,0,1,74.3,25.934h6.909a6.656,6.656,0,0,0,6.656-6.656V12.37A4.868,4.868,0,0,1,92.732,7.5h-1.42a8.326,8.326,0,0,0-5.884,2.437L71.869,23.5A8.327,8.327,0,0,0,69.432,29.382Z" transform="translate(-69.432 -7.502)" fill="#cecbca"/><g transform="translate(11.999 19.625)"><path d="M236.051,334.056h7.011V350.3h-7.011Z" transform="translate(-218.779 -296.312)" fill="#407093"/><path d="M236.051,334.056h3.505V350.3h-3.505Z" transform="translate(-218.779 -296.312)" fill="#365e7d"/><path d="M20.777,0A20.777,20.777,0,1,1,0,20.777,20.777,20.777,0,0,1,20.777,0Z" transform="translate(0 0)" fill="#583ae2"/><path d="M160.266,160.689q-.867.074-1.753.074a20.778,20.778,0,1,1,0-41.555q.885,0,1.753.074a20.778,20.778,0,0,0,0,41.408Z" transform="translate(-137.735 -119.208)" fill="#532da6"/><path d="M14.688,0A14.688,14.688,0,1,1,0,14.688,14.688,14.688,0,0,1,14.688,0Z" transform="translate(6.089 6.089)" fill="#c4c4c4"/><path d="M190.011,182.95a14.688,14.688,0,1,1,0-28.793,14.691,14.691,0,0,0,0,28.793Z" transform="translate(-166.306 -147.777)" fill="#a8a8a8"/><path d="M230.179,405.666h-5.746a3.243,3.243,0,0,1-3.243-3.243V387.845a3.243,3.243,0,0,1,3.243-3.243h5.746a3.243,3.243,0,0,1,3.243,3.243v14.578A3.243,3.243,0,0,1,230.179,405.666Z" transform="translate(-206.529 -337.978)" fill="#583ae2"/><path d="M228.638,405.665h-4.206a3.242,3.242,0,0,1-3.243-3.243V387.844a3.242,3.242,0,0,1,3.243-3.243h4.206a3.242,3.242,0,0,0-3.243,3.243v14.578A3.242,3.242,0,0,0,228.638,405.665Z" transform="translate(-206.528 -337.977)" fill="#532da6"/></g><g transform="translate(23.964 31.683)"><path d="M213.855,205.55a3,3,0,0,1-2.37-1.162l-5.015-6.469a3,3,0,0,1,4.741-3.675l2.251,2.9,4.393-7.779a3,3,0,0,1,5.223,2.95l-6.611,11.707a3,3,0,0,1-2.394,1.516Q213.964,205.55,213.855,205.55Z" transform="translate(-205.841 -187.844)" fill="#2ff980"/></g></g><g transform="translate(61.925 0)"><path d="M122.141,0H85.122a9.575,9.575,0,0,0-6.815,2.823l-.039.041L64.747,16.382A9.583,9.583,0,0,0,61.925,23.2V69.843A7.983,7.983,0,0,0,69.9,77.817H88.587v3a1.318,1.318,0,0,0,2.635,0v-10a1.928,1.928,0,0,1,1.925-1.925h5.746a1.928,1.928,0,0,1,1.925,1.925V85.387a1.928,1.928,0,0,1-1.925,1.925H93.148a1.934,1.934,0,0,1-1.88-1.51,1.318,1.318,0,1,0-2.575.561,4.584,4.584,0,0,0,4.455,3.584h5.746a4.566,4.566,0,0,0,4.561-4.561v-7.57h18.686a7.983,7.983,0,0,0,7.974-7.974V7.974A7.983,7.983,0,0,0,122.141,0ZM80.17,4.688l.036-.038c.151-.149.309-.289.472-.423a6.156,6.156,0,0,0-.32,1.958v6.909a5.344,5.344,0,0,1-5.338,5.338H68.112a6.158,6.158,0,0,0-1.962.321q.217-.264.461-.509ZM76.561,41.72a19.46,19.46,0,1,1,19.46,19.46A19.482,19.482,0,0,1,76.561,41.72Zm19.46,22.095q1.107,0,2.188-.108v2.542H93.832V63.707Q94.912,63.813,96.021,63.815Zm31.459,6.028a5.345,5.345,0,0,1-5.339,5.339H103.455V70.809a4.566,4.566,0,0,0-2.611-4.122v-3.4A22.178,22.178,0,0,0,115.71,51.739h6.366a1.318,1.318,0,1,0,0-2.635h-5.231a21.91,21.91,0,0,0,.954-3.654h4.277a1.318,1.318,0,0,0,0-2.635h-3.988q.027-.544.027-1.095a22.211,22.211,0,0,0-.149-2.561h4.11a1.318,1.318,0,0,0,0-2.635H117.5a21.9,21.9,0,0,0-1.233-3.654h5.813a1.318,1.318,0,0,0,0-2.635h-7.187a22.232,22.232,0,0,0-2.793-3.656h9.98a1.318,1.318,0,1,0,0-2.635H109.127a22.047,22.047,0,0,0-26.212,0H78.7a1.318,1.318,0,1,0,0,2.635h1.248a22.233,22.233,0,0,0-2.793,3.656H69.966a1.318,1.318,0,0,0,0,2.635h5.812a21.9,21.9,0,0,0-1.233,3.654H69.966a1.318,1.318,0,0,0,0,2.635h4.109a22.211,22.211,0,0,0-.149,2.561q0,.551.027,1.095H69.966a1.318,1.318,0,0,0,0,2.635h4.276A21.911,21.911,0,0,0,75.2,49.1H69.966a1.318,1.318,0,1,0,0,2.635h6.365A22.162,22.162,0,0,0,78.679,55.4H69.966a1.318,1.318,0,0,0,0,2.635H81.132A22.06,22.06,0,0,0,91.2,63.283v3.4a4.566,4.566,0,0,0-2.61,4.121v4.373H69.9a5.345,5.345,0,0,1-5.339-5.339v-45.2c0-.009,0-.017,0-.025a3.554,3.554,0,0,1,3.55-3.55H75.02a7.983,7.983,0,0,0,7.974-7.974V6.186a3.554,3.554,0,0,1,3.55-3.55h35.6a5.345,5.345,0,0,1,5.339,5.339V69.843Z" transform="translate(-61.925 0)"/><path d="M180.9,178.382A16.017,16.017,0,0,0,196.353,158.2a1.317,1.317,0,1,0-2.544.687,13.387,13.387,0,1,1-2.058-4.319,1.318,1.318,0,0,0,2.138-1.54A16.006,16.006,0,1,0,180.9,178.382Z" transform="translate(-146.803 -120.656)"/><path d="M216.415,180.908a4.322,4.322,0,0,0-5.882,1.636l-3.419,6.054-1.037-1.338a4.317,4.317,0,1,0-6.823,5.29l5.015,6.469a4.346,4.346,0,0,0,3.411,1.672q.156,0,.314-.011a4.307,4.307,0,0,0,3.445-2.183l6.611-11.707a4.317,4.317,0,0,0-1.636-5.882Zm-.658,4.586L209.145,197.2a1.682,1.682,0,0,1-2.793.2l-5.015-6.469A1.682,1.682,0,0,1,204,188.874l2.251,2.9a1.318,1.318,0,0,0,2.189-.159l4.393-7.779a1.682,1.682,0,1,1,2.929,1.654Z" transform="translate(-174.384 -148.667)"/></g></g></g></svg>