<svg xmlns="http://www.w3.org/2000/svg" width="1240" height="562" viewBox="0 0 1240 562"><g transform="translate(-205 -4152)"><g transform="translate(0 -85)"><g transform="translate(205 4237)"><rect width="1240" height="562" rx="20" transform="translate(0)" fill="#daf1f5"/><path d="M0,206.472H123.1A132.092,132.092,0,0,1,264.51,120.406V.588Q255.958.007,247.257,0C123.782,0,21.113,89.075,0,206.472Z" transform="translate(975.491 355.528)" fill="#b5e4eb"/><path d="M436.333,0H233.271C203.029,83.866,122.751,143.826,28.459,143.826A219.653,219.653,0,0,1,0,141.974V339.625q14.107.957,28.459.97C232.144,340.594,401.505,193.656,436.333,0Z" transform="translate(0 0)" fill="#ab9df1"/></g></g></g></svg>