<svg xmlns="http://www.w3.org/2000/svg" width="93" height="93" viewBox="0 0 93 93"><g transform="translate(-218 -4059)"><g transform="translate(218 4059)"><path d="M60,2H21a6,6,0,0,0-6,6V62H66V8A6,6,0,0,0,60,2Z" transform="translate(6 -0.5)" fill="#2ff980"/><path d="M58,30V45H47.5a3.009,3.009,0,0,0-3,3h-12a3.009,3.009,0,0,0-3-3H19V30Z" transform="translate(8 13.5)" fill="#ab9df1"/><path d="M56.5,6h-36A1.5,1.5,0,0,0,19,7.5V42H58V7.5A1.5,1.5,0,0,0,56.5,6Z" transform="translate(8 1.5)" fill="#e6e9ed"/><path d="M75,54v3a3.009,3.009,0,0,1-3,3H39a3.009,3.009,0,0,1-3-3V54Z" transform="translate(16.5 25.5)" fill="#ccd1d9"/><path d="M75,43V61H36V43a3.009,3.009,0,0,1,3-3H72A3.009,3.009,0,0,1,75,43Z" transform="translate(16.5 18.5)" fill="#583ae2"/><circle cx="3" cy="3" r="3" transform="translate(86 47)" fill="#583ae2"/><circle cx="3" cy="3" r="3" transform="translate(78 15)" fill="#2ff980"/><path d="M45,58H57v6H45Z" transform="translate(21 27.5)" fill="#aab2bd"/><circle cx="3" cy="3" r="3" transform="translate(44 50)" fill="#583ae2"/><path d="M41,54v3a3.009,3.009,0,0,1-3,3H5a3.009,3.009,0,0,1-3-3V54Z" transform="translate(-0.5 25.5)" fill="#ccd1d9"/><path d="M41,43V61H2V43a3.009,3.009,0,0,1,3-3H38A3.009,3.009,0,0,1,41,43Z" transform="translate(-0.5 18.5)" fill="#583ae2"/><path d="M11,58H23v6H11Z" transform="translate(4 27.5)" fill="#aab2bd"/><circle cx="3" cy="3" r="3" transform="translate(9 47)" fill="#583ae2"/><circle cx="3" cy="3" r="3" transform="translate(2 15)" fill="#2ff980"/><path d="M89.5,58h-15V8.5A7.509,7.509,0,0,0,67,1H28a7.509,7.509,0,0,0-7.5,7.5V58H5.5A4.505,4.505,0,0,0,1,62.5v21A4.505,4.505,0,0,0,5.5,88h9v3h-6v3h27V91h-6V88h9A4.505,4.505,0,0,0,43,83.5V64h9V83.5A4.505,4.505,0,0,0,56.5,88h9v3h-6v3h27V91h-6V88h9A4.505,4.505,0,0,0,94,83.5v-21A4.505,4.505,0,0,0,89.5,58ZM91,62.5V79H55V62.5A1.5,1.5,0,0,1,56.5,61h33A1.5,1.5,0,0,1,91,62.5ZM38.5,58h-9V46h36V58h-9a4.494,4.494,0,0,0-4.224,3H42.722A4.49,4.49,0,0,0,38.5,58Zm27-39h-36V10h36Zm-36,3h36v9h-36Zm0,12h36v9h-36Zm-6-25.5A4.505,4.505,0,0,1,28,4H67a4.505,4.505,0,0,1,4.5,4.5V58h-3V10a3,3,0,0,0-3-3h-36a3,3,0,0,0-3,3V58h-3ZM5.5,61h33A1.5,1.5,0,0,1,40,62.5V79H4V62.5A1.5,1.5,0,0,1,5.5,61Zm21,30h-9V88h9Zm12-6H5.5A1.5,1.5,0,0,1,4,83.5V82H40v1.5A1.5,1.5,0,0,1,38.5,85Zm39,6h-9V88h9Zm12-6h-33A1.5,1.5,0,0,1,55,83.5V82H91v1.5A1.5,1.5,0,0,1,89.5,85Z" transform="translate(-1 -1)"/><path d="M22,9h3v3H22Z" transform="translate(9.5 3)"/><path d="M26,9h3v3H26Z" transform="translate(11.5 3)"/><path d="M30,9h3v3H30Z" transform="translate(13.5 3)"/><path d="M40,17h3v3H40Z" transform="translate(18.5 7)"/><path d="M36,17h3v3H36Z" transform="translate(16.5 7)"/><path d="M32,17h3v3H32Z" transform="translate(14.5 7)"/><path d="M22,25h3v3H22Z" transform="translate(9.5 11)"/><path d="M26,25h3v3H26Z" transform="translate(11.5 11)"/><path d="M30,25h3v3H30Z" transform="translate(13.5 11)"/><path d="M33.5,33A4.5,4.5,0,1,0,38,37.5,4.505,4.505,0,0,0,33.5,33Zm0,6A1.5,1.5,0,1,1,35,37.5,1.5,1.5,0,0,1,33.5,39Z" transform="translate(13 15)"/><path d="M55,18.724V50.5h3V18.724a4.5,4.5,0,1,0-3,0ZM56.5,13A1.5,1.5,0,1,1,55,14.5,1.5,1.5,0,0,1,56.5,13Z" transform="translate(24.5 3.5)"/><path d="M57,46a4.5,4.5,0,1,0,6-4.224V10H60V41.776A4.494,4.494,0,0,0,57,46Zm4.5,1.5A1.5,1.5,0,1,1,63,46,1.5,1.5,0,0,1,61.5,47.5Z" transform="translate(27 3.5)"/><path d="M4,18.724V50.5H7V18.724a4.5,4.5,0,1,0-3,0ZM5.5,13A1.5,1.5,0,1,1,4,14.5,1.5,1.5,0,0,1,5.5,13Z" transform="translate(-1 3.5)"/><path d="M6,46a4.5,4.5,0,1,0,6-4.224V10H9V41.776A4.494,4.494,0,0,0,6,46Zm4.5,1.5A1.5,1.5,0,1,1,12,46,1.5,1.5,0,0,1,10.5,47.5Z" transform="translate(1.5 3.5)"/><path d="M39,43h3v3H39Z" transform="translate(18 20)"/><path d="M43,43h3v3H43Z" transform="translate(20 20)"/><path d="M47,43h3v3H47Z" transform="translate(22 20)"/><path d="M23,49h3v3H23Z" transform="translate(10 23)"/><path d="M19,49h3v3H19Z" transform="translate(8 23)"/><path d="M15,49h3v3H15Z" transform="translate(6 23)"/></g></g></svg>