<svg xmlns="http://www.w3.org/2000/svg" width="67" height="72" viewBox="0 0 67 72"><g transform="translate(4055.058 6961.678)"><g transform="translate(-4883.058 -15209.678)"><rect width="67" height="72" rx="5" transform="translate(828 8248)" fill="#fff"/><g transform="translate(833.146 8255.646)"><g transform="translate(1.882 1.882)"><g transform="translate(16.766 0)"><path d="M40.413,3.765V30.237A1.77,1.77,0,0,1,38.648,32H22.765A1.77,1.77,0,0,1,21,30.237V3.765A1.77,1.77,0,0,1,22.765,2H38.648A1.77,1.77,0,0,1,40.413,3.765Z" transform="translate(-21 -2)" fill="#aab2bd"/></g><g transform="translate(20.295 3.53)"><path d="M37.354,6.882v3.53a.885.885,0,0,1-.882.882H25.882A.885.885,0,0,1,25,10.412V6.882A.885.885,0,0,1,25.882,6H36.471A.885.885,0,0,1,37.354,6.882Z" transform="translate(-25 -6)" fill="#583ae2"/></g><g transform="translate(20.295 12.354)"><path d="M37.354,16.882v3.53a.885.885,0,0,1-.882.882H25.882A.885.885,0,0,1,25,20.412v-3.53A.885.885,0,0,1,25.882,16H36.471A.885.885,0,0,1,37.354,16.882Z" transform="translate(-25 -16)" fill="#583ae2"/></g><g transform="translate(20.295 21.178)"><path d="M37.354,26.882v3.53a.885.885,0,0,1-.882.882H25.882A.885.885,0,0,1,25,30.412v-3.53A.885.885,0,0,1,25.882,26H36.471A.885.885,0,0,1,37.354,26.882Z" transform="translate(-25 -26)" fill="#583ae2"/></g><g transform="translate(24.707 40.591)"><circle cx="1.5" cy="1.5" r="1.5" transform="translate(0.41 0.236)" fill="#2ff980"/></g><g transform="translate(6.177 49.415)"><path d="M9,58h7.059v3.53H9Z" transform="translate(-9 -58)" fill="#aab2bd"/></g><g transform="translate(39.708 49.415)"><path d="M47,58h7.059v3.53H47Z" transform="translate(-47 -58)" fill="#aab2bd"/></g><g transform="translate(0 45.885)"><path d="M21.413,54v1.765a1.77,1.77,0,0,1-1.765,1.765H3.765A1.77,1.77,0,0,1,2,55.765V54Z" transform="translate(-2 -54)" fill="#ccd1d9"/></g><g transform="translate(33.531 45.885)"><path d="M59.413,54v1.765a1.77,1.77,0,0,1-1.765,1.765H41.765A1.77,1.77,0,0,1,40,55.765V54Z" transform="translate(-40 -54)" fill="#ccd1d9"/></g><g transform="translate(0 35.296)"><path d="M21.413,49.059v3.53H2V43.765A1.77,1.77,0,0,1,3.765,42H19.648a1.77,1.77,0,0,1,1.765,1.765Z" transform="translate(-2 -42)" fill="#583ae2"/></g><g transform="translate(33.531 35.296)"><path d="M59.413,43.765v8.824H40V43.765A1.77,1.77,0,0,1,41.765,42H57.648A1.77,1.77,0,0,1,59.413,43.765Z" transform="translate(-40 -42)" fill="#583ae2"/></g><g transform="translate(4.412 12.354)"><path d="M7,16h8.824v3.53H7Z" transform="translate(-7 -16)" fill="#22d469"/></g><g transform="translate(39.708 12.354)"><path d="M47,16h8.824v3.53H47Z" transform="translate(-47 -16)" fill="#22d469"/></g><g transform="translate(4.412 8.824)"><path d="M15.824,13.765V15.53H7V13.765A1.77,1.77,0,0,1,8.765,12h5.294A1.77,1.77,0,0,1,15.824,13.765Z" transform="translate(-7 -12)" fill="#2ff980"/></g><g transform="translate(4.412 15.883)"><path d="M15.824,20v1.765a1.77,1.77,0,0,1-1.765,1.765H8.765A1.77,1.77,0,0,1,7,21.765V20Z" transform="translate(-7 -20)" fill="#2ff980"/></g><g transform="translate(39.708 15.883)"><path d="M55.824,20v1.765a1.77,1.77,0,0,1-1.765,1.765H48.765A1.77,1.77,0,0,1,47,21.765V20Z" transform="translate(-47 -20)" fill="#2ff980"/></g><g transform="translate(39.708 8.824)"><path d="M55.824,13.765V15.53H47V13.765A1.77,1.77,0,0,1,48.765,12h5.294A1.77,1.77,0,0,1,55.824,13.765Z" transform="translate(-47 -12)" fill="#2ff980"/></g></g><g transform="translate(1 1)"><path d="M53.062,36.3H46V33.364l5.681-2.272-7.539-3.77,2.741-2.056V22.178H48.65A2.65,2.65,0,0,0,51.3,19.53V12.471A2.65,2.65,0,0,0,48.65,9.824H43.355a2.65,2.65,0,0,0-2.647,2.647V19.53a2.65,2.65,0,0,0,2.647,2.647H45.12v2.206L40.8,27.623l6.578,3.29-3.141,1.257V36.3H37.179a2.65,2.65,0,0,0-2.647,2.647v4.412H30.839a2.645,2.645,0,0,0-1.6-1.6V32.767H36.3a2.65,2.65,0,0,0,2.647-2.647V3.647A2.65,2.65,0,0,0,36.3,1H20.413a2.65,2.65,0,0,0-2.647,2.647V30.119a2.65,2.65,0,0,0,2.647,2.647h7.059v8.986a2.645,2.645,0,0,0-1.6,1.6H22.178V38.943A2.65,2.65,0,0,0,19.53,36.3H10.706V33.364l5.681-2.272-7.539-3.77,2.741-2.056V22.178h1.765A2.65,2.65,0,0,0,16,19.53V12.471a2.65,2.65,0,0,0-2.647-2.647H8.059a2.65,2.65,0,0,0-2.647,2.647V19.53a2.65,2.65,0,0,0,2.647,2.647H9.824v2.206L5.5,27.623l6.578,3.29L8.942,32.169V36.3H3.647A2.65,2.65,0,0,0,1,38.943V49.532a2.65,2.65,0,0,0,2.647,2.647h3.53v1.765H5.412v1.765H17.766V53.944H16V52.179h3.53a2.65,2.65,0,0,0,2.647-2.647V45.12H25.87a2.632,2.632,0,0,0,4.97,0h3.692v4.412a2.65,2.65,0,0,0,2.647,2.647h3.53v1.765H38.943v1.765H51.3V53.944H49.532V52.179h3.53a2.65,2.65,0,0,0,2.647-2.647V38.943A2.65,2.65,0,0,0,53.062,36.3Zm-3.53-19.413H42.473V15.118h7.059Zm-6.177-5.294H48.65a.883.883,0,0,1,.882.882v.882H42.473v-.882A.883.883,0,0,1,43.355,11.589Zm-.882,7.942v-.882h7.059v.882a.883.883,0,0,1-.882.882H43.355A.883.883,0,0,1,42.473,19.53ZM19.53,30.119V3.647a.883.883,0,0,1,.882-.882H36.3a.883.883,0,0,1,.882.882V30.119A.883.883,0,0,1,36.3,31H20.413A.883.883,0,0,1,19.53,30.119ZM14.236,16.883H7.177V15.118h7.059ZM8.059,11.589h5.294a.883.883,0,0,1,.882.882v.882H7.177v-.882A.883.883,0,0,1,8.059,11.589ZM7.177,19.53v-.882h7.059v.882a.883.883,0,0,1-.882.882H8.059A.883.883,0,0,1,7.177,19.53Zm-3.53,18.53H19.53a.883.883,0,0,1,.882.882v7.942H2.765V38.943A.883.883,0,0,1,3.647,38.061ZM14.236,53.944H8.942V52.179h5.294Zm5.294-3.53H3.647a.883.883,0,0,1-.882-.882V48.65H20.413v.882A.883.883,0,0,1,19.53,50.415Zm8.824-5.294a.882.882,0,1,1,.882-.882A.883.883,0,0,1,28.354,45.12Zm8.824-7.059H53.062a.883.883,0,0,1,.882.882v7.942H36.3V38.943A.883.883,0,0,1,37.179,38.061ZM47.767,53.944H42.473V52.179h5.294Zm5.294-3.53H37.179a.883.883,0,0,1-.882-.882V48.65H53.944v.882A.883.883,0,0,1,53.062,50.415Z" transform="translate(-1 -1)"/><path d="M36.354,5H25.765A1.767,1.767,0,0,0,24,6.765v3.53a1.767,1.767,0,0,0,1.765,1.765H36.354a1.767,1.767,0,0,0,1.765-1.765V6.765A1.767,1.767,0,0,0,36.354,5ZM25.765,10.294V6.765H36.354l0,3.53Z" transform="translate(-3.705 -1.47)"/><path d="M36.354,15H25.765A1.767,1.767,0,0,0,24,16.765v3.53a1.767,1.767,0,0,0,1.765,1.765H36.354a1.767,1.767,0,0,0,1.765-1.765v-3.53A1.767,1.767,0,0,0,36.354,15ZM25.765,20.294v-3.53H36.354l0,3.53Z" transform="translate(-3.705 -2.646)"/><path d="M36.354,25H25.765A1.767,1.767,0,0,0,24,26.765v3.53a1.767,1.767,0,0,0,1.765,1.765H36.354a1.767,1.767,0,0,0,1.765-1.765v-3.53A1.767,1.767,0,0,0,36.354,25ZM25.765,30.294v-3.53H36.354l0,3.53Z" transform="translate(-3.705 -3.822)"/></g></g></g></g></svg>