<svg xmlns="http://www.w3.org/2000/svg" width="57.981" height="54.629" viewBox="0 0 57.981 54.629"><g transform="translate(-205 -6283.186)"><g transform="translate(205 6268.386)"><path d="M56.787,56.587,36.295,18.945a8.509,8.509,0,0,0-14.609,0L1.194,56.587a8.484,8.484,0,0,0-.068,8.561A8.382,8.382,0,0,0,8.5,69.429H49.483a8.382,8.382,0,0,0,7.372-4.281A8.484,8.484,0,0,0,56.787,56.587Z" transform="translate(0 0)" fill="#061023"/><path d="M283.865,65.148a8.382,8.382,0,0,1-7.372,4.281H256V14.8a8.482,8.482,0,0,1,7.3,4.145L283.8,56.587A8.483,8.483,0,0,1,283.865,65.148Z" transform="translate(-227.01 0)" fill="#061023"/><path d="M80.47,84.922,59.977,47.28a5.112,5.112,0,0,0-8.765,0L30.72,84.922A5.118,5.118,0,0,0,35.1,92.634H76.087a5.118,5.118,0,0,0,4.383-7.712Z" transform="translate(-26.604 -26.603)" fill="#ffde33"/><path d="M280.909,90.052a5.014,5.014,0,0,1-4.416,2.582H256V44.8a5.045,5.045,0,0,1,4.382,2.48l20.493,37.642A5.046,5.046,0,0,1,280.909,90.052Z" transform="translate(-227.01 -26.603)" fill="#ffbc33"/><g transform="translate(25.593 28.661)"><path d="M229.4,383.995a3.4,3.4,0,1,1,3.4-3.4A3.4,3.4,0,0,1,229.4,383.995Z" transform="translate(-226 -350.022)" fill="#0e1d3a"/><path d="M232.795,157.584a3.4,3.4,0,0,1-6.795,0V140.6a3.4,3.4,0,0,1,6.795,0Z" transform="translate(-226 -137.2)" fill="#0e1d3a"/></g><g transform="translate(28.99 28.661)"><path d="M259.4,380.6a3.4,3.4,0,0,0-3.4-3.4v6.795A3.4,3.4,0,0,0,259.4,380.6Z" transform="translate(-256 -350.022)" fill="#061023"/><path d="M259.4,157.584V140.6a3.4,3.4,0,0,0-3.4-3.4v23.781A3.4,3.4,0,0,0,259.4,157.584Z" transform="translate(-256 -137.2)" fill="#061023"/></g></g></g></svg>