<svg xmlns="http://www.w3.org/2000/svg" xmlns:xlink="http://www.w3.org/1999/xlink" width="400" height="667.92" viewBox="0 0 400 667.92"><defs><clipPath id="a"><rect width="354.682" height="257.106" fill="none"/></clipPath><clipPath id="f"><rect width="23.091" height="23.723" fill="none"/></clipPath><clipPath id="o"><rect width="13.818" height="14.196" fill="none"/></clipPath><clipPath id="p"><rect width="399.037" height="609.587" fill="none"/></clipPath><clipPath id="s"><rect width="14.238" height="30.817" fill="none"/></clipPath><clipPath id="t"><rect width="44.566" height="28.552" fill="none"/></clipPath><clipPath id="u"><rect width="8.958" height="22.418" fill="none"/></clipPath><clipPath id="v"><rect width="7.112" height="42.745" fill="none"/></clipPath><clipPath id="w"><rect width="27.197" height="33.597" fill="none"/></clipPath><clipPath id="x"><rect width="26.494" height="32.771" fill="none"/></clipPath><clipPath id="y"><rect width="31.935" height="13.058" fill="none"/></clipPath><clipPath id="z"><rect width="28.078" height="56.246" fill="none"/></clipPath><clipPath id="aa"><rect width="190" height="112.291" fill="none"/></clipPath><clipPath id="ab"><rect width="190" height="112.292" fill="none"/></clipPath><clipPath id="ac"><rect width="74.815" height="34.945" fill="none"/></clipPath><clipPath id="ad"><rect width="53.523" height="1.57" fill="none"/></clipPath><clipPath id="ae"><rect width="49.538" height="2.165" fill="none"/></clipPath><clipPath id="af"><rect width="51.953" height="3.113" fill="none"/></clipPath><clipPath id="ag"><rect width="39.423" height="1.717" fill="none"/></clipPath><clipPath id="ah"><rect width="38.173" height="1.395" fill="none"/></clipPath><clipPath id="aj"><rect width="71.888" height="37.445" fill="none"/></clipPath><clipPath id="ak"><rect width="56.089" height="12.713" fill="none"/></clipPath><clipPath id="al"><rect width="15.203" height="15.203" fill="none"/></clipPath><clipPath id="am"><rect width="11.234" height="11.234" fill="none"/></clipPath><clipPath id="at"><rect width="38.175" height="1.395" fill="none"/></clipPath><clipPath id="bl"><rect width="125.429" height="194.162" fill="none"/></clipPath><clipPath id="bm"><rect width="125.428" height="194.162" fill="none"/></clipPath><clipPath id="bn"><rect width="112.07" height="112.07" fill="none"/></clipPath><clipPath id="bo"><rect width="58.381" height="79.632" fill="none"/></clipPath><clipPath id="bp"><rect width="11.81" height="11.788" fill="none"/></clipPath><clipPath id="bq"><rect width="44.312" height="52.676" fill="none"/></clipPath></defs><g transform="translate(-180 -6846.08)"><g transform="translate(0 49.976)"><g transform="translate(180 6979.025)"><path d="M658.97,409.246H472.817A199.755,199.755,0,0,0,258.97,279.094V97.9q12.933-.878,26.09-.889C471.783,97.013,627.043,231.715,658.97,409.246Z" transform="translate(-258.97 75.754)" fill="#40327b"/></g><g transform="translate(224.354 7206.686)"><g opacity="0.68" clip-path="url(#a)"><rect width="24.524" height="33.784" transform="translate(154.761 222.875)" fill="#2ff980"/><path d="M0,0H24.524V63.99H0Z" transform="translate(205.687 192.67)" fill="#583ae2"/><path d="M0,0H24.524V145.818H0Z" transform="translate(256.127 110.841)" fill="#2ff980"/><g clip-path="url(#a)"><path d="M24.83,279.579c.191.2-5.122,5.974-11.865,12.9S.6,304.87.4,304.673s5.121-5.972,11.867-12.9,12.368-12.387,12.559-12.191" transform="translate(-0.068 -47.993)" fill="#fff"/><path d="M88.917,280.087c.191.2-5.122,5.974-11.865,12.9s-12.369,12.388-12.561,12.191,5.121-5.973,11.867-12.9,12.368-12.387,12.559-12.191" transform="translate(-11.07 -48.08)" fill="#f6f6f6"/><path d="M211.318,279.554c.191.2-5.122,5.974-11.866,12.9s-12.369,12.388-12.56,12.191,5.121-5.973,11.867-12.9,12.368-12.387,12.559-12.191" transform="translate(-32.082 -47.989)" fill="#f6f6f6"/><path d="M24.431,252.669c.191.2-5.122,5.974-11.866,12.9S.2,277.96,0,277.762s5.121-5.972,11.867-12.9,12.368-12.387,12.559-12.191" transform="translate(0 -43.374)" fill="#fff"/><path d="M149.3,280.018c.191.2-5.122,5.974-11.865,12.9s-12.37,12.388-12.561,12.191,5.121-5.973,11.867-12.9,12.368-12.387,12.559-12.191" transform="translate(-21.435 -48.069)" fill="#fff"/><path d="M148.9,253.108c.191.2-5.122,5.974-11.866,12.9S124.664,278.4,124.472,278.2s5.121-5.973,11.867-12.9,12.368-12.387,12.559-12.191" transform="translate(-21.367 -43.449)" fill="#fff"/><path d="M141.254,232.6c.191.2-3.411,4.216-8.045,8.977s-8.547,8.462-8.738,8.266,3.409-4.215,8.045-8.977,8.547-8.461,8.738-8.265" transform="translate(-21.366 -39.928)" fill="#fff"/><path d="M333.595,279.554c.191.2-5.122,5.974-11.866,12.9s-12.369,12.388-12.56,12.191,5.121-5.973,11.867-12.9,12.368-12.387,12.559-12.191" transform="translate(-53.073 -47.989)" fill="#f6f6f6"/><path d="M333.2,252.644c.191.2-5.122,5.974-11.866,12.9s-12.369,12.388-12.56,12.191,5.121-5.972,11.867-12.9S333,252.448,333.2,252.644" transform="translate(-53.004 -43.369)" fill="#f6f6f6"/><path d="M333.2,222.655c.191.2-5.122,5.974-11.866,12.9s-12.369,12.389-12.56,12.191,5.121-5.972,11.867-12.9S333,222.458,333.2,222.655" transform="translate(-53.004 -38.221)" fill="#f6f6f6"/><path d="M273.578,279.554c.191.2-5.122,5.974-11.867,12.9s-12.369,12.388-12.56,12.191,5.122-5.973,11.867-12.9,12.368-12.387,12.56-12.191" transform="translate(-42.77 -47.989)" fill="#fff"/><path d="M273.178,252.644c.191.2-5.122,5.974-11.866,12.9s-12.369,12.388-12.56,12.191,5.121-5.972,11.867-12.9,12.368-12.386,12.559-12.19" transform="translate(-42.701 -43.369)" fill="#fff"/><path d="M265.37,232.337c.191.2-3.374,4.178-7.963,8.892s-8.465,8.379-8.656,8.181,3.373-4.178,7.964-8.893,8.464-8.378,8.655-8.181" transform="translate(-42.701 -39.883)" fill="#fff"/><path d="M333.595,193.652c.191.2-5.122,5.974-11.866,12.9s-12.369,12.388-12.56,12.191,5.121-5.973,11.867-12.9,12.368-12.387,12.559-12.191" transform="translate(-53.073 -33.242)" fill="#f6f6f6"/><path d="M333.595,139.723c.191.2-5.122,5.974-11.866,12.9s-12.369,12.388-12.56,12.191,5.121-5.972,11.867-12.9,12.368-12.387,12.559-12.191" transform="translate(-53.073 -23.985)" fill="#f6f6f6"/><path d="M333.2,166.742c.191.2-5.122,5.974-11.866,12.9s-12.369,12.388-12.56,12.191,5.121-5.973,11.867-12.9S333,166.546,333.2,166.742" transform="translate(-53.004 -28.623)" fill="#f6f6f6"/><path d="M0,0H23.174V233.748H0Z" transform="translate(309.385 22.912)" fill="#583ae2"/><g transform="translate(309.583 232.941)" opacity="0.6"><g clip-path="url(#f)"><path d="M396.828,281.222c.181.186-4.84,5.645-11.212,12.192s-11.688,11.707-11.869,11.52,4.838-5.644,11.214-12.193,11.687-11.705,11.868-11.52" transform="translate(-373.741 -281.217)" fill="#fff"/></g></g><g transform="translate(309.27 211.878)" opacity="0.6"><g clip-path="url(#f)"><path d="M396.451,255.792c.181.186-4.84,5.645-11.212,12.192s-11.689,11.707-11.869,11.521,4.839-5.644,11.214-12.194,11.687-11.705,11.868-11.52" transform="translate(-373.364 -255.787)" fill="#fff"/></g></g><g transform="translate(309.27 188.404)" opacity="0.6"><g clip-path="url(#f)"><path d="M396.451,227.454c.181.186-4.84,5.645-11.212,12.192s-11.689,11.707-11.869,11.52,4.839-5.643,11.214-12.193,11.687-11.705,11.868-11.52" transform="translate(-373.364 -227.449)" fill="#fff"/></g></g><g transform="translate(309.583 165.702)" opacity="0.6"><g clip-path="url(#f)"><path d="M396.828,200.047c.181.186-4.84,5.645-11.212,12.192s-11.688,11.707-11.869,11.52,4.838-5.643,11.214-12.193,11.687-11.705,11.868-11.52" transform="translate(-373.741 -200.042)" fill="#fff"/></g></g><g transform="translate(309.27 144.638)" opacity="0.6"><g clip-path="url(#f)"><path d="M396.451,174.618c.181.186-4.84,5.645-11.212,12.192s-11.689,11.707-11.869,11.52,4.839-5.644,11.214-12.193,11.687-11.705,11.868-11.52" transform="translate(-373.364 -174.613)" fill="#fff"/></g></g><g transform="translate(309.27 121.164)" opacity="0.6"><g clip-path="url(#f)"><path d="M396.451,146.279c.181.186-4.84,5.645-11.212,12.192s-11.689,11.707-11.869,11.52,4.839-5.644,11.214-12.193,11.687-11.706,11.868-11.52" transform="translate(-373.364 -146.274)" fill="#fff"/></g></g><g transform="translate(309.27 93.608)" opacity="0.6"><g clip-path="url(#f)"><path d="M396.451,113.013c.181.186-4.84,5.645-11.212,12.192s-11.688,11.707-11.869,11.52,4.838-5.643,11.214-12.193,11.687-11.705,11.868-11.52" transform="translate(-373.364 -113.008)" fill="#fff"/></g></g><g transform="translate(309.583 64.762)" opacity="0.6"><g clip-path="url(#f)"><path d="M396.828,78.187c.181.186-4.84,5.645-11.212,12.192s-11.688,11.707-11.869,11.521,4.838-5.644,11.214-12.194S396.647,78,396.828,78.187" transform="translate(-373.741 -78.183)" fill="#fff"/></g></g><g transform="translate(309.272 36.428)" opacity="0.6"><g clip-path="url(#f)"><path d="M396.452,43.982c.181.186-4.841,5.645-11.212,12.192s-11.689,11.707-11.87,11.52,4.838-5.644,11.214-12.193,11.687-11.706,11.868-11.52" transform="translate(-373.366 -43.977)" fill="#fff"/></g></g><g transform="translate(309.269 22.483)" opacity="0.6"><g clip-path="url(#o)"><path d="M387.172,27.15c.181.186-2.763,3.511-6.573,7.426s-7.048,6.94-7.23,6.754,2.762-3.51,6.574-7.427,7.047-6.939,7.228-6.753" transform="translate(-373.362 -27.143)" fill="#fff"/></g></g><path d="M354.682,22.713s-.354-.236-1.03-.713l-1.259-.89L350.6,19.953a62.1,62.1,0,0,0-12.683-6.134,55.88,55.88,0,0,0-9.877-2.474,45.92,45.92,0,0,0-12.08-.274c-8.644.924-18.142,5.011-26.414,12.2a79.483,79.483,0,0,0-11.653,12.593c-3.521,4.833-7.03,9.991-10.66,15.321C260,61.87,252.567,73.484,244.848,85.768s-15.723,25.248-24.29,38.515c-4.3,6.624-8.713,13.339-13.325,20.067-2.313,3.353-4.5,6.828-6.743,10.3s-4.512,6.965-6.859,10.434a209.149,209.149,0,0,1-14.9,19.849,72.2,72.2,0,0,1-8.63,8.572,29.323,29.323,0,0,1-4.991,3.384,13.041,13.041,0,0,1-5.745,1.695,15.546,15.546,0,0,1-5.711-1.653,58.516,58.516,0,0,1-5.183-2.736c-3.356-1.959-6.552-4.1-9.672-6.27-6.23-4.36-12.131-8.9-17.808-13.422q-4.256-3.395-8.332-6.792t-8.079-6.64c-5.362-4.3-10.63-8.4-15.876-12.145-5.2-3.8-10.646-6.95-16.409-8.572a37.328,37.328,0,0,0-16.984-.6,46.882,46.882,0,0,0-14.424,5.758,70.081,70.081,0,0,0-11.12,8.359c-6.422,5.9-11.844,11.09-16.243,15.368s-7.769,7.649-10.049,9.938c-1.135,1.143-2,2.016-2.589,2.608s-.888.884-.888.884.284-.316.856-.914l2.559-2.639c2.261-2.309,5.614-5.7,9.993-10s9.788-9.513,16.2-15.426a70.114,70.114,0,0,1,11.144-8.417,47.1,47.1,0,0,1,14.5-5.822,37.624,37.624,0,0,1,17.134.583c5.813,1.625,11.319,4.808,16.528,8.6,5.259,3.75,10.535,7.846,15.906,12.141q4.027,3.222,8.09,6.637,4.078,3.387,8.332,6.781c5.674,4.516,11.573,9.046,17.794,13.4,3.115,2.166,6.307,4.3,9.648,6.246a57.963,57.963,0,0,0,5.146,2.714,15.226,15.226,0,0,0,5.537,1.613,12.66,12.66,0,0,0,5.548-1.648,28.927,28.927,0,0,0,4.919-3.338,71.817,71.817,0,0,0,8.575-8.524,208.979,208.979,0,0,0,14.865-19.809c2.344-3.465,4.613-6.952,6.854-10.425s4.433-6.949,6.752-10.309c4.61-6.724,9.026-13.435,13.324-20.055,8.569-13.26,16.583-26.213,24.307-38.5s15.178-23.891,22.427-34.571c3.64-5.332,7.149-10.477,10.69-15.322A79.684,79.684,0,0,1,289.349,23.04c8.323-7.21,17.888-11.3,26.585-12.21a46.061,46.061,0,0,1,12.138.311,55.922,55.922,0,0,1,9.9,2.519,61.19,61.19,0,0,1,12.675,6.219l1.781,1.176,1.248.909c.668.49,1,.749,1,.749" transform="translate(0 -1.814)" fill="#2ff980"/><path d="M391.916,9.655a4.821,4.821,0,1,1-9.64,0,4.821,4.821,0,1,1,9.64,0" transform="translate(-65.624 -0.81)" fill="#2ff980"/><path d="M386.3,17.692a8.756,8.756,0,0,1-8.644-8.846,8.646,8.646,0,1,1,17.287,0,8.757,8.757,0,0,1-8.644,8.846m0-16.864a7.927,7.927,0,0,0-7.815,8.018,7.818,7.818,0,1,0,15.631,0A7.928,7.928,0,0,0,386.3.828" transform="translate(-64.831)" fill="#2ff980"/></g></g></g><g transform="translate(180 6854.437)"><g clip-path="url(#p)"><g clip-path="url(#p)"><path d="M24.8,57.05l.554-2.994C30.029,28.816,47.319,8.563,70.744,2.137A59.843,59.843,0,0,1,79.951.366c22.461-2.5,46.4,7.948,61.372,26.789,8.806,11.08,15.1,25.178,26.957,32.277,15.439,9.24,34.089,3.206,50.174-3s34.764-12.19,50.168-2.882c9.647,5.83,15.863,16.732,19.134,27.9,8.663,29.561-1.314,62.163-21.009,83.5s-47.773,32.4-76.224,35.938c-39.857,4.952-82.735-4.626-115.684-31S20.518,99.387,24.8,57.05" transform="translate(11.683 0)" fill="#f5f5f5"/><path d="M52.14,140.7c-9.429-7.127-22.416-8.357-33.834-5.3C11.139,136.784-1.941,150.939.243,163.08s13.822,20.8,25.889,23.367c13.4,2.854,29.547-1.8,35.247-14.264,4.916-10.748.19-24.359-9.24-31.485" transform="translate(0 64.461)" fill="#f5f5f5"/></g><g clip-path="url(#p)"><path d="M232.257,267.823l5.861,16.6s27.125,24.9,31.127,58.256,4,40.624,4,40.624l-8.4,97.285H84.019s-5.989-78.637-3.766-100.873,15.132-47.4,15.132-47.4l13.784-33.355.409-16.79Z" transform="translate(38.417 129.001)" fill="#263238"/><path d="M227.476,280.174a8.022,8.022,0,0,1-1.267.277l-3.657.646-13.474,2.211c-11.387,1.822-27.131,4.239-44.554,6.679s-33.247,4.38-44.724,5.524c-5.736.588-10.386.976-13.6,1.206l-3.707.233a8.076,8.076,0,0,1-1.295.028,8.125,8.125,0,0,1,1.283-.184l3.692-.376c3.208-.322,7.847-.791,13.572-1.449,11.455-1.282,27.249-3.32,44.675-5.746s33.172-4.77,44.577-6.454c5.65-.822,10.247-1.493,13.511-1.969l3.679-.5a8,8,0,0,1,1.291-.123" transform="translate(48.742 134.947)" fill="#455a64"/><path d="M125.57,319.9a7.746,7.746,0,0,1-.662,1.627c-.467,1.027-1.2,2.488-2.15,4.267a123.6,123.6,0,0,1-8.355,13.369,123.179,123.179,0,0,1-9.994,12.2c-1.381,1.471-2.531,2.631-3.354,3.4a7.588,7.588,0,0,1-1.328,1.148,7.659,7.659,0,0,1,1.113-1.357L104,350.995c2.651-3.021,6.193-7.3,9.772-12.282s6.491-9.706,8.5-13.185l2.359-4.138a7.756,7.756,0,0,1,.93-1.489" transform="translate(48.034 154.085)" fill="#455a64"/><path d="M270.416,151.477s3.71,62.325,4.821,69.375-4.821,15.952-4.821,15.952-13.726,1.485-23-15.581l-5.936-13.356a85.044,85.044,0,0,0,3.338-35.243c-2.225-20.034-3.338-29.309-3.338-29.309Z" transform="translate(116.312 69.03)" fill="#ffbe9d"/><path d="M259.923,99.451c1.628,15.043,1.418,28.051-5.993,30.706-.621.222-5.6.416-6.256.489-8.53.923-16.875-11.547-18.639-27.852s3.719-30.27,12.249-31.2a56.473,56.473,0,0,1,6.14-.6c7.647,1.363,10.9,13.673,12.5,28.449" transform="translate(110.159 34.189)" fill="#455a64"/><path d="M278.093,134.182s6.254,2.076,5.122,8.115-5.122,16.741-5.122,16.741l-7.768,8.614-28.217-8.614a17.386,17.386,0,0,1-1.923-8.437c.188-4.718-.012-16.42-.012-16.42a27.962,27.962,0,0,0,5.107-10.758c.944-4.881,1.627-10.549,1.827-12.295a.513.513,0,0,1,.619-.446,7.28,7.28,0,0,1,5.481,5c1.51,4.718,1.132,6.039,1.132,6.039Z" transform="translate(115.683 53.307)" fill="#ffbe9d"/><path d="M253.318,115.068l-4.035-6.444-4.232,3.266L252.9,127.4l2.141-6.5Z" transform="translate(118.033 52.321)" fill="#455a64"/><path d="M253.137,114.387s4.414-6.669,8.511-3.492,3.153,5.069,0,10.9c0,0,8.038-1.1,6.147,7.407,0,0,7.97-1.566,7.767,5.285,0,0,6.576,5.433,3.738,9.53S265.587,156,262.593,155.05s-3.362-5.044-3.362-5.044-3.572-1.261-4.676-2.994.316-4.412.316-4.412-3.152-2.722-3.94-3.488,0-4.709,0-4.709l4.255-4.885s-6.147,3.31-7.565,2.363-2.994-1.734-1.734-3.783,5.958-6.79,5.958-6.79Z" transform="translate(118.214 53.001)" fill="#ffbe9d"/><path d="M255.208,142.479a22.026,22.026,0,0,1,1.877-2.714,24.5,24.5,0,0,1,5.439-5.9,56.989,56.989,0,0,0,6.266-4.815,31.646,31.646,0,0,0,2.064-2.514,5.909,5.909,0,0,1-1.667,2.888,39.26,39.26,0,0,1-6.2,5.058,29.674,29.674,0,0,0-5.473,5.613,10.4,10.4,0,0,1-2.308,2.381" transform="translate(122.923 60.949)" fill="#eb996e"/><path d="M251.794,137.578c-.163-.138,2.532-3.589,6.02-7.708,1.753-2.031,3.239-3.987,4.556-5.218a5.986,5.986,0,0,1,2.36-1.676c.064.1-.815.739-1.968,2.055-1.178,1.286-2.587,3.283-4.361,5.337-3.486,4.119-6.445,7.348-6.608,7.21" transform="translate(121.278 59.229)" fill="#eb996e"/><path d="M252.017,125.81c-.167-.179,1.541-1.787,3.411-3.894,1.905-2.1,2.741-4.239,2.943-4.18.224.03-.362,2.483-2.359,4.684-1.945,2.19-3.875,3.523-3.995,3.39" transform="translate(121.383 56.709)" fill="#eb996e"/><path d="M244.366,128.643a5.535,5.535,0,0,1,2.628,1.079,15.007,15.007,0,0,1,4.692,4.995,28.558,28.558,0,0,1,2.676,6.278,9.64,9.64,0,0,1,.633,2.748,10.96,10.96,0,0,1-1.148-2.568,40.987,40.987,0,0,0-2.823-6.061,17.142,17.142,0,0,0-4.34-4.943c-1.36-1.018-2.366-1.409-2.319-1.528" transform="translate(117.702 61.956)" fill="#eb996e"/><path d="M260.734,99.125c1.765,16.306-2.706,30.162-9.983,30.949s-14.609-11.791-16.374-28.1,2.706-30.161,9.983-30.949,14.609,11.791,16.374,28.1" transform="translate(112.706 34.195)" fill="#263238"/><path d="M248.063,129.435c6.819-3.42,10.889-15.961,9.335-30.319-1.545-14.283-8.142-25.622-15.486-27.595-5.783,3.3-9.069,15.76-7.514,30.125,1.544,14.277,7.356,25.7,13.665,27.789" transform="translate(112.716 34.449)" fill="#e0e0e0"/><path d="M244.277,111.781c-.213.013-.759-6.242-1.218-13.969s-.661-14-.449-14.017.759,6.241,1.219,13.971.659,14,.447,14.015" transform="translate(116.817 40.361)" fill="#fff"/><path d="M242.588,105.061a18.282,18.282,0,0,1-.756-3.886c-.344-2.418-.7-5.777-.907-9.5s-.212-7.1-.133-9.545a18.174,18.174,0,0,1,.329-3.944,22.671,22.671,0,0,1,.218,3.946c.061,2.434.157,5.793.357,9.5s.474,7.057.679,9.483a22.428,22.428,0,0,1,.213,3.947" transform="translate(115.96 37.659)" fill="#fff"/><path d="M253.218,114.426a2.089,2.089,0,0,1-.043.47c-.055.353-.123.794-.207,1.344q-.316,1.856-.876,5.138l-.009.049-.037.039c-.864.9-1.83,1.928-2.873,3.088a27.636,27.636,0,0,0-3.135,3.969,1.94,1.94,0,0,0-.252,1.2,1.862,1.862,0,0,0,.714,1.037,12.563,12.563,0,0,0,1.215.843,1.717,1.717,0,0,0,1.308.147,24.7,24.7,0,0,0,6.1-2.467l1.442-.742-1.058,1.222-4.239,4.9.062-.105a5.917,5.917,0,0,0,.157,4.715,13.151,13.151,0,0,0,3.968,3.415l.333.21-.227.32c-.908,1.276-1.464,3.218-.049,4.27a17.243,17.243,0,0,0,4.627,2.624l-.517.347v-.116l0,.006c.105.1-.239-.249.247.31,1-.579.286-.228.505-.327v.006l.007.176.036.378a7.287,7.287,0,0,0,.133.753,6.014,6.014,0,0,0,.525,1.43,3.879,3.879,0,0,0,.923,1.159,2.3,2.3,0,0,0,1.255.587,7.317,7.317,0,0,0,3-.858,27.253,27.253,0,0,0,2.916-1.618,49.919,49.919,0,0,0,5.119-3.716,31.581,31.581,0,0,0,4.392-4.269,3.834,3.834,0,0,0,1.021-2.532,5.915,5.915,0,0,0-.724-2.676,15.524,15.524,0,0,0-3.563-4.346l-.124-.111-.007-.179a5.837,5.837,0,0,0-.495-2.628A3.956,3.956,0,0,0,273,130.1a8.724,8.724,0,0,0-5.058-.535l-.461.07.073-.468c.078-.514.181-1.024.243-1.528a8.364,8.364,0,0,0-.009-1.494,4.132,4.132,0,0,0-1.053-2.556,6.075,6.075,0,0,0-4.965-1.476l-.539.046.252-.464a45.043,45.043,0,0,0,2.243-4.46,6.3,6.3,0,0,0,.484-2.156,3.455,3.455,0,0,0-.579-1.92,8.754,8.754,0,0,0-2.771-2.544,3.74,3.74,0,0,0-3.045-.055,10.144,10.144,0,0,0-3.558,2.667c-.353.379-.6.689-.77.892a1.822,1.822,0,0,1-.267.3,1.287,1.287,0,0,1,.2-.353,11.355,11.355,0,0,1,.714-.951,12.318,12.318,0,0,1,1.339-1.4,7.721,7.721,0,0,1,2.225-1.454,4.066,4.066,0,0,1,3.328,0l.821.5c.246.2.5.4.756.609a7.99,7.99,0,0,1,1.4,1.536,3.909,3.909,0,0,1,.683,2.165,6.683,6.683,0,0,1-.487,2.341,44.6,44.6,0,0,1-2.223,4.547l-.289-.416a8.461,8.461,0,0,1,2.848.164,5.22,5.22,0,0,1,2.649,1.452,4.763,4.763,0,0,1,1.239,2.909,9.088,9.088,0,0,1,.021,1.619c-.061.536-.163,1.073-.246,1.616l-.388-.4a9.339,9.339,0,0,1,5.5.563,4.66,4.66,0,0,1,2.113,2.094,6.536,6.536,0,0,1,.581,2.965l-.13-.289a16.126,16.126,0,0,1,3.765,4.564,6.643,6.643,0,0,1,.815,3.026,4.754,4.754,0,0,1-.316,1.615,6.968,6.968,0,0,1-.862,1.376,32.019,32.019,0,0,1-4.5,4.392,50.558,50.558,0,0,1-5.2,3.777,27.943,27.943,0,0,1-3,1.662,7.9,7.9,0,0,1-3.377.926,3.82,3.82,0,0,1-2.8-2.153,6.724,6.724,0,0,1-.591-1.615,8.066,8.066,0,0,1-.147-.834l-.039-.424-.009-.224v-.058c.219-.1-.5.247.505-.333.488.556.145.2.25.31v.033l0,.074,0,.11,0,.567-.514-.221a17.726,17.726,0,0,1-4.854-2.784,3.593,3.593,0,0,1-.892-1.191,2.981,2.981,0,0,1-.188-1.485,5.732,5.732,0,0,1,1.052-2.575l.105.529a13.65,13.65,0,0,1-4.193-3.67,4.913,4.913,0,0,1-.656-2.7,8.68,8.68,0,0,1,.464-2.611l.019-.056.043-.049,4.273-4.87.384.479a24.941,24.941,0,0,1-6.3,2.474,2.274,2.274,0,0,1-1.7-.246,12.828,12.828,0,0,1-1.258-.9,2.356,2.356,0,0,1-.874-1.351,2.4,2.4,0,0,1,.317-1.516,26.986,26.986,0,0,1,3.264-4.024c1.068-1.148,2.057-2.16,2.944-3.042l-.046.086c.443-2.182.79-3.9,1.04-5.132.119-.541.215-.975.29-1.32a1.778,1.778,0,0,1,.126-.437" transform="translate(118.132 52.941)" fill="#eb996e"/><path d="M112.844,321.312,56.887,251.834S27.128,276.89,26.341,277.677s46.547,46.833,76.943,64.658l9.56-6.327Z" transform="translate(12.683 121.3)" fill="#ffbe9d"/><path d="M135.334,284.3s-17.667-2.79-19.294-1.627-13.716,9.3-13.716,9.3a65.9,65.9,0,0,1-5.347,7.205s-3.952,4.649-6.974,5.115a13.523,13.523,0,0,1-4.881,0l-7.9,21.852s6.045,6.276,9.764,5.811,23.479-11.39,23.479-11.39l4.882-1.628s19.062.7,19.992-5.113v-1.628L116.5,310.566l-6.974,1.163,12.087-4.547s17.667-1.033,19.294-1.5,3.488-3.021,2.79-4.417l-3.719-.464s4.012-2.775,3.87-5.332l-16.724-2.654s10.063-5.033,8.2-8.52" transform="translate(37.193 136.016)" fill="#ffbe9d"/><path d="M132.85,295.787a6.84,6.84,0,0,1-1.532-.213c-.975-.175-2.39-.406-4.143-.665-3.506-.519-8.367-1.132-13.745-1.733a17.29,17.29,0,0,0-1.947-.165,5.911,5.911,0,0,0-1.794.322c-1.134.447-2.282.984-3.334,1.467-2.119.988-3.993,1.95-5.531,2.818a41.334,41.334,0,0,0-3.537,2.223,8.445,8.445,0,0,1-1.268.879A4.635,4.635,0,0,1,97.1,299.6a27.955,27.955,0,0,1,3.445-2.457c1.519-.939,3.384-1.959,5.5-2.99,1.073-.514,2.153-1.04,3.39-1.539a6.564,6.564,0,0,1,2.025-.373,16.859,16.859,0,0,1,2.049.164c5.39.6,10.253,1.3,13.751,1.962,1.748.33,3.156.643,4.118.91a5.372,5.372,0,0,1,1.467.507" transform="translate(46.248 140.764)" fill="#eb996e"/><path d="M118.665,290.572c-.05.122-1.363-.458-3.6-.889a19.6,19.6,0,0,0-16.541,4.288c-1.742,1.462-2.609,2.6-2.713,2.523a9.394,9.394,0,0,1,2.351-2.932,18.336,18.336,0,0,1,17.021-4.412,9.391,9.391,0,0,1,3.479,1.422" transform="translate(46.148 139.01)" fill="#eb996e"/><path d="M305.263,219.526s3.4,6.134,3.4,11.927-3.389,15.932-3.389,15.932l-4.215,3.983s2.766,12.673-13.282,16.294S181.9,219.645,181.9,219.645l-2.5-68.576s13.036,5.432,22.45,14.846,63,48.883,63,48.883,2.178-13.982,4.592-13.058,35.818,17.786,35.818,17.786" transform="translate(86.411 72.765)" fill="#583ae2"/><path d="M233.3,158.832l-48.615-10.341-12.655-13.006-55.906-.533-6.733,12.237L67.5,172.663s10.549,69.776,14.4,77.9,34.352,97.854,34.352,97.854l121.874-14.54,1.043-56.312,3.523-27.248a80.777,80.777,0,0,0,.348-17.576c-2.28-25.486-9.74-73.911-9.74-73.911" transform="translate(32.513 65.002)" fill="#583ae2"/><path d="M80.384,312.622l-39.946,27.4-13.959-19.9,3.729-3.316S9.6,299.768,10.841,287.747s22.978-42.933,22.978-42.933,46.566-76.23,61-84.4c2.02-1.144,19.537,41.164,19.537,57.744s-3.316,16.58-3.316,16.58-14.094,13.679-20.726,26.113S72.417,286.823,64.957,291.8Z" transform="translate(5.196 77.254)" fill="#583ae2"/><path d="M32.271,242.529a2.952,2.952,0,0,1,1.077-.108,20,20,0,0,1,2.937.163,28.828,28.828,0,0,1,9.277,2.814,30.661,30.661,0,0,1,7.877,5.654,13.326,13.326,0,0,1,2.548,3.1c-.184.212-4.033-4.738-10.769-8.062a33.454,33.454,0,0,0-9.014-2.963c-2.406-.418-3.935-.464-3.932-.6" transform="translate(15.544 116.762)" fill="#263238"/><path d="M40.495,233.386a11.976,11.976,0,0,1,2.971,2.526,27.541,27.541,0,0,1,5.15,7.89,28.145,28.145,0,0,1,2.236,9.154,12.207,12.207,0,0,1-.162,3.9c-.132,0-.1-1.489-.382-3.845a32.843,32.843,0,0,0-2.4-8.9,32.045,32.045,0,0,0-4.849-7.834c-1.532-1.811-2.649-2.788-2.563-2.889" transform="translate(19.503 112.413)" fill="#263238"/><path d="M149.9,204.109a10.407,10.407,0,0,1,.362,2.018,20.066,20.066,0,0,1,.234,2.4c.044.936.148,2,.1,3.187a37.208,37.208,0,0,1-.182,3.866c-.079,1.393-.335,2.86-.57,4.408a50.941,50.941,0,0,1-7.445,18.836c-.888,1.291-1.7,2.537-2.6,3.606a37.316,37.316,0,0,1-2.51,2.946c-.772.9-1.579,1.606-2.252,2.26a20.049,20.049,0,0,1-1.808,1.588,10.443,10.443,0,0,1-1.643,1.225c-.107-.124,2.2-1.926,5.3-5.438.769-.883,1.6-1.854,2.409-2.971.861-1.073,1.646-2.316,2.506-3.6a53.348,53.348,0,0,0,7.345-18.583c.25-1.523.527-2.968.633-4.34.178-1.365.233-2.643.274-3.814.141-4.681-.31-7.573-.148-7.591" transform="translate(63.377 98.313)" fill="#263238"/><path d="M164.13,206.887a6.954,6.954,0,0,1-.95-.711c-.609-.479-1.471-1.23-2.649-2.12-2.305-1.837-5.753-4.368-10.114-7.38s-9.652-6.488-15.506-10.437a187.975,187.975,0,0,1-18.51-13.8l.569-.065c-.619.888-1.255,1.861-1.854,2.867a42.411,42.411,0,0,0-5.1,13.516l-.222,1.175-.486-1.089a188.457,188.457,0,0,1-10.944-32.311c-1-4.134-1.667-7.463-2.064-9.761-.215-1.145-.335-2.039-.425-2.64a5.121,5.121,0,0,1-.1-.922,4.647,4.647,0,0,1,.23.9c.141.658.322,1.526.55,2.614.476,2.279,1.216,5.586,2.274,9.693a201.094,201.094,0,0,0,11.161,32.117l-.711.086a42.754,42.754,0,0,1,5.177-13.769c.607-1.024,1.255-2.017,1.889-2.92l.243-.35.326.285a195.453,195.453,0,0,0,18.392,13.8c5.824,3.978,11.093,7.5,15.417,10.579s7.737,5.678,10,7.589c1.15.928,1.982,1.717,2.563,2.233a7.428,7.428,0,0,1,.85.825" transform="translate(46.128 68.98)" fill="#263238"/><path d="M148.846,144.091a2.973,2.973,0,0,1,.406.612c.244.415.61,1.025,1.049,1.834.9,1.609,2.141,3.981,3.592,7a119.187,119.187,0,0,1,9.032,25.171l.228,1.021-.83-.645a54.569,54.569,0,0,1-10.812-11.191l.692-.2c-.482,8.56-.92,16.378-1.28,22.794l0,.071-.033.059-6.47,11.6q-1.129,1.967-1.818,3.168a6.955,6.955,0,0,1-.69,1.082,6.7,6.7,0,0,1,.533-1.168l1.674-3.246,6.236-11.732-.036.13c.316-6.419.7-14.24,1.123-22.8l.053-1.083.639.879a54.965,54.965,0,0,0,10.656,11.044l-.6.376a127.353,127.353,0,0,0-8.737-25.12c-1.385-3.036-2.56-5.436-3.381-7.082-.379-.769-.689-1.394-.935-1.892a3,3,0,0,1-.286-.677" transform="translate(68.351 69.404)" fill="#263238"/><path d="M188.054,219.955c-.212.021-1.5-11.729-2.877-26.239s-2.32-26.3-2.108-26.314,1.5,11.726,2.877,26.242,2.32,26.292,2.108,26.311" transform="translate(88.164 80.632)" fill="#263238"/><path d="M248.525,214.612a12.5,12.5,0,0,1-2.6-2.477,39.393,39.393,0,0,1-8.25-15.119,12.376,12.376,0,0,1-.679-3.522c.242-.068,1.411,5.306,4.645,11.17,3.181,5.89,7.068,9.782,6.879,9.948" transform="translate(114.144 93.199)" fill="#263238"/><path d="M241.585,217.574c-.043.031-.3-.268-.729-.84a18.413,18.413,0,0,1-1.593-2.572,26.78,26.78,0,0,1-2.021-19.481,18.79,18.79,0,0,1,1.031-2.845c.3-.647.492-.991.541-.97.126.052-.479,1.5-1.043,3.95a29.706,29.706,0,0,0,1.982,19.106c1.055,2.277,1.944,3.575,1.831,3.652" transform="translate(113.803 91.933)" fill="#263238"/><path d="M66.281,189.275a7.143,7.143,0,0,1,.8,1.489l1.96,4.149c1.745,3.663,4.009,8.414,6.512,13.67,2.55,5.34,4.793,10.21,6.315,13.78.763,1.785,1.357,3.239,1.738,4.255a7.1,7.1,0,0,1,.524,1.608,7.229,7.229,0,0,1-.8-1.489q-.8-1.694-1.96-4.15c-1.744-3.661-4.008-8.414-6.513-13.671-2.547-5.338-4.792-10.207-6.313-13.778-.762-1.784-1.357-3.237-1.738-4.254a7.1,7.1,0,0,1-.525-1.608" transform="translate(31.922 91.167)" fill="#263238"/><path d="M169.225,244.139a8.558,8.558,0,0,1-.436,1.8c-.325,1.145-.842,2.789-1.517,4.808-1.35,4.038-3.395,9.56-5.97,15.528s-5.2,11.241-7.217,14.992c-1.006,1.876-1.849,3.378-2.461,4.4a8.6,8.6,0,0,1-1.013,1.551,8.658,8.658,0,0,1,.75-1.695c.6-1.206,1.35-2.714,2.24-4.507,1.888-3.806,4.42-9.1,6.993-15.048s4.685-11.421,6.164-15.4c.695-1.877,1.279-3.458,1.747-4.721a8.54,8.54,0,0,1,.72-1.707" transform="translate(72.542 117.594)" fill="#263238"/><path d="M166.372,260.9a10.118,10.118,0,0,1-1.182,2.743,56.4,56.4,0,0,1-8.266,11.751,10.2,10.2,0,0,1-2.183,2.04c-.169-.157,2.863-3.531,6.06-8.1,3.215-4.55,5.367-8.543,5.571-8.438" transform="translate(74.53 125.666)" fill="#263238"/><path d="M163.964,296.958a6.554,6.554,0,0,1-.167-1.144q-.124-1.238-.33-3.291c-.253-2.861-.67-6.995-1.206-12.1-1.12-10.2-2.854-24.287-5.829-39.66a370.767,370.767,0,0,0-9.594-38.912c-.73-2.46-1.448-4.667-2.083-6.6-.618-1.944-1.169-3.611-1.645-4.965q-.656-1.96-1.049-3.135a6.473,6.473,0,0,1-.316-1.113,6.428,6.428,0,0,1,.462,1.059q.447,1.16,1.185,3.088c.519,1.341,1.113,3,1.771,4.928.674,1.926,1.43,4.125,2.194,6.579a331.963,331.963,0,0,1,9.832,38.928c2.98,15.4,4.632,29.527,5.614,39.752.467,5.116.8,9.262.963,12.13.077,1.376.138,2.474.185,3.3a6.589,6.589,0,0,1,.012,1.156" transform="translate(68.272 89.607)" fill="#263238"/><path d="M158.757,271.989c-.228-.083,1.253-3.063.942-6.989-.24-3.932-2.128-6.673-1.914-6.788.073-.053.65.548,1.282,1.728a12.915,12.915,0,0,1,.716,10.16c-.461,1.256-.947,1.932-1.025,1.889" transform="translate(75.992 124.371)" fill="#263238"/><path d="M156.975,273.7c-.212-.012-.329-.965-.261-2.126s.3-2.094.51-2.082.329.965.261,2.126-.3,2.094-.51,2.082" transform="translate(75.475 129.807)" fill="#263238"/><path d="M62.67,253a8.742,8.742,0,0,1-1.772.6c-1.153.327-2.809.853-4.827,1.565-2.03.683-4.39,1.656-6.986,2.78-2.578,1.171-5.367,2.552-8.22,4.141a122.2,122.2,0,0,0-13.971,9.2c-1.705,1.3-3.071,2.371-4,3.126a8.734,8.734,0,0,1-1.51,1.107,8.713,8.713,0,0,1,1.314-1.335c.876-.828,2.193-1.969,3.864-3.328a100.6,100.6,0,0,1,13.929-9.449c2.876-1.6,5.7-2.975,8.312-4.118,2.633-1.1,5.032-2.024,7.1-2.646,2.055-.65,3.744-1.1,4.925-1.339A8.746,8.746,0,0,1,62.67,253" transform="translate(10.296 121.853)" fill="#263238"/><path d="M59.171,253.1c0,.135-2.028.071-5.264.356a55.01,55.01,0,0,0-12.373,2.606,67.243,67.243,0,0,0-11.548,5.212c-2.829,1.608-4.509,2.734-4.58,2.63a5.037,5.037,0,0,1,1.089-.92c.726-.56,1.822-1.308,3.212-2.178a55.932,55.932,0,0,1,11.582-5.476,47.49,47.49,0,0,1,12.581-2.418,32.519,32.519,0,0,1,3.885.012,5.027,5.027,0,0,1,1.416.176" transform="translate(12.236 121.794)" fill="#263238"/><g transform="translate(100.644 285.742)" opacity="0.3"><g clip-path="url(#s)"><path d="M68.267,192.852a31.7,31.7,0,0,0,13.9,30.817c-3.489-8.89-9.543-21.669-13.9-30.817" transform="translate(-67.927 -192.852)"/></g></g><g transform="translate(157.62 241.078)" opacity="0.3"><g clip-path="url(#t)"><path d="M106.38,172.758a33.7,33.7,0,0,0,7.6,10.106q-.073-4.049-.148-8.1,18.556,8.248,37.114,16.494l-39.839-28.552c-2.175,3.66-2.553,6.392-4.728,10.052" transform="translate(-106.38 -162.708)"/></g></g><g transform="translate(218.989 237.07)" opacity="0.3"><g clip-path="url(#u)"><path d="M154.955,167.751c-1.588-2.494-5.976-7.749-5.976-7.749-.141,3.889-.48,9.211-.621,13.1l-.56,9.317c.575-3.246,1-9.517,1.578-12.762l6.9,6.542c1.043-2.766.262-5.955-1.326-8.449" transform="translate(-147.799 -160.002)"/></g></g><g transform="translate(271.435 254.362)" opacity="0.3"><g clip-path="url(#v)"><path d="M183.2,171.673l4.73,42.745c2.062-13.905,5.847-21.462-4.73-42.745" transform="translate(-183.196 -171.673)"/></g></g><g transform="translate(351.278 287.39)" opacity="0.3"><g clip-path="url(#w)"><path d="M262.808,222.557c-1.778-1.474-5.709-2.393-7.737-3.5-9.2-5-14.083-14.156-17.67-24l-.317-1.1c.367,13.2,8.731,27.3,20.771,32.709a7.052,7.052,0,0,0,3.949.834,2.788,2.788,0,0,0,2.464-2.771,3.58,3.58,0,0,0-1.459-2.18" transform="translate(-237.083 -193.964)"/></g></g><g transform="translate(186.143 320.692)" opacity="0.3"><g clip-path="url(#x)"><path d="M125.631,248.38c15.233-5.054,22.578-19.4,26.483-31.94a50.55,50.55,0,0,1-1.94,16.116,25.619,25.619,0,0,1-9.08,13.206c-4.42,3.162-10.339,4.427-15.464,2.618" transform="translate(-125.631 -216.44)"/></g></g><g transform="translate(38.068 375.571)" opacity="0.3"><g clip-path="url(#y)"><path d="M57.627,253.736a44.25,44.25,0,0,0-30.839,9.954c-.627.52-1.3,1.271-1.034,2.04a1.419,1.419,0,0,0,1.5.8,4.26,4.26,0,0,0,1.682-.7,132.572,132.572,0,0,1,28.688-12.347" transform="translate(-25.692 -253.48)"/></g></g><g transform="translate(225.298 345.237)" opacity="0.3"><g clip-path="url(#z)"><path d="M179.538,233.855c-.979-1.2-2.975-1.037-4.19-.076a9.031,9.031,0,0,0-2.423,3.9q-9.046,22.454-18.093,44.909l-2.775,6.66q9.486-15.9,18.968-31.8c3.786-6.344,7.638-12.865,8.954-20.133a4.254,4.254,0,0,0-.442-3.467" transform="translate(-152.057 -233.006)"/></g></g><path d="M89.758,72.671c11.225-15.66,29.816-24.825,48.766-28.3,7.973-1.461,13.2-.4,21.146,1.206s15.26,5.349,20.342,11.665c6.036,7.5,11.247,16,12.9,25.486,1.7,9.743,3.409,19.552,3.3,29.442s-2.151,19.973-7.436,28.332l-24.766,5.952c-13.8,1.354-27.8,2.7-41.472.409s-27.232-8.708-35.2-20.056c-11.073-15.766-8.8-38.479,2.423-54.137" transform="translate(38.578 21.038)" fill="#263238"/><path d="M148.939,126.494c-.046.062.447.591,1.579,1.218a12.3,12.3,0,0,0,5.27,1.414A13.419,13.419,0,0,0,163.647,127a13.387,13.387,0,0,0,3.68-18.131,13.41,13.41,0,0,0-6.408-5.02,12.34,12.34,0,0,0-5.405-.754,3.827,3.827,0,0,0-1.928.507c0,.3,2.9-.51,6.936,1.23a12.919,12.919,0,0,1,5.648,4.789,12.326,12.326,0,0,1-3.3,16.236,12.92,12.92,0,0,1-7.069,2.206c-4.4.027-6.749-1.848-6.866-1.572" transform="translate(71.738 49.634)" fill="#e0e0e0"/><path d="M73.555,116.893c.261-5.691,2.867-11.433,7.577-14.636s11.567-3.343,15.9.36l4.235,4.439A16.2,16.2,0,0,1,111.6,122.763a17.748,17.748,0,0,1-11.357,15.277,19.647,19.647,0,0,1-18.958-3.319,22.028,22.028,0,0,1-7.734-17.829" transform="translate(35.418 48.092)" fill="#263238"/><path d="M78.457,131.6a8.487,8.487,0,0,1-1.665-4.9c.006-3.218,2.064-7.57,5.012-11.625a33.971,33.971,0,0,1,9.521-8.687c2.834-1.762,4.814-2.467,4.738-2.667-.033-.12-2.14.295-5.171,1.911a30.256,30.256,0,0,0-10.077,8.708,29.716,29.716,0,0,0-3.655,6.417,13.554,13.554,0,0,0-1.24,5.971,7.075,7.075,0,0,0,1.376,3.9c.618.776,1.117,1.027,1.16.971" transform="translate(36.559 49.953)" fill="#455a64"/><path d="M86.706,137.419c.407-.05-1.779-7.514.059-16.611,1.705-9.127,6.531-15.224,6.173-15.423-.107-.087-1.451,1.288-3.072,3.928a34.924,34.924,0,0,0-4.535,23.311c.513,3.055,1.245,4.836,1.375,4.795" transform="translate(40.899 50.759)" fill="#455a64"/><path d="M158.827,184.156c-.729-8.777-1.4-15.961-1.391-15.921,0,0,20.277-3.553,24.247-30.087,1.974-13.2,1.119-34.794-.153-52.444-1.144-15.888-16.061-36.667-35.692-35.483l-8.786-.456-32.539,15.4A9.323,9.323,0,0,0,96.259,74.7l7.131,113.5,60.5,63.7,3.472-17.971Z" transform="translate(46.363 23.971)" fill="#ffbe9d"/><path d="M127.156,108.662a5.583,5.583,0,0,1,1.707-3.56,5.709,5.709,0,0,1,6.882-.836,7.646,7.646,0,0,1,3.354,6.976,6.948,6.948,0,0,1-4.778,3.194,8.144,8.144,0,0,1-.929.089,6.234,6.234,0,0,1-4.3-1.393,5.562,5.562,0,0,1-1.934-4.47" transform="translate(61.241 49.841)" fill="#eb996e"/><path d="M151.291,87.166a3.4,3.4,0,0,1-3.246,3.458,3.25,3.25,0,0,1-3.531-3.031,3.4,3.4,0,0,1,3.243-3.46,3.252,3.252,0,0,1,3.534,3.033" transform="translate(69.606 40.521)" fill="#263238"/><path d="M154.213,82.059c-.418.447-3.009-1.434-6.666-1.393-3.652-.01-6.319,1.9-6.719,1.451-.2-.2.225-1,1.385-1.861a9.327,9.327,0,0,1,5.375-1.71,8.957,8.957,0,0,1,5.31,1.662c1.132.852,1.52,1.651,1.314,1.851" transform="translate(67.809 37.833)" fill="#263238"/><path d="M136.226,110.434c-.019-.207,2.251-.621,5.93-1.125.932-.105,1.815-.3,1.966-.936a4.754,4.754,0,0,0-.647-2.762l-2.826-7.087c-3.925-10.087-6.776-18.387-6.368-18.54s3.92,7.9,7.845,17.984q1.418,3.734,2.71,7.128c.363,1.059.981,2.257.517,3.661a2.346,2.346,0,0,1-1.523,1.379,6.358,6.358,0,0,1-1.584.234c-3.706.233-6,.27-6.02.062" transform="translate(64.66 38.525)" fill="#263238"/><path d="M149.11,132.7a67.4,67.4,0,0,1-35.569-9.148s9.617,18.281,36.114,15.565Z" transform="translate(54.689 59.509)" fill="#eb996e"/><path d="M128.52,102.307c.594-.04.637,3.929,4.06,6.716s7.644,2.311,7.679,2.866c.058.249-.935.781-2.72.845a9.88,9.88,0,0,1-6.408-2.169,8.6,8.6,0,0,1-3.15-5.632c-.166-1.658.267-2.646.539-2.626" transform="translate(61.626 49.278)" fill="#263238"/><path d="M152.735,71.945c-.636.836-3.163,0-6.192-.016-3.029-.12-5.589.607-6.187-.256-.264-.419.135-1.255,1.248-2.051a8.965,8.965,0,0,1,9.975.219c1.077.845,1.437,1.7,1.157,2.1" transform="translate(67.567 32.856)" fill="#263238"/><path d="M121.332,87.769a3.4,3.4,0,0,0,3.432,3.273,3.249,3.249,0,0,0,3.357-3.223,3.4,3.4,0,0,0-3.429-3.274,3.253,3.253,0,0,0-3.36,3.224" transform="translate(58.442 40.722)" fill="#263238"/><path d="M117.528,84.019c.442.424,2.925-1.6,6.579-1.759,3.646-.213,6.416,1.542,6.79,1.077.185-.207-.282-.987-1.486-1.782a9.344,9.344,0,0,0-5.463-1.411,8.965,8.965,0,0,0-5.21,1.953c-1.083.914-1.427,1.732-1.211,1.922" transform="translate(56.58 38.597)" fill="#263238"/><path d="M117.577,80.637c.68.8,3.157-.178,6.182-.359,3.017-.287,5.614.3,6.164-.6.239-.434-.2-1.246-1.359-1.98a8.965,8.965,0,0,0-9.946.77c-1.031.9-1.342,1.774-1.04,2.165" transform="translate(56.58 36.871)" fill="#263238"/><path d="M108.772,98.928c-.024-1.974-2.345-6.605-4.3-6.891-5.21-.765-14.586-.262-14.553,12.953.041,18.066,18.17,14.3,18.2,13.78.024-.406.726-13.028.65-19.841" transform="translate(43.312 44.223)" fill="#ffbe9d"/><path d="M100.047,109.931c-.079-.058-.314.221-.845.467a3.152,3.152,0,0,1-2.353.053c-1.911-.695-3.525-3.722-3.62-6.979a10.391,10.391,0,0,1,.87-4.509,3.627,3.627,0,0,1,2.362-2.42,1.6,1.6,0,0,1,1.859.856c.243.505.129.867.225.9.05.046.387-.3.24-1.048a2.011,2.011,0,0,0-.714-1.132,2.382,2.382,0,0,0-1.741-.456,4.426,4.426,0,0,0-3.282,2.809,10.7,10.7,0,0,0-1.079,5.039c.124,3.64,2,7.042,4.609,7.791a3.373,3.373,0,0,0,2.877-.486c.559-.446.652-.85.59-.883" transform="translate(44.297 46.069)" fill="#eb996e"/><path d="M101.685,112.907l4.875,4.451c18.537-20.16,54.1-69.945,52.128-66.988,0,0-13.882-4.7-28.4-1.261s-41.9,12.566-40.365,29.854,11.766,33.944,11.766,33.944" transform="translate(43.281 23.048)" fill="#263238"/><path d="M107.128,129.265c.053.055-.367.645-1.411,1.409a12.315,12.315,0,0,1-5.048,2.073,13.411,13.411,0,0,1-8.065-1.105,13.384,13.384,0,0,1-5.959-17.515,13.419,13.419,0,0,1,5.719-5.795,12.293,12.293,0,0,1,5.264-1.434,3.842,3.842,0,0,1,1.977.255c.039.3-2.937-.136-6.722,2.1a12.913,12.913,0,0,0-4.993,5.47,12.325,12.325,0,0,0,5.335,15.683,12.922,12.922,0,0,0,7.293,1.289c4.364-.532,6.459-2.691,6.61-2.433" transform="translate(41.124 51.488)" fill="#e0e0e0"/><path d="M89.8,129.637a38.27,38.27,0,0,0-.089-4.192,63.121,63.121,0,0,1,.785-11.33c1.382-9.466,6.033-22.272,14.92-33.955s19.5-20.01,27.341-25.537c3.943-2.769,7.225-4.885,9.5-6.333a29.572,29.572,0,0,0,3.489-2.337,3.636,3.636,0,0,0-1,.44c-.631.33-1.565.812-2.738,1.486-2.357,1.325-5.719,3.334-9.746,6.024-8,5.37-18.81,13.658-27.83,25.511s-13.622,24.942-14.8,34.573a54.8,54.8,0,0,0-.4,11.478c.056,1.354.264,2.394.345,3.1a3.611,3.611,0,0,0,.222,1.067" transform="translate(42.914 22.132)" fill="#455a64"/><path d="M136.168,45.73a3.818,3.818,0,0,0-1.03.412c-.658.3-1.612.779-2.829,1.419-2.431,1.282-5.906,3.229-10.04,5.9A152.639,152.639,0,0,0,108.3,63.624c-5,4.138-10.471,8.871-15.021,14.953a41.018,41.018,0,0,0-5.42,9.638,38.16,38.16,0,0,0-2.32,10.04,59.822,59.822,0,0,0,1.15,17.282c.978,4.833,2.1,8.654,2.9,11.281.4,1.313.741,2.325.982,3.006A3.722,3.722,0,0,0,91,130.847a31.188,31.188,0,0,0-.948-4.159c-.659-2.66-1.649-6.5-2.508-11.311a61.575,61.575,0,0,1-.877-17.005,37.683,37.683,0,0,1,2.316-9.72,40.517,40.517,0,0,1,5.285-9.34C98.7,73.376,104.091,68.66,109.021,64.5A171.133,171.133,0,0,1,122.75,54.183c4.051-2.744,7.442-4.8,9.794-6.2a33.364,33.364,0,0,0,3.624-2.249" transform="translate(41.098 22.024)" fill="#455a64"/><path d="M97.622,113.353a16.681,16.681,0,0,0,2.208-2.427l5.657-6.893c4.732-5.854,11.2-13.99,18.288-23.022s13.451-17.258,18.008-23.25c2.148-2.864,3.943-5.258,5.347-7.134a16.8,16.8,0,0,0,1.831-2.722,16.542,16.542,0,0,0-2.2,2.421l-5.654,6.89C136.37,63.07,129.9,71.21,122.805,80.25S109.352,97.512,104.794,103.5l-5.346,7.133a16.637,16.637,0,0,0-1.827,2.717" transform="translate(47.019 23.073)" fill="#e0e0e0"/><path d="M131.3,101.781c-.083.209-1.563-.316-3.354.1-1.8.367-2.932,1.456-3.094,1.3-.188-.093.849-1.617,2.929-2.055,2.076-.464,3.651.493,3.519.656" transform="translate(60.128 48.648)" fill="#eb996e"/><path d="M118.693,86.367c.022.206-1.5.526-3.4.407s-3.372-.618-3.325-.819,1.542-.059,3.374.049,3.334.145,3.353.363" transform="translate(53.93 41.35)" fill="#eb996e"/><path d="M117.476,87.084c.027.216-1.019.526-2.283.926s-2.3.736-2.4.544.834-.862,2.171-1.28,2.489-.4,2.514-.19" transform="translate(54.324 41.876)" fill="#eb996e"/><path d="M154.618,84.836c.073.2-.788.7-1.926,1.117s-2.117.593-2.191.393.79-.7,1.926-1.117,2.119-.593,2.191-.393" transform="translate(72.489 40.823)" fill="#eb996e"/><path d="M154.392,87.681c-.07.2-1.016.058-2.116-.32s-1.935-.848-1.865-1.049,1.016-.058,2.116.32,1.935.848,1.865,1.049" transform="translate(72.446 41.53)" fill="#eb996e"/></g></g></g><g transform="translate(180 7351.733)"><g clip-path="url(#aa)"><rect width="74.815" height="34.945" transform="translate(97.313 1.249)" fill="#407bff"/><g transform="translate(0 0)"><g clip-path="url(#ab)"><g transform="translate(97.314 1.25)" opacity="0.6" style="isolation:isolate"><g clip-path="url(#ac)"><rect width="74.815" height="34.945" transform="translate(0 -0.001)" fill="#fff"/></g></g><g transform="translate(118.606 6.483)" opacity="0.2" style="isolation:isolate"><g clip-path="url(#ad)"><path d="M146.914,5.1H93.391l53.523,1.57Z" transform="translate(-93.391 -5.104)"/></g></g><g transform="translate(108.486 11.069)" opacity="0.2" style="isolation:isolate"><g clip-path="url(#ae)"><path d="M85.422,9.316l49.539-.6L85.422,10.881Z" transform="translate(-85.422 -8.716)"/></g></g><g transform="translate(120.176 18.442)" opacity="0.2" style="isolation:isolate"><g clip-path="url(#af)"><path d="M146.58,14.521c-1.2.076-51.953,1.123-51.953,1.123l51.953,1.99Z" transform="translate(-94.627 -14.521)"/></g></g><g transform="translate(108.486 25.871)" opacity="0.2" style="isolation:isolate"><g clip-path="url(#ag)"><path d="M85.422,20.37l39.422.845-39.422.872Z" transform="translate(-85.422 -20.37)"/></g></g><g transform="translate(133.955 29.93)" opacity="0.2" style="isolation:isolate"><g clip-path="url(#ah)"><path d="M143.651,23.567l-38.175,1.4h38.175Z" transform="translate(-105.477 -23.567)"/></g></g></g></g><path d="M0,0V37.445H175.454V34.628H108.487V2.818h66.967V0Z" fill="#2ff980"/><g transform="translate(0 0)"><g clip-path="url(#ab)"><g transform="translate(103.565 0)" opacity="0.2" style="isolation:isolate"><g clip-path="url(#aj)"><path d="M86.468,2.817V34.628h66.967v2.817H81.548V0h71.887V2.817Z" transform="translate(-81.548 0)"/></g></g><g transform="translate(34.885 12.366)" opacity="0.6" style="isolation:isolate"><g clip-path="url(#ak)"><rect width="56.089" height="12.713" transform="translate(-0.001 -0.001)" fill="#fff"/></g></g><g transform="translate(11.862 11.121)" opacity="0.6" style="isolation:isolate"><g clip-path="url(#al)"><path d="M24.543,16.358a7.6,7.6,0,1,1-7.6-7.6,7.6,7.6,0,0,1,7.6,7.6" transform="translate(-9.34 -8.757)" fill="#fff"/></g></g><g transform="translate(13.846 13.106)" opacity="0.2" style="isolation:isolate"><g clip-path="url(#am)"><path d="M21.892,17.573a5.616,5.616,0,1,1-3.735-7.009,5.618,5.618,0,0,1,3.735,7.009" transform="translate(-10.903 -10.319)"/></g></g></g></g><rect width="74.815" height="34.945" transform="translate(111.86 38.695)" fill="#407bff"/><g transform="translate(0 0)"><g clip-path="url(#ab)"><g transform="translate(111.86 38.695)" opacity="0.6" style="isolation:isolate"><g clip-path="url(#ac)"><rect width="74.815" height="34.945" transform="translate(-0.001 0)" fill="#fff"/></g></g><g transform="translate(133.153 43.928)" opacity="0.2" style="isolation:isolate"><g clip-path="url(#ad)"><path d="M158.368,34.589H104.844l53.524,1.57Z" transform="translate(-104.845 -34.589)"/></g></g><g transform="translate(123.032 48.514)" opacity="0.2" style="isolation:isolate"><g clip-path="url(#ae)"><path d="M96.876,38.8l49.539-.6L96.876,40.365Z" transform="translate(-96.876 -38.2)"/></g></g><g transform="translate(134.722 55.887)" opacity="0.2" style="isolation:isolate"><g clip-path="url(#af)"><path d="M158.034,44.005c-1.2.076-51.954,1.123-51.954,1.123l51.954,1.99Z" transform="translate(-106.081 -44.005)"/></g></g><g transform="translate(123.032 63.315)" opacity="0.2" style="isolation:isolate"><g clip-path="url(#ag)"><path d="M96.876,49.855,136.3,50.7l-39.422.872Z" transform="translate(-96.876 -49.855)"/></g></g><g transform="translate(148.5 67.375)" opacity="0.2" style="isolation:isolate"><g clip-path="url(#at)"><path d="M155.105,53.051l-38.175,1.4h38.175Z" transform="translate(-116.93 -53.051)"/></g></g></g></g><path d="M11.454,29.484V66.93H186.908V64.112H119.94V32.3h66.968V29.484Z" transform="translate(3.093 7.961)" fill="#45bbcc"/><g transform="translate(0 0)"><g clip-path="url(#ab)"><g transform="translate(118.112 37.445)" opacity="0.2" style="isolation:isolate"><g clip-path="url(#aj)"><path d="M97.922,32.3V64.112h66.967v2.817H93V29.485h71.887V32.3Z" transform="translate(-93.002 -29.484)"/></g></g><g transform="translate(49.432 49.811)" opacity="0.6" style="isolation:isolate"><g clip-path="url(#ak)"><rect width="56.088" height="12.713" transform="translate(0 0)" fill="#fff"/></g></g><g transform="translate(26.408 48.566)" opacity="0.6" style="isolation:isolate"><g clip-path="url(#al)"><path d="M36,45.842a7.6,7.6,0,1,1-7.6-7.6,7.6,7.6,0,0,1,7.6,7.6" transform="translate(-20.794 -38.241)" fill="#fff"/></g></g><g transform="translate(28.393 50.55)" opacity="0.2" style="isolation:isolate"><g clip-path="url(#am)"><path d="M33.346,47.057a5.616,5.616,0,1,1-3.735-7.009,5.618,5.618,0,0,1,3.735,7.009" transform="translate(-22.357 -39.803)"/></g></g></g></g><rect width="74.815" height="34.945" transform="translate(101.445 76.095)" fill="#407bff"/><g transform="translate(0 0)"><g clip-path="url(#ab)"><g transform="translate(101.444 76.097)" opacity="0.6" style="isolation:isolate"><g clip-path="url(#ac)"><rect width="74.815" height="34.945" transform="translate(-0.001 0)" fill="#fff"/></g></g><g transform="translate(122.736 81.329)" opacity="0.2" style="isolation:isolate"><g clip-path="url(#ad)"><path d="M150.166,64.039H96.642l53.524,1.57Z" transform="translate(-96.643 -64.039)"/></g></g><g transform="translate(112.616 85.916)" opacity="0.2" style="isolation:isolate"><g clip-path="url(#ae)"><path d="M88.674,68.25l49.539-.6L88.674,69.815Z" transform="translate(-88.674 -67.65)"/></g></g><g transform="translate(124.306 93.288)" opacity="0.2" style="isolation:isolate"><g clip-path="url(#af)"><path d="M149.832,73.455c-1.2.076-51.953,1.123-51.953,1.123l51.953,1.99Z" transform="translate(-97.879 -73.456)"/></g></g><g transform="translate(112.616 100.717)" opacity="0.2" style="isolation:isolate"><g clip-path="url(#ag)"><path d="M88.674,79.3l39.422.845-39.422.872Z" transform="translate(-88.674 -79.305)"/></g></g><g transform="translate(138.085 104.776)" opacity="0.2" style="isolation:isolate"><g clip-path="url(#ah)"><path d="M146.9,82.5l-38.175,1.4H146.9Z" transform="translate(-108.729 -82.501)"/></g></g></g></g><path d="M3.253,58.935V96.379H178.7V93.561H111.738V61.752H178.7V58.935Z" transform="translate(0.878 15.912)" fill="#583ae2"/><g transform="translate(0 0)"><g clip-path="url(#ab)"><g transform="translate(107.695 74.847)" opacity="0.2" style="isolation:isolate"><g clip-path="url(#aj)"><path d="M89.72,61.752V93.562h66.968v2.817H84.8V58.935h71.888v2.817Z" transform="translate(-84.8 -58.934)"/></g></g><g transform="translate(39.015 87.213)" opacity="0.6" style="isolation:isolate"><g clip-path="url(#ak)"><rect width="56.089" height="12.713" transform="translate(-0.001 0)" fill="#fff"/></g></g><g transform="translate(15.992 85.968)" opacity="0.6" style="isolation:isolate"><g clip-path="url(#al)"><path d="M27.8,75.293a7.6,7.6,0,1,1-7.6-7.6,7.6,7.6,0,0,1,7.6,7.6" transform="translate(-12.592 -67.691)" fill="#fff"/></g></g><g transform="translate(17.976 87.952)" opacity="0.2" style="isolation:isolate"><g clip-path="url(#am)"><path d="M25.144,76.507A5.616,5.616,0,1,1,21.409,69.5a5.616,5.616,0,0,1,3.735,7.009" transform="translate(-14.155 -69.254)"/></g></g></g></g></g></g><ellipse cx="11.5" cy="11.5" rx="11.5" ry="11.5" transform="translate(195 6876.908)" fill="#2ff980"/><g transform="translate(228 6827.908)" fill="none" stroke="#583ae2" stroke-width="15"><ellipse cx="36" cy="36" rx="36" ry="36" stroke="none"/><ellipse cx="36" cy="36" rx="28.5" ry="28.5" fill="none"/></g><g transform="translate(424 6796.104)"><g clip-path="url(#bl)"><g transform="translate(0.001)"><g clip-path="url(#bm)"><path d="M3.515,59.55A56.035,56.035,0,1,0,59.551,3.514,56.035,56.035,0,0,0,3.515,59.55" transform="translate(3.163 3.164)" fill="#407bff"/><g transform="translate(6.678 6.679)" opacity="0.5"><g clip-path="url(#bn)"><path d="M3.515,59.55A56.035,56.035,0,1,0,59.551,3.514,56.035,56.035,0,0,0,3.515,59.55" transform="translate(-3.515 -3.515)" fill="#583ae2"/></g></g><path d="M17.64,12.049V79.892L29.451,91.681h46.57V12.049Z" transform="translate(15.883 10.849)" fill="#263238"/><g transform="translate(33.523 22.899)" opacity="0.9"><g transform="translate(0)"><g clip-path="url(#bo)"><path d="M17.64,12.049V79.892L29.451,91.681h46.57V12.049Z" transform="translate(-17.64 -12.049)" fill="#fff"/></g></g></g><g transform="translate(33.523 90.742)" opacity="0.2" style="isolation:isolate"><g transform="translate(0)"><g transform="translate(0)" clip-path="url(#bp)"><path d="M42.145,47.748,53.956,59.537V47.748Z" transform="translate(-42.145 -47.748)"/></g></g></g><g transform="translate(40.558 32.097)" opacity="0.2" style="isolation:isolate"><g transform="translate(0)"><g transform="translate(0)" clip-path="url(#bq)"><rect width="37.602" height="2.237" transform="translate(0.001 0)"/><rect width="44.312" height="2.237" transform="translate(0.001 5.604)"/><rect width="44.312" height="2.237" transform="translate(0.001 11.21)"/><rect width="15.232" height="2.237" transform="translate(29.079 16.813)"/><rect width="37.602" height="2.237" transform="translate(0.001 22.417)"/><rect width="44.312" height="2.237" transform="translate(0.001 28.021)"/><rect width="44.312" height="2.237" transform="translate(0.001 33.628)"/><rect width="44.312" height="2.237" transform="translate(0.001 39.23)"/><rect width="44.312" height="2.237" transform="translate(0.001 44.834)"/><rect width="28.655" height="2.237" transform="translate(15.659 50.439)"/></g></g></g><path d="M31.388,8.8a61.715,61.715,0,1,0,84.3,22.588A61.712,61.712,0,0,0,31.388,8.8Z" transform="translate(0.469 0.469)" fill="none" stroke="#4c5af0" stroke-miterlimit="10" stroke-width="1.041" stroke-dasharray="12.883 5.368 2.147 12.883 5.368 2.147"/><path d="M7.224,65.472V79.784l47.723,47.723" transform="translate(56.752 58.952)" fill="none" stroke="#4c5af0" stroke-miterlimit="10" stroke-width="1.041"/><path d="M4.844,104.222a3.932,3.932,0,1,0,0-5.561A3.932,3.932,0,0,0,4.844,104.222Z" transform="translate(106.856 87.798)" fill="none" stroke="#407bff" stroke-miterlimit="10" stroke-width="1.041"/></g></g></g></g></g></g></svg>