<svg xmlns="http://www.w3.org/2000/svg" xmlns:xlink="http://www.w3.org/1999/xlink" width="58" height="58" viewBox="0 0 58 58"><defs><clipPath id="a"><rect width="58" height="58" transform="translate(584.081 3430)" fill="#fff" stroke="#707070" stroke-width="1"/></clipPath></defs><g transform="translate(-1330 -546)"><g transform="translate(745.919 -2884)" clip-path="url(#a)"><g transform="translate(583.991 3430)"><path d="M14.873,9H53.6a3.873,3.873,0,0,1,3.873,3.873V42.886a2.9,2.9,0,0,1-2.9,2.9H13.9a2.9,2.9,0,0,1-2.9-2.9V12.873A3.873,3.873,0,0,1,14.873,9Z" transform="translate(-2.286 -2.223)" fill="#4db7e5"/><path d="M54.968,9H54V45.791h1.936V9.122A3.881,3.881,0,0,0,54.968,9Z" transform="translate(-3.655 -2.223)" fill="#48add9"/><path d="M48.918,3H19.873A3.873,3.873,0,0,0,16,6.873V47.536H52.791V6.873A3.873,3.873,0,0,0,48.918,3Z" transform="translate(-2.446 -2.032)" fill="#583ae2"/><path d="M52.838,12.5,17.5,47.838H52.838Z" transform="translate(-2.493 -2.334)" fill="#3b1fbb"/><path d="M47.173,27.586q0,.488-.036.968a12.57,12.57,0,0,1-10.8,11.5c-.259.038-.52.065-.784.086q-.479.036-.968.036t-.968-.036c-.264-.021-.525-.048-.784-.086a12.426,12.426,0,0,1-2.931-.778,12.585,12.585,0,0,1-7.866-10.718Q22,28.075,22,27.586t.036-.968A12.571,12.571,0,0,1,32.7,15.142q.456-.069.921-.105T34.586,15q.489,0,.968.036c.264.021.525.048.784.086a12.42,12.42,0,0,1,2.929.777,12.629,12.629,0,0,1,6.487,5.878,12.485,12.485,0,0,1,1.382,4.841Q47.173,27.1,47.173,27.586Z" transform="translate(-2.637 -2.414)" fill="#2ff980"/><path d="M47.136,28.554q.036-.479.036-.968t-.036-.968H42.313a24.625,24.625,0,0,0-.663-4.841h4.1a12.513,12.513,0,0,0-1.247-1.936H41.09A19.91,19.91,0,0,0,39.267,15.9a12.42,12.42,0,0,0-2.929-.777l.675.871a16.96,16.96,0,0,1,2.02,3.847H35.554v-4.8Q35.075,15,34.586,15t-.968.036v4.8H30.139a16.9,16.9,0,0,1,2.031-3.862c.012-.016.022-.033.033-.048l.495-.789a12.464,12.464,0,0,0-2.792.758,19.847,19.847,0,0,0-1.823,3.942H24.665a12.512,12.512,0,0,0-1.247,1.936h4.1a24.6,24.6,0,0,0-.663,4.841H22.036Q22,27.1,22,27.586t.036.968H26.86a24.261,24.261,0,0,0,.925,5.809H23.978A12.636,12.636,0,0,0,25.5,36.3h2.936A18.836,18.836,0,0,0,29.9,39.272a12.426,12.426,0,0,0,2.931.778l-.675-.873A16.033,16.033,0,0,1,30.536,36.3h3.082v3.836q.479.036.968.036t.968-.036V36.3h3.082a15.969,15.969,0,0,1-1.623,2.878l-.675.873a12.425,12.425,0,0,0,2.931-.778A18.729,18.729,0,0,0,40.732,36.3h2.936A12.635,12.635,0,0,0,45.2,34.363H41.388a24.3,24.3,0,0,0,.925-5.809ZM33.618,34.363H29.81A22.135,22.135,0,0,1,28.8,28.554h4.82Zm0-7.745H28.8a22.5,22.5,0,0,1,.722-4.841h4.1Zm5.745,7.745H35.554V28.554h4.82A22.179,22.179,0,0,1,39.363,34.363Zm-3.809-7.745V21.777h4.1a22.533,22.533,0,0,1,.722,4.841Z" transform="translate(-2.637 -2.414)" fill="#60d1e0"/><path d="M40.549,45.968a3.305,3.305,0,0,1-2.337.968H30.3a3.306,3.306,0,0,1-2.337-.968A3.305,3.305,0,0,0,25.625,45H9v2.9a2.9,2.9,0,0,0,2.9,2.9H56.441a2.9,2.9,0,0,0,2.9-2.9V45H42.886a3.306,3.306,0,0,0-2.337.968Z" transform="translate(-2.223 -3.369)" fill="#e0e0de"/><path d="M56.9,45v2.9a2.9,2.9,0,0,1-2.9,2.9h3.873a2.9,2.9,0,0,0,2.9-2.9V45Z" transform="translate(-3.655 -3.369)" fill="#d6d6d4"/><path d="M30.109,46.178v12.1a2.152,2.152,0,0,1-.3,1.1,2.174,2.174,0,0,1-1.881,1.081H5.178A2.174,2.174,0,0,1,3.3,59.378a2.151,2.151,0,0,1-.3-1.1v-12.1a2.152,2.152,0,0,1,.3-1.1A2.174,2.174,0,0,1,5.178,44H27.93a2.174,2.174,0,0,1,1.881,1.081A2.152,2.152,0,0,1,30.109,46.178Z" transform="translate(-2.032 -3.337)" fill="#5f4ea6"/><path d="M29.821,45.081c-3,1.669-7.819,2.752-13.257,2.752S6.305,46.75,3.308,45.081A2.174,2.174,0,0,1,5.188,44H27.94a2.174,2.174,0,0,1,1.881,1.081Z" transform="translate(-2.042 -3.337)" fill="#9080d4"/><path d="M29.821,59.793a2.174,2.174,0,0,1-1.881,1.081H5.188a2.174,2.174,0,0,1-1.881-1.081c3-1.669,7.819-2.752,13.257-2.752s10.259,1.083,13.257,2.752Z" transform="translate(-2.042 -3.752)" fill="#483791"/><path d="M16.65,27A10.65,10.65,0,0,0,6,37.65v5.809H9.873V37.65a6.777,6.777,0,0,1,13.554,0v5.809H27.3V37.65A10.65,10.65,0,0,0,16.65,27Z" transform="translate(-2.127 -2.796)" fill="#e0e0de"/><path d="M19.809,51.9a2.9,2.9,0,1,0-3.873,2.726v2.115h1.936V54.63A2.9,2.9,0,0,0,19.809,51.9Z" transform="translate(-2.382 -3.495)" fill="#2ff980"/><path d="M59.377,42.663h-.968V12.65a4.846,4.846,0,0,0-4.841-4.841V6.841A4.846,4.846,0,0,0,48.727,2H19.682a4.846,4.846,0,0,0-4.841,4.841v.968A4.846,4.846,0,0,0,10,12.65V24.268h1.936V12.65a2.908,2.908,0,0,1,2.9-2.9V23.3h1.936V6.841a2.908,2.908,0,0,1,2.9-2.9H48.727a2.908,2.908,0,0,1,2.9,2.9V39.759h1.936V9.745a2.908,2.908,0,0,1,2.9,2.9V42.663H42.918A4.24,4.24,0,0,0,39.9,43.915a2.328,2.328,0,0,1-1.658.685H33.236v1.936h5.005a4.252,4.252,0,0,0,3.028-1.252,2.317,2.317,0,0,1,1.649-.685H58.409v1.936a1.939,1.939,0,0,1-1.936,1.936H33.236v1.936H56.472a3.877,3.877,0,0,0,3.873-3.873v-2.9a.968.968,0,0,0-.968-.968Z" transform="translate(-2.255 -2)"/><path d="M15,34h1.936v6.777H15Z" transform="translate(-2.414 -3.018)"/><path d="M20,6h1.936V7.936H20Z" transform="translate(-2.573 -2.127)"/><path d="M24,6h1.936V7.936H24Z" transform="translate(-2.7 -2.127)"/><path d="M28,6h1.936V7.936H28Z" transform="translate(-2.827 -2.127)"/><path d="M20,10H49.045v1.936H20Z" transform="translate(-2.573 -2.255)"/><path d="M31.6,38.787c-.2-.053-.411-.112-.614-.178L30.4,40.453c.238.076.481.147.717.208a13.553,13.553,0,1,0-7.964-20.407,13.384,13.384,0,0,0-1.776,4.174l1.884.446a11.443,11.443,0,0,1,1.249-3.127H27.5a24.735,24.735,0,0,0-.682,5.809c0,.67.027,1.348.08,2.014l1.93-.154c-.024-.3-.041-.593-.054-.891H33.6v5.809h-2.9v1.936h2.9v2.861a11.594,11.594,0,0,1-1.995-.342Zm10.638-2.519a11.664,11.664,0,0,1-2.2,1.531c.243-.5.47-1,.674-1.531ZM44,34.332H41.367a24.349,24.349,0,0,0,.926-5.809h3.853A11.414,11.414,0,0,1,44,34.332Zm-12.044-18.1A11.565,11.565,0,0,1,33.6,15.98v3.829H30.122a17.121,17.121,0,0,1,1.832-3.574Zm3.581-.256a11.587,11.587,0,0,1,1.645.256,17.118,17.118,0,0,1,1.832,3.573H35.535Zm4.1,5.766a22.518,22.518,0,0,1,.722,4.841h-4.82V21.745Zm6.511,4.841h-3.85a24.567,24.567,0,0,0-.663-4.841h2.994a11.508,11.508,0,0,1,1.518,4.841Zm-2.922-6.777H41.069A20.8,20.8,0,0,0,40.029,17.3a11.511,11.511,0,0,1,3.192,2.513ZM29.1,17.3a20.8,20.8,0,0,0-1.039,2.513H25.911A11.509,11.509,0,0,1,29.1,17.3Zm-.326,9.29a22.51,22.51,0,0,1,.722-4.841h4.1v4.841Zm6.757,1.936h4.821a22.177,22.177,0,0,1-1.013,5.809H35.535Zm3.08,7.745a16.146,16.146,0,0,1-1.433,2.6,11.548,11.548,0,0,1-1.647.257V36.268Z" transform="translate(-2.617 -2.382)"/><path d="M28.141,42.478v-4.86a11.618,11.618,0,0,0-23.236,0v4.86A3.26,3.26,0,0,0,2,45.714V57.6a3.259,3.259,0,0,0,3.255,3.255H27.79A3.259,3.259,0,0,0,31.045,57.6V45.714a3.26,3.26,0,0,0-2.9-3.236ZM16.523,27.936A9.693,9.693,0,0,1,26.2,37.618v4.841H24.268V37.618a7.745,7.745,0,0,0-15.491,0v4.841H6.841V37.618A9.693,9.693,0,0,1,16.523,27.936Zm5.809,14.523H10.714V37.618a5.809,5.809,0,1,1,11.618,0ZM29.109,57.6a1.321,1.321,0,0,1-1.319,1.319H5.255A1.321,1.321,0,0,1,3.936,57.6V45.714A1.321,1.321,0,0,1,5.255,44.4H27.79a1.321,1.321,0,0,1,1.319,1.319Z" transform="translate(-2 -2.764)"/><path d="M16.9,49a2.9,2.9,0,0,0-.968,5.643v2.1h1.936v-2.1A2.9,2.9,0,0,0,16.9,49Zm0,3.873a.968.968,0,1,1,.968-.968A.968.968,0,0,1,16.9,52.873Z" transform="translate(-2.382 -3.496)"/></g></g></g></svg>