<svg xmlns="http://www.w3.org/2000/svg" xmlns:xlink="http://www.w3.org/1999/xlink" width="114" height="115" viewBox="0 0 114 115"><defs><filter id="a" x="1.813" y="4" width="111" height="111" filterUnits="userSpaceOnUse"><feOffset dy="3" input="SourceAlpha"/><feGaussianBlur stdDeviation="3" result="b"/><feFlood flood-opacity="0.161"/><feComposite operator="in" in2="b"/><feComposite in="SourceGraphic"/></filter><clipPath id="c"><rect width="114" height="114" transform="translate(0 0.104)" fill="none"/></clipPath><clipPath id="e"><rect width="98" height="98" transform="translate(0.076 0.181)" fill="none"/></clipPath><clipPath id="g"><rect width="29.859" height="40.789" fill="none"/></clipPath><clipPath id="j"><path d="M109.774,85.5c0-2.778-1.017-3.65-4.656-3.912V77.75a10.183,10.183,0,0,0-20.357,0v3.84c-3.638.261-4.655,1.134-4.655,3.912,0,4.5-1.1,13,4.112,18.38s10.722,4.752,10.722,4.752,5.513.625,10.722-4.752S109.774,90,109.774,85.5m-12.058,6.9a2.537,2.537,0,0,1-1.651,2.316v5.227a1.134,1.134,0,0,1-2.258,0V94.722a2.537,2.537,0,0,1-1.651-2.316v-.928a2.792,2.792,0,0,1,5.56,0Zm4.378-10.915c-1.91-.017-4.263.011-7.153.011s-5.244-.028-7.153-.011V77.75c0-1.413,1.273-7.123,7.153-7.123s7.153,5.709,7.153,7.123Z" transform="translate(-80.011 -67.868)" fill="none"/></clipPath><radialGradient id="k" cx="0.5" cy="0.493" r="0.432" gradientTransform="matrix(1.299, 0, 0, -1, 0.387, 3.781)" gradientUnits="objectBoundingBox"><stop offset="0" stop-color="#6c6d71"/><stop offset="0.006" stop-color="#6c6d71"/><stop offset="0.354" stop-color="#6a6967"/><stop offset="0.583" stop-color="#5b5d5e"/><stop offset="0.674" stop-color="#54585a"/><stop offset="1" stop-color="#424648"/></radialGradient><clipPath id="l"><rect width="29.859" height="40.789" fill="#00ffe6"/></clipPath><clipPath id="m"><path d="M109.774,85.5c0-2.778-1.017-3.65-4.656-3.912V77.75a10.183,10.183,0,0,0-20.357,0v3.84c-3.638.261-4.655,1.134-4.655,3.912,0,4.5-1.1,13,4.112,18.38s10.722,4.752,10.722,4.752,5.513.625,10.722-4.752S109.774,90,109.774,85.5m-12.058,6.9a2.537,2.537,0,0,1-1.651,2.316v5.227a1.134,1.134,0,0,1-2.258,0V94.722a2.537,2.537,0,0,1-1.651-2.316v-.928a2.792,2.792,0,0,1,5.56,0Zm4.378-10.915c-1.91-.017-4.263.011-7.153.011s-5.244-.028-7.153-.011V77.75c0-1.413,1.273-7.123,7.153-7.123s7.153,5.709,7.153,7.123Z" transform="translate(-80.011 -67.868)" fill="#00ffe6"/></clipPath><clipPath id="o"><rect width="59.488" height="59.489" fill="#2ff980"/></clipPath><clipPath id="p"><rect width="0.721" height="15.573" fill="none"/></clipPath><clipPath id="q"><path d="M135.713,109.486c-.2,0-.36-3.487-.36-7.787s.161-7.786.36-7.786.36,3.486.36,7.786-.161,7.787-.36,7.787" transform="translate(-135.353 -93.913)" fill="none"/></clipPath><radialGradient id="r" cx="0.5" cy="0.5" r="0.499" gradientTransform="matrix(0, 1, 0.708, 0, -89.841, 91.05)" gradientUnits="objectBoundingBox"><stop offset="0" stop-color="#fff"/><stop offset="0.006" stop-color="#fff"/><stop offset="0.143" stop-color="#c9c9c9"/><stop offset="0.317" stop-color="#8d8d8d"/><stop offset="0.484" stop-color="#5a5a5a"/><stop offset="0.64" stop-color="#333"/><stop offset="0.783" stop-color="#171717"/><stop offset="0.908" stop-color="#060606"/><stop offset="1"/></radialGradient><clipPath id="v"><rect width="14.1" height="0.653" fill="none"/></clipPath><clipPath id="w"><path d="M95.123,93.621c0-.181,3.157-.327,7.05-.327s7.05.146,7.05.327-3.156.326-7.05.326-7.05-.146-7.05-.326" transform="translate(-95.123 -93.294)" fill="none"/></clipPath><radialGradient id="x" cx="0.5" cy="0.5" r="9.464" gradientTransform="matrix(-0.053, 0, 0, 0.037, -3.751, 83.823)" xlink:href="#r"/><clipPath id="ab"><rect width="95" height="95" transform="translate(-0.037 -0.404)" fill="none"/></clipPath></defs><g transform="translate(-189 -784)"><g transform="matrix(1, 0, 0, 1, 189, 784)" filter="url(#a)"><rect width="93" height="93" rx="10" transform="translate(10.81 10)" fill="#40327b"/></g><g transform="translate(189 783.896)" clip-path="url(#c)"><g clip-path="url(#c)"><g transform="translate(42.267 35.852)" style="mix-blend-mode:soft-light;isolation:isolate"><g clip-path="url(#g)"><path d="M94.942,68.4a9.544,9.544,0,0,1,9.649,9.354v4.332l.491.035c3.563.257,4.165,1.07,4.165,3.386,0,.62.021,1.317.042,2.057.135,4.568.339,11.471-4.005,15.956-4.033,4.164-8.192,4.614-9.793,4.614-.312,0-.489-.018-.49-.018l-.059-.007-.059.006s-.178.019-.491.019c-1.6,0-5.76-.45-9.793-4.614-4.344-4.485-4.14-11.388-4.005-15.955.022-.739.043-1.437.043-2.057,0-2.315.6-3.129,4.164-3.386l.49-.035V77.75A9.544,9.544,0,0,1,94.942,68.4M87.26,82.024l.533-.005c.453,0,.93-.006,1.434-.006q1.12,0,2.418.007c1.012,0,2.109.009,3.3.009s2.283,0,3.294-.009c.867,0,1.672-.007,2.419-.007q.756,0,1.435.006l.533.005V77.75c0-1.518-1.367-7.651-7.681-7.651S87.26,76.232,87.26,77.75v4.274m6.019,13.033v4.892a1.661,1.661,0,0,0,3.315,0V95.057a3.03,3.03,0,0,0,1.651-2.651v-.928a3.318,3.318,0,0,0-6.618,0v.928a3.03,3.03,0,0,0,1.651,2.651m1.662-27.189A10.076,10.076,0,0,0,84.763,77.75v3.84c-3.638.261-4.655,1.134-4.655,3.912,0,4.5-1.1,13,4.111,18.38a14.409,14.409,0,0,0,10.173,4.774,5.434,5.434,0,0,0,.549-.022,5.428,5.428,0,0,0,.549.022,14.409,14.409,0,0,0,10.173-4.774c5.208-5.377,4.111-13.878,4.111-18.38,0-2.779-1.017-3.651-4.656-3.912V77.75a10.075,10.075,0,0,0-10.177-9.882M87.788,81.49V77.75c0-1.413,1.272-7.123,7.153-7.123s7.153,5.709,7.153,7.123v3.74q-.681-.006-1.44-.006c-1.62,0-3.511.016-5.714.016s-4.095-.016-5.715-.016q-.758,0-1.438.006m7.148,19.489a1.083,1.083,0,0,1-1.129-1.031V94.722a2.537,2.537,0,0,1-1.651-2.316v-.928a2.792,2.792,0,0,1,5.561,0v.928a2.537,2.537,0,0,1-1.651,2.316v5.227a1.083,1.083,0,0,1-1.129,1.031" transform="translate(-80.011 -67.868)" fill="#fff"/></g></g><g transform="translate(42.267 35.852)" style="mix-blend-mode:soft-light;isolation:isolate"><g clip-path="url(#g)"><path d="M94.942,68.4a9.544,9.544,0,0,1,9.649,9.354v4.332l.491.035c3.563.257,4.165,1.07,4.165,3.386,0,.62.021,1.317.042,2.057.135,4.568.339,11.471-4.005,15.956-4.033,4.164-8.192,4.614-9.793,4.614-.312,0-.489-.018-.49-.018l-.059-.007-.059.006s-.178.019-.491.019c-1.6,0-5.76-.45-9.793-4.614-4.344-4.485-4.14-11.388-4.005-15.955.022-.739.043-1.437.043-2.057,0-2.315.6-3.129,4.164-3.386l.49-.035V77.75A9.544,9.544,0,0,1,94.942,68.4M87.26,82.024l.533-.005c.453,0,.93-.006,1.434-.006q1.12,0,2.418.007c1.012,0,2.109.009,3.3.009s2.283,0,3.294-.009c.867,0,1.672-.007,2.419-.007q.756,0,1.435.006l.533.005V77.75c0-1.518-1.367-7.651-7.681-7.651S87.26,76.232,87.26,77.75v4.274m6.019,13.033v4.892a1.661,1.661,0,0,0,3.315,0V95.057a3.03,3.03,0,0,0,1.651-2.651v-.928a3.318,3.318,0,0,0-6.618,0v.928a3.03,3.03,0,0,0,1.651,2.651m1.662-27.189A10.076,10.076,0,0,0,84.763,77.75v3.84c-3.638.261-4.655,1.134-4.655,3.912,0,4.5-1.1,13,4.111,18.38a14.409,14.409,0,0,0,10.173,4.774,5.434,5.434,0,0,0,.549-.022,5.428,5.428,0,0,0,.549.022,14.409,14.409,0,0,0,10.173-4.774c5.208-5.377,4.111-13.878,4.111-18.38,0-2.779-1.017-3.651-4.656-3.912V77.75a10.075,10.075,0,0,0-10.177-9.882M87.788,81.49V77.75c0-1.413,1.272-7.123,7.153-7.123s7.153,5.709,7.153,7.123v3.74q-.681-.006-1.44-.006c-1.62,0-3.511.016-5.714.016s-4.095-.016-5.715-.016q-.758,0-1.438.006m7.148,19.489a1.083,1.083,0,0,1-1.129-1.031V94.722a2.537,2.537,0,0,1-1.651-2.316v-.928a2.792,2.792,0,0,1,5.561,0v.928a2.537,2.537,0,0,1-1.651,2.316v5.227a1.083,1.083,0,0,1-1.129,1.031" transform="translate(-80.011 -67.868)" fill="#fff"/></g></g><g transform="translate(42.267 35.852)" style="mix-blend-mode:color-dodge;isolation:isolate"><g clip-path="url(#g)"><g transform="translate(0)"><g clip-path="url(#j)"><rect width="31.86" height="41.391" transform="translate(-1 0)" fill="url(#k)"/></g></g></g></g><g transform="translate(42.267 35.852)" opacity="0.6" style="mix-blend-mode:multiply;isolation:isolate"><g clip-path="url(#l)"><g transform="translate(0)"><g clip-path="url(#m)"><rect width="31.86" height="41.391" transform="translate(-1)" fill="#00ffe6"/></g></g></g></g><g transform="translate(27.438 27.239)" style="mix-blend-mode:overlay;isolation:isolate"><g clip-path="url(#o)"><path d="M81.7,111.054h-.017c-.424,0-.854-.01-1.276-.027l.2-4.741c.357.015.719.023,1.077.023Zm2.59-.113-.41-4.727c.362-.031.727-.071,1.084-.118l.616,4.7c-.425.055-.858.1-1.289.141m-6.468-.136c-.427-.055-.858-.12-1.283-.194l.815-4.674c.358.062.719.117,1.078.163Zm10.313-.453-1.025-4.633c.353-.078.709-.165,1.059-.258l1.228,4.583c-.417.111-.84.215-1.261.308m-14.13-.3c-.416-.11-.836-.233-1.247-.362l1.422-4.526c.345.109.7.211,1.046.3Zm17.865-.79L90.249,104.8c.337-.124.677-.256,1.011-.395l1.82,4.38c-.4.166-.805.325-1.208.471M70.32,108.8c-.4-.164-.8-.341-1.192-.523l2.005-4.3c.329.154.666.3,1,.439Zm25.111-1.111-2.2-4.206c.322-.168.643-.344.954-.525l2.377,4.106c-.37.214-.752.424-1.134.624m-28.605-.611c-.372-.215-.745-.443-1.109-.674l2.549-4c.306.195.621.386.934.568Zm31.926-1.409-2.725-3.883c.3-.209.593-.427.878-.646l2.893,3.762c-.341.261-.692.519-1.045.767m-35.161-.754c-.344-.264-.684-.537-1.012-.813l3.05-3.634c.275.232.562.462.851.684Zm38.19-1.681-3.2-3.5c.266-.244.53-.5.787-.755l3.355,3.356c-.3.305-.621.607-.937.9m-41.115-.883c-.305-.3-.607-.621-.9-.937l3.495-3.207c.244.265.5.53.754.787Zm43.8-1.926-3.632-3.052c.231-.276.462-.563.684-.851l3.761,2.891c-.263.343-.536.684-.812,1.012M58.1,99.435c-.262-.341-.519-.692-.767-1.043l3.881-2.728c.208.3.426.592.647.877Zm48.675-2.142-4-2.553c.2-.305.387-.62.568-.933l4.106,2.376c-.216.371-.442.745-.674,1.11m-50.84-1.088c-.217-.374-.426-.756-.624-1.136l4.2-2.2c.166.317.343.638.525.952Zm52.715-2.324-4.3-2.008c.153-.328.3-.664.44-1l4.383,1.819c-.166.4-.343.8-.525,1.19m-54.44-1.16c-.164-.4-.323-.8-.47-1.207l4.456-1.628c.125.339.257.679.4,1.012ZM110.06,90.25l-4.524-1.425c.108-.343.211-.7.3-1.046L110.424,89c-.112.417-.235.837-.364,1.247m-57.1-1.21c-.112-.416-.216-.84-.309-1.261l4.631-1.028c.078.354.166.709.26,1.059Zm58.026-2.57-4.672-.82c.062-.354.117-.716.164-1.077l4.7.612c-.056.429-.121.861-.2,1.284M52.2,85.223c-.055-.428-.1-.862-.141-1.289l4.726-.412c.031.36.071.723.118,1.082ZM111.4,82.6l-4.739-.2c.015-.36.023-.728.023-1.092V81.24h4.744v.049c0,.451-.01.887-.028,1.315M56.685,81.343H51.941v-.034c0-.418.007-.842.025-1.258l4.74.2c-.014.352-.021.709-.021,1.061Zm49.9-2.278c-.031-.361-.072-.726-.119-1.085l4.7-.623c.056.426.1.859.142,1.288Zm-49.694-.99-4.7-.608c.055-.428.12-.86.194-1.284L57.055,77c-.062.356-.117.719-.163,1.078m49.193-2.24c-.078-.352-.166-.707-.261-1.058l4.58-1.236c.113.417.218.842.311,1.261Zm-48.564-.967-4.585-1.219c.11-.415.232-.835.361-1.247l4.527,1.419c-.108.346-.21.7-.3,1.046M105.165,72.7c-.126-.34-.259-.681-.4-1.013l4.379-1.826c.164.394.323.8.471,1.2Zm-46.6-.929-4.385-1.811c.164-.4.34-.8.522-1.19l4.3,2c-.154.33-.3.667-.439,1m45.274-2.056c-.167-.318-.343-.639-.526-.952l4.1-2.384c.217.372.427.754.627,1.134Zm-43.829-.878L55.9,66.466c.214-.371.44-.745.672-1.11l4,2.547c-.2.307-.386.622-.566.934m42.125-1.911c-.207-.294-.424-.589-.646-.876l3.755-2.9c.264.342.522.693.77,1.044Zm-40.308-.81-3.765-2.887c.263-.343.536-.684.812-1.012l3.635,3.047c-.231.276-.461.563-.682.853m38.256-1.734c-.245-.266-.5-.53-.756-.786l3.348-3.361c.3.3.607.618.9.935Zm-36.1-.73L60.625,60.3c.3-.305.619-.608.936-.9L64.77,62.9c-.265.244-.53.5-.787.755m33.734-1.529c-.277-.232-.563-.461-.852-.681l2.884-3.768c.343.263.684.535,1.013.811Zm-31.278-.632-2.895-3.758c.339-.262.69-.521,1.043-.769l2.73,3.88c-.3.208-.592.426-.879.647m28.637-1.3c-.3-.194-.62-.385-.933-.565l2.368-4.111c.374.215.748.442,1.111.673Zm-25.923-.522-2.381-4.1c.369-.215.751-.425,1.133-.625l2.2,4.2c-.322.169-.643.345-.954.527m23.053-1.048c-.328-.152-.663-.3-1-.438L93.015,53.8c.4.165.8.341,1.192.523Zm-20.127-.4-1.825-4.38c.4-.164.8-.323,1.2-.471l1.633,4.455c-.341.124-.681.258-1.013.4m17.079-.776c-.346-.108-.7-.21-1.049-.3l1.217-4.586c.416.11.834.231,1.247.36Zm-13.989-.278-1.233-4.581c.417-.112.841-.217,1.261-.31l1.031,4.631c-.352.078-.709.166-1.058.26m10.813-.49c-.357-.062-.72-.116-1.078-.162l.6-4.706c.426.054.858.12,1.283.193Zm-7.609-.15-.622-4.7c.427-.057.861-.1,1.29-.142l.417,4.726c-.361.032-.726.072-1.085.119m4.358-.2c-.345-.014-.7-.021-1.045-.021h-.051V51.564h.04q.638,0,1.25.025Z" transform="translate(-51.941 -51.564)" fill="#fff"/></g></g><g transform="translate(71.501 49.611)" style="mix-blend-mode:color-dodge;isolation:isolate"><g clip-path="url(#p)"><g transform="translate(0.001)"><g clip-path="url(#q)"><rect width="0.822" height="15.578" transform="matrix(1, -0.007, 0.007, 1, -0.102, 0.001)" fill="url(#r)"/></g></g></g></g><g transform="translate(71.501 49.611)" style="mix-blend-mode:color-dodge;isolation:isolate"><g clip-path="url(#p)"><g transform="translate(0.001)"><g clip-path="url(#q)"><rect width="0.822" height="15.578" transform="matrix(1, -0.007, 0.007, 1, -0.102, 0.001)" fill="url(#r)"/></g></g></g></g><g transform="translate(50.25 49.284)" style="mix-blend-mode:color-dodge;isolation:isolate"><g clip-path="url(#v)"><g clip-path="url(#w)"><rect width="14.104" height="0.745" transform="translate(-0.004 0) rotate(-0.374)" fill="url(#x)"/></g></g></g><g transform="translate(50.25 49.284)" style="mix-blend-mode:color-dodge;isolation:isolate"><g clip-path="url(#v)"><g clip-path="url(#w)"><rect width="14.104" height="0.745" transform="translate(-0.004 0) rotate(-0.374)" fill="url(#x)"/></g></g></g></g><g clip-path="url(#c)"><path d="M112.124,75.5A36.247,36.247,0,1,1,75.877,39.254,36.247,36.247,0,0,1,112.124,75.5Z" transform="translate(-18.695 -18.518)" fill="none" stroke="#00ffe6" stroke-miterlimit="10" stroke-width="3"/></g></g></g></svg>