<svg xmlns="http://www.w3.org/2000/svg" width="67" height="73" viewBox="0 0 67 73"><g transform="translate(-819 -690.158)"><g transform="translate(0 -32.842)"><g transform="translate(516 -7525.295)"><rect width="67" height="73" rx="5" transform="translate(303 8248.295)" fill="#2ff980"/></g><g transform="translate(827 732.191)"><path d="M72.223,208v12.168a1.8,1.8,0,0,0-.024-.3,1.655,1.655,0,0,0-1.411-1.314,1.374,1.374,0,0,0-.187-.008H68.979v5.678l3.245,3.245v4.867H56v-4.056l3.245-3.245v-4.056H57.622A1.627,1.627,0,0,0,56,222.6V208h4.056v1.622h8.112V208Z" transform="translate(-50.322 -186.91)" fill="#f98800"/><path d="M72.223,208,56,232.335H72.223Z" transform="translate(-50.322 -186.91)" fill="#f05a29"/><path d="M104.112,172.056v1.622H96v-1.622a1.627,1.627,0,0,1,1.622-1.622h.811v-.811A1.627,1.627,0,0,1,100.056,168a1.634,1.634,0,0,1,1.622,1.622v.811h.811a1.627,1.627,0,0,1,1.622,1.622Z" transform="translate(-86.266 -150.966)" fill="#ffec00"/><path d="M88,256h3.245v3.245H88Z" transform="translate(-79.077 -230.043)" fill="#fff"/><path d="M88,320h3.245v3.245H88Z" transform="translate(-79.077 -287.554)" fill="#fff"/><path d="M88,384h3.245v3.245H88Z" transform="translate(-79.077 -345.064)" fill="#fff"/><path d="M16.112,307.245V311.3l-3.245,3.245H8v-8.112L10.434,304h2.434v4.867a1.627,1.627,0,0,1,1.622-1.622Z" transform="translate(-7.189 -273.176)" fill="#fac8b2"/><path d="M220.867,306.434v4.275L216,306.166V304h2.434Z" transform="translate(-194.098 -273.176)" fill="#fac8b2"/><path d="M192,320.923h-4.753L184,317.678V312h1.622a1.373,1.373,0,0,1,.187.008,1.655,1.655,0,0,1,1.411,1.314,1.8,1.8,0,0,1,.024.3v2.863Z" transform="translate(-165.343 -280.365)" fill="#fac8b2"/><path d="M164.243,290.442a1.374,1.374,0,0,0-.187-.008h-1.622v1.46L160,289.622V288h1.622Z" transform="translate(-143.777 -258.798)" fill="#00a8e7"/><path d="M224.112,332.928l-1.622,1.622-1.736-1.622L216,328.491V325.36l4.867,4.543Z" transform="translate(-194.098 -292.37)" fill="#00a8e7"/><path d="M216,400h4.867v10.545H216Z" transform="translate(-194.098 -359.442)" fill="#00587e"/><path d="M8,408h4.867v9.734H8Z" transform="translate(-7.189 -366.631)" fill="#00587e"/><path d="M148.056,249.622h-3.245a.811.811,0,1,1,0-1.622h3.245a.811.811,0,1,1,0,1.622Z" transform="translate(-129.399 -222.854)" fill="#f05a29"/><path d="M145.622,337.622h-.811a.811.811,0,1,1,0-1.622h.811a.811.811,0,1,1,0,1.622Z" transform="translate(-129.399 -301.931)" fill="#f98800"/><path d="M148.056,409.622h-3.245a.811.811,0,1,1,0-1.622h3.245a.811.811,0,1,1,0,1.622Z" transform="translate(-129.399 -366.631)" fill="#f98800"/><ellipse cx="6.5" cy="6" rx="6.5" ry="6" transform="translate(7 0.808)" fill="#ffec00"/><path d="M92.491,22A6.49,6.49,0,0,1,80.36,25.21a6.491,6.491,0,0,0,8.85-8.85A6.485,6.485,0,0,1,92.491,22Z" transform="translate(-72.212 -14.702)" fill="#fcc200"/><g transform="translate(12.979 3.244)"><path d="M130.434,36.867h-1.622a.811.811,0,0,1-.811-.811V32.811a.811.811,0,1,1,1.622,0v2.434h.811a.811.811,0,1,1,0,1.622Z" transform="translate(-128 -32)" fill="#e22526"/><path d="M259.93,224.238a.811.811,0,1,0-1.147,1.147l1.049,1.049h-11.02a.811.811,0,1,0,0,1.622h11.02l-1.049,1.049a.811.811,0,0,0,1.147,1.147l2.434-2.434a.811.811,0,0,0,0-1.147Z" transform="translate(-235.832 -204.533)" fill="#e22526"/><path d="M248.811,80.224h4.056a4.06,4.06,0,0,0,4.056-4.056V70.49a2.436,2.436,0,0,1,2.433-2.434h.475l-1.049,1.049a.811.811,0,0,0,1.147,1.147l2.433-2.434a.811.811,0,0,0,0-1.147l-2.433-2.434a.811.811,0,0,0-1.147,1.147l1.049,1.049h-.475A4.06,4.06,0,0,0,255.3,70.49v5.678a2.436,2.436,0,0,1-2.434,2.434h-4.056a.811.811,0,0,0,0,1.622Z" transform="translate(-235.832 -60.756)" fill="#e22526"/><path d="M259.93,297.972a.811.811,0,0,0-1.147,1.147l1.049,1.049h-.475a2.436,2.436,0,0,1-2.433-2.434v-5.678A4.061,4.061,0,0,0,252.867,288h-4.056a.811.811,0,1,0,0,1.622h4.056a2.436,2.436,0,0,1,2.434,2.433v5.678a4.06,4.06,0,0,0,4.056,4.056h.475l-1.049,1.049a.811.811,0,0,0,1.147,1.147l2.434-2.434a.811.811,0,0,0,0-1.147Z" transform="translate(-235.832 -262.043)" fill="#e22526"/></g><path d="M84.056,248H80.811a.811.811,0,0,0-.811.811v3.245a.811.811,0,0,0,.811.811h3.245a.811.811,0,0,0,.811-.811v-3.245A.811.811,0,0,0,84.056,248Zm-.811,3.245H81.622v-1.622h1.622Z" transform="translate(-71.888 -222.854)"/><path d="M30.567,183.741l-2.987-2.785v-3.922a.811.811,0,0,0-.238-.574l-2.434-2.434a.811.811,0,0,0-.574-.238H22.713v-8.923a.811.811,0,0,0-.811-.811H18.517a2.437,2.437,0,0,0-2.294-1.622A2.445,2.445,0,0,0,13.79,160a2.436,2.436,0,0,0-2.434,2.434,2.437,2.437,0,0,0-2.294,1.622H5.678a.811.811,0,0,0-.811.811v8.923H3.245a.811.811,0,0,0-.574.238L.237,176.46a.811.811,0,0,0-.238.574V194.88a.811.811,0,0,0,.811.811H5.678a.811.811,0,0,0,.811-.811v-4.867h14.6v4.867a.811.811,0,0,0,.811.811h4.867a.811.811,0,0,0,.811-.811v-8.571l.257.24a.811.811,0,0,0,1.128-.019l1.622-1.622a.811.811,0,0,0-.02-1.167Zm-4.609-6.371v2.072L22.6,176.311a2.455,2.455,0,0,0-.514-.9H24Zm-3.72,6.153-2.769-2.77v-4.531h.883l.013,0a.851.851,0,0,1,.7.606l.024,3.073a.811.811,0,0,0,.258.587l3.249,3.033Zm-4.318-8.449-.885-.826v-.459h.492l.905.844A.812.812,0,0,0,17.92,175.074Zm-7.375-10.208a.812.812,0,0,1,.811-.811h.811a.811.811,0,0,0,.811-.811v-.811a.812.812,0,0,1,.811-.811.776.776,0,0,1,.562.233l.016.016a.776.776,0,0,1,.233.562v.811a.811.811,0,0,0,.811.811h.811a.812.812,0,0,1,.811.811v.811H10.545Zm-8.923,12.5,1.958-1.958H4.867v4.056a.811.811,0,0,0,1.622,0,.812.812,0,0,1,.811-.811h.811v2.909l-2.769,2.769H1.622Zm8.112,6.153h1.622v1.622H9.734ZM1.622,194.069v-8.112H4.867v8.112Zm4.867-5.678v-2.909l1.622-1.622v2.1a.811.811,0,0,0,.811.811h3.245a.811.811,0,0,0,.811-.811v-3.245a.811.811,0,0,0-.811-.811H9.734v-1.622h2.434a.811.811,0,0,0,.811-.811v-3.245a.811.811,0,0,0-.811-.811H8.923a.811.811,0,0,0-.811.811v.811H7.3a2.422,2.422,0,0,0-.811.139v-11.5H8.923v.811a.811.811,0,0,0,.811.811h8.112a.811.811,0,0,0,.811-.811v-.811H21.09v9.064a2.458,2.458,0,0,0-.24-.072L18.4,172.385a.811.811,0,0,0-.553-.218H16.223a.811.811,0,0,0-.811.811V174.6a.811.811,0,0,0,.258.593l2.176,2.031v3.866a.811.811,0,0,0,.238.574l3.007,3.007v3.72Zm3.245-9.734v-1.622h1.622v1.622Zm16.223,15.412H22.713v-8.923h3.245Zm2.414-9.24-1.163-1.087h0l-4.5-4.2-.007-.919,3.512,3.278,2.63,2.453Z" transform="translate(0 -143.777)"/><path d="M144.811,249.622h3.245a.811.811,0,1,0,0-1.622h-3.245a.811.811,0,1,0,0,1.622Z" transform="translate(-129.399 -222.854)"/><path d="M144.811,337.622h.811a.811.811,0,1,0,0-1.622h-.811a.811.811,0,1,0,0,1.622Z" transform="translate(-129.399 -301.931)"/><path d="M148.056,408h-3.245a.811.811,0,1,0,0,1.622h3.245a.811.811,0,1,0,0-1.622Z" transform="translate(-129.399 -366.631)"/><path d="M71.3,14.6a7.3,7.3,0,1,1,7.3-7.3A7.309,7.309,0,0,1,71.3,14.6Zm0-12.979A5.678,5.678,0,1,0,76.979,7.3,5.685,5.685,0,0,0,71.3,1.622Z" transform="translate(-57.511 0)"/><path d="M130.434,36.867h-1.622a.811.811,0,0,1-.811-.811V32.811a.811.811,0,1,1,1.622,0v2.434h.811a.811.811,0,1,1,0,1.622Z" transform="translate(-115.021 -28.756)"/><path d="M259.93,224.238a.811.811,0,1,0-1.147,1.147l1.049,1.049h-11.02a.811.811,0,1,0,0,1.622h11.02l-1.049,1.049a.811.811,0,0,0,1.147,1.147l2.434-2.434a.811.811,0,0,0,0-1.147Z" transform="translate(-222.854 -201.288)"/><path d="M248.811,80.224h4.056a4.06,4.06,0,0,0,4.056-4.056V70.49a2.436,2.436,0,0,1,2.433-2.434h.475l-1.049,1.049a.811.811,0,0,0,1.147,1.147l2.433-2.434a.811.811,0,0,0,0-1.147l-2.433-2.434a.811.811,0,0,0-1.147,1.147l1.049,1.049h-.475A4.06,4.06,0,0,0,255.3,70.49v5.678a2.436,2.436,0,0,1-2.434,2.434h-4.056a.811.811,0,0,0,0,1.622Z" transform="translate(-222.854 -57.512)"/><path d="M259.93,297.972a.811.811,0,0,0-1.147,1.147l1.049,1.049h-.475a2.436,2.436,0,0,1-2.433-2.434v-5.678A4.061,4.061,0,0,0,252.867,288h-4.056a.811.811,0,1,0,0,1.622h4.056a2.436,2.436,0,0,1,2.434,2.433v5.678a4.06,4.06,0,0,0,4.056,4.056h.475l-1.049,1.049a.811.811,0,0,0,1.147,1.147l2.434-2.434a.811.811,0,0,0,0-1.147Z" transform="translate(-222.853 -258.799)"/><g transform="translate(40.405 36.346)"><path d="M22.2,16.52a1.808,1.808,0,0,1-1.289-.891.254.254,0,0,0-.221-.128H19.223a.254.254,0,0,0-.221.128,1.808,1.808,0,0,1-1.289.891.254.254,0,0,0-.213.251v1.8a2.416,2.416,0,0,0,2.413,2.521h.078a2.415,2.415,0,0,0,2.421-2.521v-1.8a.254.254,0,0,0-.213-.251ZM21.321,17.8l-1.44,1.44a.254.254,0,0,1-.359,0l-.762-.762a.254.254,0,0,1,.359-.359l.583.583,1.26-1.26a.254.254,0,0,1,.359.359Z" transform="translate(-14.124 -12.459)"/><path d="M10.913,5.581a.254.254,0,1,0,0-.508H9.3V3.781a.592.592,0,0,0-.55-.591,2.211,2.211,0,0,1-.413-.064l.274-.686a.391.391,0,0,1,.364-.246H9.34a.932.932,0,1,0,0-.508H8.979a.9.9,0,0,0-.836.565l-.262.655A1.484,1.484,0,0,1,7.4,2.2a.254.254,0,0,0-.241-.174H6.594V.754a.254.254,0,1,0-.508,0v1.27H5.578V.754a.254.254,0,1,0-.508,0v1.27H4.508a.254.254,0,0,0-.243.179,1.284,1.284,0,0,1-.483.7L3.52,2.25a.9.9,0,0,0-.835-.564H2.323a.932.932,0,1,0,0,.508h.361a.391.391,0,0,1,.364.245l.271.677a2.14,2.14,0,0,1-.413.071.6.6,0,0,0-.546.591v1.3H.75a.254.254,0,0,0,0,.508H2.359V6.09H.75a.254.254,0,0,0,0,.508H2.394a3.428,3.428,0,0,0,.913,1.987l-.259.647a.391.391,0,0,1-.364.246H2.323a.932.932,0,1,0,0,.508h.361a.9.9,0,0,0,.836-.565l.191-.476a3.373,3.373,0,0,0,1.359.625v1.348a.254.254,0,1,0,.508,0V9.64c.078,0,.151.007.216.007H5.87c.065,0,.138,0,.216-.007v1.277a.254.254,0,1,0,.508,0V9.569a3.371,3.371,0,0,0,1.359-.624l.191.476a.9.9,0,0,0,.835.564H9.34a.932.932,0,1,0,0-.508H8.979a.39.39,0,0,1-.364-.245l-.259-.647A3.51,3.51,0,0,0,9.269,6.6h1.644a.254.254,0,1,0,0-.508H9.3V5.581Zm-.678-4.065a.423.423,0,1,1-.423.423.423.423,0,0,1,.423-.423Zm-8.808.847a.423.423,0,1,1,.423-.423A.423.423,0,0,1,1.428,2.363Zm0,7.792a.423.423,0,1,1,.423-.423.423.423,0,0,1-.423.423Zm8.808-.847a.423.423,0,1,1-.423.423.423.423,0,0,1,.423-.423ZM5.87,9.139H5.793A2.924,2.924,0,0,1,2.867,6.11V3.777a.084.084,0,0,1,.077-.084A1.878,1.878,0,0,0,4.687,2.533H6.98A1.871,1.871,0,0,0,8.721,3.7a.083.083,0,0,1,.075.084V6.11A2.926,2.926,0,0,1,5.87,9.139Z"/></g><g transform="translate(40.405 20.122)"><path d="M22.2,16.52a1.808,1.808,0,0,1-1.289-.891.254.254,0,0,0-.221-.128H19.223a.254.254,0,0,0-.221.128,1.808,1.808,0,0,1-1.289.891.254.254,0,0,0-.213.251v1.8a2.416,2.416,0,0,0,2.413,2.521h.078a2.415,2.415,0,0,0,2.421-2.521v-1.8a.254.254,0,0,0-.213-.251ZM21.321,17.8l-1.44,1.44a.254.254,0,0,1-.359,0l-.762-.762a.254.254,0,0,1,.359-.359l.583.583,1.26-1.26a.254.254,0,0,1,.359.359Z" transform="translate(-14.124 -12.459)"/><path d="M10.913,5.581a.254.254,0,1,0,0-.508H9.3V3.781a.592.592,0,0,0-.55-.591,2.211,2.211,0,0,1-.413-.064l.274-.686a.391.391,0,0,1,.364-.246H9.34a.932.932,0,1,0,0-.508H8.979a.9.9,0,0,0-.836.565l-.262.655A1.484,1.484,0,0,1,7.4,2.2a.254.254,0,0,0-.241-.174H6.594V.754a.254.254,0,1,0-.508,0v1.27H5.578V.754a.254.254,0,1,0-.508,0v1.27H4.508a.254.254,0,0,0-.243.179,1.284,1.284,0,0,1-.483.7L3.52,2.25a.9.9,0,0,0-.835-.564H2.323a.932.932,0,1,0,0,.508h.361a.391.391,0,0,1,.364.245l.271.677a2.14,2.14,0,0,1-.413.071.6.6,0,0,0-.546.591v1.3H.75a.254.254,0,0,0,0,.508H2.359V6.09H.75a.254.254,0,0,0,0,.508H2.394a3.428,3.428,0,0,0,.913,1.987l-.259.647a.391.391,0,0,1-.364.246H2.323a.932.932,0,1,0,0,.508h.361a.9.9,0,0,0,.836-.565l.191-.476a3.373,3.373,0,0,0,1.359.625v1.348a.254.254,0,1,0,.508,0V9.64c.078,0,.151.007.216.007H5.87c.065,0,.138,0,.216-.007v1.277a.254.254,0,1,0,.508,0V9.569a3.371,3.371,0,0,0,1.359-.624l.191.476a.9.9,0,0,0,.835.564H9.34a.932.932,0,1,0,0-.508H8.979a.39.39,0,0,1-.364-.245l-.259-.647A3.51,3.51,0,0,0,9.269,6.6h1.644a.254.254,0,1,0,0-.508H9.3V5.581Zm-.678-4.065a.423.423,0,1,1-.423.423.423.423,0,0,1,.423-.423Zm-8.808.847a.423.423,0,1,1,.423-.423A.423.423,0,0,1,1.428,2.363Zm0,7.792a.423.423,0,1,1,.423-.423.423.423,0,0,1-.423.423Zm8.808-.847a.423.423,0,1,1-.423.423.423.423,0,0,1,.423-.423ZM5.87,9.139H5.793A2.924,2.924,0,0,1,2.867,6.11V3.777a.084.084,0,0,1,.077-.084A1.878,1.878,0,0,0,4.687,2.533H6.98A1.871,1.871,0,0,0,8.721,3.7a.083.083,0,0,1,.075.084V6.11A2.926,2.926,0,0,1,5.87,9.139Z"/></g><g transform="translate(40.405 3.898)"><path d="M22.2,16.52a1.808,1.808,0,0,1-1.289-.891.254.254,0,0,0-.221-.128H19.223a.254.254,0,0,0-.221.128,1.808,1.808,0,0,1-1.289.891.254.254,0,0,0-.213.251v1.8a2.416,2.416,0,0,0,2.413,2.521h.078a2.415,2.415,0,0,0,2.421-2.521v-1.8a.254.254,0,0,0-.213-.251ZM21.321,17.8l-1.44,1.44a.254.254,0,0,1-.359,0l-.762-.762a.254.254,0,0,1,.359-.359l.583.583,1.26-1.26a.254.254,0,0,1,.359.359Z" transform="translate(-14.124 -12.459)"/><path d="M10.913,5.581a.254.254,0,1,0,0-.508H9.3V3.781a.592.592,0,0,0-.55-.591,2.211,2.211,0,0,1-.413-.064l.274-.686a.391.391,0,0,1,.364-.246H9.34a.932.932,0,1,0,0-.508H8.979a.9.9,0,0,0-.836.565l-.262.655A1.484,1.484,0,0,1,7.4,2.2a.254.254,0,0,0-.241-.174H6.594V.754a.254.254,0,1,0-.508,0v1.27H5.578V.754a.254.254,0,1,0-.508,0v1.27H4.508a.254.254,0,0,0-.243.179,1.284,1.284,0,0,1-.483.7L3.52,2.25a.9.9,0,0,0-.835-.564H2.323a.932.932,0,1,0,0,.508h.361a.391.391,0,0,1,.364.245l.271.677a2.14,2.14,0,0,1-.413.071.6.6,0,0,0-.546.591v1.3H.75a.254.254,0,0,0,0,.508H2.359V6.09H.75a.254.254,0,0,0,0,.508H2.394a3.428,3.428,0,0,0,.913,1.987l-.259.647a.391.391,0,0,1-.364.246H2.323a.932.932,0,1,0,0,.508h.361a.9.9,0,0,0,.836-.565l.191-.476a3.373,3.373,0,0,0,1.359.625v1.348a.254.254,0,1,0,.508,0V9.64c.078,0,.151.007.216.007H5.87c.065,0,.138,0,.216-.007v1.277a.254.254,0,1,0,.508,0V9.569a3.371,3.371,0,0,0,1.359-.624l.191.476a.9.9,0,0,0,.835.564H9.34a.932.932,0,1,0,0-.508H8.979a.39.39,0,0,1-.364-.245l-.259-.647A3.51,3.51,0,0,0,9.269,6.6h1.644a.254.254,0,1,0,0-.508H9.3V5.581Zm-.678-4.065a.423.423,0,1,1-.423.423.423.423,0,0,1,.423-.423Zm-8.808.847a.423.423,0,1,1,.423-.423A.423.423,0,0,1,1.428,2.363Zm0,7.792a.423.423,0,1,1,.423-.423.423.423,0,0,1-.423.423Zm8.808-.847a.423.423,0,1,1-.423.423.423.423,0,0,1,.423-.423ZM5.87,9.139H5.793A2.924,2.924,0,0,1,2.867,6.11V3.777a.084.084,0,0,1,.077-.084A1.878,1.878,0,0,0,4.687,2.533H6.98A1.871,1.871,0,0,0,8.721,3.7a.083.083,0,0,1,.075.084V6.11A2.926,2.926,0,0,1,5.87,9.139Z"/></g></g></g></g></svg>