<svg xmlns="http://www.w3.org/2000/svg" width="67" height="73" viewBox="0 0 67 73"><g transform="translate(-1134 -690.158)"><g transform="translate(831 -7558.137)"><rect width="67" height="73" rx="5" transform="translate(303 8248.295)" fill="#2ff980"/><g transform="translate(283.787 8261.415)"><g transform="translate(32.513 0.691)"><path d="M79.256,11.553V49.23A4.054,4.054,0,0,1,75.2,53.285H43.388a4.054,4.054,0,0,1-4.053-4.054V20.824a5.066,5.066,0,0,1,1.484-3.583l8.257-8.257A5.063,5.063,0,0,1,52.659,7.5H75.2a4.054,4.054,0,0,1,4.054,4.053Z" transform="translate(-39.335 -7.5)" fill="#e8e8e8"/><path d="M121.323,57.76v29.86a3.671,3.671,0,0,1-3.67,3.67H94.575a3.671,3.671,0,0,1-3.67-3.67v-26.6l6.473-6.933h20.274a3.671,3.671,0,0,1,3.67,3.67Z" transform="translate(-86.154 -49.798)" fill="#e8e8e8"/><path d="M140.432,214.223h25.855v5.612H140.432Z" transform="translate(-131.118 -195.179)" fill="#d3effb"/><path d="M140.432,336.066h25.855v5.612H140.432Z" transform="translate(-131.118 -305.798)" fill="#d3effb"/><path d="M276.385,153.3h4.141v28.061h-4.141Z" transform="translate(-254.547 -139.869)" fill="#583ae2"/><path d="M96.542,153.3v28.061H94.575a3.671,3.671,0,0,1-3.67-3.67V153.3Z" transform="translate(-86.154 -139.869)" fill="#2ff980"/><path d="M90.9,214.22h5.637v5.612H90.9Z" transform="translate(-86.154 -195.177)" fill="#95d6a4"/><path d="M90.9,336.066h5.637v5.612H90.9Z" transform="translate(-86.154 -305.798)" fill="#95d6a4"/><path d="M276.385,214.22h4.141v5.612h-4.141Z" transform="translate(-254.547 -195.177)" fill="#29138b"/><path d="M276.385,336.07h4.141v5.612h-4.141Z" transform="translate(-254.547 -305.801)" fill="#29138b"/><path d="M121.323,57.76v5.469H90.9V57.76a3.656,3.656,0,0,1,.8-2.29l.578-.578a3.656,3.656,0,0,1,2.29-.8h23.077A3.67,3.67,0,0,1,121.323,57.76Z" transform="translate(-86.154 -49.798)" fill="#fff"/><path d="M39.33,20.826v.865a2.965,2.965,0,0,1,2.964-2.964H46.5a4.053,4.053,0,0,0,4.053-4.053V10.465A2.965,2.965,0,0,1,53.52,7.5h-.865a5.071,5.071,0,0,0-3.584,1.484l-8.257,8.257a5.071,5.071,0,0,0-1.484,3.584Z" transform="translate(-39.33 -7.501)" fill="#e4f6ff"/></g><g transform="translate(31.821)"><path d="M68.38,0H45.836a5.72,5.72,0,0,0-4.072,1.686l-.022.023L33.507,9.944a5.725,5.725,0,0,0-1.686,4.072V42.422a4.75,4.75,0,0,0,4.745,4.745H68.38a4.75,4.75,0,0,0,4.745-4.745V4.745A4.75,4.75,0,0,0,68.38,0ZM42.742,2.664l.021-.022a4.321,4.321,0,0,1,.615-.5,3.633,3.633,0,0,0-.33,1.515V7.863a3.324,3.324,0,0,1-.7,2.049.691.691,0,1,0,1.094.844,4.694,4.694,0,0,0,.985-2.894V5.674H64.012a2.983,2.983,0,0,1,2.979,2.979v4.778H37.955v-.825h1.73a4.789,4.789,0,0,0,1.067-.121.691.691,0,1,0-.308-1.347,3.406,3.406,0,0,1-.759.086H35.478a3.633,3.633,0,0,0-1.52.332,4.425,4.425,0,0,1,.527-.637Zm24.249,27.6H59.182v-4.23h7.808ZM37.955,20.426H42.21v4.23H37.955Zm15.705,4.23H43.592v-4.23H53.66v4.23Zm1.382-4.23H57.8v4.23H55.042ZM53.66,26.038v4.23H43.592v-4.23Zm-15.705,0H42.21v4.23H37.955Zm0,5.612H42.21v4.231H37.955Zm5.637,0H53.66v4.231H43.592Zm11.45,0H57.8v4.231H55.042Zm0-1.382v-4.23H57.8v4.23Zm11.949-5.612H59.182v-4.23h7.808Zm0-5.612H59.182v-4.23h7.808Zm-9.19,0H55.042v-4.23H57.8Zm-4.14,0H43.592v-4.23H53.66v4.23Zm-11.45,0H37.955v-4.23H42.21ZM37.955,37.262H42.21v4.23H40.934a2.983,2.983,0,0,1-2.979-2.979Zm5.637,0H53.66v4.23H43.592Zm11.45,0H57.8v4.23H55.042Zm4.14,0h2.339a.691.691,0,1,0,0-1.382H59.182V31.65h7.808v4.231H64.283a.691.691,0,1,0,0,1.382h2.708v1.251a2.983,2.983,0,0,1-2.979,2.979H59.182Zm12.56,5.159a3.367,3.367,0,0,1-3.363,3.363H36.566A3.367,3.367,0,0,1,33.2,42.422V14.9c0-.007,0-.015,0-.022a2.276,2.276,0,0,1,2.274-2.274h1.1V38.513a4.366,4.366,0,0,0,4.361,4.361H64.012a4.366,4.366,0,0,0,4.361-4.361V8.653a4.366,4.366,0,0,0-4.361-4.361H44.429V3.655A2.276,2.276,0,0,1,46.7,1.382H68.38a3.367,3.367,0,0,1,3.363,3.363Z" transform="translate(-31.821)"/><path d="M169.61,79.786a.691.691,0,0,0,.892-.4l.223-.587h1.581l.221.585a.691.691,0,0,0,1.293-.488l-1.564-4.143-.007-.019a.783.783,0,0,0-.727-.487h0a.784.784,0,0,0-.727.488l-.006.016-1.578,4.143A.691.691,0,0,0,169.61,79.786Zm2.175-2.368h-.533l.268-.7Z" transform="translate(-156.513 -67.408)"/><path d="M332.841,79.832a.691.691,0,0,0,.691-.691v-4.2a.691.691,0,1,0-1.382,0v4.2A.691.691,0,0,0,332.841,79.832Z" transform="translate(-304.483 -67.408)"/><path d="M279.166,79.143a.691.691,0,0,0,.691.688h0c.036,0,.886,0,1.226-.009a2.532,2.532,0,0,0,2.341-2.783c0-1.67-.96-2.792-2.388-2.792h-1.19a.691.691,0,0,0-.691.692Zm1.872-3.513c.933,0,1.006,1.079,1.006,1.41,0,.689-.3,1.389-.983,1.4l-.516.005c0-.48,0-2.316,0-2.816Z" transform="translate(-256.372 -67.408)"/><path d="M225.62,79.5a2.1,2.1,0,0,0,1.145.33h0a2.206,2.206,0,0,0,1-.233,1.945,1.945,0,0,0,1.172-1.772V74.939a.691.691,0,0,0-1.382,0v2.888c0,.172-.05.355-.412.538a.826.826,0,0,1-.381.085h0a.729.729,0,0,1-.4-.113c-.314-.2-.34-.354-.34-.507V74.939a.691.691,0,1,0-1.382,0V77.83a1.913,1.913,0,0,0,.978,1.671Z" transform="translate(-206.879 -67.408)"/><path d="M357.021,75.63h.465v3.511a.691.691,0,0,0,1.382,0V75.63h.474a.691.691,0,0,0,0-1.382h-2.321a.691.691,0,1,0,0,1.382Z" transform="translate(-326.436 -67.408)"/></g></g><g transform="translate(321.675 8291.584)"><path d="M40.037,24.831l-.805.423a.442.442,0,0,1-.412,0l-.805-.423a12.832,12.832,0,0,1-7.144-11.252V10.745a.44.44,0,0,1,.39-.439A3.211,3.211,0,0,0,34.19,7.674a.445.445,0,0,1,.439-.387h8.794a.445.445,0,0,1,.439.387,3.211,3.211,0,0,0,2.929,2.632.44.44,0,0,1,.39.439v2.834A12.832,12.832,0,0,1,40.037,24.831Z" transform="translate(-7.023 -7.023)" fill="#e1e6e9"/><path d="M260.469,10.3a3.211,3.211,0,0,1-2.929-2.632.445.445,0,0,0-.439-.387h-.6a3.477,3.477,0,0,0,2.924,3.425.44.44,0,0,1,.39.439v2.834a12.832,12.832,0,0,1-7.144,11.252l-.093.049a.442.442,0,0,0,.33-.032l.805-.423a12.832,12.832,0,0,0,7.144-11.252V10.744A.44.44,0,0,0,260.469,10.3Z" transform="translate(-220.702 -7.022)" fill="#cbcbcb"/><path d="M73.224,56.221a12.667,12.667,0,0,1-4.823-4.38,10.975,10.975,0,0,1-1.737-5.883V44.35a.568.568,0,0,1,.358-.529A4.985,4.985,0,0,0,69.7,41.357a.567.567,0,0,1,.512-.321h6.614a.567.567,0,0,1,.512.321,4.985,4.985,0,0,0,2.681,2.464.568.568,0,0,1,.358.529v1.609a10.974,10.974,0,0,1-1.737,5.883,12.668,12.668,0,0,1-4.822,4.38l-.033.018a.57.57,0,0,1-.53,0Z" transform="translate(-41.52 -39.55)" fill="#4a2bd4"/><path d="M262.5,43.82l-.028-.011-.046-.019-.079-.033-.045-.02-.083-.038-.038-.017-.118-.058-.009,0-.108-.056-.038-.021-.077-.043-.042-.025-.072-.043-.042-.025-.075-.047-.036-.023-.1-.067-.007-.005-.106-.075-.032-.024-.071-.054-.038-.029-.065-.052L261.108,43l-.066-.055-.033-.029-.08-.071-.016-.015-.093-.088-.026-.026-.065-.065-.033-.034-.057-.06-.033-.035-.056-.062-.03-.034-.064-.075-.018-.022-.08-.1-.02-.026-.057-.076-.027-.037-.048-.068-.027-.04-.046-.069-.025-.038-.049-.079-.018-.029q-.033-.054-.064-.109l-.013-.023-.048-.088-.021-.039-.038-.075-.021-.043-.016-.033a.567.567,0,0,0-.512-.321H256V56.3a.569.569,0,0,0,.265-.065l.033-.018a12.668,12.668,0,0,0,4.823-4.38,10.975,10.975,0,0,0,1.737-5.883V44.349A.568.568,0,0,0,262.5,43.82Z" transform="translate(-223.998 -39.549)" fill="#583ae2"/><path d="M262.5,43.82l-.028-.011-.046-.019-.079-.033-.045-.02-.083-.038-.038-.017-.118-.058-.009,0-.108-.056-.038-.021-.077-.043-.042-.025-.072-.043-.042-.025-.074-.047-.036-.023-.1-.067-.007-.005-.106-.075-.032-.024-.071-.054-.038-.029-.065-.052L261.108,43l-.066-.055-.033-.029-.08-.071-.016-.015-.093-.088-.026-.026-.065-.065-.032-.034-.057-.06-.033-.035-.056-.062-.03-.034-.064-.075-.018-.022-.08-.1-.02-.026-.057-.076-.027-.037-.048-.068-.027-.04-.046-.069-.025-.038-.05-.079-.018-.029q-.033-.054-.064-.109l-.013-.023-.048-.088-.021-.039-.038-.075-.021-.043-.016-.033a.567.567,0,0,0-.513-.321h-.915a5.087,5.087,0,0,1,.4.607c.006.011.011.022.016.033l.021.043.038.075.021.039.048.088.013.023q.031.055.064.109l.018.029.05.079.025.038.046.069.027.04.048.068.027.037.057.076.02.026.08.1.018.022.064.075.03.034.056.062.033.035.057.06.033.034.065.065.026.026.093.088.016.015.08.071.033.029.066.055.037.031.065.052.038.029.071.054.032.024.106.075.007.005.1.067.036.023.074.047.042.025.072.043.042.025.077.043.038.021.108.056.009,0,.118.058.038.017.083.038.045.02.079.033.046.019.028.011a.568.568,0,0,1,.358.529v1.609a10.975,10.975,0,0,1-1.737,5.883,13.517,13.517,0,0,1-4.1,4.162V56.3a.569.569,0,0,0,.265-.065l.033-.018a12.668,12.668,0,0,0,4.823-4.38,10.975,10.975,0,0,0,1.737-5.883V44.349A.568.568,0,0,0,262.5,43.82Z" transform="translate(-223.998 -39.549)" fill="#4a2bd4"/><path d="M163.815,194.082h-6.026a.575.575,0,0,1-.575-.575v-3.779a.575.575,0,0,1,.575-.575h6.026a.575.575,0,0,1,.575.575v3.779A.575.575,0,0,1,163.815,194.082Z" transform="translate(-128.79 -182.301)" fill="#636a75"/><path d="M311.737,189.152h-1.042a.575.575,0,0,1,.575.575v3.779a.575.575,0,0,1-.575.575h1.042a.575.575,0,0,0,.575-.575v-3.779A.575.575,0,0,0,311.737,189.152Z" transform="translate(-276.711 -182.301)" fill="#515a66"/><path d="M239.568,233.432v.751a.264.264,0,0,0,.528,0v-.751a.618.618,0,1,0-.528,0Z" transform="translate(-207.819 -223.842)"/><path d="M66.08,49.431h0l.033.018a.833.833,0,0,0,.776,0l.033-.018a12.932,12.932,0,0,0,4.923-4.472,11.238,11.238,0,0,0,1.778-6.024V37.327a.827.827,0,0,0-.525-.774,4.693,4.693,0,0,1-2.539-2.332.834.834,0,0,0-.751-.472H63.194a.834.834,0,0,0-.751.472A4.693,4.693,0,0,1,59.9,36.553a.827.827,0,0,0-.525.774v1.609a11.238,11.238,0,0,0,1.778,6.024A12.932,12.932,0,0,0,66.08,49.431Zm-6.173-10.5V37.327a.3.3,0,0,1,.191-.283,5.219,5.219,0,0,0,2.822-2.6.3.3,0,0,1,.274-.171h6.614a.3.3,0,0,1,.274.171,5.219,5.219,0,0,0,2.822,2.6.3.3,0,0,1,.191.283v1.609a10.711,10.711,0,0,1-1.7,5.741,12.4,12.4,0,0,1-4.722,4.287l-.033.018a.306.306,0,0,1-.285,0l-.033-.017A12.4,12.4,0,0,1,61.6,44.677,10.711,10.711,0,0,1,59.907,38.935Z" transform="translate(-34.498 -32.527)"/><path d="M47.608,245.508a.264.264,0,0,0-.316.2,12.888,12.888,0,0,1-6.717,8.461l-.805.423a.179.179,0,0,1-.166,0l-.805-.423a12.885,12.885,0,0,1-6.72-8.476.264.264,0,1,0-.515.116,13.411,13.411,0,0,0,6.99,8.827l.805.423a.706.706,0,0,0,.657,0l.805-.423a13.415,13.415,0,0,0,6.986-8.812A.264.264,0,0,0,47.608,245.508Z" transform="translate(-7.684 -236.595)"/><path d="M39.795,3.02A2.936,2.936,0,0,1,37.1.614.713.713,0,0,0,36.4,0H27.606a.713.713,0,0,0-.7.614A2.936,2.936,0,0,1,24.21,3.02a.7.7,0,0,0-.626.7V6.556a12.15,12.15,0,0,0,.063,1.238.264.264,0,0,0,.262.237h.027a.264.264,0,0,0,.236-.29,11.623,11.623,0,0,1-.061-1.184V3.722a.177.177,0,0,1,.154-.177A3.461,3.461,0,0,0,27.428.688a.18.18,0,0,1,.177-.16H36.4a.181.181,0,0,1,.177.16,3.461,3.461,0,0,0,3.162,2.857.177.177,0,0,1,.154.177V6.556a11.628,11.628,0,0,1-.059,1.171.264.264,0,0,0,.525.053,12.152,12.152,0,0,0,.062-1.225V3.722A.7.7,0,0,0,39.795,3.02Z" transform="translate(0)"/><path d="M156.792,85.182a.84.84,0,0,0,.839-.839V80.563a.84.84,0,0,0-.839-.839h-.434v-1.26a2.579,2.579,0,0,0-5.158,0v1.26h-.434a.84.84,0,0,0-.839.839v3.779a.84.84,0,0,0,.839.839Zm-5.064-6.718a2.051,2.051,0,0,1,4.1,0v1.26h-4.1Zm-1.273,5.878V80.563a.312.312,0,0,1,.312-.312h6.026a.312.312,0,0,1,.312.312v3.779a.312.312,0,0,1-.312.312h-6.026A.312.312,0,0,1,150.455,84.342Z" transform="translate(-121.767 -73.136)"/></g></g></g></svg>