<svg xmlns="http://www.w3.org/2000/svg" xmlns:xlink="http://www.w3.org/1999/xlink" width="75.609" height="95.685" viewBox="0 0 75.609 95.685"><defs><clipPath id="a"><rect width="28" height="28" fill="#fff" stroke="#707070" stroke-width="1"/></clipPath></defs><g transform="translate(-1289 -3096.314)"><g transform="translate(1289 3096.314)"><g transform="translate(12.39 0)"><path d="M930.075,184.676a1.453,1.453,0,0,0-.138-2.025c-4.429-4.08-11.76-5.935-17.175-3.767a14.453,14.453,0,0,0-5.363,3.774,1.658,1.658,0,0,1-1.163.671,10.431,10.431,0,0,0-9.471,10.815c.046,3.549,0,7.1.018,10.647a1.031,1.031,0,0,1-.631,1.074,5.875,5.875,0,0,0-2.96,6.719,5.979,5.979,0,0,0,5.774,4.436c1.545.022,1.539.023,1.784,1.547a15.633,15.633,0,0,0,7.442,11.191,1.14,1.14,0,0,1,.659,1.172,12.216,12.216,0,0,0,.009,2.517c.137.969-.352,1.163-1.133,1.345-4.383,1.018-8.779,1.992-13.125,3.154a13.205,13.205,0,0,0-9.69,12.509c-.035,1.774.015,3.55-.026,5.323a1.574,1.574,0,0,0,1.338,1.82c1.152-.278,1.467-.647,1.475-1.781.012-1.834-.079-3.675.034-5.5a10.14,10.14,0,0,1,5.21-8.607,3.9,3.9,0,0,1,.539-.356c2.917-1.308,6.1-1.644,9.142-2.478.349-.1.426.1.5.363.249.883.506,1.763.784,2.724h-1.153c-4.126.006-6.541,2.416-6.55,6.543-.005,2.364,0,4.729,0,7.093,0,3.049.006,6.1-.009,9.146,0,.315.221.839-.415.83a3.118,3.118,0,0,0-2.816,1.81,9.611,9.611,0,0,0-.156,2.69c.034.587-.11.818-.752.789-1.21-.054-2.426-.045-3.637,0-.564.02-.74-.122-.731-.714.036-2.364.021-4.729.012-7.093,0-1.138-.347-1.534-1.476-1.769A1.509,1.509,0,0,0,884.889,263c.021,2.988,0,5.977.011,8.965,0,1.2.5,1.685,1.713,1.685q29.866,0,59.732,0c1.214,0,1.707-.488,1.711-1.686.008-2.988-.011-5.977.011-8.964a1.5,1.5,0,0,0-1.333-1.714c-1.127.232-1.472.63-1.476,1.769-.009,2.335-.031,4.671.015,7,.013.677-.192.848-.831.8-.774-.057-1.555-.013-2.332-.013-1.94,0-1.939,0-1.95-1.9a5.788,5.788,0,0,0-.039-.838,2.806,2.806,0,0,0-2.6-2.5c-.714-.029-.777-.327-.774-.908.021-3.424.017-6.849.008-10.273-.006-2.365.069-4.737-.073-7.095a5.7,5.7,0,0,0-5.223-5.313c-.789-.079-1.593-.012-2.434-.012.284-.962.569-1.751.741-2.564.123-.587.384-.652.9-.524,2.11.52,4.242.953,6.339,1.521a10.373,10.373,0,0,1,8.123,8.838,44.378,44.378,0,0,1,.131,6.434c.026,1.23.3,1.593,1.479,1.878a1.558,1.558,0,0,0,1.335-1.818c-.1-2.545.294-5.127-.285-7.633-1.325-5.741-4.966-9.216-10.672-10.56q-6.116-1.441-12.236-2.864c-.567-.131-.812-.342-.772-.98a18.519,18.519,0,0,1,.076-3.253c.265-1.053,1.567-1.258,2.349-1.926a16,16,0,0,0,5.79-10.807c.064-.609.227-.785.815-.745a6.336,6.336,0,0,0,4.481-1.215,5.878,5.878,0,0,0-.632-9.814,1.4,1.4,0,0,1-.811-1.447c.015-3.081.018-6.163-.055-9.243a16.349,16.349,0,0,0-1.685-6.635c-.552-1.166-.932-1.343-2.216-1.033a1.709,1.709,0,0,0-.305,2.271,11.458,11.458,0,0,1,1.078,3.164c.727,3.858.24,7.756.372,11.633.013.4-.245.437-.553.442a7.74,7.74,0,0,1-2.665-.308c-2.085-.708-4.192-1.354-6.286-2.034q-6.018-1.952-12.033-3.915-1.685-.522-3.37-1.044c-1.379-.43-1.673-.339-2.517.821-1.461,2.01-2.936,4.011-4.366,6.044-.453.644-1.049.386-1.6.4-.415.015-.361-.351-.36-.619.01-3.855-.052-7.711.065-11.563a7.231,7.231,0,0,1,5.161-6.405,4.081,4.081,0,0,1,2.071-.43,2.454,2.454,0,0,0,2.014-.958c.314-.384.684-.722,1.035-1.075a10.232,10.232,0,0,1,5.918-3.1,14.864,14.864,0,0,1,11.871,3.516A1.678,1.678,0,0,0,930.075,184.676Zm-30.217,86.142c-.835.01-1.671.027-2.506.029-1.861,0-1.842,0-1.767-1.83.02-.488.175-.648.651-.634,1.206.035,2.413.034,3.619.047.154-.013.309-.038.463-.038q18.1,0,36.2,0c.094,0,.187.007.28,0,.383-.032.586.11.556.527a3.6,3.6,0,0,0,0,.839c.152.916-.227,1.118-1.116,1.115-9.393-.034-18.786-.019-28.179-.023C905.331,270.845,902.595,270.828,899.858,270.818Zm7.823-69.71c.245-.67.689-.319,1.072-.2q10.06,3.209,20.12,6.418c.5.16.74.362.731.953-.039,2.707.028,5.416-.032,8.122a12.675,12.675,0,0,1-6.061,10.838,11.752,11.752,0,0,1-8.15,1.954,3.132,3.132,0,0,1-.369.015,13.063,13.063,0,0,1-11.57-11.976c-.132-3.261-.042-6.532-.057-9.8a1.229,1.229,0,0,1,.234-.781Q905.649,203.888,907.681,201.108Zm26.21,60.558c.172.927-.007,1.867.091,2.792.095.89-.2,1.153-1.116,1.151-10.926-.032-21.852-.021-32.778-.021-.186,0-.374-.012-.56,0-.414.027-.554-.194-.54-.57a28.581,28.581,0,0,1,.077-3.354,2.258,2.258,0,0,1-.06-.366c0-4.391-.031-8.782.01-13.173.021-2.186,1.28-3.337,3.5-3.338q13.913-.007,27.826,0c2.411,0,3.589,1.178,3.607,3.62.016,2.055.012,4.111,0,6.166C933.943,256.938,933.913,259.3,933.891,261.666Zm-12.62-27.445h.043c0,.715.015,1.431,0,2.146a4.832,4.832,0,0,1-9.664-.013c-.031-1.43.012-2.862-.017-4.292-.011-.547.088-.672.669-.51a15.935,15.935,0,0,0,6.463.417c.844-.115,2.068-.8,2.4-.365C921.6,232.17,921.271,233.321,921.271,234.221Zm11.117-23.069v-1.49c0-1.921.02-1.938,1.973-1.675a3.108,3.108,0,0,1,2.656,4,3.667,3.667,0,0,1-4.4,2.216c-.288-.122-.226-.338-.228-.538C932.384,212.828,932.389,211.99,932.388,211.152Zm-31.821-.1c0,.869,0,1.738,0,2.607,0,.236.049.47-.311.568a3.61,3.61,0,0,1-4.31-2.226,3.032,3.032,0,0,1,.823-3.161c.98-.987,2.241-.934,3.49-.869.358.019.308.325.309.567C900.569,209.373,900.567,210.211,900.567,211.049Zm21.153,30.917a8.02,8.02,0,0,0,2.241-4.214c.045-.284.172-.317.444-.292,2.807.256,3.12.778,1.977,3.358-.113.254-.254.5-.369.749a.617.617,0,0,1-.647.406C924.226,241.955,923.085,241.966,921.72,241.966Zm-10.469,0h-1.795c-2.655,0-2.683-.022-3.426-2.623-.341-1.195-.341-1.2.894-1.5.511-.124,1.03-.224,1.534-.372.359-.106.487-.015.552.359A7.937,7.937,0,0,0,911.251,241.966Z" transform="translate(-884.886 -177.969)" fill="#030303"/><path d="M931.158,203.611q6.016,1.958,12.033,3.915c2.095.68,4.2,1.326,6.286,2.034a7.74,7.74,0,0,0,2.665.308c.308,0,.566-.043.553-.442-.132-3.877.355-7.776-.372-11.633a11.457,11.457,0,0,0-1.078-3.164,1.709,1.709,0,0,1,.305-2.271,13.213,13.213,0,0,0-2.137-2.951,1.678,1.678,0,0,1-2.335-.206,14.864,14.864,0,0,0-11.871-3.516,10.232,10.232,0,0,0-5.918,3.1c-.351.353-.721.691-1.035,1.075a2.453,2.453,0,0,1-2.014.958,4.078,4.078,0,0,0-2.071.431,1.66,1.66,0,0,1,.255.369,38.556,38.556,0,0,0,5.085,9.662Q930.33,202.447,931.158,203.611Z" transform="translate(-904.223 -182.699)" fill="#826be9"/><path d="M906.26,359.348c-1.18-.285-1.453-.648-1.479-1.878a44.369,44.369,0,0,0-.131-6.434,10.373,10.373,0,0,0-8.123-8.838c-2.1-.568-4.229-1-6.339-1.521-.516-.127-.776-.063-.9.524-.171.813-.457,1.6-.741,2.564.841,0,1.645-.067,2.434.012a5.7,5.7,0,0,1,5.223,5.313c.142,2.358.068,4.729.073,7.095.008,3.424.013,6.849-.008,10.273,0,.582.06.879.774.908a2.807,2.807,0,0,1,2.6,2.5,5.788,5.788,0,0,1,.039.838c.011,1.9.01,1.9,1.95,1.9.778,0,1.559-.043,2.332.013.639.047.844-.124.831-.8-.046-2.334-.024-4.669-.015-7,0-1.139.349-1.537,1.476-1.769Q906.261,361.191,906.26,359.348Z" transform="translate(-844.415 -279.716)" fill="#ab9df1"/><path d="M1032.145,367.769c1.129.234,1.472.63,1.476,1.769.008,2.364.024,4.729-.012,7.093-.009.592.167.734.731.714,1.211-.043,2.427-.052,3.637,0,.642.029.786-.2.752-.789a9.621,9.621,0,0,1,.157-2.69q-.01-12.838-.021-25.676a10.14,10.14,0,0,0-5.21,8.607c-.113,1.828-.022,3.669-.034,5.5-.007,1.134-.323,1.5-1.475,1.781Q1032.146,365.927,1032.145,367.769Z" transform="translate(-1030.808 -284.452)" fill="#826be9"/><path d="M.073.026C.051,2.39.022,4.755.009,7.118q-.017,3.082,0,6.167c.018,2.442,1.2,3.62,3.607,3.62q13.912.006,27.827,0c2.224,0,3.483-1.153,3.5-3.341.042-4.389.013-8.78.011-13.172A2.365,2.365,0,0,0,34.9.026Q26.169.013,17.438,0,8.758,0,.073.026Zm21.444,2.48a1.421,1.421,0,0,0-2.136.183A1.42,1.42,0,0,1,21.517,2.507Zm-6.986-.389a1.833,1.833,0,0,0-1.05.38A1.835,1.835,0,0,1,14.531,2.118ZM9.643,5.293c1.182-.895,2.386-1.765,3.6-2.624-1.21.859-2.414,1.729-3.6,2.626A1.6,1.6,0,0,0,8.9,6.523,1.6,1.6,0,0,1,9.643,5.293Zm11.94,1.748c.542-.354.7-.608.031-1.01a20.92,20.92,0,0,1-1.733-1.256,1.45,1.45,0,0,1-.544-2.022,1.452,1.452,0,0,0,.544,2.022,20.92,20.92,0,0,0,1.733,1.256c.666.4.511.655-.029,1.01-.674.441-1.323.927-1.958,1.427C20.261,7.968,20.911,7.482,21.583,7.041ZM15.751,2.968a1.253,1.253,0,0,1,.108.5A1.253,1.253,0,0,0,15.751,2.968ZM13.19,6.162,13.431,6l-.241.163Zm.361,4.455c-1.3-.95-2.624-1.883-3.907-2.859L9.6,7.723l.046.035c1.283.977,2.6,1.909,3.907,2.859a1.758,1.758,0,0,0,.924.328c.06,0,.118-.013.175-.022-.057.01-.115.018-.175.022A1.751,1.751,0,0,1,13.552,10.617ZM25.236,7.835Zm-5.608.633a1.273,1.273,0,0,0-.515,1.021A1.268,1.268,0,0,1,19.628,8.468Zm-.406,1.6a1.345,1.345,0,0,0,1.31.875A1.345,1.345,0,0,1,19.222,10.07Zm2.253.51Z" transform="translate(49.078 83.723) rotate(180)" fill="#71cc98" stroke="rgba(0,0,0,0)" stroke-miterlimit="10" stroke-width="1"/><path d="M941.974,267.185a11.752,11.752,0,0,0,8.15-1.954,12.675,12.675,0,0,0,6.061-10.838c.06-2.706-.007-5.415.032-8.122.009-.59-.228-.793-.731-.953q-10.063-3.2-20.12-6.418c-.383-.122-.826-.472-1.072.2q.008,7.826.013,15.652a10.663,10.663,0,0,0,.189,2.307,14.841,14.841,0,0,0,4.679,8.028C940.054,265.879,941.147,266.347,941.974,267.185Z" transform="translate(-911.498 -215.959)" fill="#f3f1ff"/><path d="M957.472,401.488q-8.683.014-17.367.026-8.73,0-17.46-.027a28.581,28.581,0,0,0-.077,3.354c-.014.375.126.6.54.57.186-.012.374,0,.56,0,10.926,0,21.852-.012,32.778.021.916,0,1.211-.261,1.116-1.151C957.465,403.355,957.644,402.415,957.472,401.488Z" transform="translate(-908.467 -317.79)" fill="#46928d"/><path d="M994.009,213.167q-.826-1.165-1.651-2.33a38.552,38.552,0,0,1-5.085-9.662,1.659,1.659,0,0,0-.255-.369,7.23,7.23,0,0,0-5.161,6.4c-.117,3.851-.055,7.708-.065,11.563,0,.269-.055.634.36.619.553-.019,1.15.239,1.6-.4,1.43-2.033,2.9-4.034,4.366-6.044.844-1.16,1.138-1.251,2.517-.821Q992.323,212.649,994.009,213.167Z" transform="translate(-967.075 -192.255)" fill="#6e55df"/><path d="M1002.918,343.416q.011,12.838.021,25.676a3.118,3.118,0,0,1,2.816-1.81c.636.009.414-.515.415-.83.016-3.049.009-6.1.009-9.146,0-2.365,0-4.729,0-7.093.009-4.128,2.424-6.538,6.55-6.543h1.153c-.277-.961-.535-1.841-.784-2.724-.073-.261-.151-.459-.5-.363-3.045.835-6.226,1.171-9.142,2.479A3.891,3.891,0,0,0,1002.918,343.416Z" transform="translate(-994.861 -279.676)" fill="#ab9df1"/><path d="M984.341,267.851c-.826-.838-1.919-1.307-2.8-2.1a14.841,14.841,0,0,1-4.679-8.028,10.667,10.667,0,0,1-.189-2.307q0-7.826-.013-15.652-2.039,2.775-4.081,5.548a1.229,1.229,0,0,0-.234.781c.015,3.266-.075,6.536.057,9.8a13.063,13.063,0,0,0,11.57,11.976A3.129,3.129,0,0,0,984.341,267.851Z" transform="translate(-953.865 -216.624)" fill="#d5cef8"/><path d="M913.488,421.864c2.737.01,5.473.028,8.209.029,9.393,0,18.786-.012,28.179.023.889,0,1.269-.2,1.116-1.115a3.6,3.6,0,0,1,0-.839c.03-.417-.173-.559-.556-.527-.093.007-.187,0-.28,0q-18.1,0-36.2,0c-.154,0-.309.025-.463.038Q913.486,420.67,913.488,421.864Z" transform="translate(-898.515 -329.015)" fill="#5db39e"/><path d="M965.872,323.581c0-.9.328-2.051-.106-2.618-.334-.436-1.558.25-2.4.365a15.936,15.936,0,0,1-6.463-.417c-.581-.161-.68-.037-.669.51.028,1.43-.015,2.862.017,4.292a4.832,4.832,0,0,0,9.663.013c.018-.715,0-1.43,0-2.146Z" transform="translate(-929.486 -267.329)" fill="#d5cef8"/><path d="M914.138,261.1c0,.838,0,1.677,0,2.515,0,.2-.06.415.228.538a3.667,3.667,0,0,0,4.4-2.216,3.108,3.108,0,0,0-2.656-4c-1.953-.263-1.973-.246-1.973,1.675Z" transform="translate(-866.636 -227.915)" fill="#d5cef8"/><path d="M1016.6,261.113c0-.838,0-1.676,0-2.514,0-.242.049-.549-.308-.567-1.248-.065-2.51-.119-3.49.869a3.032,3.032,0,0,0-.823,3.161,3.61,3.61,0,0,0,4.31,2.227c.359-.1.309-.331.311-.568C1016.608,262.851,1016.6,261.982,1016.6,261.113Z" transform="translate(-1000.923 -228.033)" fill="#d5cef8"/><path d="M941.242,341.339c1.365,0,2.506-.011,3.646.007a.616.616,0,0,0,.647-.406c.114-.253.256-.494.368-.749,1.144-2.58.831-3.1-1.976-3.358-.272-.025-.4.008-.444.292A8.018,8.018,0,0,1,941.242,341.339Z" transform="translate(-904.408 -277.342)" fill="#ddf5ea"/><path d="M988.723,341.309a7.937,7.937,0,0,1-2.241-4.132c-.065-.374-.193-.465-.552-.359-.5.148-1.023.248-1.534.372-1.236.3-1.236.3-.894,1.5.743,2.6.772,2.623,3.426,2.623Z" transform="translate(-962.357 -277.311)" fill="#ddf5ea"/><path d="M1018.029,421.859q0-1.194,0-2.388c-1.206-.013-2.413-.012-3.62-.047-.476-.014-.631.146-.651.634-.075,1.833-.094,1.835,1.767,1.83C1016.358,421.886,1017.194,421.87,1018.029,421.859Z" transform="translate(-1003.057 -329.01)" fill="#46928d"/></g><g transform="translate(0 44.685)" clip-path="url(#a)"><g transform="translate(1.284 -0.011)"><path d="M-303.049,49.831a11.851,11.851,0,0,0,.164-1.3.491.491,0,0,1-.309-.617,2.061,2.061,0,0,0,.03-.272c.106-1.849.031-3.7.054-5.55a.311.311,0,0,0-.32-.355,5.142,5.142,0,0,1-1.143-.256,5.015,5.015,0,0,1-3.525-3.946c-.053-.276-.195-.344-.454-.343q-6.017.009-12.034,0c-.081,0-.163.01-.244.016a4.886,4.886,0,0,1-.384,1.6c-.061.167-.185.317-.152.512.067-.118.137-.234.2-.354a1.232,1.232,0,0,1,1.161-.723q4.976,0,9.953,0a1.2,1.2,0,0,1,1.144.7,7.131,7.131,0,0,0,3.8,3.511,1.226,1.226,0,0,1,.828,1.2c0,1.312.048,2.624-.075,3.934a16.876,16.876,0,0,1-2.739,7.767,19.512,19.512,0,0,1-7.174,6.5,1.461,1.461,0,0,1-1.522.009,21.314,21.314,0,0,1-3.5-2.367,18.127,18.127,0,0,1-5.674-8.264,20.55,20.55,0,0,1-.68-2.863c-.1.087-.068.207-.055.307.063.484.127.969.215,1.449a18.29,18.29,0,0,0,2.644,6.668,18.692,18.692,0,0,0,1.748,2.326A12.478,12.478,0,0,0-319.6,60.64c.16.128.368.246.4.49h0c.132-.021.223.011.224.166a.522.522,0,0,0,.057.057,26.18,26.18,0,0,0,3.706,2.191.379.379,0,0,0,.387-.012c.247-.135.5-.262.748-.393,5.363-2.8,9.039-6.976,10.521-12.934A.425.425,0,0,1-303.049,49.831Z" transform="translate(327.753 -36.392)" fill="#dfe2e5"/><path d="M-324,30.719c.081-.005.163-.016.244-.016q6.017,0,12.034,0c.259,0,.4.067.454.343a5.015,5.015,0,0,0,3.525,3.946,5.141,5.141,0,0,0,1.143.256.311.311,0,0,1,.32.355c-.023,1.85.052,3.7-.054,5.55a2.066,2.066,0,0,1-.03.272.491.491,0,0,0,.309.617c.368-.052.462-.155.489-.527.146-2,.056-4.008.07-6.013a1.01,1.01,0,0,0-.96-1.041,4.951,4.951,0,0,1-2.345-.892,4.049,4.049,0,0,1-1.694-2.7,1.077,1.077,0,0,0-1.133-.964q-6.576,0-13.153,0a1.049,1.049,0,0,0-1.116.916,4.393,4.393,0,0,1-3.625,3.572c-.188.036-.378.056-.565.1a.98.98,0,0,0-.815.936c0,2.05-.081,4.1.067,6.149a.427.427,0,0,0,.427.442c.321-.1.4-.228.371-.563-.015-.145-.03-.29-.038-.435-.1-1.739-.029-3.481-.048-5.221-.005-.493.012-.507.505-.579a5.484,5.484,0,0,0,2.546-1.049,4.764,4.764,0,0,0,1.931-3.094c.047-.278.173-.4.457-.372C-324.453,30.72-324.224,30.714-324,30.719Z" transform="translate(330.92 -29.899)" fill="#040404"/><path d="M-302.591,152.474a.425.425,0,0,0-.508.373c-1.482,5.957-5.159,10.131-10.521,12.934-.25.131-.5.258-.748.393a.379.379,0,0,1-.387.012,26.18,26.18,0,0,1-3.706-2.191.523.523,0,0,1-.057-.057.424.424,0,0,1-.224-.166h0a12.771,12.771,0,0,1-1.686-1.378,18.659,18.659,0,0,1-5.6-9.452c-.088-.367-.181-.442-.533-.452-.29.132-.317.355-.248.637A19.781,19.781,0,0,0-319.4,164.3a26.864,26.864,0,0,0,4.311,2.611,1.059,1.059,0,0,0,1,.013,23.768,23.768,0,0,0,6.555-4.566,19.484,19.484,0,0,0,5.2-9.257C-302.254,152.751-302.3,152.637-302.591,152.474Z" transform="translate(327.296 -139.035)" fill="#040404"/><path d="M-176.63,49.832c.353.011.446.086.533.452a18.659,18.659,0,0,0,5.6,9.452,12.772,12.772,0,0,0,1.686,1.378c-.034-.244-.242-.362-.4-.49a12.477,12.477,0,0,1-1.487-1.518,18.693,18.693,0,0,1-1.748-2.326,18.289,18.289,0,0,1-2.644-6.668c-.087-.48-.151-.965-.215-1.449-.013-.1-.048-.22.055-.307l-.009-.109c-.12-.032-.1-.076-.01-.125l-.047-.368c-.007,0-.019-.011-.019-.014a.23.23,0,0,1,.016-.037c0-.063,0-.126,0-.189a31.4,31.4,0,0,1-.029-4.314c0-.218-.015-.435-.013-.653a.6.6,0,0,1,.5-.589c.168-.031.338-.056.505-.091a4.485,4.485,0,0,0,2.356-1.322c.107-.112.185-.281.381-.277l.035-.048c-.008-.1.01-.18.138-.171l.027-.046c0-.086-.013-.178.12-.169l0,0c-.011-.089-.019-.175.113-.17l0,0c-.006-.134-.006-.264.175-.281.041-.015.045-.05.046-.085-.033-.2.091-.345.152-.512a4.886,4.886,0,0,0,.384-1.6c-.227-.005-.456,0-.681-.019-.284-.026-.41.094-.457.372a4.764,4.764,0,0,1-1.931,3.094,5.484,5.484,0,0,1-2.546,1.049c-.493.072-.511.087-.505.579.02,1.74-.051,3.481.048,5.221.008.145.023.29.038.435.034.334-.05.462-.371.563Z" transform="translate(177.37 -36.377)" fill="#c8c8c9"/><path d="M-313.01,51.759a31.4,31.4,0,0,0,.029,4.314c0,.063,0,.126,0,.189a.057.057,0,0,1,0,.051l.047.368.01.125.009.109a20.546,20.546,0,0,0,.68,2.863,18.127,18.127,0,0,0,5.674,8.264,21.316,21.316,0,0,0,3.5,2.367,1.461,1.461,0,0,0,1.522-.009,19.512,19.512,0,0,0,7.174-6.5,16.876,16.876,0,0,0,2.739-7.767c.123-1.31.075-2.622.075-3.934a1.226,1.226,0,0,0-.828-1.2,7.131,7.131,0,0,1-3.8-3.511,1.2,1.2,0,0,0-1.144-.7q-4.976,0-9.953,0a1.232,1.232,0,0,0-1.161.723c-.062.12-.133.236-.2.354,0,.036-.006.071-.046.085a.777.777,0,0,1-.175.281l0,0a.312.312,0,0,1-.113.17l0,0-.12.169-.027.046-.138.171-.035.048a6.725,6.725,0,0,1-2.729,2.072A1.779,1.779,0,0,0-313.01,51.759Zm6.776-4.165c1.312-.033,2.624-.026,3.936,0q2.488-.006,4.977-.011a.5.5,0,0,1,.464.325,7.81,7.81,0,0,0,4.147,3.818.543.543,0,0,1,.371.569c-.01.82,0,1.641-.006,2.462a15.645,15.645,0,0,1-1.5,6.58,18.232,18.232,0,0,1-8.175,8.417.386.386,0,0,1-.284.072.354.354,0,0,1-.259-.059,17.355,17.355,0,0,1-2.542-1.611,1.457,1.457,0,0,1-.14-.083,17.9,17.9,0,0,1-4.992-5.692,15.989,15.989,0,0,1-1.979-6.619c-.086-1.166-.026-2.333-.048-3.5a.509.509,0,0,1,.351-.527,7.942,7.942,0,0,0,1.031-.5,7.7,7.7,0,0,0,3.111-3.285.547.547,0,0,1,.5-.367C-306.926,47.575-306.58,47.588-306.234,47.594Z" transform="translate(315.023 -44.936)" fill="#030303"/><path d="M-178.885,255.52a.424.424,0,0,0,.224.166C-178.662,255.531-178.753,255.5-178.885,255.52Z" transform="translate(187.438 -230.784)" fill="#c8c8c9"/><path d="M-151.181,68.323a1.779,1.779,0,0,1,1-.861,6.725,6.725,0,0,0,2.729-2.072c-.2,0-.274.166-.381.277a4.485,4.485,0,0,1-2.356,1.322c-.167.036-.337.06-.505.091a.6.6,0,0,0-.5.589C-151.2,67.888-151.185,68.106-151.181,68.323Z" transform="translate(153.193 -61.5)" fill="#dfe2e5"/><path d="M-156.65,57.683a.777.777,0,0,0,.175-.281C-156.656,57.419-156.656,57.549-156.65,57.683Z" transform="translate(162.815 -54.387)" fill="#dfe2e5"/><path d="M-155.09,60.086a.312.312,0,0,0,.113-.17C-155.108,59.911-155.1,60-155.09,60.086Z" transform="translate(161.147 -56.626)" fill="#dfe2e5"/><path d="M-154.11,61.591l.12-.169C-154.123,61.413-154.112,61.505-154.11,61.591Z" transform="translate(160.052 -57.966)" fill="#dfe2e5"/><path d="M-152.774,63.556l.138-.171C-152.765,63.375-152.782,63.455-152.774,63.556Z" transform="translate(158.552 -59.713)" fill="#dfe2e5"/><path d="M-117.919,137.176l-.01-.125C-118.024,137.1-118.04,137.144-117.919,137.176Z" transform="translate(120.023 -125.306)" fill="#dfe2e5"/><path d="M-117.511,133.279a.057.057,0,0,0,0-.051.231.231,0,0,0-.016.037S-117.517,133.274-117.511,133.279Z" transform="translate(119.558 -121.902)" fill="#dfe2e5"/><path d="M-305.741,76.257a.386.386,0,0,0,.284-.072,18.232,18.232,0,0,0,8.175-8.417,15.646,15.646,0,0,0,1.5-6.58c.007-.82,0-1.641.006-2.462a.543.543,0,0,0-.371-.569A7.81,7.81,0,0,1-300.3,54.34a.5.5,0,0,0-.464-.325q-2.488,0-4.977.011,0,.745,0,1.491c.027,0,.054.009.081.01a3.885,3.885,0,0,1,3.714,3.094,10.076,10.076,0,0,1,.084,2.044c.011.651,0,.651.638.66h.055a1.243,1.243,0,0,1,1.225,1.223q.013,2.9,0,5.8a1.234,1.234,0,0,1-1.07,1.2,7.318,7.318,0,0,1-1.038.023c-1.23.008-2.46.011-3.69.016Q-305.742,72.92-305.741,76.257Z" transform="translate(318.464 -51.372)" fill="#71cc98"/><path d="M-206.083,76.192q0-3.337,0-6.675c-.1,0-.2-.013-.3-.013-1.385,0-2.77,0-4.156,0a1.269,1.269,0,0,1-1.379-1.275q-.022-2.843,0-5.686a1.255,1.255,0,0,1,1.309-1.282,3.451,3.451,0,0,1,.383,0c.181.018.235-.052.231-.231-.011-.528-.005-1.057,0-1.586a3.823,3.823,0,0,1,.343-1.671,3.871,3.871,0,0,1,3.573-2.322q0-.745,0-1.491c-1.312-.022-2.624-.03-3.936,0-.1.175-.194.349-.284.527a7.669,7.669,0,0,1-1.326,1.888,7.717,7.717,0,0,1-2.7,1.8.8.8,0,0,0-.523.578.779.779,0,0,0-.04.185,28.78,28.78,0,0,0,.27,5.433,16.97,16.97,0,0,0,2.376,5.962,21.164,21.164,0,0,0,3.162,3.875c.087.083.22.147.2.305a17.354,17.354,0,0,0,2.542,1.611A.354.354,0,0,0-206.083,76.192Z" transform="translate(218.806 -51.306)" fill="#5db39e"/><path d="M-182.188,74.574c.023-.159-.11-.222-.2-.305a21.164,21.164,0,0,1-3.162-3.875,16.969,16.969,0,0,1-2.376-5.962,28.778,28.778,0,0,1-.27-5.433.778.778,0,0,1,.04-.185.8.8,0,0,1,.523-.578,7.717,7.717,0,0,0,2.7-1.8,7.669,7.669,0,0,0,1.326-1.888c.091-.178.189-.351.284-.527-.346-.006-.691-.019-1.037-.016a.547.547,0,0,0-.5.367,7.7,7.7,0,0,1-3.111,3.285,7.944,7.944,0,0,1-1.031.5.509.509,0,0,0-.351.527c.022,1.166-.038,2.333.048,3.5a15.989,15.989,0,0,0,1.979,6.619,17.9,17.9,0,0,0,4.992,5.692A1.453,1.453,0,0,0-182.188,74.574Z" transform="translate(192.109 -51.359)" fill="#46928d"/><path d="M-261.967,67.713a3.871,3.871,0,0,0-3.573,2.322,3.823,3.823,0,0,0-.343,1.671c0,.529-.007,1.057,0,1.586,0,.179-.05.249-.231.231a3.451,3.451,0,0,0-.383,0A1.255,1.255,0,0,0-267.8,74.8q-.019,2.843,0,5.686a1.269,1.269,0,0,0,1.379,1.275c1.385,0,2.77,0,4.156,0,.1,0,.2.008.3.013,1.23,0,2.46-.008,3.69-.016a7.318,7.318,0,0,0,1.037-.023,1.234,1.234,0,0,0,1.07-1.2q.013-2.9,0-5.8a1.243,1.243,0,0,0-1.224-1.223h-.055c-.636-.009-.627-.009-.638-.66a10.076,10.076,0,0,0-.084-2.044,3.885,3.885,0,0,0-3.714-3.094C-261.913,67.722-261.94,67.716-261.967,67.713Zm3.061,5.759c0,.038-.018.047-.051.04l-3.01,0q-1.475.005-2.95.012c-.107,0-.172-.02-.168-.148a20.78,20.78,0,0,1,.054-2.291,3.057,3.057,0,0,1,3.061-2.545,3.036,3.036,0,0,1,3.006,2.432A13.136,13.136,0,0,1-258.906,73.472Zm-6.838.867c.109-.011.217-.031.326-.032q3.91,0,7.819,0c.483,0,.624.156.625.649q0,2.679,0,5.358c0,.511-.137.649-.646.649h-7.847c-.091,0-.182-.007-.273-.01-.255,0-.51.016-.765.009a.471.471,0,0,1-.494-.5q-.005-2.83,0-5.66a.428.428,0,0,1,.462-.463C-266.273,74.327-266.009,74.337-265.744,74.339Z" transform="translate(274.69 -63.568)" fill="#020303"/><path d="M-260.313,134.506c.091,0,.182.01.273.01h7.847c.509,0,.646-.138.646-.649q0-2.679,0-5.358c0-.493-.142-.648-.625-.649q-3.91,0-7.819,0c-.109,0-.217.021-.326.032a3.729,3.729,0,0,0-.11.942q.01,2.228,0,4.456A4.567,4.567,0,0,0-260.313,134.506Zm4.156-2.286c0,.146,0,.291,0,.437,0,.287-.149.471-.375.483a.432.432,0,0,1-.431-.465c-.009-.227-.013-.456,0-.682a.632.632,0,0,0-.241-.582.912.912,0,0,1-.01-1.317.936.936,0,0,1,1.344.035.905.905,0,0,1-.065,1.314.533.533,0,0,0-.224.531C-256.151,132.055-256.157,132.138-256.158,132.219Z" transform="translate(269.263 -117.121)" fill="#636973"/><path d="M-211.76,75.221a3.057,3.057,0,0,0-3.061,2.545,20.769,20.769,0,0,0-.054,2.291c0,.128.06.149.167.148q1.475-.008,2.95-.012Q-211.758,77.707-211.76,75.221Z" transform="translate(224.48 -70.252)" fill="#5db29d"/><path d="M-243.093,75.225q0,2.486,0,4.972l3.01,0,.051-.04a13.134,13.134,0,0,0-.057-2.5A3.036,3.036,0,0,0-243.093,75.225Z" transform="translate(255.813 -70.256)" fill="#71cc98"/><path d="M-179.193,134.718a4.567,4.567,0,0,1-.114-1.215q.009-2.228,0-4.456a3.728,3.728,0,0,1,.111-.942c-.264,0-.529-.012-.793,0a.428.428,0,0,0-.462.463q-.007,2.83,0,5.66a.471.471,0,0,0,.494.5C-179.7,134.734-179.448,134.722-179.193,134.718Z" transform="translate(188.142 -117.333)" fill="#505762"/><path d="M-242.752,120.249l-.051.04C-242.77,120.3-242.75,120.287-242.752,120.249Z" transform="translate(258.536 -110.345)" fill="#5db29d"/><path d="M-221.947,148.2c0-.082.007-.164,0-.246a.533.533,0,0,1,.224-.531.905.905,0,0,0,.065-1.314.936.936,0,0,0-1.344-.035.912.912,0,0,0,.01,1.317.632.632,0,0,1,.241.582c-.014.227-.01.455,0,.682a.432.432,0,0,0,.431.465c.226-.012.37-.2.375-.483C-221.945,148.494-221.947,148.348-221.947,148.2Z" transform="translate(235.052 -133.104)" fill="#020202"/></g></g></g></g></svg>