<svg xmlns="http://www.w3.org/2000/svg" width="1242" height="1024" viewBox="0 0 1242 1024"><g transform="translate(-180.333 -486)"><rect width="400" height="80" rx="40" transform="translate(600.333 486)" fill="#583ae2"/><text transform="translate(800.333 521)" fill="#fff" font-size="20" font-family="Roboto-Black, Roboto" font-weight="800"><tspan x="-125.947" y="0">Auditorías a las estrategias </tspan><tspan x="-81.421" y="27">de ciberseguridad</tspan></text><path d="M-12456.248-9488.5h-80.666v371.367" transform="translate(12846.247 10157.065)" fill="none" stroke="#583ae2" stroke-width="3"/><path d="M-12410.84-9488.5h-126.075v100.466" transform="translate(13025.358 10014.6)" fill="none" stroke="#583ae2" stroke-width="3"/><path d="M-12536.914-9488.5h95.418v100.466" transform="translate(13508.333 10014.6)" fill="none" stroke="#583ae2" stroke-width="3"/><path d="M-12536.913-9488.5h62.581v104.935" transform="translate(13718.332 10156.565)" fill="none" stroke="#583ae2" stroke-width="3"/><rect width="356" height="123.435" rx="10" transform="translate(1066.333 773)" fill="#d5cef8"/><rect width="356" height="123.435" rx="10" transform="translate(1066.333 939.125)" fill="#d5cef8"/><rect width="356" height="147.435" rx="10" transform="translate(1066.333 1105)" fill="#d5cef8"/><text transform="translate(1091.333 788)" fill="#12263f" font-size="16" font-family="Roboto-Regular, Roboto"><tspan x="0" y="17">Se comienza por identificar los alcances </tspan><tspan x="0" y="41">reales de las pruebas y de los </tspan><tspan x="0" y="65">procedimientos a ejecutar con base a las </tspan><tspan x="0" y="89">necesidades identificadas.</tspan></text><text transform="translate(1091.333 954.125)" fill="#12263f" font-size="16" font-family="Roboto-Regular, Roboto"><tspan x="0" y="17">Luego se reconoce el objetivo con toda la </tspan><tspan x="0" y="41">información, la cual se emplea en la </tspan><tspan x="0" y="65">evaluación de vulnerabilidades y la acción </tspan><tspan x="0" y="89">de explotación.</tspan></text><text transform="translate(1091.333 1120)" fill="#12263f" font-size="16" font-family="Roboto-Regular, Roboto"><tspan x="0" y="17">Se procede, entonces, con el modelado de </tspan><tspan x="0" y="41">las amenazas y la evaluación de las </tspan><tspan x="0" y="65">vulnerabilidades, pasando por la </tspan><tspan x="0" y="89">explotación, postexplotación y, finalmente, </tspan><tspan x="0" y="113">reporte.</tspan></text><path d="M-12054.333-9441.934h142.056v134.342" transform="translate(12634.333 10110)" fill="none" stroke="#583ae2" stroke-width="3"/><rect width="263" height="198.435" rx="10" transform="translate(590.556 802.408)" fill="#d5cef8"/><g transform="translate(-95 10)"><text transform="translate(735.556 817.407)" fill="#12263f" font-size="16" font-family="Roboto-Regular, Roboto"><tspan x="0" y="17">Criterio de auditoría.</tspan><tspan x="0" y="43">Evidencia objetiva.</tspan><tspan x="0" y="69">Plan de auditoría.</tspan><tspan x="0" y="95">Alcance de la auditoría.</tspan><tspan x="0" y="121">Evidencia de auditoría.</tspan><tspan x="0" y="147">Hallazgos de la auditoría</tspan></text><path d="M11.352,5.957A5.395,5.395,0,1,1,5.957.563,5.395,5.395,0,0,1,11.352,5.957ZM5.333,8.813l4-4a.348.348,0,0,0,0-.492l-.492-.492a.348.348,0,0,0-.492,0L5.087,7.091,3.563,5.567a.348.348,0,0,0-.492,0l-.492.492a.348.348,0,0,0,0,.492L4.841,8.813a.348.348,0,0,0,.492,0Z" transform="translate(719.771 822.648)" fill="#583ae2"/><path d="M11.352,5.957A5.395,5.395,0,1,1,5.957.563,5.395,5.395,0,0,1,11.352,5.957ZM5.333,8.813l4-4a.348.348,0,0,0,0-.492l-.492-.492a.348.348,0,0,0-.492,0L5.087,7.091,3.563,5.567a.348.348,0,0,0-.492,0l-.492.492a.348.348,0,0,0,0,.492L4.841,8.813a.348.348,0,0,0,.492,0Z" transform="translate(719.771 873.45)" fill="#583ae2"/><path d="M11.352,5.957A5.395,5.395,0,1,1,5.957.563,5.395,5.395,0,0,1,11.352,5.957ZM5.333,8.813l4-4a.348.348,0,0,0,0-.492l-.492-.492a.348.348,0,0,0-.492,0L5.087,7.091,3.563,5.567a.348.348,0,0,0-.492,0l-.492.492a.348.348,0,0,0,0,.492L4.841,8.813a.348.348,0,0,0,.492,0Z" transform="translate(719.771 927.45)" fill="#583ae2"/><path d="M11.352,5.957A5.395,5.395,0,1,1,5.957.563,5.395,5.395,0,0,1,11.352,5.957ZM5.333,8.813l4-4a.348.348,0,0,0,0-.492l-.492-.492a.348.348,0,0,0-.492,0L5.087,7.091,3.563,5.567a.348.348,0,0,0-.492,0l-.492.492a.348.348,0,0,0,0,.492L4.841,8.813a.348.348,0,0,0,.492,0Z" transform="translate(719.771 849.648)" fill="#583ae2"/><path d="M11.352,5.957A5.395,5.395,0,1,1,5.957.563,5.395,5.395,0,0,1,11.352,5.957ZM5.333,8.813l4-4a.348.348,0,0,0,0-.492l-.492-.492a.348.348,0,0,0-.492,0L5.087,7.091,3.563,5.567a.348.348,0,0,0-.492,0l-.492.492a.348.348,0,0,0,0,.492L4.841,8.813a.348.348,0,0,0,.492,0Z" transform="translate(719.771 900.45)" fill="#583ae2"/><path d="M11.352,5.957A5.395,5.395,0,1,1,5.957.563,5.395,5.395,0,0,1,11.352,5.957ZM5.333,8.813l4-4a.348.348,0,0,0,0-.492l-.492-.492a.348.348,0,0,0-.492,0L5.087,7.091,3.563,5.567a.348.348,0,0,0-.492,0l-.492.492a.348.348,0,0,0,0,.492L4.841,8.813a.348.348,0,0,0,.492,0Z" transform="translate(719.771 953.45)" fill="#583ae2"/></g><rect width="265" height="83" rx="20" transform="translate(355.444 626.565)" fill="#b5e4eb"/><text transform="translate(488.444 675.565)" fill="#12263f" font-size="18" font-family="Roboto-Bold, Roboto" font-weight="700"><tspan x="-93.713" y="0">Auditorías cibernéticas</tspan></text><rect width="270.162" height="83" rx="20" transform="translate(931.257 627)" fill="#b5e4eb"/><text transform="translate(1066.838 663)" fill="#12263f" font-size="18" font-family="Roboto-Bold, Roboto" font-weight="700"><tspan x="-107.213" y="0">Pruebas de vulnerabilidad </tspan><tspan x="-47.061" y="24">y seguridad</tspan></text><rect width="257" height="498" rx="5" transform="translate(180.333 1012)" fill="#9986ed"/><path d="M-12284.332-9262.435h102.666" transform="translate(12691.665 10360)" fill="none" stroke="#583ae1" stroke-width="3"/><path d="M-12284.332-9262.435h102.666" transform="translate(12691.665 10522)" fill="none" stroke="#583ae1" stroke-width="3"/><path d="M-12284.332-9262.435h102.666" transform="translate(12691.665 10685.935)" fill="none" stroke="#583ae1" stroke-width="3"/><rect width="219.715" height="83" rx="10" transform="translate(199.333 1056)" fill="#d5cef8"/><text transform="translate(309.333 1092)" fill="#12263f" font-size="18" font-family="Roboto-Bold, Roboto" font-weight="700"><tspan x="-79.431" y="0">Periodicidad de las </tspan><tspan x="-40.518" y="24">auditorías</tspan></text><rect width="220" height="83" rx="10" transform="translate(199.333 1218)" fill="#d5cef8"/><rect width="220" height="83" rx="10" transform="translate(199.333 1382)" fill="#d5cef8"/><text transform="translate(309.333 1252)" fill="#12263f" font-size="18" font-family="Roboto-Bold, Roboto" font-weight="700"><tspan x="-102.445" y="0">Importancia del ejercicio </tspan><tspan x="-26.407" y="30">cíclico</tspan></text><text transform="translate(309.333 1415)" fill="#12263f" font-size="18" font-family="Roboto-Bold, Roboto" font-weight="700"><tspan x="-98.279" y="0">Promoción de la mejora </tspan><tspan x="-75.902" y="30">y buenas prácticas</tspan></text><rect width="404" height="141.435" rx="10" transform="translate(496.333 1351.934)" fill="#d5cef8"/><text transform="translate(518.333 1375.934)" fill="#12263f" font-size="16" font-family="Roboto-Regular, Roboto"><tspan x="0" y="17">La auditoría de ciberseguridad promueve la mejora </tspan><tspan x="0" y="41">de los sistemas, en cuanto a buenas prácticas, </tspan><tspan x="0" y="65">sobre todo en estos tiempos de constantes </tspan><tspan x="0" y="89">cambios y renovaciones tecnológicas.</tspan></text><rect width="404" height="147.435" rx="10" transform="translate(496.333 1185.934)" fill="#d5cef8"/><text transform="translate(518.333 1200.934)" fill="#12263f" font-size="16" font-family="Roboto-Regular, Roboto"><tspan x="0" y="17">Realizar auditorías periódicas no es obligatorio en </tspan><tspan x="0" y="41">todas las organizaciones, sobre todo de perfil </tspan><tspan x="0" y="65">privado, pero sí recomendable para prevenir o ver </tspan><tspan x="0" y="89">a tiempo posibles problemas en los sistemas de </tspan><tspan x="0" y="113">seguridad.</tspan></text><rect width="317" height="123.435" rx="10" transform="translate(496.333 1035.934)" fill="#d5cef8"/><text transform="translate(520.333 1050.934)" fill="#12263f" font-size="16" font-family="Roboto-Regular, Roboto"><tspan x="0" y="17">Comprobación cíclica o periódica, ya </tspan><tspan x="0" y="41">que de esta manera aporta nueva </tspan><tspan x="0" y="65">información por cada espacio breve </tspan><tspan x="0" y="89">de tiempo.</tspan></text><path d="M-11515.333-9213.565v43.007" transform="translate(12759.333 10110)" fill="none" stroke="#583ae2" stroke-width="3"/><path d="M-11515.333-9213.565v43.007" transform="translate(12759.333 10276.125)" fill="none" stroke="#583ae2" stroke-width="3"/></g></svg>